# Blender v3.1.2 OBJ File: 'based.blend'
# www.blender.org
mtllib based.mtl
o Cube
frames: 1
v 0.060710 0.121362 -0.244094
v 0.078879 0.000233 -0.244094
v 0.078879 0.121362 0.244094
v 0.078879 0.000233 0.244094
v -0.060710 0.121362 -0.244094
v -0.078879 0.000233 -0.244094
v -0.078879 0.121362 0.244094
v -0.078879 0.000233 0.244094
v -0.078879 0.000233 -0.066008
v 0.060710 0.147926 -0.066008
v -0.060713 0.147807 -0.065702
v 0.078879 0.000233 -0.066008
v -0.078879 0.000233 0.244094
v -0.078879 0.121362 0.244094
v 0.078879 0.121362 0.244094
v 0.078879 0.000233 0.244094
v -0.064206 -0.001432 0.293312
v -0.064206 0.097164 0.293312
v 0.064206 0.097164 0.293312
v 0.064206 -0.001432 0.293312
v -0.064206 -0.001432 0.293312
v -0.064206 0.097164 0.293312
v 0.064206 0.097164 0.293312
v 0.064206 -0.001432 0.293312
v -0.051047 0.008672 0.285845
v -0.051047 0.087060 0.285845
v 0.051047 0.087060 0.285845
v 0.051047 0.008672 0.285845
v 0.066927 0.079918 -0.244094
v -0.078879 0.079918 0.244094
v 0.078879 0.079918 0.244094
v -0.066927 0.079918 -0.244094
v 0.066927 0.097393 -0.066008
v -0.066929 0.097315 -0.065807
v -0.078879 0.079918 0.244094
v 0.078879 0.079918 0.244094
v -0.064206 0.063429 0.293312
v 0.064206 0.063429 0.293312
v -0.064206 0.063429 0.293312
v 0.064206 0.063429 0.293312
v -0.051047 0.060240 0.285845
v 0.051047 0.060240 0.285845
v -0.151559 0.147807 -0.065702
v -0.151556 0.121362 -0.244094
v -0.157773 0.079918 -0.244094
v -0.157775 0.097315 -0.065807
v 0.151556 0.121362 -0.244094
v 0.151556 0.147926 -0.066008
v 0.157773 0.079918 -0.244094
v 0.157773 0.097393 -0.066008
v 0.161477 0.128210 -0.306885
v 0.161477 0.173507 -0.003217
v 0.172078 0.057541 -0.306885
v 0.172078 0.087340 -0.003217
v -0.161486 0.173283 -0.002921
v -0.161481 0.128230 -0.306839
v -0.172072 0.057625 -0.306839
v -0.172075 0.087263 -0.003099
v -0.060713 0.147807 -0.065702
v -0.060710 0.121362 -0.244094
v 0.060710 0.121362 -0.244094
v 0.060710 0.147926 -0.066008
v -0.060713 0.147807 -0.065702
v -0.060710 0.121362 -0.244094
v 0.060710 0.121362 -0.244094
v 0.060710 0.147926 -0.066008
v -0.085375 0.147807 -0.065702
v -0.085372 0.121362 -0.244094
v 0.085336 0.121362 -0.244094
v 0.085336 0.147926 -0.066008
v -0.060737 0.183658 -0.071033
v -0.060735 0.157213 -0.249425
v 0.060686 0.157213 -0.249425
v 0.060686 0.183777 -0.071340
v -0.060737 0.183658 -0.071033
v -0.060735 0.157213 -0.249425
v 0.060686 0.157213 -0.249425
v 0.060686 0.183777 -0.071340
v -0.044340 0.197439 -0.097741
v -0.044338 0.178141 -0.227917
v 0.044265 0.178141 -0.227917
v 0.044265 0.197525 -0.097965
v -0.030634 0.231475 -0.123436
v -0.030633 0.218158 -0.213267
v 0.030509 0.218158 -0.213267
v 0.030509 0.231535 -0.123591
v -0.020708 0.268626 -0.143916
v -0.020707 0.259645 -0.204504
v 0.020531 0.259645 -0.204504
v 0.020531 0.268667 -0.144021
v -0.030634 0.231475 -0.006818
v 0.030509 0.231535 -0.006973
v -0.020708 0.268626 -0.027298
v 0.020531 0.268667 -0.027403
v -0.023573 0.235772 -0.000507
v 0.023443 0.235819 -0.000626
v -0.015941 0.264340 -0.016255
v 0.015770 0.264371 -0.016335
v -0.023573 0.235772 -0.011717
v 0.023443 0.235819 -0.011836
v -0.015941 0.264340 -0.027465
v 0.015770 0.264371 -0.027545
v -0.018354 0.238949 -0.033827
v 0.018219 0.238985 -0.033919
v -0.012417 0.261172 -0.046077
v 0.012250 0.261196 -0.046139
v -0.013135 0.242126 -0.035586
v 0.012996 0.242152 -0.035652
v -0.008893 0.258004 -0.044339
v 0.008731 0.258021 -0.044384
v -0.007736 0.245413 -0.026810
v 0.007592 0.245428 -0.026849
v -0.005248 0.254726 -0.031944
v 0.005090 0.254736 -0.031970
vt 0.631577 0.522229
vt 0.631687 0.308990
vt 0.760662 0.277055
vt 0.760662 0.554104
vt 0.738511 0.734735
vt 0.650009 0.734735
vt 0.669681 0.576413
vt 0.758183 0.576413
vt 0.495986 0.365841
vt 0.492927 0.277055
vt 0.631577 0.323676
vt 0.631577 0.396457
vt 0.139801 0.159540
vt 0.212511 0.170457
vt 0.212511 0.383690
vt 0.139801 0.394607
vt 0.212511 0.543230
vt 0.139801 0.554147
vt 0.639145 0.140182
vt 0.639145 0.212963
vt 0.500624 0.259375
vt 0.503637 0.170661
vt 0.429059 0.259375
vt 0.429059 0.259375
vt 0.429059 0.259375
vt 0.429059 0.259375
vt 0.429059 0.000006
vt 0.429059 0.277055
vt 0.384023 0.251290
vt 0.384023 0.025778
vt 0.429059 0.259375
vt 0.429059 0.259375
vt 0.429059 0.259375
vt 0.429059 0.259375
vt 0.429059 0.259375
vt 0.429059 0.259375
vt 0.429059 0.259375
vt 0.429059 0.259375
vt 0.429059 0.259375
vt 0.429059 0.259375
vt 0.429059 0.259375
vt 0.429059 0.259375
vt 0.429059 0.259375
vt 0.429059 0.259375
vt 0.356965 0.277053
vt 0.218351 0.277049
vt 0.212511 0.251285
vt 0.325340 0.251288
vt 0.356965 0.000004
vt 0.325340 0.025777
vt 0.421496 0.762150
vt 0.421496 0.536639
vt 0.439518 0.559748
vt 0.439518 0.739041
vt 0.429059 0.259375
vt 0.429059 0.259375
vt 0.429059 0.259375
vt 0.429059 0.259375
vt 0.429059 0.259375
vt 0.429059 0.259375
vt 0.429059 0.259375
vt 0.429059 0.259375
vt 0.529223 0.559750
vt 0.575879 0.559752
vt 0.575879 0.739045
vt 0.529223 0.739044
vt 0.534325 0.536642
vt 0.593008 0.536644
vt 0.593008 0.762155
vt 0.534325 0.762154
vt 0.218351 0.000000
vt 0.212511 0.025773
vt 0.429059 0.259375
vt 0.429059 0.259375
vt 0.639145 0.000245
vt 0.509430 0.000090
vt 0.427377 0.536639
vt 0.421496 0.396619
vt 0.501867 0.536549
vt 0.000000 0.138549
vt 0.000000 0.415598
vt 0.631577 0.536394
vt 0.429059 0.140020
vt 0.434937 0.000000
vt 0.737150 0.759854
vt 0.655128 0.759854
vt 0.631577 0.734735
vt 0.771313 0.734735
vt 0.139801 0.000000
vt 0.212511 0.010917
vt 0.591184 0.921710
vt 0.508763 0.921695
vt 0.508763 0.762155
vt 0.591184 0.762170
vt 0.112756 0.576453
vt 0.024177 0.576453
vt 0.000000 0.554147
vt 0.151044 0.554147
vt 0.212511 0.767346
vt 0.294823 0.767366
vt 0.294823 0.926906
vt 0.212511 0.926886
vt 0.132424 0.734776
vt 0.043844 0.734776
vt 0.941847 0.413508
vt 0.978884 0.493271
vt 0.972309 0.542681
vt 0.909154 0.406671
vt 0.885567 0.025115
vt 0.803606 0.025115
vt 0.769396 0.000000
vt 0.909154 0.000000
vt 0.978884 0.350831
vt 0.972309 0.299796
vt 0.962867 0.683056
vt 1.000000 0.745677
vt 0.993441 0.796588
vt 0.930180 0.689905
vt 0.631577 0.554104
vt 0.782354 0.554104
vt 1.000000 0.603344
vt 0.993441 0.554104
vt 0.429059 0.259375
vt 0.429059 0.259375
vt 0.429059 0.259375
vt 0.429059 0.259375
vt 0.429059 0.259375
vt 0.429059 0.259375
vt 0.971876 0.043310
vt 0.971838 0.256549
vt 0.971876 0.299796
vt 0.971838 0.000000
vt 0.429059 0.259375
vt 0.429059 0.259375
vt 0.867384 0.853895
vt 0.867384 0.554104
vt 0.930180 0.597372
vt 0.930180 0.810605
vt 0.782354 0.597359
vt 0.782354 0.810592
vt 0.782354 0.853902
vt 0.782354 0.554111
vt 0.867292 0.597352
vt 0.867292 0.554104
vt 0.867384 0.810590
vt 0.867384 0.853900
vt 0.429059 0.259375
vt 0.429059 0.259375
vt 0.429059 0.259375
vt 0.429059 0.259375
vt 0.212149 0.575537
vt 0.212149 0.663476
vt 0.151044 0.642087
vt 0.151044 0.554147
vt 0.928543 0.853895
vt 0.928543 0.941836
vt 0.867384 0.963064
vt 0.867384 0.875123
vt 0.909154 0.256560
vt 0.909192 0.043321
vt 0.000000 0.948014
vt 0.000000 0.734776
vt 0.025538 0.763585
vt 0.025538 0.919188
vt 0.429059 0.259375
vt 0.429059 0.259375
vt 0.429059 0.259375
vt 0.429059 0.259375
vt 0.453110 0.832841
vt 0.507649 0.799027
vt 0.507911 0.869407
vt 0.470275 0.892741
vt 0.212511 0.767346
vt 0.212511 0.554113
vt 0.249643 0.582909
vt 0.249643 0.738508
vt 0.434023 0.808494
vt 0.508763 0.762155
vt 0.173583 0.930640
vt 0.098730 0.884480
vt 0.117846 0.860084
vt 0.172467 0.893768
vt 0.508763 0.942343
vt 0.483379 0.958081
vt 0.135037 0.800144
vt 0.172729 0.823388
vt 0.086256 0.787677
vt 0.086256 0.895054
vt 0.320133 0.606977
vt 0.320133 0.714352
vt 0.760668 0.475103
vt 0.833089 0.475101
vt 0.833084 0.503094
vt 0.760662 0.503059
vt 0.148161 0.734776
vt 0.173583 0.750453
vt 0.434601 0.957877
vt 0.421496 0.892538
vt 0.393087 0.624407
vt 0.393087 0.696828
vt 0.294822 0.767346
vt 0.360655 0.784801
vt 0.352530 0.793171
vt 0.301908 0.779750
vt 0.833089 0.553592
vt 0.760666 0.553557
vt 0.360655 0.874723
vt 0.360655 0.767346
vt 0.410578 0.767370
vt 0.410578 0.874747
vt 0.086256 0.800328
vt 0.099380 0.734960
vt 0.627333 0.536638
vt 0.627333 0.619206
vt 0.622479 0.619209
vt 0.622479 0.536641
vt 0.294822 0.874724
vt 0.301908 0.862317
vt 0.360655 0.857223
vt 0.352530 0.848860
vt 0.769396 0.198112
vt 0.820018 0.184655
vt 0.813179 0.193829
vt 0.773801 0.204297
vt 0.411570 0.554372
vt 0.411570 0.604560
vt 0.406889 0.604301
vt 0.406889 0.554113
vt 0.406889 0.554115
vt 0.406889 0.609804
vt 0.402090 0.609802
vt 0.402090 0.554113
vt 0.416252 0.554113
vt 0.416253 0.604272
vt 0.411570 0.604528
vt 0.411570 0.554369
vt 0.813179 0.258058
vt 0.773801 0.247618
vt 0.779423 0.241431
vt 0.807558 0.248891
vt 0.393087 0.603611
vt 0.393087 0.560290
vt 0.820018 0.267223
vt 0.769396 0.253801
vt 0.613531 0.610044
vt 0.613531 0.545815
vt 0.779423 0.210480
vt 0.807558 0.203001
vt 0.802376 0.212487
vt 0.785872 0.216874
vt 0.802376 0.239405
vt 0.785872 0.235030
vn -0.0003 0.9964 0.0852
vn 0.0000 -0.0021 1.0000
vn 0.9968 0.0674 -0.0436
vn 0.0000 0.0000 -1.0000
vn -0.9968 0.0674 -0.0437
vn 0.0000 0.0000 1.0000
vn 0.0000 0.8974 0.4412
vn -0.9583 0.0000 0.2857
vn 0.9583 0.0000 0.2857
vn 0.0000 0.5943 0.8042
vn -0.4935 0.0000 0.8697
vn 0.0000 -0.5943 0.8042
vn 0.4935 0.0000 0.8697
vn -0.9976 0.0675 -0.0173
vn 0.9910 0.1340 -0.0066
vn 0.9976 0.0674 -0.0173
vn -0.9910 0.1340 -0.0065
vn 0.7476 -0.6611 0.0645
vn 0.0000 0.9892 -0.1466
vn -0.9720 -0.1196 0.2023
vn 0.0000 0.9891 -0.1475
vn -0.8504 0.5203 -0.0776
vn -0.7483 -0.6602 0.0648
vn -0.9746 -0.1462 -0.1699
vn 0.9745 -0.1462 -0.1701
vn 0.9719 -0.1201 0.2024
vn 0.8497 0.5216 -0.0773
vn 0.0000 1.0000 0.0000
vn 0.0000 -0.1471 -0.9891
vn 0.0000 -0.9891 0.1475
vn 0.0000 -0.9892 0.1466
vn 0.8269 0.5562 -0.0830
vn -0.8270 0.5561 -0.0824
vn 0.0020 0.1471 0.9891
vn 0.0003 0.8886 0.4587
vn 0.9386 0.3413 -0.0509
vn 0.0000 0.7167 -0.6974
vn 0.7297 0.6762 -0.1009
vn -0.7307 0.6754 -0.1001
vn 0.9699 0.2409 -0.0359
vn -0.9390 0.3401 -0.0504
vn 0.0014 0.6022 0.7984
vn 0.0000 0.3438 -0.9390
vn -0.0007 0.9891 -0.1471
vn -0.9702 0.2396 -0.0355
vn 0.9657 0.2595 0.0000
vn 0.0000 0.2067 -0.9784
vn 0.7303 0.4693 0.4963
vn -0.0010 1.0000 0.0000
vn 0.0010 -1.0000 0.0000
vn -0.9661 0.2581 0.0000
vn 0.0022 -0.8277 0.5612
vn -0.7299 0.4691 0.4972
vn -0.0000 0.9322 0.3618
vn 0.9675 -0.1440 0.2077
vn 0.9661 -0.2581 0.0000
vn -0.9657 -0.2595 0.0000
vn 0.0017 0.4824 0.8759
vn 0.0014 -0.9858 0.1681
vn -0.9673 -0.1455 0.2079
vn -0.0006 0.9899 0.1421
vn -0.8348 0.4195 0.3565
vn -0.0003 0.9667 0.2557
vn 0.8347 0.4202 0.3560
vn 0.0018 -0.9369 0.3497
usemtl Material
s off
f 10/1/1 11/2/1 7/3/1 3/4/1
f 34/5/2 11/6/2 43/7/2 46/8/2
f 33/9/3 10/10/3 3/11/3 31/12/3
f 32/13/4 5/14/4 1/15/4 29/16/4
f 29/16/4 1/15/4 47/17/4 49/18/4
f 30/19/5 7/20/5 11/21/5 34/22/5
f 11/23/6 10/24/6 62/25/6 59/26/6
f 15/27/7 14/28/7 18/29/7 19/30/7
f 3/31/6 7/32/6 14/33/6 15/34/6
f 31/35/6 3/31/6 15/34/6 36/36/6
f 30/37/6 8/38/6 13/39/6 35/40/6
f 19/41/6 18/42/6 22/43/6 23/44/6
f 35/45/8 13/46/8 17/47/8 37/48/8
f 36/49/9 15/27/9 19/30/9 38/50/9
f 21/51/10 24/52/10 28/53/10 25/54/10
f 37/55/6 17/56/6 21/57/6 39/58/6
f 17/56/6 20/59/6 24/60/6 21/57/6
f 38/61/6 19/41/6 23/44/6 40/62/6
f 42/63/6 27/64/6 26/65/6 41/66/6
f 40/67/11 23/68/11 27/64/11 42/63/11
f 23/68/12 22/69/12 26/65/12 27/64/12
f 39/70/13 21/51/13 25/54/13 41/66/13
f 22/69/13 39/70/13 41/66/13 26/65/13
f 24/52/11 40/67/11 42/63/11 28/53/11
f 28/53/6 42/63/6 41/66/6 25/54/6
f 20/59/6 38/61/6 40/62/6 24/60/6
f 18/42/6 37/55/6 39/58/6 22/43/6
f 16/71/9 36/49/9 38/50/9 20/72/9
f 14/28/8 35/45/8 37/48/8 18/29/8
f 7/32/6 30/37/6 35/40/6 14/33/6
f 4/73/6 31/35/6 36/36/6 16/74/6
f 8/75/14 30/19/14 34/22/14 9/76/14
f 2/77/15 29/78/15 33/9/15 12/79/15
f 6/80/4 32/13/4 29/16/4 2/81/4
f 12/79/16 33/9/16 31/12/16 4/82/16
f 9/76/17 34/22/17 32/83/17 6/84/17
f 45/85/18 46/86/18 58/87/18 57/88/18
f 5/14/4 32/13/4 45/89/4 44/90/4
f 11/91/19 5/92/19 44/93/19 43/94/19
f 48/95/20 50/96/20 54/97/20 52/98/20
f 1/99/21 10/100/21 48/101/21 47/102/21
f 10/103/6 33/104/6 50/96/6 48/95/6
f 47/105/22 48/106/22 52/107/22 51/108/22
f 50/109/23 49/110/23 53/111/23 54/112/23
f 49/113/24 47/105/24 51/108/24 53/114/24
f 44/115/25 45/116/25 57/117/25 56/118/25
f 46/8/26 43/7/26 55/119/26 58/120/26
f 43/121/27 44/115/27 56/118/27 55/122/27
f 62/25/6 61/123/6 65/124/6 66/125/6
f 10/24/6 1/126/6 61/123/6 62/25/6
f 5/127/6 11/23/6 59/26/6 60/128/6
f 1/126/6 5/127/6 60/128/6 61/123/6
f 63/129/28 66/130/28 70/131/28 67/132/28
f 60/128/6 59/26/6 63/133/6 64/134/6
f 59/26/6 62/25/6 66/125/6 63/133/6
f 61/123/6 60/128/6 64/134/6 65/124/6
f 69/135/29 68/136/29 72/137/29 73/138/29
f 65/139/6 64/140/6 68/141/6 69/142/6
f 66/143/30 65/139/30 69/142/30 70/144/30
f 64/140/31 63/145/31 67/146/31 68/141/31
f 74/147/6 73/148/6 77/149/6 78/150/6
f 70/151/32 69/152/32 73/153/32 74/154/32
f 68/155/33 67/156/33 71/157/33 72/158/33
f 67/132/34 70/131/34 74/159/34 71/160/34
f 75/161/35 78/162/35 82/163/35 79/164/35
f 72/165/6 71/166/6 75/167/6 76/168/6
f 71/166/6 74/147/6 78/150/6 75/167/6
f 73/148/6 72/165/6 76/168/6 77/149/6
f 82/169/36 81/170/36 85/171/36 86/172/36
f 77/173/37 76/174/37 80/175/37 81/176/37
f 78/177/38 77/178/38 81/170/38 82/169/38
f 76/179/39 75/180/39 79/181/39 80/182/39
f 86/172/40 85/171/40 89/183/40 90/184/40
f 80/182/41 79/181/41 83/185/41 84/186/41
f 79/164/42 82/163/42 86/187/42 83/188/42
f 81/176/43 80/175/43 84/189/43 85/190/43
f 89/191/44 88/192/44 87/193/44 90/194/44
f 84/186/45 83/185/45 87/195/45 88/196/45
f 86/172/46 90/184/46 94/197/46 92/198/46
f 85/190/47 84/189/47 88/199/47 89/200/47
f 92/201/48 94/202/48 98/203/48 96/204/48
f 90/194/49 87/193/49 93/205/49 94/206/49
f 83/207/50 86/208/50 92/209/50 91/210/50
f 87/195/51 83/185/51 91/211/51 93/212/51
f 95/213/49 96/214/49 100/215/49 99/216/49
f 91/217/52 92/201/52 96/204/52 95/218/52
f 93/219/53 91/217/53 95/218/53 97/220/53
f 94/202/54 93/219/54 97/220/54 98/203/54
f 101/221/55 99/222/55 103/223/55 105/224/55
f 97/225/56 95/226/56 99/227/56 101/228/56
f 98/229/50 97/230/50 101/231/50 102/232/50
f 96/233/57 98/234/57 102/235/57 100/236/57
f 104/237/58 106/238/58 110/239/58 108/240/58
f 102/232/59 101/231/59 105/241/59 106/242/59
f 100/243/60 102/244/60 106/238/60 104/237/60
f 99/216/61 100/215/61 104/245/61 103/246/61
f 109/247/62 107/248/62 111/249/62 113/250/62
f 103/223/58 104/237/58 108/240/58 107/248/58
f 105/224/58 103/223/58 107/248/58 109/247/58
f 106/238/58 105/224/58 109/247/58 110/239/58
f 111/249/58 112/251/58 114/252/58 113/250/58
f 110/239/63 109/247/63 113/250/63 114/252/63
f 108/240/64 110/239/64 114/252/64 112/251/64
f 107/248/65 108/240/65 112/251/65 111/249/65