# Blender v3.1.2 OBJ File: 'based.blend'
# www.blender.org
mtllib based.mtl
o Cube
frames: 1
texture: 1
v -0.016497 0.111377 -0.027197
v -0.057793 0.111377 -0.027197
v -0.061124 0.111377 0.014906
v -0.016497 0.111377 0.031621
v -0.072617 0.075869 0.101770
v -0.016497 0.094468 0.132193
v 0.039972 0.111377 -0.027197
v 0.039972 0.111377 0.016235
v 0.151137 0.070320 0.031621
v 0.151137 0.083230 -0.027197
v 0.039972 0.111377 -0.027197
v 0.039972 0.111377 0.015712
v -0.183781 0.070320 0.031621
v -0.183781 0.061437 0.031621
v -0.129491 0.059911 0.061333
v -0.129491 0.062749 0.061333
v -0.183781 0.083230 -0.027197
v -0.183781 0.049453 -0.027197
v -0.240656 0.049453 -0.027197
v -0.240656 0.083230 -0.027197
v 0.209304 0.049453 -0.027197
v 0.209304 0.083230 -0.027197
v 0.267472 0.070320 -0.027197
v 0.267472 0.061437 -0.027197
v 0.151137 0.061437 0.041890
v 0.151137 0.061437 0.031621
v 0.151137 0.070320 0.031621
v 0.209304 0.070320 0.004610
v 0.151137 0.049453 -0.027197
v -0.240656 0.070320 0.003259
v -0.240656 0.083230 -0.027197
v -0.240656 0.070320 0.003259
v -0.240656 0.061437 -0.002613
v -0.219694 0.061437 0.017962
v -0.219694 0.070320 0.017962
v 0.267472 0.070320 -0.021051
v 0.267472 0.061437 -0.021051
v 0.209304 0.061437 -0.000494
v 0.192998 0.061437 0.027015
v 0.192998 0.070320 0.032119
v -0.297531 0.070320 -0.027197
v -0.297531 0.070320 -0.021726
v -0.240656 0.061437 0.003259
v -0.240656 0.049453 -0.027197
v -0.297531 0.061437 -0.021726
v -0.297531 0.061437 -0.027197
v -0.224302 0.061437 0.028597
v -0.277049 0.061437 0.003612
v -0.024102 0.065020 0.202384
v -0.014954 0.065020 0.202384
v -0.072617 0.039892 0.112808
v 0.039972 0.075869 0.101770
v 0.039972 0.039892 0.126644
v 0.039972 0.039892 0.108129
v 0.039972 0.075869 0.098482
v 0.099433 0.059911 0.061333
v 0.099433 0.062749 0.061333
v -0.014954 0.048757 0.202384
v -0.032287 0.048757 0.202384
v -0.004334 0.065020 0.202384
v 0.002487 0.048757 0.202384
v -0.210646 0.061437 0.046324
v -0.198677 0.063159 0.046324
v 0.209304 0.061437 -0.000494
v 0.209304 0.070320 0.004610
v 0.188230 0.070320 0.019573
v 0.188230 0.061437 0.019573
v 0.165376 0.063091 0.046584
v 0.176597 0.061437 0.046584
v 0.001288 0.112739 -0.135142
v 0.020621 0.099832 -0.135142
v 0.010651 0.093883 -0.190758
v 0.000091 0.113441 -0.190758
v 0.029407 0.105074 -0.086132
v 0.046506 0.081503 0.002537
v 0.037203 0.080860 -0.019727
v 0.046506 0.081449 -0.030080
v -0.031601 0.099832 -0.135142
v -0.018106 0.093883 -0.190758
v -0.049483 0.080621 -0.059404
v -0.058745 0.081209 -0.041762
v -0.012867 0.112739 -0.135142
v -0.010997 0.113441 -0.190758
v -0.008744 0.048757 0.202384
v -0.011172 0.065020 0.202384
v -0.009653 0.095712 0.132349
v 0.003611 0.111377 0.031621
v 0.003611 0.111377 -0.027197
v 0.039972 0.113441 -0.245464
v 0.003611 0.113441 -0.245464
v -0.016497 0.113441 -0.245464
v -0.072617 0.113441 -0.245464
v 0.105544 0.113441 -0.239531
v 0.105544 0.113441 -0.245464
v -0.112739 0.113441 -0.245464
v -0.112739 0.113441 -0.239531
v -0.004137 0.113441 -0.190758
v -0.008749 0.113441 -0.190758
v 0.003611 0.113441 -0.245464
v -0.016497 0.113441 -0.245464
v -0.008749 0.149613 -0.245464
v -0.004137 0.149613 -0.245464
v -0.008749 0.149613 -0.237668
v -0.004137 0.149613 -0.237668
v -0.224302 0.070320 0.028597
v -0.277049 0.070320 0.003612
v 0.246943 0.061437 0.006458
v 0.246943 0.070320 0.006458
v 0.002343 0.112121 -0.086132
v -0.014515 0.112121 -0.086132
v -0.043493 0.105074 -0.086132
v -0.066906 0.081728 -0.026215
v -0.076720 0.082351 -0.007520
v 0.029466 0.080326 -0.038242
v 0.085669 0.080326 -0.108801
v 0.093406 0.080860 -0.099501
v 0.020686 0.079719 -0.059252
v -0.123568 0.081728 -0.102759
v -0.115406 0.081209 -0.110568
v 0.076825 0.099832 -0.157471
v 0.085611 0.105074 -0.132854
v -0.100154 0.105074 -0.132854
v -0.088263 0.099832 -0.157471
vt 0.095954 0.353067
vt 0.095875 0.264712
vt 0.273074 0.264560
vt 0.273154 0.352916
vt 0.297264 0.264540
vt 0.324908 0.352845
vt 0.267580 0.836788
vt 0.090381 0.836199
vt 0.089780 0.661246
vt 0.266979 0.661834
vt 0.425964 0.478615
vt 0.425964 0.478615
vt 0.425964 0.478615
vt 0.425964 0.478615
vt 0.861218 0.998307
vt 0.808101 0.999500
vt 0.808101 0.890061
vt 0.861218 0.888867
vt 0.827173 0.794965
vt 0.879975 0.799680
vt 0.871984 0.888867
vt 0.819182 0.884152
vt 0.096893 0.089623
vt 0.274093 0.089472
vt 0.900714 0.715487
vt 0.953455 0.710137
vt 0.962670 0.801252
vt 0.909929 0.806601
vt 0.425964 0.478615
vt 0.425964 0.478615
vt 0.425964 0.478615
vt 0.425964 0.478615
vt 0.171456 0.569937
vt 0.267279 0.570255
vt 0.891498 0.624372
vt 0.944239 0.619023
vt 0.425964 0.478615
vt 0.425964 0.478615
vt 0.425964 0.478615
vt 0.425964 0.478615
vt 0.096813 0.000078
vt 0.188568 0.000000
vt 0.886467 0.806768
vt 0.939598 0.806601
vt 0.938923 0.858218
vt 0.885792 0.858385
vt 0.203661 0.836788
vt 0.256819 0.837008
vt 0.256462 0.852149
vt 0.203304 0.851929
vt 0.425964 0.478615
vt 0.425964 0.478615
vt 0.425964 0.478615
vt 0.425964 0.478615
vt 0.249063 0.478614
vt 0.267580 0.478676
vt 0.680150 0.897861
vt 0.680150 0.806106
vt 0.769695 0.806102
vt 0.769695 0.822585
vt 0.425964 0.478615
vt 0.425964 0.478615
vt 0.425964 0.478615
vt 0.425964 0.478615
vt 0.320738 0.951400
vt 0.373855 0.950175
vt 0.374411 0.966034
vt 0.321294 0.967259
vt 0.000000 0.000000
vt 0.000000 0.000000
vt 0.000000 0.000000
vt 0.000000 0.000000
vt 0.733162 0.987405
vt 0.680150 0.987421
vt 0.680150 0.897876
vt 0.733162 0.897861
vt 0.449518 0.340709
vt 0.449531 0.355111
vt 0.979843 0.196506
vt 0.979843 0.382572
vt 0.891704 0.310935
vt 0.906965 0.260014
vt 0.680150 0.806102
vt 0.680150 0.994749
vt 0.680150 0.994749
vt 0.680086 0.806126
vt 0.628310 0.924490
vt 0.610600 0.874398
vt 0.425964 0.478615
vt 0.425964 0.478615
vt 0.066120 0.836118
vt 0.000000 0.742352
vt 0.320738 0.973598
vt 0.267580 0.973415
vt 0.267580 0.853327
vt 0.320738 0.853510
vt 0.363683 0.174870
vt 0.298616 0.486644
vt 0.275620 0.563373
vt 0.267580 0.561303
vt 0.283382 0.482721
vt 0.406655 0.664680
vt 0.406655 0.853327
vt 0.297746 0.843844
vt 0.267580 0.769036
vt 0.425964 0.478615
vt 0.425964 0.664680
vt 0.284954 0.565777
vt 0.313945 0.490592
vt 0.939598 0.944344
vt 0.928541 0.949503
vt 0.944862 0.443156
vt 0.891704 0.443156
vt 0.934729 0.393425
vt 0.944612 0.382572
vt 0.232893 0.032965
vt 0.319504 0.065914
vt 0.143063 0.979969
vt 0.089905 0.980308
vt 0.089516 0.924335
vt 0.142674 0.923996
vt 0.425964 0.478615
vt 0.425964 0.478615
vt 0.132697 0.836788
vt 0.143063 0.846898
vt 0.053131 0.982659
vt 0.000000 0.982659
vt 0.001117 0.928363
vt 0.010293 0.933167
vt 0.981289 0.951771
vt 0.939598 0.836575
vt 0.981289 0.806601
vt 0.973622 0.896326
vt 0.038814 0.384726
vt 0.038865 0.441974
vt 0.009411 0.441974
vt 0.009360 0.384726
vt 0.064821 0.441974
vt 0.096033 0.441974
vt 0.086622 0.478615
vt 0.055410 0.478615
vt 0.425964 0.478615
vt 0.425964 0.478615
vt 0.595720 0.963291
vt 0.610600 0.988249
vt 0.580192 0.990970
vt 0.565312 0.966012
vt 0.038707 0.264712
vt 0.038786 0.353067
vt 0.009331 0.353067
vt 0.009253 0.264712
vt 0.304074 0.488050
vt 0.278944 0.564229
vt 0.315121 0.384522
vt 0.449536 0.361066
vt 0.273182 0.384575
vt 0.095982 0.384726
vt 0.767834 0.629369
vt 0.767741 0.643718
vt 0.723079 0.658918
vt 0.723263 0.631566
vt 0.767955 0.610571
vt 0.767885 0.621434
vt 0.723365 0.616443
vt 0.723649 0.574255
vt 0.727802 0.707884
vt 0.722746 0.708270
vt 0.723852 0.544107
vt 0.728896 0.544624
vt 0.009360 0.384726
vt 0.009331 0.353067
vt 0.273233 0.441823
vt 0.297423 0.441802
vt 0.449546 0.371832
vt 0.512685 0.079220
vt 0.554936 0.080266
vt 0.542663 0.057128
vt 0.531846 0.056860
vt 0.723263 0.631566
vt 0.767853 0.626343
vt 0.849910 0.500468
vt 0.847085 0.532001
vt 0.847085 0.532001
vt 0.849910 0.500468
vt 0.170513 0.409665
vt 0.170513 0.409665
vt 0.170513 0.409665
vt 0.170513 0.409665
vt 0.722619 0.621122
vt 0.722594 0.624962
vt 0.715140 0.624855
vt 0.715166 0.620983
vt 0.723365 0.616443
vt 0.767874 0.623043
vt 0.321294 0.854552
vt 0.374411 0.853327
vt 0.373855 0.950175
vt 0.320738 0.951400
vt 0.425964 0.478615
vt 0.425964 0.478615
vt 0.769695 0.822585
vt 0.680150 0.897861
vt 0.256819 0.968118
vt 0.203661 0.967898
vt 0.203304 0.851929
vt 0.256462 0.852149
vt 0.000000 0.000000
vt 0.000000 0.000000
vt 0.000000 0.000000
vt 0.000000 0.000000
vt 0.171456 0.569937
vt 0.249063 0.478614
vt 0.064770 0.384726
vt 0.064742 0.353067
vt 0.064663 0.264712
vt 0.566840 0.914849
vt 0.582608 0.941297
vt 0.552200 0.944018
vt 0.536433 0.917570
vt 0.000000 0.000000
vt 0.000000 0.000000
vt 0.000000 0.000000
vt 0.000000 0.000000
vt 0.029454 0.478615
vt 0.000000 0.478615
vt 0.000000 0.000000
vt 0.000000 0.000000
vt 0.000000 0.000000
vt 0.000000 0.000000
vt 0.038865 0.441974
vt 0.064821 0.441974
vt 0.055410 0.478615
vt 0.029454 0.478615
vt 0.583361 0.318822
vt 0.601221 0.238742
vt 0.691591 0.319343
vt 0.675045 0.360404
vt 0.615877 0.147899
vt 0.698637 0.270229
vt 0.582608 0.941297
vt 0.595720 0.963291
vt 0.565312 0.966012
vt 0.552200 0.944018
vt 0.752654 0.596234
vt 0.767461 0.677673
vt 0.671255 0.710573
vt 0.653310 0.668096
vt 0.729068 0.512828
vt 0.632016 0.622739
vn 0.0000 1.0000 0.0041
vn 0.0000 1.0000 -0.0000
vn -0.2845 0.9276 0.2420
vn 0.2875 0.9502 0.1200
vn -0.0334 -0.9994 -0.0000
vn -0.0167 -0.9997 0.0000
vn -0.4801 0.0000 0.8772
vn 0.0000 0.0000 -1.0000
vn -0.2593 0.9590 0.1141
vn 1.0000 0.0000 0.0000
vn 0.0635 0.9598 0.2735
vn 0.0000 0.0000 1.0000
vn -0.0691 0.9583 0.2772
vn -0.6242 -0.2452 0.7418
vn -0.8255 0.2812 -0.4893
vn 0.1734 0.9324 0.3172
vn -0.1782 0.9260 0.3328
vn -1.0000 0.0000 0.0000
vn -0.0000 -1.0000 0.0000
vn -0.3943 0.8619 0.3189
vn -0.6054 0.2177 0.7656
vn 0.5572 0.2003 0.8059
vn 0.3212 0.8246 0.4656
vn 0.2870 0.6313 0.7205
vn -0.3125 0.8480 0.4281
vn -0.8817 0.2257 0.4142
vn 0.8627 0.3048 0.4035
vn -0.6057 0.6836 0.4073
vn 0.5281 -0.5960 0.6048
vn -0.0967 0.9623 0.2543
vn 0.6241 -0.2157 0.7509
vn 0.6037 0.6429 0.4714
vn -0.5524 -0.5882 0.5907
vn 0.0817 0.9644 0.2516
vn 0.7316 0.6736 -0.1052
vn 0.9642 -0.1423 -0.2238
vn -0.9770 -0.2133 0.0004
vn -0.9399 -0.2043 -0.2737
vn -0.7751 0.6170 -0.1362
vn -0.1127 0.9132 0.3917
vn -0.0464 0.9866 0.1566
vn -0.0000 1.0000 0.0042
vn 0.3704 0.8887 0.2701
vn -0.2804 0.9064 0.3158
vn -0.0267 0.9551 0.2951
vn 0.0405 0.9610 0.2736
vn -1.0000 -0.0001 -0.0000
vn 1.0000 0.0001 -0.0000
vn 0.3529 0.8957 0.2705
vn 0.4655 0.8231 0.3254
vn 0.0000 0.9999 0.0126
vn -0.9757 0.1829 0.1209
vn 0.9757 0.1829 0.1209
vn 0.0000 0.7919 0.6106
vn -0.4281 0.0000 0.9037
vn 0.8402 0.0000 -0.5423
vn -0.7777 -0.0000 0.6286
vn 0.3807 -0.2553 0.8887
vn 0.8014 -0.0000 0.5981
vn -0.0996 0.9932 -0.0606
vn -0.9124 0.2702 -0.3075
vn 0.0294 -0.9993 0.0220
vn 0.1102 0.9922 -0.0579
vn 0.8116 -0.5645 -0.1503
vn -0.3840 0.9183 -0.0964
vn -0.0300 -0.9993 0.0234
vn 0.3937 0.9155 -0.0827
vn 0.8644 -0.3494 -0.3616
vn -0.1919 -0.9535 -0.2322
vn -0.0755 0.9895 -0.1229
vn 0.3946 0.8493 0.3506
vn -0.8461 0.0447 -0.5312
vn 0.0718 0.9904 -0.1178
vn -0.3236 0.8982 0.2975
vn 0.1576 -0.9679 -0.1960
usemtl Material.010
s 1
f 1/1/1 2/2/2 3/3/2 4/4/2
f 4/4/3 3/3/3 5/5/3 6/6/3
f 7/7/4 8/8/4 9/9/4 10/10/4
f 11/11/5 12/12/5 8/13/5 7/14/6
f 13/15/7 14/16/7 15/17/7 16/18/7
f 17/19/8 18/20/8 19/21/8 20/22/8
f 3/3/9 2/2/9 17/23/9 13/24/9
f 21/25/8 22/26/8 23/27/8 24/28/8
f 9/29/10 25/30/10 26/31/10 27/32/10
f 10/10/11 9/9/11 28/33/11 22/34/11
f 29/35/8 10/36/8 22/26/8 21/25/8
f 30/37/12 20/38/12 31/39/12 32/40/12
f 13/24/13 17/23/13 20/41/13 30/42/13
f 30/43/14 33/44/14 34/45/14 35/46/14
f 24/47/10 23/48/10 36/49/10 37/50/10
f 28/51/15 38/52/15 39/53/15 40/54/15
f 22/34/16 28/33/16 36/55/16 23/56/16
f 32/57/17 31/58/17 41/59/17 42/60/17
f 33/61/10 30/37/10 32/40/10 43/62/10
f 20/38/12 19/63/12 44/64/12 31/39/12
f 45/65/18 42/66/18 41/67/18 46/68/18
f 45/69/19 43/70/19 47/71/19 48/72/19
f 31/73/8 44/74/8 46/75/8 41/76/8
f 6/6/20 5/5/20 49/77/20 50/78/20
f 51/79/21 5/80/21 16/81/21 15/82/21
f 52/83/10 53/84/10 54/85/10 55/86/10
f 55/86/22 54/85/22 56/87/22 57/88/22
f 8/13/10 12/12/10 52/89/10 55/90/10
f 9/9/23 8/8/23 55/91/23 57/92/23
f 25/93/24 9/94/24 57/95/24 56/96/24
f 3/3/25 13/24/25 16/97/25 5/5/25
f 58/98/12 50/99/12 49/100/12 59/101/12
f 5/102/26 51/103/26 59/104/26 49/105/26
f 53/106/27 52/107/27 60/108/27 61/109/27
f 62/110/28 63/111/28 35/46/28 34/45/28
f 14/112/29 13/113/29 63/114/29 62/115/29
f 13/24/30 30/42/30 35/116/30 63/117/30
f 64/118/31 65/119/31 66/120/31 67/121/31
f 25/30/2 38/52/2 64/122/2 26/31/2
f 38/52/12 28/51/12 65/123/12 64/122/12
f 28/51/12 9/29/12 27/32/12 65/123/12
f 68/124/32 69/125/32 67/121/32 66/120/32
f 27/126/33 26/127/33 69/128/33 68/129/33
f 65/130/34 27/131/34 68/132/34 66/133/34
f 70/134/35 71/135/35 72/136/35 73/137/35
f 74/138/36 11/139/36 75/140/36 76/141/36
f 11/11/37 7/14/37 77/142/37 75/143/37
f 78/144/38 79/145/38 80/146/38 81/147/38
f 78/148/39 82/149/39 83/150/39 79/151/39
f 84/152/12 85/153/12 50/99/12 58/98/12
f 86/154/40 6/6/40 50/78/40 85/155/40
f 87/156/41 4/4/41 6/6/41 86/154/41
f 88/157/42 1/1/1 4/4/2 87/156/2
f 73/158/43 72/159/43 89/160/43 90/161/43
f 79/162/44 83/163/44 91/164/44 92/165/44
f 89/160/45 72/159/45 93/166/45 94/167/45
f 79/162/46 92/165/46 95/168/46 96/169/46
f 83/150/47 73/137/48 97/170/10 98/171/10
f 11/139/2 88/157/42 87/156/2 12/172/2
f 12/172/49 87/156/49 86/154/49 52/173/49
f 52/173/50 86/154/50 85/155/50 60/174/50
f 61/109/12 60/108/12 85/153/12 84/152/12
f 82/149/51 70/134/51 73/137/51 83/150/51
f 99/175/8 100/176/8 101/177/8 102/178/8
f 73/158/2 90/161/2 99/179/2 97/180/2
f 90/181/12 91/182/12 100/183/12 99/184/12
f 91/185/2 83/186/2 98/187/2 100/188/2
f 103/189/2 104/190/2 102/191/2 101/192/2
f 100/193/52 98/194/52 103/189/52 101/192/52
f 97/180/53 99/179/53 102/191/53 104/190/53
f 98/194/54 97/180/54 104/190/54 103/189/54
f 47/195/55 105/196/55 106/197/55 48/198/55
f 43/62/56 32/40/56 105/199/56 47/200/56
f 32/57/2 42/60/2 106/201/2 105/202/2
f 42/66/57 45/65/57 48/198/57 106/197/57
f 40/203/58 39/204/58 107/205/58 108/206/58
f 38/207/19 37/208/19 107/209/19 39/210/19
f 36/55/2 28/33/2 40/211/2 108/212/2
f 37/50/59 36/49/59 108/206/59 107/205/59
f 1/1/1 88/157/42 109/213/51 110/214/51
f 2/2/60 1/1/60 110/214/60 111/215/60
f 2/216/61 111/217/61 112/218/61 113/219/61
f 76/220/62 114/221/62 115/222/62 116/223/62
f 88/157/63 11/139/63 74/138/63 109/213/63
f 72/136/64 71/135/64 114/224/64 117/225/64
f 110/214/51 109/213/51 70/134/51 82/149/51
f 111/215/65 110/214/65 82/149/65 78/148/65
f 81/226/66 112/227/66 118/228/66 119/229/66
f 109/213/67 74/138/67 71/135/67 70/134/67
f 120/230/68 121/231/68 116/232/68 115/233/68
f 114/224/69 71/135/69 120/230/69 115/233/69
f 71/234/70 74/235/70 121/236/70 120/237/70
f 74/235/71 76/238/71 116/239/71 121/236/71
f 122/240/72 123/241/72 119/242/72 118/243/72
f 111/244/73 78/245/73 123/246/73 122/247/73
f 112/248/74 111/244/74 122/247/74 118/249/74
f 78/144/75 81/147/75 119/242/75 123/241/75