# Blender v3.2.2 OBJ File: 'nave.blend'
# www.blender.org
mtllib nave.mtl
o Cubo
frames: 1
texture: 1
v -0.008037 0.015941 -0.001261
v -0.001582 0.015941 -0.038958
v -0.062024 0.026863 -0.071351
v -0.062024 0.026863 -0.033654
v 0.005423 0.015941 -0.038958
v 0.011878 -0.003974 -0.038958
v 0.016884 0.012529 -0.062270
v 0.016884 0.020947 -0.062270
v 0.011878 0.015941 -0.001261
v 0.011878 0.015941 -0.001261
v 0.011878 0.015941 -0.038958
v 0.000844 0.007060 0.046818
v 0.002997 0.007060 0.046818
v 0.011878 -0.003974 0.015546
v 0.065866 0.025328 -0.016846
v 0.065866 0.026863 -0.033654
v 0.011878 -0.003974 -0.038958
v 0.011878 -0.003974 0.015546
v 0.065866 0.025328 -0.071351
v 0.065866 0.026863 -0.071351
v 0.065866 0.026863 -0.071351
v 0.011878 0.015941 -0.038958
v -0.062024 0.025328 -0.016846
v -0.062024 0.025328 -0.071351
v 0.011878 0.015941 -0.069446
v 0.011878 0.015941 -0.069446
v -0.008037 -0.003974 0.015546
v 0.003390 0.023064 -0.011042
v 0.000451 0.023064 -0.011042
v -0.008037 -0.003974 -0.038958
v -0.013043 0.020947 -0.062270
v -0.013043 0.012529 -0.062270
v -0.054325 0.001180 -0.048821
v -0.062024 0.012978 -0.048821
v -0.062024 0.025328 -0.071351
v 0.065866 0.015691 -0.071351
v 0.130651 0.021858 -0.051726
v 0.130651 0.019161 -0.051726
v -0.054325 0.001180 -0.016846
v 0.054195 0.001180 -0.048821
v 0.054195 0.001180 -0.016846
v 0.065573 0.012978 -0.071351
v 0.065573 0.012978 -0.016846
v 0.065866 0.015691 -0.016846
v 0.065866 0.012523 -0.016846
v 0.065866 0.012523 -0.071351
v 0.130651 0.021858 -0.036471
v 0.130651 0.019161 -0.036471
v -0.116012 0.017238 -0.041677
v -0.116012 0.021068 -0.048662
v -0.062024 0.012978 -0.016846
v -0.062024 0.025328 -0.016846
v -0.116012 0.021068 -0.031763
v -0.116012 0.017238 -0.031763
v 0.002997 0.004907 0.048635
v 0.000844 0.004907 0.048635
v 0.011878 -0.003974 -0.069446
v 0.065866 0.026863 -0.101838
v 0.065866 0.025328 -0.101838
v -0.001582 0.015941 -0.068464
v -0.008037 -0.003974 -0.068464
v -0.062024 0.025328 -0.100856
v -0.062024 0.026863 -0.100856
v -0.062024 0.026863 -0.100856
v -0.062024 0.026863 -0.071351
v -0.062024 0.026863 -0.071351
v -0.062024 0.026863 -0.100856
v 0.065866 0.026863 -0.071351
v 0.011878 0.015941 -0.038958
v 0.065866 0.026863 -0.101838
v -0.001582 0.015941 -0.068464
v -0.001582 0.015941 -0.038958
v 0.011878 0.015941 -0.069446
v 0.030811 0.029914 -0.058793
v 0.030811 0.029914 -0.070047
v -0.001582 0.015941 -0.038958
v -0.001582 0.015941 -0.068464
v -0.018670 0.029900 -0.069371
v -0.018670 0.029900 -0.058406
v 0.065866 0.026863 -0.101838
v 0.050738 0.033945 -0.070750
v 0.050738 0.033945 -0.082003
v -0.041131 0.033959 -0.070444
v -0.041131 0.033959 -0.081408
v -0.000285 0.040485 -0.038203
v 0.004126 0.040485 -0.038203
v 0.011344 0.043637 -0.052883
v -0.007502 0.043637 -0.052883
v 0.002846 0.033362 -0.010725
v 0.000995 0.033362 -0.010725
v -0.008037 -0.003974 0.015546
v 0.011878 -0.003974 0.015546
v -0.000803 -0.003974 -0.078550
v 0.004645 -0.003974 -0.078550
v 0.004645 -0.003974 -0.078550
v 0.011878 -0.003974 0.015546
vt 0.186817 0.282911
vt 0.330104 0.258152
vt 0.458229 0.489625
vt 0.314943 0.489670
vt 0.771563 0.086983
vt 0.843014 0.058995
vt 0.821969 0.167653
vt 0.792478 0.180635
vt 0.330104 0.231335
vt 0.186817 0.206666
vt 0.186817 0.206666
vt 0.330104 0.206621
vt 0.000000 0.248879
vt 0.000000 0.240636
vt 0.113812 0.206489
vt 0.250355 0.000050
vt 0.314943 0.000045
vt 0.866033 0.112422
vt 0.866033 0.192574
vt 0.843014 0.184946
vt 0.866033 0.112422
vt 0.413871 0.489675
vt 0.413871 0.489675
vt 0.413871 0.489675
vt 0.413871 0.489675
vt 0.643763 0.718551
vt 0.649639 0.718537
vt 0.649639 0.861667
vt 0.643763 0.925496
vt 0.458229 0.000000
vt 0.413871 0.489675
vt 0.413871 0.489675
vt 0.413871 0.489675
vt 0.413871 0.489675
vt 0.643763 0.921133
vt 0.637897 0.857401
vt 0.637897 0.714573
vt 0.643763 0.714623
vt 0.413871 0.489675
vt 0.413871 0.489675
vt 0.113812 0.282735
vt 0.250355 0.489675
vt 0.661763 0.602779
vt 0.634951 0.602779
vt 0.643226 0.495806
vt 0.654475 0.495806
vt 0.458229 0.554814
vt 0.530641 0.582831
vt 0.508339 0.676411
vt 0.478899 0.663442
vt 0.353877 0.923208
vt 0.285722 0.814962
vt 0.326934 0.829092
vt 0.353877 0.923208
vt 0.458229 0.747549
vt 0.421408 0.747549
vt 0.433014 0.489675
vt 0.443319 0.489675
vt 0.787817 0.663144
vt 0.665401 0.663152
vt 0.665401 0.247751
vt 0.787817 0.247744
vt 0.974610 0.566594
vt 0.974610 0.687999
vt 0.930231 0.779231
vt 0.930231 0.572285
vt 0.661763 0.602779
vt 0.661763 0.809725
vt 0.649639 0.809753
vt 0.649639 0.602807
vt 0.691857 0.180635
vt 0.691857 0.238555
vt 0.681532 0.238579
vt 0.681532 0.180659
vt 0.665401 0.495806
vt 0.458229 0.495806
vt 0.531312 0.247744
vt 0.589296 0.247744
vt 0.458229 0.996026
vt 0.421333 0.996026
vt 0.434040 0.747550
vt 0.444367 0.747550
vt 0.666897 0.247744
vt 0.458229 0.247744
vt 0.533424 0.000000
vt 0.591827 0.000000
vt 0.206357 0.489675
vt 0.207224 0.575762
vt 0.000269 0.603158
vt 0.000000 0.576467
vt 0.312665 0.696847
vt 0.353877 0.710977
vt 0.413871 0.489675
vt 0.413871 0.489675
vt 0.413871 0.489675
vt 0.413871 0.489675
vt 0.637536 0.923669
vt 0.555419 0.871975
vt 0.555419 0.871975
vt 0.601193 0.883820
vt 0.666898 0.244665
vt 0.666898 0.180635
vt 0.681532 0.207228
vt 0.681532 0.244791
vt 0.207224 0.698178
vt 0.000269 0.641114
vt 0.623344 0.676412
vt 0.637536 0.680084
vt 0.413871 0.696847
vt 0.207224 0.608592
vt 0.207224 0.544358
vt 0.681532 0.238622
vt 0.689720 0.238580
vt 0.689720 0.246823
vt 0.681532 0.246865
vt 0.064227 0.774572
vt 0.128027 0.698178
vt 0.128027 0.888125
vt 0.121130 0.896384
vt 0.064227 0.896443
vt 0.000000 0.820242
vt 0.057283 0.698178
vt 0.064227 0.706417
vt 0.962516 0.947090
vt 0.886283 0.947090
vt 0.920894 0.820291
vt 0.929136 0.820291
vt 0.353877 0.696847
vt 0.420035 0.734433
vt 0.358976 0.905406
vt 0.353877 0.902509
vt 0.665401 0.902192
vt 0.665401 0.663152
vt 0.765306 0.723509
vt 0.765306 0.962548
vt 0.128027 0.863127
vt 0.204136 0.863782
vt 0.204136 0.979296
vt 0.128027 0.978641
vt 0.643763 0.602793
vt 0.649639 0.602779
vt 0.285722 0.950543
vt 0.207223 0.937544
vt 0.279919 0.697698
vt 0.285722 0.696847
vt 0.863606 0.982847
vt 0.787817 0.986193
vt 0.787817 0.874164
vt 0.863606 0.870818
vt 0.555418 0.676411
vt 0.555418 0.918993
vt 0.458229 0.976566
vt 0.458229 0.733984
vt 0.637897 0.602779
vt 0.643763 0.602830
vt 0.413871 0.489675
vt 0.413871 0.489675
vt 0.413871 0.489675
vt 0.413871 0.489675
vt 0.413871 0.489675
vt 0.413871 0.489675
vt 0.413871 0.489675
vt 0.413871 0.489675
vt 0.413871 0.489675
vt 0.413871 0.489675
vt 0.413871 0.489675
vt 0.413871 0.489675
vt 0.413871 0.489675
vt 0.413871 0.489675
vt 0.886283 0.809716
vt 0.787817 0.870818
vt 0.819191 0.766209
vt 0.855536 0.743656
vt 0.787817 0.247744
vt 0.885956 0.302026
vt 0.862816 0.364149
vt 0.826346 0.343977
vt 0.413871 0.489675
vt 0.413871 0.489675
vt 0.413871 0.489675
vt 0.413871 0.489675
vt 0.819191 0.676472
vt 0.855536 0.653918
vt 0.826346 0.442294
vt 0.862816 0.462466
vt 0.886283 0.566594
vt 1.000000 0.206349
vt 1.000000 0.417766
vt 0.962189 0.366170
vt 0.962189 0.288135
vt 0.885956 0.566594
vt 0.787817 0.512311
vt 0.930231 0.566594
vt 0.930231 0.820291
vt 0.886283 0.732867
vt 0.886283 0.638590
vt 0.787817 0.627696
vt 0.172533 0.755421
vt 0.155645 0.755421
vt 0.128027 0.698178
vt 0.200178 0.698178
vt 0.697258 0.180635
vt 0.684088 0.121660
vt 0.932046 0.000000
vt 0.932046 0.112422
vt 0.843014 0.085786
vt 0.843014 0.014990
vt 0.618168 0.617481
vt 0.604124 0.676411
vt 0.703108 0.220068
vt 0.691857 0.220068
vt 0.693946 0.180635
vt 0.701031 0.180635
vt 0.598228 0.495806
vt 0.634951 0.510344
vt 0.666898 0.014549
vt 0.703599 0.000000
vt 0.167594 0.863127
vt 0.160509 0.863127
vt 0.413871 0.489675
vt 0.413871 0.489675
vt 0.413871 0.489675
vt 0.885956 0.206349
vt 0.962189 0.206349
vt 0.934523 0.566594
vt 0.913668 0.566594
vt 0.413871 0.489675
vt 0.413871 0.489675
vt 0.413871 0.489675
vn 0.1791 0.9837 0.0153
vn 0.8902 0.2028 0.4080
vn 0.0000 1.0000 0.0000
vn 0.0000 0.9834 0.1816
vn 0.0087 0.8430 0.5379
vn 0.0000 0.0000 -1.0000
vn 0.0000 0.0000 1.0000
vn 1.0000 0.0000 0.0000
vn -0.1983 0.9801 0.0000
vn 0.0000 0.0000 0.0000
vn -1.0000 0.0000 0.0000
vn -0.0087 0.8430 0.5379
vn 0.0000 -0.9690 0.2472
vn -0.8902 0.2028 0.4080
vn -0.8022 -0.5235 -0.2870
vn 0.2899 0.0000 -0.9571
vn 0.0000 -1.0000 -0.0000
vn 0.7198 -0.6942 -0.0000
vn 0.0535 0.9986 0.0000
vn 0.2899 0.0000 0.9571
vn 0.0535 -0.9986 -0.0000
vn -0.1317 -0.8692 -0.4765
vn -0.8375 -0.5465 -0.0000
vn -0.0787 -0.9969 -0.0000
vn -0.2663 0.0000 0.9639
vn -0.0787 0.9969 0.0000
vn 0.0000 0.6450 0.7642
vn 0.9614 0.1775 0.2104
vn -0.9614 0.1775 0.2104
vn 0.0000 -0.9658 0.2592
vn -0.5145 0.0000 -0.8575
vn 0.4770 -0.8789 -0.0000
vn 0.4515 -0.1359 -0.8819
vn 0.9513 -0.3083 -0.0000
vn -0.4770 -0.8789 -0.0000
vn -0.5938 0.8046 0.0000
vn 0.6326 0.7744 0.0000
vn 0.1778 0.9841 0.0000
vn -0.4878 0.6352 -0.5988
vn 0.3140 0.6088 0.7285
vn -0.3216 0.9469 0.0000
vn 0.4725 0.5328 -0.7020
vn 0.4240 0.9057 0.0000
vn -0.2562 0.6645 0.7020
vn 0.0000 0.9777 0.2099
vn 0.8940 0.0335 0.4467
vn 0.0000 0.3823 -0.9240
vn -0.8940 0.0335 0.4467
vn 0.0000 -0.0308 0.9995
vn -0.9969 0.0508 0.0596
vn 0.9969 0.0508 0.0596
vn 0.0000 0.9680 0.2509
usemtl Materiais.001
s 1
f 1/1/1 2/2/1 3/3/1 4/4/1
f 5/5/2 6/6/2 7/7/2 8/8/2
f 5/9/3 9/10/3 10/11/3 11/12/3
f 9/10/4 1/1/4 12/13/4 13/14/4
f 5/9/3 2/2/3 1/1/3 9/10/3
f 10/11/5 14/15/5 15/16/5 16/17/5
f 6/18/6 5/19/6 11/20/6 17/21/6
f 9/22/7 18/23/7 14/24/7 10/25/7
f 19/26/8 20/27/8 16/28/8 15/29/8
f 11/12/9 10/11/9 16/17/9 20/30/9
f 11/31/10 20/32/10 21/33/7 22/34/7
f 23/35/11 4/36/11 3/37/11 24/38/11
f 25/39/10 11/31/10 22/34/7 26/40/7
f 27/41/12 1/1/12 4/4/12 23/42/12
f 2/43/13 5/44/13 28/45/13 29/46/13
f 30/47/14 2/48/14 31/49/14 32/50/14
f 24/51/15 33/52/15 34/53/15 35/54/15
f 36/55/16 19/56/16 37/57/16 38/58/16
f 39/59/17 33/60/17 40/61/17 41/62/17
f 41/63/18 40/64/18 42/65/18 43/66/18
f 36/67/8 44/68/8 45/69/8 46/70/8
f 37/71/8 47/72/8 48/73/8 38/74/8
f 19/75/19 15/76/19 47/77/19 37/78/19
f 15/79/20 44/80/20 48/81/20 47/82/20
f 44/83/21 36/84/21 38/85/21 48/86/21
f 35/87/22 34/88/22 49/89/22 50/90/22
f 33/52/23 39/91/23 51/92/23 34/53/23
f 23/93/10 24/94/10 35/95/10 52/96/10
f 39/97/7 23/98/7 52/99/7 51/100/7
f 53/101/11 50/102/11 49/103/11 54/104/11
f 34/88/24 51/105/24 54/106/24 49/89/24
f 51/100/25 52/99/25 53/107/25 54/108/25
f 52/96/26 35/109/26 50/110/26 53/111/26
f 55/112/27 13/113/27 12/114/27 56/115/27
f 18/116/28 9/117/28 13/118/28 55/119/28
f 1/120/29 27/121/29 56/122/29 12/123/29
f 27/124/30 18/125/30 55/126/30 56/127/30
f 57/128/31 25/129/31 58/130/31 59/131/31
f 19/132/32 17/133/32 57/134/32 59/135/32
f 17/136/11 11/137/11 25/138/11 57/139/11
f 20/27/8 19/26/8 59/140/8 58/141/8
f 60/142/33 61/143/33 62/144/33 63/145/33
f 2/146/34 30/147/34 61/148/34 60/149/34
f 30/150/35 24/151/35 62/152/35 61/153/35
f 24/38/11 3/37/11 63/154/11 62/155/11
f 64/156/10 65/157/7 66/158/10 67/159/10
f 22/34/7 21/33/7 68/160/10 69/161/10
f 58/162/10 25/39/10 26/40/7 70/163/7
f 2/164/10 60/165/10 71/166/10 72/167/7
f 60/165/10 63/168/10 64/156/10 71/166/10
f 3/169/10 2/164/10 72/167/7 65/157/7
f 20/32/10 58/162/10 70/163/7 21/33/7
f 63/168/10 3/169/10 65/157/7 64/156/10
f 73/170/36 69/171/36 74/172/36 75/173/36
f 76/174/37 77/175/37 78/176/37 79/177/37
f 71/166/10 64/156/10 67/159/10 77/178/10
f 21/33/7 70/163/7 80/179/10 68/160/10
f 65/157/7 72/167/7 76/180/10 66/158/10
f 72/167/7 71/166/10 77/178/10 76/180/10
f 26/40/7 22/34/7 69/161/10 73/181/10
f 70/163/7 26/40/7 73/181/10 80/179/10
f 74/172/9 81/182/9 82/183/9 75/173/9
f 83/184/38 79/177/38 78/176/38 84/185/38
f 80/186/39 73/170/39 75/173/39 82/183/39
f 69/187/40 68/188/40 81/189/40 74/190/40
f 67/191/41 66/192/41 83/184/41 84/185/41
f 77/193/42 67/194/42 84/195/42 78/196/42
f 68/197/43 80/186/43 82/183/43 81/182/43
f 66/192/44 76/174/44 79/177/44 83/184/44
f 85/198/45 86/199/45 87/200/45 88/201/45
f 5/5/46 8/8/46 87/202/46 86/203/46
f 8/204/47 31/205/47 88/206/47 87/207/47
f 31/49/48 2/48/48 85/208/48 88/209/48
f 29/210/49 28/211/49 89/212/49 90/213/49
f 85/208/50 2/48/50 29/214/50 90/215/50
f 5/5/51 86/203/51 89/216/51 28/217/51
f 86/199/52 85/198/52 90/218/52 89/219/52
f 18/23/7 27/220/7 91/221/7 92/222/7
f 92/223/17 91/224/17 93/225/17 94/226/17
f 92/222/7 94/227/7 95/228/7 96/229/7
