# Blender v3.2.2 OBJ File: 'button.blend'
# www.blender.org
mtllib btoption.mtl
o Cube
frames: 1
texture: 1
v 0.077120 0.023432 -0.037769
v 0.077120 -0.023432 -0.037769
v 0.157400 0.023432 0.037769
v 0.157400 -0.023432 0.037769
v -0.161277 0.023432 -0.037769
v -0.161277 -0.023432 -0.037769
v -0.056196 0.023432 0.037769
v -0.056196 -0.023432 0.037769
v 0.157400 0.023432 0.037769
v -0.056196 0.023432 0.037769
v 0.077120 0.023432 -0.037769
v -0.161277 0.023432 -0.037769
v 0.126159 0.033958 0.030215
v -0.042298 0.033958 0.030215
v 0.066089 0.033958 -0.029359
v -0.121928 0.033958 -0.029359
vt 0.487589 0.561264
vt 0.487589 0.561264
vt 0.487589 0.561264
vt 0.487589 0.561264
vt 0.276652 0.000000
vt 0.487589 0.016905
vt 0.457537 0.391894
vt 0.246600 0.374990
vt 0.487589 0.579968
vt 0.276652 0.563063
vt 0.487589 0.561264
vt 0.487589 0.141392
vt 0.703929 0.000000
vt 0.703929 0.376192
vt 0.000000 0.418259
vt 0.209828 0.436706
vt 0.246600 0.581876
vt 0.036772 0.563428
vt 0.036772 0.000000
vt 0.246600 0.018447
vt 0.733785 1.000000
vt 0.703929 0.811895
vt 0.757763 0.791708
vt 0.781772 0.934365
vt 0.487589 0.561264
vt 0.487589 0.561264
vt 0.487589 0.561264
vt 0.487589 0.561264
vt 0.470229 0.914612
vt 0.139135 0.920168
vt 0.276499 0.747217
vt 0.573148 0.742240
vt 0.734372 0.436937
vt 0.781772 0.495990
vt 0.874550 0.418216
vt 0.911799 0.000000
vt 0.958243 0.073714
vt 0.928866 0.403549
vt 0.911156 0.563428
vt 0.958243 0.512381
vn 0.0000 0.0000 1.0000
vn -0.5837 0.0000 0.8120
vn 0.0000 -1.0000 -0.0000
vn 0.6853 0.0000 -0.7283
vn 0.0000 0.0000 -1.0000
vn -0.3335 0.8251 0.4560
vn 0.0000 1.0000 -0.0000
vn 0.0000 0.5830 0.8124
vn 0.0000 0.6242 -0.7812
vn 0.3989 0.8180 -0.4144
usemtl Material
s off
f 5/1/1 7/2/1 10/3/1 12/4/1
f 4/5/1 3/6/1 7/7/1 8/8/1
f 8/8/2 7/7/2 5/9/2 6/10/2
f 6/11/3 2/12/3 4/13/3 8/14/3
f 2/15/4 1/16/4 3/17/4 4/18/4
f 6/19/5 5/20/5 1/16/5 2/15/5
f 12/21/6 10/22/6 14/23/6 16/24/6
f 3/25/1 1/26/1 11/27/1 9/28/1
f 1/26/1 5/1/1 12/4/1 11/27/1
f 7/2/1 3/25/1 9/28/1 10/3/1
f 15/29/7 16/30/7 14/31/7 13/32/7
f 10/22/8 9/33/8 13/34/8 14/23/8
f 11/35/9 12/36/9 16/37/9 15/38/9
f 9/39/10 11/35/10 15/38/10 13/40/10
