# Blender v3.2.2 OBJ File: 'button.blend'
# www.blender.org
mtllib btstart.mtl
o Cube.001_Cube.002
frames: 1
v -0.177618 0.023432 0.037769
v -0.177618 -0.023432 0.037769
v -0.062056 0.023432 -0.052070
v -0.062056 -0.023432 -0.052070
v 0.155972 0.023432 0.037769
v 0.155972 -0.023432 0.037769
v 0.062945 0.023432 -0.052070
v 0.062945 -0.023432 -0.052070
v -0.062056 0.023432 -0.052070
v 0.062945 0.023432 -0.052070
v -0.177618 0.023432 0.037769
v 0.155972 0.023432 0.037769
v -0.049583 0.033958 -0.044516
v 0.043880 0.033958 -0.044516
v -0.140724 0.033958 0.029359
v 0.121856 0.033958 0.029359
vt 0.000000 0.993260
vt 0.000000 0.993260
vt 0.000000 0.993260
vt 0.000000 0.993260
vt 0.256063 0.796674
vt 0.051671 0.796674
vt 0.051671 0.584032
vt 0.256063 0.584032
vt 0.000000 0.425781
vt 0.204392 0.425781
vt 0.271813 0.063496
vt 0.839284 0.060435
vt 0.644040 0.310011
vt 0.431402 0.311158
vt 0.204392 0.993260
vt 0.000000 0.993260
vt 0.414196 0.906875
vt 0.416967 0.703444
vt 0.984393 0.711172
vt 0.981623 0.914603
vt 0.983668 0.443617
vt 0.820815 0.689146
vt 0.788778 0.667650
vt 0.925209 0.465796
vt 0.000000 0.993260
vt 0.000000 0.993260
vt 0.000000 0.993260
vt 0.478606 0.457475
vt 0.629814 0.664688
vt 0.333874 0.984120
vt 0.305363 0.773398
vt 0.358003 0.787687
vt 0.379321 0.945243
vt 0.414196 0.906875
vt 0.981623 0.914603
vt 0.922898 0.964807
vt 0.476258 0.958724
vt 0.330209 0.571659
vt 0.379321 0.628348
vn 0.0000 0.0000 1.0000
vn -0.0000 0.0000 -1.0000
vn 0.6947 0.0000 -0.7193
vn 0.0000 -1.0000 0.0000
vn -0.6138 0.0000 -0.7895
vn 0.3479 0.8642 -0.3634
vn 0.0000 1.0000 -0.0000
vn -0.0000 0.5830 -0.8124
vn 0.0000 0.6242 0.7812
vn -0.3568 0.8184 -0.4505
usemtl Material
s off
f 5/1/1 7/2/1 10/3/1 12/4/1
f 4/5/2 3/6/2 7/7/2 8/8/2
f 8/8/3 7/7/3 5/9/3 6/10/3
f 6/11/4 2/12/4 4/13/4 8/14/4
f 2/15/5 1/16/5 3/6/5 4/5/5
f 6/17/1 5/18/1 1/19/1 2/20/1
f 12/21/6 10/22/6 14/23/6 16/24/6
f 3/25/1 1/16/1 11/26/1 9/27/1
f 1/16/1 5/1/1 12/4/1 11/26/1
f 7/2/1 3/25/1 9/27/1 10/3/1
f 15/28/7 16/24/7 14/23/7 13/29/7
f 10/30/8 9/31/8 13/32/8 14/33/8
f 11/34/9 12/35/9 16/36/9 15/37/9
f 9/31/10 11/38/10 15/39/10 13/32/10