# 3ds Max Wavefront OBJ Exporter v0.97b - (c)2007 guruware
# File Created: 28.12.2018 21:52:16

mtllib Rbarn15.mtl

#
# object RedBarn15
#
frames: 1
texture: 1
v -0.676059 0.033525 -0.095991
v -0.536849 0.033525 -0.255050
v 0.211664 0.033525 0.400052
v 0.072455 0.033525 0.559111
v -0.397640 0.033525 -0.414109
v 0.350873 0.033525 0.240993
v -0.258431 0.033525 -0.573168
v 0.490083 0.033525 0.081933
v -0.119222 0.033525 -0.732228
v 0.629292 0.033525 -0.077126
v 0.211664 0.990925 0.400052
v 0.072455 0.791985 0.559111
v 0.629292 0.791985 -0.077126
v 0.490083 0.990925 0.081933
v -0.119222 0.791985 -0.732228
v -0.258431 0.990925 -0.573168
v -0.397640 1.015793 -0.414109
v -0.536849 0.990925 -0.255050
v -0.676059 0.791985 -0.095991
v 0.350874 1.015793 0.240993
v 0.402357 0.039742 0.087772
v 0.402357 0.363020 0.087772
v 0.205826 0.363020 0.312326
v 0.205826 0.039742 0.312326
v 0.252608 0.363020 0.353270
v 0.252608 0.039742 0.353270
v 0.449139 0.363020 0.128716
v 0.350873 0.363020 0.240993
v 0.449139 0.039742 0.128715
v 0.350873 0.039742 0.240993
v 0.350873 0.661181 0.240993
v 0.293880 0.661181 0.306113
v 0.293880 0.835752 0.306113
v 0.350874 0.835752 0.240993
v 0.419659 0.835752 0.162399
v 0.419659 0.661181 0.162399
v 0.372877 0.661181 0.121455
v 0.372877 0.835752 0.121455
v 0.247098 0.835752 0.265169
v 0.247098 0.661181 0.265169
v 0.293880 0.835752 0.306113
v 0.293880 0.661181 0.306113
v 0.419659 0.835752 0.162399
v 0.350874 0.835752 0.240993
v 0.419659 0.661181 0.162399
v 0.350873 0.661181 0.240993
v 0.449139 0.039742 0.128715
v 0.449139 0.363020 0.128716
v 0.252608 0.363020 0.353270
v 0.252608 0.039742 0.353270
v 0.233895 0.363020 0.336892
v 0.233895 0.039742 0.336892
v 0.430426 0.363020 0.112338
v 0.430426 0.039742 0.112338
v -0.748155 0.731591 -0.089131
v -0.576666 0.991860 -0.285073
v 0.246699 0.991860 0.435539
v 0.075210 0.731591 0.631481
v -0.435066 1.009576 -0.446864
v 0.388299 1.009576 0.273748
v 0.240830 1.015076 0.442245
v 0.064683 0.750641 0.643509
v 0.388299 1.034443 0.273748
v -0.435066 1.034443 -0.446864
v -0.582535 1.015076 -0.278367
v -0.758682 0.750641 -0.077103
v 0.529899 0.991860 0.111957
v -0.293466 0.991860 -0.608655
v -0.121977 0.731591 -0.804597
v 0.701388 0.731591 -0.083985
v 0.711916 0.750641 -0.096014
v 0.535768 1.015076 0.105251
v -0.287597 1.015076 -0.615361
v -0.111449 0.750641 -0.816626
v 0.205108 0.651949 0.278598
v 0.374300 0.651949 0.085279
v 0.445970 0.651949 0.148005
v 0.276778 0.651949 0.341324
v 0.479893 0.670911 0.128125
v 0.269757 0.670911 0.368225
v 0.398867 0.683344 0.057210
v 0.188730 0.683344 0.297311
vt 0.000000 0.355766
vt 0.068479 0.355766
vt 0.068479 0.678021
vt 0.000000 0.678021
vt 0.136958 0.355766
vt 0.136958 0.678021
vt 0.205437 0.355766
vt 0.205437 0.678021
vt 0.273917 0.355766
vt 0.273917 0.678021
vt 0.831848 0.318227
vt 0.831848 0.008056
vt 0.900328 0.072507
vt 0.900328 0.318227
vt 0.626411 0.318227
vt 0.626411 0.072507
vt 0.694890 0.008056
vt 0.694890 0.318227
vt 0.592301 0.672707
vt 0.838020 0.672707
vt 0.838020 0.994962
vt 0.592301 0.994962
vt 0.797738 0.362536
vt 0.866217 0.426988
vt 0.866217 0.672707
vt 0.797738 0.672707
vt 0.729259 0.354480
vt 0.729259 0.672707
vt 0.660780 0.362536
vt 0.660780 0.672707
vt 0.592301 0.426988
vt 0.592301 0.672707
vt 0.318384 1.000000
vt 0.318384 0.677745
vt 0.564104 0.677745
vt 0.564104 1.000000
vt 0.523822 0.676818
vt 0.523822 0.354596
vt 0.592301 0.355524
vt 0.592301 0.677745
vt 0.455343 0.676702
vt 0.455343 0.354480
vt 0.386863 0.676817
vt 0.386863 0.354596
vt 0.318384 0.677745
vt 0.318384 0.355524
vt 0.763369 0.318227
vt 0.763369 0.316213
vt 0.811707 0.316213
vt 0.811707 0.211480
vt 0.763369 0.211480
vt 0.763369 0.114884
vt 0.791405 0.114884
vt 0.791405 0.058328
vt 0.763369 0.058328
vt 0.763369 0.000000
vt 0.729532 0.058328
vt 0.729532 0.114884
vt 0.715031 0.211480
vt 0.715031 0.316213
vt 0.193353 0.782754
vt 0.193353 0.678021
vt 0.290029 0.678021
vt 0.290029 0.782754
vt 0.564103 0.782478
vt 0.564103 0.677745
vt 0.584244 0.677745
vt 0.584244 0.782478
vt 0.838020 0.769383
vt 0.838020 0.721045
vt 0.838020 0.672707
vt 0.858161 0.672707
vt 0.858161 0.769383
vt 0.294058 0.659182
vt 0.273917 0.659182
vt 0.273917 0.554449
vt 0.294058 0.554449
vt 0.858159 0.866060
vt 0.838020 0.866060
vt 0.838020 0.817721
vt 0.838020 0.769383
vt 0.858159 0.769383
vt 0.000000 0.782754
vt 0.056556 0.782754
vt 0.056556 0.844627
vt 0.000000 0.844627
vt 0.096836 0.839310
vt 0.096836 0.782754
vt 0.116976 0.782754
vt 0.116976 0.839310
vt 0.564103 0.844351
vt 0.564103 0.810514
vt 0.564103 0.782478
vt 0.584244 0.782478
vt 0.584244 0.844351
vt 0.096835 0.839310
vt 0.076694 0.839310
vt 0.076694 0.782754
vt 0.096835 0.782754
vt 0.076694 0.844627
vt 0.056556 0.844627
vt 0.056556 0.816591
vt 0.056556 0.782754
vt 0.076694 0.782754
vt 0.096676 0.782754
vt 0.096676 0.678021
vt 0.193353 0.678021
vt 0.193353 0.782754
vt 0.584244 0.677745
vt 0.592301 0.677745
vt 0.592301 0.782478
vt 0.584244 0.782478
vt 0.858159 0.769383
vt 0.866215 0.769383
vt 0.866215 0.866060
vt 0.858159 0.866060
vt 0.302114 0.554449
vt 0.302114 0.659182
vt 0.294058 0.659182
vt 0.294058 0.554449
vt 0.316911 0.710247
vt 0.316911 0.806923
vt 0.308855 0.806923
vt 0.308855 0.710247
vt 0.000000 0.678021
vt 0.096676 0.678021
vt 0.096676 0.782754
vt 0.000000 0.782754
vt 0.318384 0.000000
vt 0.402742 0.000000
vt 0.402742 0.354480
vt 0.318384 0.354480
vt 0.472397 0.000000
vt 0.472397 0.354480
vt 0.880013 0.762401
vt 0.872491 0.759514
vt 0.958161 0.672864
vt 0.964333 0.678043
vt 0.874273 0.832056
vt 0.866217 0.832056
vt 0.308855 0.355766
vt 0.316912 0.355766
vt 0.316911 0.710247
vt 0.308855 0.710247
vt 0.872491 0.586215
vt 0.866217 0.513672
vt 0.874273 0.513672
vt 0.880013 0.583327
vt 0.958161 0.672864
vt 0.964333 0.667686
vt 0.302629 0.908929
vt 0.302629 0.554449
vt 0.308801 0.554449
vt 0.308801 0.908929
vt 0.231734 0.354534
vt 0.231734 0.000090
vt 0.318384 0.001323
vt 0.318384 0.355766
vt 0.159192 0.354444
vt 0.159192 0.000000
vt 0.542053 0.354480
vt 0.542053 0.000000
vt 0.626411 0.000000
vt 0.626411 0.354480
vt 0.958161 0.991248
vt 0.872491 0.904598
vt 0.880013 0.901711
vt 0.964333 0.986070
vt 0.872491 0.441130
vt 0.880013 0.444017
vt 0.958161 0.354480
vt 0.964333 0.359659
vt 0.900328 0.000000
vt 0.906499 0.000000
vt 0.906499 0.354480
vt 0.900328 0.354480
vt 0.000000 0.001323
vt 0.086650 0.000090
vt 0.086650 0.354534
vt 0.000000 0.355766
vt 0.308801 0.459136
vt 0.308801 0.542365
vt 0.277945 0.542365
vt 0.277945 0.459136
vt 0.296172 0.872676
vt 0.290029 0.884760
vt 0.290029 0.781391
vt 0.296172 0.789447
vt 0.308801 0.554449
vt 0.273917 0.554449
vt 0.290029 0.781391
vt 0.290029 0.678021
vt 0.300200 0.690106
vt 0.300200 0.773334
vt 0.636515 0.318227
vt 0.636515 0.353343
vt 0.626411 0.352176
vt 0.629951 0.321523
vt 0.273917 0.355767
vt 0.308855 0.355767
vt 0.308855 0.459136
vt 0.273917 0.459136
vn -0.0000 -1.0000 -0.0000
vn 0.7525 -0.0000 0.6586
vn 0.6586 -0.0000 -0.7525
vn 0.6046 0.3966 -0.6908
vn -0.7525 0.0000 -0.6586
vn -0.6046 0.3966 0.6908
vn -0.6586 -0.0000 0.7525
vn -0.2782 0.9064 0.3179
vn 0.0000 1.0000 0.0000
vn 0.2782 0.9064 -0.3179
vn 0.4656 -0.7073 -0.5320
vn 0.2768 -0.9074 -0.3162
vn 0.2953 -0.8938 -0.3374
vn 0.4845 -0.6775 -0.5535
vn 0.4854 0.6760 -0.5545
vn 0.4853 0.6760 -0.5546
vn 0.4844 -0.6775 -0.5535
vn -0.6579 0.0465 0.7517
vn -0.5045 -0.6428 0.5765
vn -0.2763 0.9077 0.3157
vn -0.2954 0.8938 0.3375
vn -0.2768 -0.9074 0.3162
vn -0.4656 -0.7073 0.5320
vn -0.2953 -0.8938 0.3374
vn 0.5045 -0.6428 -0.5764
vn 0.6579 0.0465 -0.7517
vn 0.2763 0.9077 -0.3157
vn 0.2954 0.8938 -0.3375
vn -0.2734 -0.9211 0.2773
vn 0.1748 -0.9550 -0.2398
vn 0.3759 -0.9259 0.0362
vn 0.0505 -0.9029 0.4269
vn 0.5736 -0.8173 0.0552
vn 0.0765 -0.7587 0.6469
vn -0.1921 -0.8369 -0.5125
vn -0.2889 -0.5684 -0.7704
vn -0.8699 -0.4825 -0.1024
vn -0.2888 -0.5684 -0.7704
vn -0.8699 -0.4824 -0.1024
vn -0.5936 -0.8017 -0.0699
vn 0.0863 0.9934 0.0755
usemtl barn
s 1
f 1/1/1 2/2/1 3/3/1 4/4/1
f 2/2/1 5/5/1 6/6/1 3/3/1
f 5/5/1 7/7/1 8/8/1 6/6/1
f 7/7/1 9/9/1 10/10/1 8/8/1
f 3/11/2 11/12/2 12/13/2 4/14/2
f 10/15/2 13/16/2 14/17/2 8/18/2
f 9/19/3 15/20/4 13/21/4 10/22/3
f 16/23/5 15/24/5 9/25/5 7/26/5
f 17/27/5 16/23/5 7/26/5 5/28/5
f 18/29/5 17/27/5 5/28/5 2/30/5
f 19/31/5 18/29/5 2/30/5 1/32/5
f 12/33/6 19/34/6 1/35/7 4/36/7
f 11/37/8 18/38/8 19/39/6 12/40/6
f 20/41/9 17/42/9 18/38/8 11/37/8
f 14/43/10 16/44/10 17/42/9 20/41/9
f 13/45/4 15/46/4 16/44/10 14/43/10
f 6/47/2 30/48/2 26/49/2 25/50/2 28/51/2 31/52/2 32/53/2 33/54/2 34/55/2 20/56/2 11/12/2 3/11/2
f 20/56/2 34/55/2 35/57/2 36/58/2 31/52/2 28/51/2 27/59/2 29/60/2 30/48/2 6/47/2 8/18/2 14/17/2
usemtl door
f 21/61/2 22/62/2 23/63/2 24/64/2
f 25/65/3 26/66/3 24/67/3 23/68/3
f 27/69/1 28/70/1 25/71/1 23/72/1 22/73/1
f 21/74/7 29/75/7 27/76/7 22/77/7
f 24/78/9 26/79/9 30/80/9 29/81/9 21/82/9
f 37/83/2 38/84/2 39/85/2 40/86/2
f 41/87/3 42/88/3 40/89/3 39/90/3
f 43/91/1 44/92/1 41/93/1 39/94/1 38/95/1
f 37/96/7 45/97/7 43/98/7 38/99/7
f 40/100/9 42/101/9 46/102/9 45/103/9 37/104/9
usemtl barndoor
f 47/105/2 48/106/2 49/107/2 50/108/2
f 49/109/7 51/110/7 52/111/7 50/112/7
f 48/113/9 53/114/9 51/115/9 49/116/9
f 54/117/3 53/118/3 48/119/3 47/120/3
f 52/121/1 54/122/1 47/123/1 50/124/1
f 51/125/5 53/126/5 54/127/5 52/128/5
f 55/129/11 56/130/12 57/131/12 58/132/11
f 56/130/12 59/133/13 60/134/13 57/131/12
f 57/135/2 61/136/2 62/137/2 58/138/2
f 60/139/2 63/140/2 61/136/2 57/135/2
f 59/141/14 64/142/15 63/143/16 60/144/17
f 65/145/5 64/146/5 59/147/5 56/148/5
f 66/149/5 65/145/5 56/148/5 55/150/5
f 62/151/18 66/152/18 55/153/19 58/154/19
f 61/155/20 65/156/20 66/157/18 62/158/18
f 63/159/21 64/160/21 65/156/20 61/155/20
f 67/161/22 68/162/22 69/163/23 70/164/23
f 60/134/24 59/133/24 68/162/22 67/161/22
f 71/165/2 72/166/2 67/167/2 70/168/2
f 72/166/2 63/140/2 60/139/2 67/167/2
f 59/147/5 64/146/5 73/169/5 68/170/5
f 68/170/5 73/169/5 74/171/5 69/172/5
f 69/173/25 74/174/26 71/175/26 70/176/25
f 74/177/26 73/178/27 72/179/27 71/180/26
f 73/178/27 64/160/28 63/159/28 72/179/27
usemtl grass
f 75/181/29 76/182/30 77/183/31 78/184/32
f 77/185/31 79/186/33 80/187/34 78/188/32
f 76/182/35 81/189/36 79/190/33 77/183/31
f 82/191/37 81/192/38 76/193/38 75/194/39
f 80/195/34 82/196/39 75/197/40 78/198/32
f 79/199/41 81/200/41 82/201/41 80/202/41