# Blender v3.1.2 OBJ File: ''
# www.blender.org
mtllib ceu.mtl
o Cilindro
frames: 1
texture: 1
v 27.150927 -0.412644 -23.506235
v -27.150927 0.412644 -23.506235
v 27.220625 4.173360 -23.054569
v -27.081228 4.998649 -23.054569
v 27.287645 8.583128 -21.716928
v -27.014208 9.408417 -21.716928
v 27.349413 12.647192 -19.544720
v -26.952440 13.472481 -19.544720
v 27.403551 16.209375 -16.621418
v -26.898302 17.034662 -16.621418
v 27.447981 19.132782 -13.059365
v -26.853872 19.958069 -13.059365
v 27.480995 21.305069 -8.995446
v -26.820858 22.130356 -8.995446
v 27.501326 22.642757 -4.585840
v -26.800528 23.468044 -4.585840
v 27.508190 23.094440 0.000001
v -26.793663 23.919727 0.000001
v 27.501326 22.642757 4.585839
v -26.800528 23.468044 4.585839
v 27.480995 21.305071 8.995446
v -26.820858 22.130358 8.995446
v 27.447981 19.132784 13.059363
v -26.853872 19.958071 13.059363
v 27.403551 16.209375 16.621418
v -26.898302 17.034662 16.621418
v 27.349413 12.647190 19.544722
v -26.952440 13.472479 19.544722
v 27.287645 8.583128 21.716928
v -27.014208 9.408417 21.716928
v 27.220625 4.173360 23.054569
v -27.081228 4.998649 23.054569
v 27.150927 -0.412646 23.506235
v -27.150927 0.412642 23.506235
v 27.081228 -4.998647 23.054569
v -27.220625 -4.173358 23.054569
v 27.014208 -9.408416 21.716928
v -27.287645 -8.583127 21.716928
v 26.952440 -13.472482 19.544718
v -27.349413 -12.647193 19.544718
v 26.898302 -17.034660 16.621420
v -27.403551 -16.209373 16.621420
v 26.853872 -19.958067 13.059369
v -27.447981 -19.132780 13.059369
v 26.820858 -22.130356 8.995450
v -27.480995 -21.305069 8.995450
v 26.800528 -23.468044 4.585840
v -27.501326 -22.642757 4.585840
v 26.793663 -23.919727 -0.000000
v -27.508190 -23.094440 -0.000000
v 26.800528 -23.468044 -4.585841
v -27.501326 -22.642757 -4.585841
v 26.820858 -22.130356 -8.995451
v -27.480995 -21.305069 -8.995451
v 26.853872 -19.958073 -13.059361
v -27.447981 -19.132786 -13.059361
v 26.898302 -17.034664 -16.621416
v -27.403551 -16.209377 -16.621416
v 26.952440 -13.472482 -19.544720
v -27.349413 -12.647193 -19.544720
v 27.014208 -9.408416 -21.716930
v -27.287645 -8.583127 -21.716930
v 27.081228 -4.998647 -23.054569
v -27.220625 -4.173358 -23.054569
vt 1.000000 0.164882
vt 1.000000 0.664882
vt 0.968750 0.664882
vt 0.968750 0.164882
vt 0.937500 0.664882
vt 0.937500 0.164882
vt 0.906250 0.664882
vt 0.906250 0.164882
vt 0.875000 0.664882
vt 0.875000 0.164882
vt 0.843750 0.664882
vt 0.843750 0.164882
vt 0.812500 0.664882
vt 0.812500 0.164882
vt 0.781250 0.664882
vt 0.781250 0.164882
vt 0.750000 0.664882
vt 0.750000 0.164882
vt 0.718750 0.664882
vt 0.718750 0.164882
vt 0.687500 0.664882
vt 0.687500 0.164882
vt 0.656250 0.664882
vt 0.656250 0.164882
vt 0.625000 0.664882
vt 0.625000 0.164882
vt 0.593750 0.664882
vt 0.593750 0.164882
vt 0.562500 0.664882
vt 0.562500 0.164882
vt 0.531250 0.664882
vt 0.531250 0.164882
vt 0.500000 0.664882
vt 0.500000 0.164882
vt 0.468750 0.664882
vt 0.468750 0.164882
vt 0.437500 0.664882
vt 0.437500 0.164882
vt 0.406250 0.664882
vt 0.406250 0.164882
vt 0.375000 0.664882
vt 0.375000 0.164882
vt 0.343750 0.664882
vt 0.343750 0.164882
vt 0.312500 0.664882
vt 0.312500 0.164882
vt 0.281250 0.664882
vt 0.281250 0.164882
vt 0.250000 0.664882
vt 0.250000 0.164882
vt 0.218750 0.664882
vt 0.218750 0.164882
vt 0.187500 0.664882
vt 0.187500 0.164882
vt 0.156250 0.664882
vt 0.156250 0.164882
vt 0.125000 0.664882
vt 0.125000 0.164882
vt 0.093750 0.664882
vt 0.093750 0.164882
vt 0.062500 0.664882
vt 0.062500 0.164882
vt 0.031250 0.664882
vt 0.031250 0.164882
vt 0.000000 0.664882
vt 0.000000 0.164882
vn 0.0015 0.0980 -0.9952
vn 0.0044 0.2902 -0.9570
vn 0.0072 0.4713 -0.8820
vn 0.0096 0.6343 -0.7731
vn 0.0117 0.7729 -0.6345
vn 0.0134 0.8818 -0.4715
vn 0.0145 0.9568 -0.2903
vn 0.0151 0.9951 -0.0980
vn 0.0151 0.9951 0.0980
vn 0.0145 0.9568 0.2903
vn 0.0134 0.8818 0.4715
vn 0.0117 0.7729 0.6345
vn 0.0096 0.6343 0.7731
vn 0.0072 0.4713 0.8820
vn 0.0044 0.2902 0.9570
vn 0.0015 0.0980 0.9952
vn -0.0015 -0.0980 0.9952
vn -0.0044 -0.2902 0.9570
vn -0.0072 -0.4713 0.8820
vn -0.0096 -0.6343 0.7731
vn -0.0117 -0.7729 0.6345
vn -0.0134 -0.8818 0.4715
vn -0.0145 -0.9568 0.2903
vn -0.0151 -0.9951 0.0980
vn -0.0151 -0.9951 -0.0980
vn -0.0145 -0.9568 -0.2903
vn -0.0134 -0.8818 -0.4715
vn -0.0117 -0.7729 -0.6345
vn -0.0096 -0.6343 -0.7731
vn -0.0072 -0.4713 -0.8820
vn -0.0044 -0.2902 -0.9570
vn -0.0015 -0.0980 -0.9952
usemtl Materiais
s off
f 1/1/1 2/2/1 4/3/1 3/4/1
f 3/4/2 4/3/2 6/5/2 5/6/2
f 5/6/3 6/5/3 8/7/3 7/8/3
f 7/8/4 8/7/4 10/9/4 9/10/4
f 9/10/5 10/9/5 12/11/5 11/12/5
f 11/12/6 12/11/6 14/13/6 13/14/6
f 13/14/7 14/13/7 16/15/7 15/16/7
f 15/16/8 16/15/8 18/17/8 17/18/8
f 17/18/9 18/17/9 20/19/9 19/20/9
f 19/20/10 20/19/10 22/21/10 21/22/10
f 21/22/11 22/21/11 24/23/11 23/24/11
f 23/24/12 24/23/12 26/25/12 25/26/12
f 25/26/13 26/25/13 28/27/13 27/28/13
f 27/28/14 28/27/14 30/29/14 29/30/14
f 29/30/15 30/29/15 32/31/15 31/32/15
f 31/32/16 32/31/16 34/33/16 33/34/16
f 33/34/17 34/33/17 36/35/17 35/36/17
f 35/36/18 36/35/18 38/37/18 37/38/18
f 37/38/19 38/37/19 40/39/19 39/40/19
f 39/40/20 40/39/20 42/41/20 41/42/20
f 41/42/21 42/41/21 44/43/21 43/44/21
f 43/44/22 44/43/22 46/45/22 45/46/22
f 45/46/23 46/45/23 48/47/23 47/48/23
f 47/48/24 48/47/24 50/49/24 49/50/24
f 49/50/25 50/49/25 52/51/25 51/52/25
f 51/52/26 52/51/26 54/53/26 53/54/26
f 53/54/27 54/53/27 56/55/27 55/56/27
f 55/56/28 56/55/28 58/57/28 57/58/28
f 57/58/29 58/57/29 60/59/29 59/60/29
f 59/60/30 60/59/30 62/61/30 61/62/30
f 61/62/31 62/61/31 64/63/31 63/64/31
f 63/64/32 64/63/32 2/65/32 1/66/32