# Blender v2.79 (sub 0) OBJ File: ''
# www.blender.org
mtllib figurab.mtl
o Plane

frames: 1
v 0.087218 -0.049180 0.031695
v 0.069430 0.057531 0.053850
v 0.007912 -0.020023 0.102794
v -0.010636 -0.100302 0.029268
v 0.039419 -0.072361 -0.065116
v 0.088902 0.025185 -0.049923
v -0.039419 0.072361 0.065116
v -0.088902 -0.025185 0.049923
v -0.069430 -0.057531 -0.053850
v -0.007912 0.020023 -0.102794
v 0.010636 0.100302 -0.029268
v -0.087218 0.049180 -0.031695
v 0.055916 -0.040676 0.079050
v 0.092075 0.004909 0.050282
v 0.045460 0.022047 0.092073
v 0.093064 0.048619 0.002308
v 0.103520 -0.014104 -0.010714
v 0.045014 -0.087863 0.035833
v -0.001601 -0.070725 0.077624
v 0.074435 -0.071440 -0.019644
v 0.016919 -0.101489 -0.021071
v 0.075425 -0.027729 -0.067619
v 0.047061 0.092772 0.014449
v 0.058506 0.073759 -0.046548
v -0.018519 0.030763 0.098695
v 0.017640 0.076349 0.069927
v -0.058506 -0.073759 0.046548
v -0.047605 -0.026573 0.089765
v -0.017640 -0.076349 -0.069927
v -0.047061 -0.092772 -0.014449
v 0.047605 0.026573 -0.089765
v 0.018519 -0.030763 -0.098695
v -0.016919 0.101489 0.021071
v -0.075425 0.027729 0.067619
v -0.093064 -0.048619 -0.002308
v -0.045460 -0.022047 -0.092073
v 0.001601 0.070725 -0.077624
v -0.074435 0.071440 0.019644
v -0.045014 0.087863 -0.035833
v -0.103520 0.014104 0.010714
v -0.092075 -0.004909 -0.050282
v -0.055916 0.040676 -0.079050
vt 0.248707 0.499740
vt 0.119092 0.490021
vt 0.203892 0.387283
vt 0.000000 0.499741
vt 0.047749 0.617617
vt 0.331147 0.451384
vt 0.324992 0.593738
vt 0.193936 0.617616
vt 0.108244 0.067804
vt 0.207286 0.000000
vt 0.223598 0.119677
vt 0.919341 0.110785
vt 1.000000 0.059515
vt 0.998936 0.202001
vt 0.670791 0.119669
vt 0.789459 0.105701
vt 0.722720 0.235766
vt 0.562548 0.319478
vt 0.447193 0.267607
vt 0.575304 0.193641
vt 0.856497 0.719349
vt 0.730098 0.719349
vt 0.793479 0.617828
vt 0.095488 0.193641
vt 0.868814 0.230545
vt 0.344595 0.193642
vt 0.335396 0.073965
vt 0.447193 0.119677
vt 0.670791 0.267605
vt 0.939573 0.623049
vt 0.108243 0.319478
vt 0.223598 0.267607
vt 0.207286 0.387283
vt 0.458480 0.391798
vt 0.584798 0.387284
vt 0.525083 0.491002
vt 0.331147 0.608876
vt 0.378896 0.491001
vt 0.450239 0.618597
vt 0.742952 0.498068
vt 0.662293 0.446798
vt 0.791756 0.387283
vt 0.991502 0.506952
vt 0.872834 0.492984
vt 0.937850 0.392505
vt 0.662293 0.657234
vt 0.535038 0.721334
vt 0.579854 0.608878
vt 0.388852 0.721334
vt 0.656139 0.514880
vt 0.069096 0.387283
vt 0.335395 0.313319
vt 0.326196 0.193642
vt 0.663357 0.589283
vt 0.670790 0.119674
vt 0.562547 0.067804
vt 0.463505 0.000000
vt 0.348262 0.387283
vt 0.932195 0.332066
vt 0.805796 0.332066
vt 0.000000 0.267605
vt 0.601695 0.387283
vt 0.000001 0.119674
vt 0.335396 0.073965
vt 0.127332 0.716820
vt 0.017115 0.721334
vt 0.253651 0.721334
vt 0.463505 0.387283
vt 0.335396 0.313319
vt 0.724443 0.005222
vt 0.870537 0.000000
vt 0.057705 0.387283
vn 0.7821 -0.2642 0.5644
vn 0.8723 0.3524 0.3391
vn 0.6076 -0.6082 0.5108
vn 0.6762 -0.7223 0.1448
vn 0.8932 -0.4488 -0.0278
vn 0.7053 0.6782 0.2062
vn 0.1211 0.1423 0.9824
vn -0.2514 -0.8041 0.5388
vn 0.1028 -0.8530 -0.5116
vn 0.6940 0.0631 -0.7172
vn 0.4256 0.7811 0.4569
vn -0.2241 -0.0380 0.9738
vn -0.4199 -0.8858 0.1973
vn 0.1087 -0.5908 -0.7995
vn 0.6313 0.4394 -0.6390
vn -0.4442 0.8348 0.3252
vn -0.9014 0.0878 0.4240
vn -0.8723 -0.3524 -0.3391
vn -0.3971 0.1226 -0.9095
vn -0.1325 0.8564 -0.4990
vn -0.6076 0.6082 -0.5108
vn -0.3375 0.6770 -0.6540
vn -0.2226 0.4667 -0.8560
vn -0.7821 0.2642 -0.5644
vn -0.6573 0.0466 -0.7522
vn -0.6957 -0.2538 -0.6719
vn -0.9586 0.1656 -0.2315
vn -0.9807 -0.1339 -0.1423
vn -0.9668 -0.1954 0.1647
vn -0.8932 0.4488 0.0278
vn -0.8609 0.3848 0.3329
vn -0.6612 0.5613 0.4978
vn -0.6762 0.7223 -0.1448
vn -0.4633 0.8860 0.0166
vn -0.2012 0.9705 -0.1330
vn 0.2514 0.8041 -0.5388
vn 0.3660 0.5812 -0.7269
vn 0.1613 0.4144 -0.8957
vn -0.1211 -0.1423 -0.9824
vn -0.1515 -0.4388 -0.8857
vn -0.4197 -0.5188 -0.7448
vn -0.7053 -0.6782 -0.2062
vn -0.6749 -0.7310 0.1012
vn -0.7999 -0.5212 0.2976
vn -0.6940 -0.0631 0.7172
vn -0.4809 0.1085 0.8700
vn -0.4538 0.4105 0.7909
vn -0.1028 0.8530 0.5116
vn 0.1623 0.9194 0.3583
vn 0.1402 0.9887 0.0534
vn 0.2241 0.0380 -0.9738
vn 0.4809 -0.1085 -0.8700
vn 0.4538 -0.4105 -0.7909
vn -0.4256 -0.7811 -0.4569
vn -0.1623 -0.9194 -0.3583
vn -0.1402 -0.9887 -0.0534
vn -0.6313 -0.4394 0.6390
vn -0.3660 -0.5812 0.7269
vn -0.1613 -0.4144 0.8957
vn -0.1087 0.5908 0.7995
vn 0.1515 0.4388 0.8857
vn 0.4197 0.5188 0.7448
vn 0.4199 0.8858 -0.1973
vn 0.6749 0.7310 -0.1012
vn 0.7999 0.5212 -0.2976
vn 0.9014 -0.0878 -0.4240
vn 0.8609 -0.3848 -0.3329
vn 0.6612 -0.5613 -0.4978
vn 0.4442 -0.8348 -0.3252
vn 0.4633 -0.8860 -0.0166
vn 0.2012 -0.9705 0.1330
vn 0.1325 -0.8564 0.4990
vn 0.3375 -0.6770 0.6540
vn 0.2226 -0.4667 0.8560
vn 0.9668 0.1954 -0.1647
vn 0.9807 0.1339 0.1423
vn 0.9586 -0.1656 0.2315
vn 0.3971 -0.1226 0.9095
vn 0.6573 -0.0466 0.7522
vn 0.6957 0.2538 0.6719
usemtl Material.003
s off
f 1/1/1 14/2/1 13/3/1
f 2/4/2 14/2/2 16/5/2
f 1/1/3 13/3/3 18/6/3
f 1/1/4 18/6/4 20/7/4
f 1/1/5 20/7/5 17/8/5
f 2/9/6 16/10/6 23/11/6
f 3/12/7 15/13/7 25/14/7
f 4/15/8 19/16/8 27/17/8
f 5/18/9 21/19/9 29/20/9
f 6/21/10 22/22/10 31/23/10
f 2/9/11 23/11/11 26/24/11
f 3/12/12 25/14/12 28/25/12
f 4/26/13 27/27/13 30/28/13
f 5/18/14 29/20/14 32/29/14
f 6/21/15 31/23/15 24/30/15
f 7/31/16 33/32/16 38/33/16
f 8/34/17 34/35/17 40/36/17
f 9/37/18 35/38/18 41/39/18
f 10/40/19 36/41/19 42/42/19
f 11/43/20 37/44/20 39/45/20
f 39/46/21 42/47/21 12/48/21
f 39/45/22 37/44/22 42/42/22
f 37/44/23 10/40/23 42/42/23
f 42/47/24 41/39/24 12/48/24
f 42/47/25 36/49/25 41/39/25
f 36/49/26 9/37/26 41/39/26
f 41/39/27 40/36/27 12/48/27
f 41/39/28 35/38/28 40/36/28
f 35/38/29 8/34/29 40/36/29
f 40/36/30 38/50/30 12/48/30
f 40/36/31 34/35/31 38/50/31
f 34/51/32 7/31/32 38/33/32
f 38/50/33 39/46/33 12/48/33
f 38/33/34 33/32/34 39/52/34
f 33/32/35 11/53/35 39/52/35
f 24/30/36 37/44/36 11/43/36
f 24/30/37 31/23/37 37/44/37
f 31/23/38 10/40/38 37/44/38
f 32/54/39 36/41/39 10/40/39
f 32/29/40 29/20/40 36/55/40
f 29/20/41 9/56/41 36/55/41
f 30/28/42 35/57/42 9/56/42
f 30/28/43 27/27/43 35/57/43
f 27/58/44 8/34/44 35/38/44
f 28/25/45 34/59/45 8/60/45
f 28/25/46 25/14/46 34/59/46
f 25/61/47 7/31/47 34/51/47
f 26/24/48 33/32/48 7/31/48
f 26/24/49 23/11/49 33/32/49
f 23/11/50 11/53/50 33/32/50
f 31/23/51 32/54/51 10/40/51
f 31/23/52 22/22/52 32/54/52
f 22/62/53 5/18/53 32/29/53
f 29/20/54 30/28/54 9/56/54
f 29/20/55 21/19/55 30/28/55
f 21/19/56 4/26/56 30/28/56
f 27/17/57 28/25/57 8/60/57
f 27/17/58 19/16/58 28/25/58
f 19/16/59 3/12/59 28/25/59
f 25/61/60 26/24/60 7/31/60
f 25/61/61 15/63/61 26/24/61
f 15/63/62 2/9/62 26/24/62
f 23/11/63 24/64/63 11/53/63
f 23/11/64 16/10/64 24/64/64
f 16/5/65 6/65/65 24/66/65
f 17/8/66 22/67/66 6/65/66
f 17/8/67 20/7/67 22/67/67
f 20/68/68 5/18/68 22/62/68
f 20/68/69 21/19/69 5/18/69
f 20/68/70 18/69/70 21/19/70
f 18/69/71 4/26/71 21/19/71
f 18/70/72 19/16/72 4/15/72
f 18/70/73 13/71/73 19/16/73
f 13/71/74 3/12/74 19/16/74
f 16/5/75 17/8/75 6/65/75
f 16/5/76 14/2/76 17/8/76
f 14/2/77 1/1/77 17/8/77
f 13/71/78 15/13/78 3/12/78
f 13/3/79 14/2/79 15/72/79
f 14/2/80 2/4/80 15/72/80