# Blender v3.2.2 OBJ File: 'inimigodx.blend'
# www.blender.org
mtllib inimigodx.mtl
o Cube
frames: 1
texture: 1
v 0.028434 0.021316 -0.028434
v -0.028434 0.021316 -0.028434
v -0.028434 0.021316 0.028434
v 0.028434 0.021316 0.028434
v -0.085666 -0.021316 0.085666
v -0.119720 -0.002487 0.198155
v -0.119720 0.002487 0.198155
v -0.207609 0.002417 -0.102427
v -0.207609 -0.002417 -0.102427
v -0.085666 -0.021316 -0.085666
v 0.085666 -0.021316 -0.085666
v 0.085666 -0.021316 0.085666
v 0.198219 -0.002454 0.119603
v 0.198219 0.002454 0.119603
v 0.101025 -0.002814 -0.208375
v 0.120874 -0.002814 -0.197524
v 0.207680 -0.002454 0.102296
v 0.207680 0.002454 0.102296
v -0.198290 0.002417 -0.119472
v -0.198290 -0.002417 -0.119472
v -0.102179 -0.002487 0.207744
v -0.102179 0.002487 0.207744
v 0.101025 0.002814 -0.208375
v 0.120874 0.002814 -0.197524
vt 0.621007 0.197670
vt 0.691895 0.176942
vt 0.712623 0.247831
vt 0.641734 0.268558
vt 0.853399 0.444765
vt 0.853399 0.690160
vt 0.676370 0.656969
vt 0.665691 0.633787
vt 0.238757 0.722247
vt 0.000000 0.722247
vt 0.120284 0.444658
vt 0.144967 0.446982
vt 0.298216 0.359940
vt 0.084640 0.297491
vt 0.147089 0.083915
vt 0.360665 0.146364
vt 0.665016 0.690129
vt 0.665016 0.935472
vt 0.487928 0.902023
vt 0.477390 0.879161
vt 0.020787 0.444658
vt 0.000000 0.423897
vt 0.853251 0.746420
vt 0.878433 0.746081
vt 0.878433 0.771632
vt 0.853251 0.771971
vt 0.477358 0.999805
vt 0.238596 0.999805
vt 0.358757 0.722247
vt 0.383819 0.724613
vt 0.001072 0.018507
vt 0.019175 0.000381
vt 0.463313 0.444276
vt 0.445210 0.426150
vt 0.853251 0.772284
vt 0.878051 0.771971
vt 0.878051 0.797143
vt 0.853251 0.797456
vt 0.444138 0.425076
vt 0.426310 0.442928
vt 0.870448 0.001730
vt 0.888276 0.019581
vt 0.853251 0.690160
vt 0.853251 0.935507
vt 0.676069 0.901857
vt 0.665691 0.879341
vt 0.853251 0.720180
vt 0.878762 0.719845
vt 0.878762 0.745747
vt 0.853251 0.746081
vt 0.425768 0.000000
vt 0.444138 0.018347
vt 0.888276 0.426310
vt 0.869906 0.444658
vt 0.238596 1.000000
vt 0.000000 1.000000
vt 0.119907 0.722247
vt 0.145323 0.724611
vt 0.853251 0.690536
vt 0.882118 0.690160
vt 0.882118 0.719470
vt 0.853251 0.719845
vt 0.444139 0.020761
vt 0.464926 0.000000
vt 0.665691 0.444765
vt 0.665691 0.690129
vt 0.489488 0.658704
vt 0.477390 0.632477
vt 0.477390 0.722247
vt 0.238757 0.722247
vt 0.357579 0.444765
vt 0.386331 0.447495
vn 0.0000 1.0000 0.0000
vn -0.7800 0.5212 -0.3464
vn -0.3680 0.8625 0.3474
vn 0.0000 -1.0000 -0.0000
vn -0.3454 0.5226 0.7795
vn 0.0084 -0.9889 -0.1481
vn 0.8775 0.0000 0.4797
vn 0.3682 0.8622 -0.3480
vn 0.1518 -0.9884 0.0076
vn 0.0995 0.9950 0.0127
vn -0.8774 0.0000 -0.4797
vn -0.1521 -0.9883 -0.0075
vn -0.0997 0.9949 -0.0126
vn 0.3443 0.5241 -0.7790
vn -0.4797 0.0000 0.8774
vn -0.0077 -0.9884 0.1514
vn -0.0128 0.9950 0.0992
vn 0.3486 0.8619 0.3683
vn 0.4797 0.0000 -0.8774
vn 0.0137 0.9952 -0.0968
vn 0.7844 0.5076 0.3564
vn -0.3542 0.8589 -0.3700
usemtl Material.008
s 1
f 1/1/1 2/2/1 3/3/1 4/4/1
f 3/5/2 5/6/2 6/7/2 7/8/2
f 5/9/3 3/10/3 8/11/3 9/12/3
f 10/13/4 11/14/4 12/15/4 5/16/4
f 4/17/5 12/18/5 13/19/5 14/20/5
f 11/14/6 10/13/6 15/21/6 16/22/6
f 17/23/7 18/24/7 14/25/7 13/26/7
f 11/27/8 1/28/8 18/29/8 17/30/8
f 12/15/9 11/14/9 17/31/9 13/32/9
f 1/1/10 4/4/10 14/33/10 18/34/10
f 9/35/11 8/36/11 19/37/11 20/38/11
f 10/13/12 5/16/12 9/39/12 20/40/12
f 3/3/13 2/2/13 19/41/13 8/42/13
f 2/43/14 10/44/14 20/45/14 19/46/14
f 21/47/15 22/48/15 7/49/15 6/50/15
f 5/16/16 12/15/16 21/51/16 6/52/16
f 4/4/17 3/3/17 7/53/17 22/54/17
f 12/55/18 4/56/18 22/57/18 21/58/18
f 15/59/19 23/60/19 24/61/19 16/62/19
f 2/2/20 1/1/20 24/63/20 23/64/20
f 1/65/21 11/66/21 16/67/21 24/68/21
f 10/69/22 2/70/22 23/71/22 15/72/22
