# Blender v3.1.2 OBJ File: 'inimigo.blend'
# www.blender.org
mtllib inimigo.mtl
o Cube
frames: 1
texture: 1
v -0.014953 0.048888 -0.028316
v -0.044318 0.048888 -0.028316
v -0.046687 0.048888 0.013510
v -0.014953 0.048888 0.013510
v -0.054859 0.023638 0.019220
v -0.014953 0.021153 0.025618
v 0.025203 0.048888 -0.028316
v 0.025203 0.048888 0.013510
v 0.104253 0.019692 0.013510
v 0.104253 0.028872 -0.028316
v 0.025203 0.048888 -0.028316
v 0.025203 0.048888 0.013510
v -0.133909 0.019692 0.013510
v -0.133909 0.013375 0.013510
v -0.095303 0.012290 0.034639
v -0.095303 0.014309 0.034639
v -0.133909 0.028872 -0.028316
v -0.133909 0.004854 -0.028316
v -0.174353 0.004854 -0.028316
v -0.174353 0.028872 -0.028316
v 0.145616 0.004854 -0.028316
v 0.145616 0.028872 -0.028316
v 0.186979 0.019692 -0.028316
v 0.186979 0.013375 -0.028316
v 0.104253 0.013375 0.020812
v 0.104253 0.013375 0.013510
v 0.104253 0.019692 0.013510
v 0.145616 0.019692 -0.005698
v 0.104253 0.004854 -0.028316
v -0.174353 0.019692 -0.006658
v -0.174353 0.028872 -0.028316
v -0.174353 0.019692 -0.006658
v -0.174353 0.013375 -0.010834
v -0.159447 0.013375 0.003797
v -0.159447 0.019692 0.003797
v 0.186979 0.019692 -0.023945
v 0.186979 0.013375 -0.023945
v 0.145616 0.013375 -0.009327
v -0.214797 0.019692 -0.028316
v -0.214797 0.019692 -0.024425
v -0.174353 0.013375 -0.006658
v -0.174353 0.004854 -0.028316
v -0.214797 0.013375 -0.024425
v -0.214797 0.013375 -0.028316
v -0.020361 0.015923 0.159763
v -0.013855 0.015923 0.159763
v -0.054859 -0.001945 0.034639
v 0.025203 0.023638 0.019220
v 0.025203 -0.001945 0.053965
v 0.025203 -0.001945 0.034639
v 0.025203 0.023638 0.019237
v 0.067486 0.012290 0.034639
v 0.067486 0.014309 0.034639
v -0.013855 0.004359 0.159763
v -0.026181 0.004359 0.159763
v -0.006303 0.015923 0.159763
v -0.001453 0.004359 0.159763
v -0.153013 0.013375 0.023965
v -0.144502 0.014600 0.023965
v 0.145616 0.013375 -0.009327
v 0.145616 0.019692 -0.005698
v 0.130630 0.019692 0.004943
v 0.130630 0.013375 0.004943
v 0.114378 0.014552 0.024150
v 0.122357 0.013375 0.024150
v -0.000653 0.048888 -0.028316
v 0.004353 0.036448 -0.144625
v -0.003157 0.050356 -0.144625
v 0.029849 0.027645 -0.007172
v 0.011488 0.026376 -0.051110
v 0.029849 0.027606 -0.030366
v -0.016097 0.036448 -0.144625
v -0.038409 0.027018 -0.051218
v -0.057777 0.028248 -0.014323
v -0.011041 0.050356 -0.144625
v -0.009439 0.004359 0.159763
v -0.011166 0.015923 0.159763
v -0.000653 0.022038 0.023340
v -0.000653 0.048888 0.013510
v 0.025203 0.050356 -0.183527
v -0.000653 0.050356 -0.183527
v -0.014953 0.050356 -0.183527
v -0.054859 0.050356 -0.183527
v 0.071832 0.050356 -0.179308
v 0.071832 0.050356 -0.183527
v -0.083390 0.050356 -0.183527
v -0.083390 0.050356 -0.179308
v -0.006163 0.050356 -0.144625
v -0.009443 0.050356 -0.144625
v -0.000653 0.050356 -0.183527
v -0.014953 0.050356 -0.183527
v -0.009443 0.076078 -0.183527
v -0.006163 0.076078 -0.183527
v -0.009443 0.076078 -0.177983
v -0.006163 0.076078 -0.177983
vt 0.095954 0.353067
vt 0.095875 0.264712
vt 0.273074 0.264560
vt 0.273154 0.352916
vt 0.297264 0.264540
vt 0.324908 0.352845
vt 0.267580 0.836788
vt 0.090381 0.836199
vt 0.089780 0.661246
vt 0.266979 0.661834
vt 0.425964 0.478615
vt 0.425964 0.478615
vt 0.425964 0.478615
vt 0.425964 0.478615
vt 0.861218 0.998307
vt 0.808101 0.999500
vt 0.808101 0.890061
vt 0.861218 0.888867
vt 0.827173 0.794965
vt 0.879975 0.799680
vt 0.871984 0.888867
vt 0.819182 0.884152
vt 0.096893 0.089623
vt 0.274093 0.089472
vt 0.900714 0.715487
vt 0.953455 0.710137
vt 0.962670 0.801252
vt 0.909929 0.806601
vt 0.425964 0.478615
vt 0.425964 0.478615
vt 0.425964 0.478615
vt 0.425964 0.478615
vt 0.171456 0.569937
vt 0.267279 0.570255
vt 0.891498 0.624372
vt 0.944239 0.619023
vt 0.425964 0.478615
vt 0.425964 0.478615
vt 0.425964 0.478615
vt 0.425964 0.478615
vt 0.096813 0.000078
vt 0.188568 0.000000
vt 0.886467 0.806768
vt 0.939598 0.806601
vt 0.938923 0.858218
vt 0.885792 0.858385
vt 0.203661 0.836788
vt 0.256819 0.837008
vt 0.256462 0.852149
vt 0.203304 0.851929
vt 0.256819 0.968118
vt 0.203661 0.967898
vt 0.249063 0.478614
vt 0.267580 0.478676
vt 0.680150 0.897861
vt 0.680150 0.806106
vt 0.769695 0.806102
vt 0.769695 0.822585
vt 0.425964 0.478615
vt 0.425964 0.478615
vt 0.425964 0.478615
vt 0.425964 0.478615
vt 0.320738 0.951400
vt 0.373855 0.950175
vt 0.374411 0.966034
vt 0.321294 0.967259
vt 0.321294 0.854552
vt 0.374411 0.853327
vt 0.733162 0.987405
vt 0.680150 0.987421
vt 0.680150 0.897876
vt 0.733162 0.897861
vt 0.449518 0.340709
vt 0.449531 0.355111
vt 0.979843 0.196506
vt 0.979843 0.382572
vt 0.891704 0.310935
vt 0.906965 0.260014
vt 0.680150 0.806102
vt 0.680150 0.994749
vt 0.680150 0.994749
vt 0.680086 0.806126
vt 0.628310 0.924490
vt 0.610600 0.874398
vt 0.425964 0.478615
vt 0.425964 0.478615
vt 0.066120 0.836118
vt 0.000000 0.742352
vt 0.320738 0.973598
vt 0.267580 0.973415
vt 0.267580 0.853327
vt 0.320738 0.853510
vt 0.363683 0.174870
vt 0.298616 0.486644
vt 0.275620 0.563373
vt 0.267580 0.561303
vt 0.283382 0.482721
vt 0.406655 0.664680
vt 0.406655 0.853327
vt 0.297746 0.843844
vt 0.267580 0.769036
vt 0.425964 0.478615
vt 0.425964 0.664680
vt 0.284954 0.565777
vt 0.313945 0.490592
vt 0.939598 0.944344
vt 0.928541 0.949503
vt 0.944862 0.443156
vt 0.891704 0.443156
vt 0.934729 0.393425
vt 0.944612 0.382572
vt 0.232893 0.032965
vt 0.319504 0.065914
vt 0.143063 0.979969
vt 0.089905 0.980308
vt 0.089516 0.924335
vt 0.142674 0.923996
vt 0.425964 0.478615
vt 0.425964 0.478615
vt 0.425964 0.478615
vt 0.425964 0.478615
vt 0.132697 0.836788
vt 0.143063 0.846898
vt 0.053131 0.982659
vt 0.000000 0.982659
vt 0.001117 0.928363
vt 0.010293 0.933167
vt 0.981289 0.951771
vt 0.939598 0.836575
vt 0.981289 0.806601
vt 0.973622 0.896326
vt 0.095982 0.384726
vt 0.096033 0.441974
vt 0.009411 0.441974
vt 0.009360 0.384726
vt 0.086622 0.478615
vt 0.000000 0.478615
vt 0.425964 0.478615
vt 0.425964 0.478615
vt 0.566840 0.914849
vt 0.610600 0.988249
vt 0.580192 0.990970
vt 0.536433 0.917570
vt 0.009331 0.353067
vt 0.009253 0.264712
vt 0.304074 0.488050
vt 0.278944 0.564229
vt 0.315121 0.384522
vt 0.449536 0.361066
vt 0.273182 0.384575
vt 0.767834 0.629369
vt 0.767741 0.643718
vt 0.723079 0.658918
vt 0.723263 0.631566
vt 0.767955 0.610571
vt 0.767885 0.621434
vt 0.723365 0.616443
vt 0.723649 0.574255
vt 0.727802 0.707884
vt 0.722746 0.708270
vt 0.723852 0.544107
vt 0.728896 0.544624
vt 0.009360 0.384726
vt 0.009331 0.353067
vt 0.273233 0.441823
vt 0.297423 0.441802
vt 0.449546 0.371832
vt 0.512685 0.079220
vt 0.554936 0.080266
vt 0.542663 0.057128
vt 0.531846 0.056860
vt 0.723263 0.631566
vt 0.767853 0.626343
vt 0.849910 0.500468
vt 0.847085 0.532001
vt 0.847085 0.532001
vt 0.849910 0.500468
vt 0.170513 0.409665
vt 0.170513 0.409665
vt 0.170513 0.409665
vt 0.170513 0.409665
vt 0.722619 0.621122
vt 0.722594 0.624962
vt 0.715140 0.624855
vt 0.715166 0.620983
vt 0.723365 0.616443
vt 0.767874 0.623043
vn 0.0000 1.0000 0.0041
vn 0.0000 1.0000 0.0000
vn -0.0727 0.3280 0.9419
vn 0.2956 0.9496 0.1042
vn 0.0000 0.0000 0.0000
vn -0.4801 -0.0000 0.8772
vn 0.0000 0.0000 -1.0000
vn -0.2669 0.9588 0.0977
vn 1.0000 0.0000 0.0000
vn 0.0635 0.9598 0.2734
vn 0.0000 0.0000 1.0000
vn -0.0691 0.9583 0.2772
vn -0.6242 -0.2452 0.7418
vn 0.3567 -0.2579 0.8979
vn 0.1734 0.9324 0.3171
vn -0.1782 0.9260 0.3327
vn -1.0000 0.0000 0.0000
vn -0.4022 0.0000 0.9156
vn 0.0478 0.9980 0.0408
vn 0.1923 0.4786 0.8567
vn -0.1841 0.4789 0.8583
vn 0.0876 0.5952 0.7988
vn 0.2870 0.6312 0.7206
vn -0.0874 0.6060 0.7907
vn -0.9438 0.2416 0.2257
vn 0.9200 0.3250 0.2191
vn -0.6057 0.6835 0.4073
vn 0.5281 -0.5960 0.6049
vn -0.0967 0.9623 0.2543
vn 0.6241 -0.2157 0.7509
vn 0.6037 0.6428 0.4715
vn -0.5524 -0.5881 0.5907
vn 0.0817 0.9644 0.2516
vn 0.3835 0.9199 -0.0819
vn 0.9125 -0.3611 -0.1924
vn -0.9770 -0.2133 0.0004
vn -0.9519 0.0579 -0.3009
vn -0.3729 0.9230 -0.0951
vn -0.0467 0.9981 0.0405
vn -0.0466 0.9981 0.0402
vn -0.0464 0.9981 0.0415
vn 0.0622 0.3722 0.9261
vn 0.0000 1.0000 0.0042
vn 0.3704 0.8887 0.2701
vn -0.2804 0.9064 0.3158
vn -0.0267 0.9551 0.2951
vn 0.0405 0.9610 0.2736
vn 0.0674 0.2852 0.9561
vn -0.0462 0.9980 0.0428
vn 0.0000 0.9999 0.0126
vn -0.9757 0.1829 0.1210
vn 0.9757 0.1829 0.1210
vn 0.0000 0.7919 0.6106
usemtl Material.005
s 1
f 1/1/1 2/2/2 3/3/2 4/4/2
f 4/4/3 3/3/3 5/5/3 6/6/3
f 7/7/4 8/8/4 9/9/4 10/10/4
f 11/11/5 12/12/5 8/13/5 7/14/5
f 13/15/6 14/16/6 15/17/6 16/18/6
f 17/19/7 18/20/7 19/21/7 20/22/7
f 3/3/8 2/2/8 17/23/8 13/24/8
f 21/25/7 22/26/7 23/27/7 24/28/7
f 9/29/9 25/30/9 26/31/9 27/32/9
f 10/10/10 9/9/10 28/33/10 22/34/10
f 29/35/7 10/36/7 22/26/7 21/25/7
f 30/37/11 20/38/11 31/39/11 32/40/11
f 13/24/12 17/23/12 20/41/12 30/42/12
f 30/43/13 33/44/13 34/45/13 35/46/13
f 24/47/9 23/48/9 36/49/9 37/50/9
f 28/51/14 38/52/14 37/50/14 36/49/14
f 22/34/15 28/33/15 36/53/15 23/54/15
f 32/55/16 31/56/16 39/57/16 40/58/16
f 33/59/9 30/37/9 32/40/9 41/60/9
f 20/38/11 19/61/11 42/62/11 31/39/11
f 43/63/17 40/64/17 39/65/17 44/66/17
f 41/67/18 32/68/18 40/64/18 43/63/18
f 31/69/7 42/70/7 44/71/7 39/72/7
f 6/6/19 5/5/19 45/73/19 46/74/19
f 47/75/20 5/76/20 16/77/20 15/78/20
f 48/79/9 49/80/9 50/81/9 51/82/9
f 51/82/21 50/81/21 52/83/21 53/84/21
f 8/13/17 12/12/17 48/85/17 51/86/17
f 9/9/22 8/8/22 51/87/22 53/88/22
f 25/89/23 9/90/23 53/91/23 52/92/23
f 3/3/24 13/24/24 16/93/24 5/5/24
f 54/94/11 46/95/11 45/96/11 55/97/11
f 5/98/25 47/99/25 55/100/25 45/101/25
f 49/102/26 48/103/26 56/104/26 57/105/26
f 58/106/27 59/107/27 35/46/27 34/45/27
f 14/108/28 13/109/28 59/110/28 58/111/28
f 13/24/29 30/42/29 35/112/29 59/113/29
f 60/114/30 61/115/30 62/116/30 63/117/30
f 25/30/2 38/118/2 60/119/2 26/31/2
f 38/118/11 28/120/11 61/121/11 60/119/11
f 28/120/11 9/29/11 27/32/11 61/121/11
f 64/122/31 65/123/31 63/117/31 62/116/31
f 27/124/32 26/125/32 65/126/32 64/127/32
f 61/128/33 27/129/33 64/130/33 62/131/33
f 66/132/34 11/133/34 67/134/34 68/135/34
f 67/134/35 11/133/35 69/136/35 70/137/35
f 11/11/36 7/14/36 71/138/36 69/139/36
f 2/140/37 72/141/37 73/142/37 74/143/37
f 2/2/38 1/1/38 75/144/38 72/145/38
f 76/146/11 77/147/11 46/95/11 54/94/11
f 78/148/39 6/6/40 46/74/40 77/149/41
f 79/150/42 4/4/42 6/6/42 78/148/42
f 66/132/43 1/1/1 4/4/2 79/150/2
f 68/151/44 67/152/44 80/153/44 81/154/44
f 72/155/45 75/156/45 82/157/45 83/158/45
f 80/153/46 67/152/46 84/159/46 85/160/46
f 72/155/47 83/158/47 86/161/47 87/162/47
f 75/144/7 68/135/7 88/163/7 89/164/7
f 11/133/2 66/132/43 79/150/2 12/165/2
f 12/165/48 79/150/48 78/148/48 48/166/48
f 48/166/49 78/148/39 77/149/41 56/167/49
f 57/105/11 56/104/11 77/147/11 76/146/11
f 1/1/1 66/132/43 68/135/50 75/144/50
f 90/168/7 91/169/7 92/170/7 93/171/7
f 68/151/2 81/154/2 90/172/2 88/173/2
f 81/174/11 82/175/11 91/176/11 90/177/11
f 82/178/2 75/179/2 89/180/2 91/181/2
f 94/182/2 95/183/2 93/184/2 92/185/2
f 91/186/51 89/187/51 94/182/51 92/185/51
f 88/173/52 90/172/52 93/184/52 95/183/52
f 89/187/53 88/173/53 95/183/53 94/182/53