# Blender v3.2.2 OBJ File: 'untitled.blend1'
# www.blender.org
mtllib inimigo_pa.mtl
o Plane
frames: 1
texture: 1

v 0.096726 0.026757 -0.006589
v -0.096726 0.026757 -0.006589
v 0.096726 0.026757 -0.034005
v -0.096726 0.026757 -0.034005
v -0.009582 0.026757 0.101385
v -0.051144 0.026757 -0.053425
v -0.051144 0.026757 0.032357
v -0.023724 0.026757 0.058891
v -0.051144 0.026757 -0.034005
v 0.005388 0.026757 0.101385
v 0.053457 0.026757 -0.053425
v 0.053457 0.026757 0.030969
v 0.019615 0.026870 0.058166
v 0.053457 0.026757 -0.034005
vt 0.774930 0.871565
vt 0.780360 0.451008
vt 1.000000 0.700585
vt 0.999255 0.879988
vt 0.000000 0.842468
vt 0.007703 0.664168
vt 0.249160 0.423307
vt 0.234599 0.851277
vt 0.230244 0.979281
vt 0.773272 1.000000
vt 0.392947 0.260962
vt 0.611524 0.272917
vt 0.470999 0.000000
vt 0.545727 0.002501
vn 0.0000 1.0000 0.0000
vn -0.0002 1.0000 -0.0005
vn -0.0012 1.0000 -0.0010
vn -0.0019 1.0000 0.0013
usemtl Material.005
s 1
f 14/1/1 12/2/2 1/3/1 3/4/1
f 4/5/1 2/6/1 7/7/2 9/8/1
f 6/9/1 9/8/1 14/1/1 11/10/1
f 7/7/2 8/11/3 13/12/3 12/2/2
f 9/8/1 7/7/2 12/2/2 14/1/1
f 8/11/3 5/13/4 10/14/4 13/12/3
