# Blender v3.2.2 OBJ File: 'nave.blend'
# www.blender.org
mtllib inimigod.mtl
o Cubo
frames: 1
texture: 1
v -0.004806 0.035544 -0.015189
v -0.012269 0.035544 -0.015189
v -0.012871 0.035544 0.002593
v -0.004806 0.035544 0.009652
v -0.014948 0.015966 0.039277
v -0.004806 0.026221 0.052126
v 0.005399 0.035544 -0.015189
v 0.005399 0.035544 0.003154
v 0.025488 0.012906 0.009652
v 0.025488 0.020024 -0.015189
v 0.005399 0.035544 -0.015189
v 0.005399 0.035544 0.002933
v -0.035037 0.012906 0.009652
v -0.035037 0.008008 0.009652
v -0.025226 0.007167 0.022200
v -0.025226 0.008732 0.022200
v -0.035037 0.020024 -0.015189
v -0.035037 0.001401 -0.015189
v -0.045315 0.001401 -0.015189
v -0.045315 0.020024 -0.015189
v 0.036000 0.001401 -0.015189
v 0.036000 0.020024 -0.015189
v 0.046512 0.012906 -0.015189
v 0.046512 0.008008 -0.015189
v 0.025488 0.008008 0.013988
v 0.025488 0.008008 0.009652
v 0.025488 0.012906 0.009652
v 0.036000 0.012906 -0.001756
v 0.025488 0.001401 -0.015189
v -0.045315 0.012906 -0.002326
v -0.045315 0.020024 -0.015189
v -0.045315 0.012906 -0.002326
v -0.045315 0.008008 -0.004806
v -0.041527 0.008008 0.003883
v -0.041527 0.012906 0.003883
v 0.046512 0.012906 -0.012593
v 0.046512 0.008008 -0.012593
v 0.036000 0.008008 -0.003911
v 0.033053 0.008008 0.007707
v 0.033053 0.012906 0.009862
v -0.055594 0.012906 -0.015189
v -0.055594 0.012906 -0.012878
v -0.045315 0.008008 -0.002326
v -0.045315 0.001401 -0.015189
v -0.055594 0.008008 -0.012878
v -0.055594 0.008008 -0.015189
v -0.042360 0.008008 0.008375
v -0.051892 0.008008 -0.002177
v -0.006180 0.009984 0.081769
v -0.004527 0.009984 0.081769
v -0.014948 -0.003871 0.043939
v 0.005399 0.015966 0.039277
v 0.005399 -0.003871 0.049782
v 0.005399 -0.003871 0.041963
v 0.005399 0.015966 0.037889
v 0.016145 0.007167 0.022200
v 0.016145 0.008732 0.022200
v -0.004527 0.001017 0.081769
v -0.007659 0.001017 0.081769
v -0.002608 0.009984 0.081769
v -0.001375 0.001017 0.081769
v -0.039892 0.008008 0.015861
v -0.037729 0.008958 0.015861
v 0.036000 0.008008 -0.003911
v 0.036000 0.012906 -0.001756
v 0.032192 0.012906 0.004564
v 0.032192 0.008008 0.004564
v 0.028062 0.008921 0.015971
v 0.030089 0.008008 0.015971
v -0.001592 0.036295 -0.060776
v 0.001902 0.029179 -0.060776
v 0.000100 0.025899 -0.084264
v -0.001808 0.036682 -0.084264
v 0.003490 0.032069 -0.040078
v 0.006580 0.019072 -0.002631
v 0.004898 0.018718 -0.012034
v 0.006580 0.019043 -0.016406
v -0.007535 0.029179 -0.060776
v -0.005097 0.025899 -0.084264
v -0.010767 0.018586 -0.028790
v -0.012441 0.018911 -0.021339
v -0.004150 0.036295 -0.060776
v -0.003812 0.036682 -0.084264
v -0.003405 0.001017 0.081769
v -0.003844 0.009984 0.081769
v -0.003569 0.026907 0.052191
v -0.001172 0.035544 0.009652
v -0.001172 0.039753 0.001725
v -0.004806 0.039753 0.001725
v 0.005399 0.036682 -0.107368
v -0.001172 0.036682 -0.107368
v -0.004806 0.036682 -0.107368
v -0.014948 0.036682 -0.107368
v 0.017249 0.036682 -0.104862
v 0.017249 0.036682 -0.107368
v -0.022198 0.036682 -0.107368
v -0.022198 0.036682 -0.104862
v -0.002572 0.036682 -0.084264
v -0.003406 0.036682 -0.084264
v 0.005399 0.035544 0.002933
v -0.001172 0.035544 0.009652
v -0.001172 0.036682 -0.107368
v -0.004806 0.036682 -0.107368
v -0.003406 0.056627 -0.107368
v -0.002572 0.056627 -0.107368
v -0.003406 0.056627 -0.104075
v -0.002572 0.056627 -0.104075
v -0.042360 0.012906 0.008375
v -0.051892 0.012906 -0.002177
v 0.042802 0.008008 -0.000975
v 0.042802 0.012906 -0.000975
v -0.001172 0.035544 -0.015189
v -0.001401 0.035954 -0.040078
v -0.004448 0.035954 -0.040078
v -0.009685 0.032069 -0.040078
v -0.013916 0.019196 -0.014774
v -0.015689 0.019540 -0.006878
v 0.003500 0.018423 -0.019853
v 0.013657 0.018423 -0.049651
v 0.015055 0.018718 -0.045724
v 0.001914 0.018089 -0.028726
v -0.024155 0.019196 -0.047100
v -0.022681 0.018911 -0.050398
v 0.012059 0.029179 -0.070206
v 0.013647 0.032069 -0.059810
v -0.019924 0.032069 -0.059810
v -0.017775 0.029179 -0.070206
v 0.005399 0.035544 -0.015189
v -0.001172 0.035544 -0.015189
v -0.001172 0.055587 0.001725
v -0.004806 0.055587 0.001725
v -0.004806 0.039753 -0.007262
v -0.001172 0.039753 -0.007262
v -0.001172 0.055587 -0.007262
v -0.004806 0.055587 -0.007262
vt 0.095954 0.353067
vt 0.095875 0.264712
vt 0.273074 0.264560
vt 0.273154 0.352916
vt 0.297264 0.264540
vt 0.324908 0.352845
vt 0.267580 0.836788
vt 0.090381 0.836199
vt 0.089780 0.661246
vt 0.266979 0.661834
vt 0.425964 0.478615
vt 0.425964 0.478615
vt 0.425964 0.478615
vt 0.425964 0.478615
vt 0.861218 0.998307
vt 0.808101 0.999500
vt 0.808101 0.890061
vt 0.861218 0.888867
vt 0.827173 0.794965
vt 0.879975 0.799680
vt 0.871984 0.888867
vt 0.819182 0.884152
vt 0.096893 0.089623
vt 0.274093 0.089472
vt 0.900714 0.715487
vt 0.953455 0.710137
vt 0.962670 0.801252
vt 0.909929 0.806601
vt 0.425964 0.478615
vt 0.425964 0.478615
vt 0.425964 0.478615
vt 0.425964 0.478615
vt 0.171456 0.569937
vt 0.267279 0.570255
vt 0.891498 0.624372
vt 0.944239 0.619023
vt 0.425964 0.478615
vt 0.425964 0.478615
vt 0.425964 0.478615
vt 0.425964 0.478615
vt 0.096813 0.000078
vt 0.188568 0.000000
vt 0.886467 0.806768
vt 0.939598 0.806601
vt 0.938923 0.858218
vt 0.885792 0.858385
vt 0.203661 0.836788
vt 0.256819 0.837008
vt 0.256462 0.852149
vt 0.203304 0.851929
vt 0.425964 0.478615
vt 0.425964 0.478615
vt 0.425964 0.478615
vt 0.425964 0.478615
vt 0.249063 0.478614
vt 0.267580 0.478676
vt 0.680150 0.897861
vt 0.680150 0.806106
vt 0.769695 0.806102
vt 0.769695 0.822585
vt 0.425964 0.478615
vt 0.425964 0.478615
vt 0.425964 0.478615
vt 0.425964 0.478615
vt 0.320738 0.951400
vt 0.373855 0.950175
vt 0.374411 0.966034
vt 0.321294 0.967259
vt 0.000000 0.000000
vt 0.000000 0.000000
vt 0.000000 0.000000
vt 0.000000 0.000000
vt 0.733162 0.987405
vt 0.680150 0.987421
vt 0.680150 0.897876
vt 0.733162 0.897861
vt 0.449518 0.340709
vt 0.449531 0.355111
vt 0.979843 0.196506
vt 0.979843 0.382572
vt 0.891704 0.310935
vt 0.906965 0.260014
vt 0.680150 0.806102
vt 0.680150 0.994749
vt 0.680150 0.994749
vt 0.680086 0.806126
vt 0.628310 0.924490
vt 0.610600 0.874398
vt 0.425964 0.478615
vt 0.425964 0.478615
vt 0.066120 0.836118
vt 0.000000 0.742352
vt 0.320738 0.973598
vt 0.267580 0.973415
vt 0.267580 0.853327
vt 0.320738 0.853510
vt 0.363683 0.174870
vt 0.298616 0.486644
vt 0.275620 0.563373
vt 0.267580 0.561303
vt 0.283382 0.482721
vt 0.406655 0.664680
vt 0.406655 0.853327
vt 0.297746 0.843844
vt 0.267580 0.769036
vt 0.425964 0.478615
vt 0.425964 0.664680
vt 0.284954 0.565777
vt 0.313945 0.490592
vt 0.939598 0.944344
vt 0.928541 0.949503
vt 0.944862 0.443156
vt 0.891704 0.443156
vt 0.934729 0.393425
vt 0.944612 0.382572
vt 0.232893 0.032965
vt 0.319504 0.065914
vt 0.143063 0.979969
vt 0.089905 0.980308
vt 0.089516 0.924335
vt 0.142674 0.923996
vt 0.425964 0.478615
vt 0.425964 0.478615
vt 0.132697 0.836788
vt 0.143063 0.846898
vt 0.053131 0.982659
vt 0.000000 0.982659
vt 0.001117 0.928363
vt 0.010293 0.933167
vt 0.981289 0.951771
vt 0.939598 0.836575
vt 0.981289 0.806601
vt 0.973622 0.896326
vt 0.038814 0.384726
vt 0.038865 0.441974
vt 0.009411 0.441974
vt 0.009360 0.384726
vt 0.064821 0.441974
vt 0.096033 0.441974
vt 0.086622 0.478615
vt 0.055410 0.478615
vt 0.425964 0.478615
vt 0.425964 0.478615
vt 0.595720 0.963291
vt 0.610600 0.988249
vt 0.580192 0.990970
vt 0.565312 0.966012
vt 0.038707 0.264712
vt 0.038786 0.353067
vt 0.009331 0.353067
vt 0.009253 0.264712
vt 0.304074 0.488050
vt 0.278944 0.564229
vt 0.315121 0.384522
vt 0.449536 0.361066
vt 0.273182 0.384575
vt 0.273182 0.384575
vt 0.273154 0.352916
vt 0.767834 0.629369
vt 0.767741 0.643718
vt 0.723079 0.658918
vt 0.723263 0.631566
vt 0.767955 0.610571
vt 0.767885 0.621434
vt 0.723365 0.616443
vt 0.723649 0.574255
vt 0.727802 0.707884
vt 0.722746 0.708270
vt 0.723852 0.544107
vt 0.728896 0.544624
vt 0.009360 0.384726
vt 0.009331 0.353067
vt 0.273233 0.441823
vt 0.273233 0.441823
vt 0.273182 0.384575
vt 0.297423 0.441802
vt 0.449546 0.371832
vt 0.512685 0.079220
vt 0.554936 0.080266
vt 0.542663 0.057128
vt 0.531846 0.056860
vt 0.723263 0.631566
vt 0.767853 0.626343
vt 0.849910 0.500468
vt 0.847085 0.532001
vt 0.847085 0.532001
vt 0.849910 0.500468
vt 0.170513 0.409665
vt 0.170513 0.409665
vt 0.170513 0.409665
vt 0.170513 0.409665
vt 0.722619 0.621122
vt 0.722594 0.624962
vt 0.715140 0.624855
vt 0.715166 0.620983
vt 0.723365 0.616443
vt 0.767874 0.623043
vt 0.321294 0.854552
vt 0.374411 0.853327
vt 0.373855 0.950175
vt 0.320738 0.951400
vt 0.425964 0.478615
vt 0.425964 0.478615
vt 0.769695 0.822585
vt 0.680150 0.897861
vt 0.256819 0.968118
vt 0.203661 0.967898
vt 0.203304 0.851929
vt 0.256462 0.852149
vt 0.000000 0.000000
vt 0.000000 0.000000
vt 0.000000 0.000000
vt 0.000000 0.000000
vt 0.171456 0.569937
vt 0.249063 0.478614
vt 0.095982 0.384726
vt 0.064770 0.384726
vt 0.064742 0.353067
vt 0.064663 0.264712
vt 0.566840 0.914849
vt 0.582608 0.941297
vt 0.552200 0.944018
vt 0.536433 0.917570
vt 0.000000 0.000000
vt 0.000000 0.000000
vt 0.000000 0.000000
vt 0.000000 0.000000
vt 0.029454 0.478615
vt 0.000000 0.478615
vt 0.000000 0.000000
vt 0.000000 0.000000
vt 0.000000 0.000000
vt 0.000000 0.000000
vt 0.038865 0.441974
vt 0.064821 0.441974
vt 0.055410 0.478615
vt 0.029454 0.478615
vt 0.582608 0.941297
vt 0.595720 0.963291
vt 0.565312 0.966012
vt 0.552200 0.944018
vt 0.038707 0.264712
vt 0.064663 0.264712
vt 0.096033 0.441974
vt 0.095982 0.384726
vt 0.425964 0.478615
vt 0.425964 0.478615
vt 0.273182 0.384575
vt 0.273154 0.352916
vt 0.095954 0.353067
vt 0.095982 0.384726
vt 0.095982 0.384726
vt 0.095954 0.353067
vn -0.0000 1.0000 0.0000
vn -0.6630 0.7086 0.2413
vn 0.6734 0.7295 0.1202
vn 0.0000 0.0000 -1.0000
vn -0.0565 0.9984 0.0000
vn -0.7878 0.0000 0.6160
vn -0.6318 0.7660 0.1190
vn 1.0000 0.0000 0.0000
vn 0.1859 0.9209 0.3425
vn 0.0000 0.0000 1.0000
vn -0.4273 0.5000 0.7533
vn 0.0000 -0.9351 0.3543
vn -0.2016 0.9163 0.3460
vn -0.8856 -0.1140 0.4503
vn -0.9637 0.1076 -0.2444
vn 0.4604 0.8113 0.3603
vn -0.4693 0.7995 0.3750
vn -1.0000 0.0000 0.0000
vn -0.0000 -1.0000 -0.0000
vn -0.7825 0.5607 0.2708
vn -0.8748 0.1031 0.4734
vn 0.8461 0.0997 0.5236
vn 0.6913 0.5816 0.4288
vn 0.6116 0.4408 0.6570
vn -0.6844 0.6088 0.4012
vn -0.9771 0.0820 0.1964
vn 0.9743 0.1128 0.1950
vn -0.9055 0.3349 0.2606
vn 0.8522 -0.3152 0.4177
vn -0.2784 0.9079 0.3132
vn 0.8846 -0.1002 0.4554
vn -0.9960 -0.0000 0.0893
vn -0.3983 0.6601 0.6369
vn 0.9003 0.3144 0.3010
vn 0.9005 0.3141 0.3009
vn -0.8667 -0.3023 0.3967
vn 0.2376 0.9195 0.3131
vn 0.9557 0.2884 -0.0588
vn 0.9940 -0.0481 -0.0987
vn -0.9974 -0.0714 0.0002
vn -0.9899 -0.0704 -0.1234
vn -0.9651 0.2518 -0.0725
vn -0.3119 0.8290 0.4642
vn -0.1392 0.9697 0.2009
vn 0.0000 0.8832 0.4690
vn 0.7635 0.6003 0.2382
vn -0.6516 0.6905 0.3141
vn -0.0789 0.9245 0.3729
vn 0.1195 0.9306 0.3459
vn -1.0000 0.0001 0.0000
vn 1.0000 -0.0001 0.0000
vn 0.0000 0.0000 0.0000
vn 0.7455 0.6201 0.2445
vn 0.8376 0.4855 0.2505
vn 0.0000 0.9999 0.0165
vn -0.9967 0.0612 0.0529
vn 0.9967 0.0612 0.0529
vn 0.0000 0.7047 0.7095
vn -0.7421 0.0000 0.6703
vn 0.9639 -0.0000 -0.2662
vn -0.9450 0.0000 0.3269
vn 0.6991 -0.1536 0.6983
vn 0.9526 -0.0000 0.3042
vn -0.2917 0.9535 -0.0759
vn -0.9852 0.0957 -0.1421
vn 0.0896 -0.9956 0.0287
vn 0.3202 0.9446 -0.0719
vn 0.9721 -0.2216 -0.0770
vn -0.7843 0.6147 -0.0842
vn -0.0909 -0.9954 0.0303
vn 0.7933 0.6046 -0.0713
vn 0.9761 -0.1294 -0.1747
vn -0.5051 -0.8225 -0.2615
vn -0.2239 0.9621 -0.1560
vn 0.7803 0.5505 0.2967
vn -0.9656 0.0168 -0.2594
vn 0.2135 0.9654 -0.1499
vn -0.7103 0.6460 0.2794
vn 0.4330 -0.8715 -0.2304
vn 0.0000 0.8832 -0.4690
usemtl Material.004
s 1
f 1/1/1 2/2/1 3/3/1 4/4/1
f 4/4/2 3/3/2 5/5/2 6/6/2
f 7/7/3 8/8/3 9/9/3 10/10/3
f 11/11/4 12/12/4 8/13/4 7/14/5
f 13/15/6 14/16/6 15/17/6 16/18/6
f 17/19/4 18/20/4 19/21/4 20/22/4
f 3/3/7 2/2/7 17/23/7 13/24/7
f 21/25/4 22/26/4 23/27/4 24/28/4
f 9/29/8 25/30/8 26/31/8 27/32/8
f 10/10/9 9/9/9 28/33/9 22/34/9
f 29/35/4 10/36/4 22/26/4 21/25/4
f 30/37/10 20/38/11 31/39/12 32/40/10
f 13/24/13 17/23/13 20/41/13 30/42/13
f 30/43/14 33/44/14 34/45/14 35/46/14
f 24/47/8 23/48/8 36/49/8 37/50/8
f 28/51/15 38/52/15 39/53/15 40/54/15
f 22/34/16 28/33/16 36/55/16 23/56/16
f 32/57/17 31/58/17 41/59/17 42/60/17
f 33/61/8 30/37/8 32/40/8 43/62/8
f 20/38/11 19/63/10 44/64/10 31/39/12
f 45/65/18 42/66/18 41/67/18 46/68/18
f 45/69/19 43/70/19 47/71/19 48/72/19
f 31/73/4 44/74/4 46/75/4 41/76/4
f 6/6/20 5/5/20 49/77/20 50/78/20
f 51/79/21 5/80/21 16/81/21 15/82/21
f 52/83/8 53/84/8 54/85/8 55/86/8
f 55/86/22 54/85/22 56/87/22 57/88/22
f 8/13/8 12/12/8 52/89/8 55/90/8
f 9/9/23 8/8/23 55/91/23 57/92/23
f 25/93/24 9/94/24 57/95/24 56/96/24
f 3/3/25 13/24/25 16/97/25 5/5/25
f 58/98/10 50/99/10 49/100/10 59/101/10
f 5/102/26 51/103/26 59/104/26 49/105/26
f 53/106/27 52/107/27 60/108/27 61/109/27
f 62/110/28 63/111/28 35/46/28 34/45/28
f 14/112/29 13/113/29 63/114/29 62/115/29
f 13/24/30 30/42/30 35/116/30 63/117/30
f 64/118/31 65/119/31 66/120/31 67/121/31
f 25/30/1 38/52/1 64/122/1 26/31/1
f 38/52/10 28/51/32 65/123/33 64/122/10
f 28/51/32 9/29/10 27/32/10 65/123/33
f 68/124/34 69/125/35 67/121/35 66/120/35
f 27/126/36 26/127/36 69/128/36 68/129/36
f 65/130/37 27/131/37 68/132/37 66/133/37
f 70/134/38 71/135/38 72/136/38 73/137/38
f 74/138/39 11/139/39 75/140/39 76/141/39
f 11/11/40 7/14/40 77/142/40 75/143/40
f 78/144/41 79/145/41 80/146/41 81/147/41
f 78/148/42 82/149/42 83/150/42 79/151/42
f 84/152/10 85/153/10 50/99/10 58/98/10
f 86/154/43 6/6/43 50/78/43 85/155/43
f 87/156/44 4/4/44 6/6/44 86/154/44
f 4/4/45 87/156/45 88/157/45 89/158/45
f 73/159/46 72/160/46 90/161/46 91/162/46
f 79/163/47 83/164/47 92/165/47 93/166/47
f 90/161/48 72/160/48 94/167/48 95/168/48
f 79/163/49 93/166/49 96/169/49 97/170/49
f 83/150/50 73/137/51 98/171/8 99/172/8
f 87/156/52 12/173/52 100/174/52 101/175/52
f 12/173/53 87/156/53 86/154/53 52/176/53
f 52/176/54 86/154/54 85/155/54 60/177/54
f 61/109/10 60/108/10 85/153/10 84/152/10
f 82/149/55 70/134/55 73/137/55 83/150/55
f 102/178/4 103/179/4 104/180/4 105/181/4
f 73/159/1 91/162/1 102/182/1 98/183/1
f 91/184/10 92/185/10 103/186/10 102/187/10
f 92/188/1 83/189/1 99/190/1 103/191/1
f 106/192/1 107/193/1 105/194/1 104/195/1
f 103/196/56 99/197/56 106/192/56 104/195/56
f 98/183/57 102/182/57 105/194/57 107/193/57
f 99/197/58 98/183/58 107/193/58 106/192/58
f 47/198/59 108/199/59 109/200/59 48/201/59
f 43/62/60 32/40/60 108/202/60 47/203/60
f 32/57/1 42/60/1 109/204/1 108/205/1
f 42/66/61 45/65/61 48/201/61 109/200/61
f 40/206/62 39/207/62 110/208/62 111/209/62
f 38/210/19 37/211/19 110/212/19 39/213/19
f 36/55/1 28/33/1 40/214/1 111/215/1
f 37/50/63 36/49/63 111/209/63 110/208/63
f 1/1/55 112/216/55 113/217/55 114/218/55
f 2/2/64 1/1/64 114/218/64 115/219/64
f 2/220/65 115/221/65 116/222/65 117/223/65
f 76/224/66 118/225/66 119/226/66 120/227/66
f 112/216/67 11/139/67 74/138/67 113/217/67
f 72/136/68 71/135/68 118/228/68 121/229/68
f 114/218/55 113/217/55 70/134/55 82/149/55
f 115/219/69 114/218/69 82/149/69 78/148/69
f 81/230/70 116/231/70 122/232/70 123/233/70
f 113/217/71 74/138/71 71/135/71 70/134/71
f 124/234/72 125/235/72 120/236/72 119/237/72
f 118/228/73 71/135/73 124/234/73 119/237/73
f 71/135/74 74/138/74 125/235/74 124/234/74
f 74/138/75 76/141/75 120/236/75 125/235/75
f 126/238/76 127/239/76 123/240/76 122/241/76
f 115/219/77 78/148/77 127/242/77 126/243/77
f 116/222/78 115/221/78 126/238/78 122/241/78
f 78/144/79 81/147/79 123/240/79 127/239/79
f 128/244/1 129/245/1 101/175/1 100/174/1
f 11/139/52 112/216/52 129/245/52 128/244/52
f 12/12/52 11/11/52 128/246/52 100/247/52
f 112/216/52 87/156/52 101/175/52 129/245/52
f 89/158/10 88/157/10 130/248/10 131/249/10
f 1/1/18 4/4/18 89/158/18 132/250/18
f 112/216/80 1/1/80 132/250/80 133/251/80
f 87/156/8 112/216/8 133/251/8 88/157/8
f 134/252/1 135/253/1 131/249/1 130/248/1
f 88/157/8 133/251/8 134/252/8 130/248/8
f 132/250/18 89/158/18 131/249/18 135/253/18
f 133/251/4 132/250/4 135/253/4 134/252/4