# Blender v3.2.2 OBJ File: 'inimigoc.blend'
# www.blender.org
mtllib inimigoc.mtl
o Cube
frames: 1
v 0.012704 0.051773 -0.033963
v -0.012704 0.051773 -0.033963
v -0.012704 0.042960 0.038597
v 0.012704 0.042960 0.038597
v -0.040896 0.019098 0.022546
v 0.040896 0.019098 0.022546
v 0.005964 0.019098 0.099278
v -0.005964 0.019098 0.099278
v -0.035236 0.033150 -0.051406
v -0.012704 0.051773 -0.033963
v 0.012704 0.051773 -0.033963
v 0.035236 0.033150 -0.051406
v -0.025874 0.031146 -0.001193
v -0.012704 0.048035 -0.003190
v 0.025874 0.031146 -0.001193
v 0.012704 0.048035 -0.003190
v 0.012704 0.042960 0.038597
v 0.013161 0.028425 0.066990
v -0.012704 0.042960 0.038597
v -0.013161 0.028425 0.066990
v -0.100319 0.019098 -0.033963
v 0.100319 0.019098 -0.033963
v -0.057352 -0.194398 -0.027082
v -0.087052 -0.194398 -0.027082
v -0.087052 -0.204699 0.057736
v -0.057352 -0.204699 0.057736
v -0.120007 -0.232592 0.038973
v -0.024398 -0.232592 0.038973
v -0.065231 -0.232592 0.128667
v -0.079174 -0.232592 0.128667
v -0.113391 -0.216167 -0.047472
v -0.087052 -0.194398 -0.027082
v -0.057352 -0.194398 -0.027082
v -0.031014 -0.216167 -0.047472
v -0.102447 -0.218509 0.011224
v -0.087052 -0.198767 0.008889
v -0.041957 -0.218509 0.011224
v -0.057352 -0.198767 0.008889
v -0.057352 -0.204699 0.057736
v -0.056818 -0.221690 0.090925
v -0.087052 -0.204699 0.057736
v -0.087586 -0.221690 0.090925
v -0.189468 -0.232592 -0.027082
v 0.045064 -0.232592 -0.027082
vt 0.828779 0.523406
vt 0.756617 0.523406
vt 0.756617 0.325634
vt 0.828779 0.325634
vt 0.592244 0.384993
vt 0.378424 0.320999
vt 0.378424 0.248838
vt 0.592244 0.184845
vt 0.251954 0.722657
vt 0.053862 0.743149
vt 0.000000 0.662404
vt 0.215243 0.580406
vt 0.667262 0.847180
vt 0.469170 0.826688
vt 0.542309 0.717045
vt 0.717110 0.654019
vt 0.831378 0.140527
vt 0.830078 0.325634
vt 0.757917 0.325634
vt 0.756617 0.140527
vt 0.810937 0.000000
vt 0.777058 0.000000
vt 0.820142 0.804349
vt 0.830616 0.569838
vt 0.404834 0.765489
vt 0.415308 0.569838
vt 0.756617 0.569838
vt 0.756617 0.000000
vt 0.415308 1.000000
vt 0.301802 0.915819
vt 0.830616 1.000000
vt 0.630551 0.989432
vt 0.415308 0.907434
vt 0.127001 0.852793
vt 0.949275 0.660227
vt 0.946806 0.645673
vt 0.986695 0.638907
vt 0.989163 0.653462
vt 0.908563 0.660816
vt 0.978583 0.875464
vt 0.971970 0.785023
vt 0.931889 0.634594
vt 0.910297 0.746696
vt 0.914975 0.972427
vt 0.940114 0.988102
vt 0.956654 0.884878
vt 0.982066 0.966894
vt 0.969297 0.968790
vt 0.966828 0.954235
vt 0.979508 0.951815
vt 0.981542 0.962741
vt 0.980383 0.955908
vt 0.927196 0.849519
vt 0.977286 0.900640
vt 0.926515 0.763460
vt 0.942858 0.681348
vt 0.896083 0.828239
vt 0.910364 0.806555
vt 0.884691 0.777388
vt 0.879629 0.729632
vt 0.891394 0.884864
vt 0.960018 0.898552
vn 0.0000 0.9927 0.1206
vn 0.0000 0.6836 -0.7299
vn -0.7271 0.6737 0.1318
vn 0.8551 0.5007 0.1344
vn 0.0000 0.8901 0.4557
vn 0.0000 0.9607 0.2775
vn 0.5984 0.7728 0.2113
vn -0.2279 0.9596 0.1649
vn 0.0000 -0.7787 -0.6273
vn -0.5984 0.7728 0.2113
vn 0.2279 0.9596 0.1649
vn 0.7271 0.6737 0.1318
vn -0.8551 0.5007 0.1344
vn 0.7272 0.6737 0.1318
usemtl Material.001
s 1
f 1/1/1 2/2/1 3/3/1 4/4/1
f 9/5/2 10/6/2 11/7/2 12/8/2
f 13/9/3 14/10/3 10/11/3 9/12/3
f 15/13/4 16/14/4 17/15/4 18/16/4
f 18/17/5 17/18/5 19/19/5 20/20/5
f 7/21/6 18/17/6 20/20/6 8/22/6
f 6/23/7 15/13/7 18/16/7 7/24/7
f 5/25/8 13/9/8 9/12/8 21/26/8
f 21/27/9 9/5/9 12/8/9 22/28/9
f 8/29/10 20/30/10 13/9/10 5/25/10
f 22/31/11 12/32/11 15/13/11 6/23/11
f 12/32/12 11/33/12 16/14/12 15/13/12
f 20/30/13 19/34/13 14/10/13 13/9/13
f 23/35/1 24/36/1 25/37/1 26/38/1
f 35/39/3 36/40/3 32/41/3 31/42/3
f 37/43/4 38/44/4 39/45/4 40/46/4
f 40/47/5 39/48/5 41/49/5 42/50/5
f 29/51/6 40/47/6 42/50/6 30/52/6
f 28/53/7 37/43/7 40/46/7 29/54/7
f 27/55/8 35/39/8 31/42/8 43/56/8
f 30/57/10 42/58/10 35/39/10 27/55/10
f 44/59/11 34/60/11 37/43/11 28/53/11
f 34/60/14 33/61/14 38/44/14 37/43/14
f 42/58/13 41/62/13 36/40/13 35/39/13
