# Blender v3.2.2 OBJ File: ''
# www.blender.org
mtllib metal.mtl
o Cube
frames: 1
texture: 1
v 0.133607 0.126480 -0.736786
v 0.133607 -0.127162 -0.736786
v -0.014467 0.126480 -0.942720
v -0.014467 -0.127162 -0.942720
v 0.339541 0.126480 -0.884860
v 0.339541 -0.127162 -0.884860
v 0.191467 0.126480 -1.090793
v 0.191467 -0.127162 -1.090793
v 0.037965 -0.127162 -1.304276
v 0.037965 0.126480 -1.304276
v -0.167968 0.126480 -1.156202
v -0.167968 -0.127162 -1.156202
v 0.779178 -0.127162 0.161043
v 0.985112 -0.127162 0.012969
v 0.779178 0.126480 0.161043
v 0.985112 0.126480 0.012969
v -0.752040 0.126480 -0.099975
v -0.752040 -0.127162 -0.099975
v -0.900113 0.126480 -0.305908
v -0.900113 -0.127162 -0.305908
v 1.108319 -0.127162 -1.437639
v 0.960246 -0.127162 -1.643573
v 0.960246 0.126480 -1.643573
v 1.108319 0.126480 -1.437639
v -0.752040 0.126480 -0.099975
v -0.752040 -0.127162 -0.099975
v -0.900113 0.126480 -0.305908
v -0.900113 -0.127162 -0.305908
v -0.918125 0.126480 0.019447
v -0.918125 -0.127162 0.019447
v -1.066199 0.126480 -0.186487
v -1.066199 -0.127162 -0.186487
v -0.108727 0.126480 0.794714
v -0.108727 -0.127162 0.794714
v -0.274813 0.126480 0.914135
v -0.274813 -0.127162 0.914135
v 0.002021 0.126480 0.948736
v 0.002021 -0.127162 0.948736
v -0.164065 0.126480 1.068158
v -0.164065 -0.127162 1.068158
v -0.108727 0.126480 0.794714
v -0.108727 -0.127162 0.794714
v 0.002021 0.126480 0.948736
v 0.002021 -0.127162 0.948736
v 0.160599 0.126480 0.601059
v 0.160599 -0.127162 0.601059
v 0.271347 0.126480 0.755081
v 0.271347 -0.127162 0.755081
v -0.452682 0.126480 1.042030
v -0.452682 -0.127162 1.042030
v -0.341934 0.126480 1.196053
v -0.341934 -0.127162 1.196053
v -1.390371 0.126480 0.359009
v -1.390371 -0.127162 0.359009
v -1.538445 0.126480 0.153075
v -1.538445 -0.127162 0.153075
v 1.310048 -0.127162 -1.582690
v 1.161975 -0.127162 -1.788623
v 1.161975 0.126480 -1.788623
v 1.310048 0.126480 -1.582690
v 0.636323 -0.127162 -2.094069
v 0.636323 0.126480 -2.094069
v 0.838052 -0.127162 -2.239119
v 0.838052 0.126480 -2.239119
vt 0.682527 0.393578
vt 0.667829 0.332884
vt 0.728523 0.318186
vt 0.743220 0.378881
vt 0.791442 0.302950
vt 0.806139 0.363646
vt 0.264615 0.321718
vt 0.325309 0.336416
vt 0.270441 0.562995
vt 0.209747 0.548298
vt 0.279312 0.261024
vt 0.340006 0.275721
vt 0.312242 0.654603
vt 0.374690 0.654603
vt 0.374690 0.923171
vt 0.312242 0.923171
vt 0.124897 0.654603
vt 0.187345 0.654603
vt 0.187345 0.926865
vt 0.124897 0.926865
vt 0.868877 0.865233
vt 0.868877 0.927681
vt 0.806429 0.927681
vt 0.806429 0.865233
vt 0.624484 0.912910
vt 0.562035 0.912910
vt 0.562035 0.848173
vt 0.624484 0.848173
vt 0.499587 0.853662
vt 0.562035 0.853662
vt 0.562035 0.918399
vt 0.499587 0.918399
vt 0.402925 0.290958
vt 0.388227 0.351652
vt 0.931326 0.823378
vt 0.931326 0.885827
vt 0.868877 0.885827
vt 0.868877 0.823378
vt 0.124897 0.926865
vt 0.062448 0.926865
vt 0.062448 0.654603
vt 0.124897 0.654603
vt 0.000000 0.257640
vt 0.014698 0.196946
vt 0.417912 0.457657
vt 0.403214 0.396961
vt 0.124897 0.654602
vt 0.124897 0.654602
vt 0.124897 0.654602
vt 0.124897 0.654602
vt 0.437139 0.923171
vt 0.374690 0.923171
vt 0.374690 0.654603
vt 0.437139 0.654603
vt 0.342520 0.000000
vt 0.403214 0.014697
vt 0.806429 0.639906
vt 0.745735 0.654602
vt 0.673656 0.091606
vt 0.612961 0.106304
vt 0.598564 0.046850
vt 0.659258 0.032152
vt 0.000000 0.654603
vt 0.062448 0.654603
vt 0.062448 0.887731
vt 0.000000 0.887731
vt 0.499587 0.887731
vt 0.437139 0.887731
vt 0.437139 0.654602
vt 0.499587 0.654602
vt 1.000000 0.698482
vt 1.000000 0.760930
vt 0.949636 0.760930
vt 0.949636 0.698482
vt 0.124897 0.654602
vt 0.124897 0.654602
vt 0.124897 0.654602
vt 0.124897 0.654602
vt 0.806429 0.760930
vt 0.806429 0.698482
vt 0.249794 0.654603
vt 0.312242 0.654603
vt 0.312242 0.925912
vt 0.249794 0.925912
vt 0.806429 0.380465
vt 0.806429 0.318017
vt 0.856794 0.318017
vt 0.856794 0.380465
vt 0.562035 0.654603
vt 0.624484 0.654603
vt 0.624484 0.704967
vt 0.562035 0.704967
vt 0.856794 0.046707
vt 0.806429 0.046707
vt 0.806429 0.000000
vt 0.856794 0.000000
vt 0.949636 0.427172
vt 1.000000 0.427172
vt 0.187345 0.654603
vt 0.249794 0.654603
vt 0.249794 0.925912
vt 0.187345 0.925912
vt 0.806429 0.760930
vt 0.868877 0.760930
vt 0.868877 0.811295
vt 0.806429 0.811295
vt 0.949636 0.380465
vt 0.895697 0.427172
vt 0.895697 0.380465
vt 1.000000 0.380465
vt 0.915584 0.885827
vt 0.915584 0.948275
vt 0.868877 0.948275
vt 0.868877 0.885827
vt 0.624484 0.879480
vt 0.671191 0.879480
vt 0.671191 0.941929
vt 0.624484 0.941929
vt 0.686932 0.879481
vt 0.624484 0.879481
vt 0.624484 0.797809
vt 0.686932 0.797809
vt 0.796087 0.736274
vt 0.749381 0.736274
vt 0.749381 0.654602
vt 0.796087 0.654602
vt 0.686932 0.791213
vt 0.749381 0.791213
vt 0.749381 0.872885
vt 0.686932 0.872885
vt 0.796087 0.817946
vt 0.749381 0.817946
vt 0.749381 0.736274
vt 0.796087 0.736274
vt 0.749381 0.942843
vt 0.749381 0.880394
vt 0.796087 0.880394
vt 0.796087 0.942843
vt 0.749381 0.880394
vt 0.749381 0.817946
vt 0.803319 0.817946
vt 0.803319 0.880394
vt 0.910732 0.000000
vt 0.910732 0.046707
vt 0.868877 0.865233
vt 0.806429 0.865233
vt 0.931326 0.760930
vt 0.931326 0.823378
vt 0.868877 0.823378
vt 0.868877 0.760930
vt 0.686932 0.797809
vt 0.624484 0.797809
vt 0.624484 0.654602
vt 0.686932 0.654602
vt 1.000000 0.318017
vt 1.000000 0.380465
vt 0.624484 0.848174
vt 0.562035 0.848174
vt 0.562035 0.717051
vt 0.499587 0.717051
vt 0.499587 0.654603
vt 0.562035 0.654603
vt 0.792032 0.000000
vt 0.806429 0.059456
vt 0.062448 0.948905
vt 0.000000 0.948905
vt 0.256044 0.622450
vt 0.195350 0.607753
vt 0.748104 0.872885
vt 0.748104 0.935333
vt 0.686932 0.935333
vt 0.686932 0.872885
vt 0.562035 0.853662
vt 0.499587 0.853662
vt 0.749381 0.791213
vt 0.686932 0.791213
vt 0.686932 0.654602
vt 0.749381 0.654602
vt 0.403214 0.595147
vt 0.388817 0.654602
vn 0.0000 1.0000 0.0000
vn 0.0000 -1.0000 0.0000
vn -0.5838 0.0000 -0.8119
vn -0.8119 0.0000 0.5838
vn 0.8119 0.0000 -0.5838
vn 0.5838 0.0000 0.8119
vn 0.0000 0.0000 1.0000
usemtl Material
s off
f 1/1/1 5/2/1 7/3/1 3/4/1
f 3/4/1 7/3/1 10/5/1 11/6/1
f 6/7/2 8/8/2 22/9/2 21/10/2
f 6/7/2 2/11/2 4/12/2 8/8/2
f 3/13/3 4/14/3 20/15/3 19/16/3
f 1/17/4 2/18/4 13/19/4 15/20/4
f 12/21/3 11/22/3 10/23/3 9/24/3
f 4/25/4 3/26/4 11/27/4 12/28/4
f 7/29/5 8/30/5 9/31/5 10/32/5
f 8/8/2 4/12/2 12/33/2 9/34/2
f 14/35/6 16/36/6 15/37/6 13/38/6
f 6/39/5 5/40/5 16/41/5 14/42/5
f 2/11/2 6/7/2 14/43/2 13/44/2
f 5/2/1 1/1/1 15/45/1 16/46/1
f 17/47/7 19/48/7 27/49/7 25/50/7
f 2/51/6 1/52/6 17/53/6 18/54/6
f 4/12/2 2/11/2 18/55/2 20/56/2
f 1/1/1 3/4/1 19/57/1 17/58/1
f 23/59/1 24/60/1 60/61/1 59/62/1
f 7/3/1 5/2/1 24/60/1 23/59/1
f 5/63/6 6/64/6 21/65/6 24/66/6
f 8/67/3 7/68/3 23/69/3 22/70/3
f 25/71/1 27/72/1 31/73/1 29/74/1
f 18/75/7 17/47/7 25/50/7 26/76/7
f 20/77/7 18/75/7 26/76/7 28/78/7
f 19/48/7 20/77/7 28/78/7 27/49/7
f 29/74/1 31/73/1 55/79/1 53/80/1
f 29/81/4 30/82/4 36/83/4 35/84/4
f 28/85/2 26/86/2 30/87/2 32/88/2
f 27/89/3 28/90/3 32/91/3 31/92/3
f 36/93/2 34/94/2 38/95/2 40/96/2
f 25/71/1 29/74/1 35/97/1 33/98/1
f 26/99/5 25/100/5 33/101/5 34/102/5
f 30/87/2 26/86/2 34/94/2 36/93/2
f 38/103/6 37/104/6 39/105/6 40/106/6
f 39/107/1 35/97/1 49/108/1 51/109/1
f 33/98/1 35/97/1 39/107/1 37/110/1
f 46/111/5 45/112/5 47/113/5 48/114/5
f 42/115/4 44/116/4 43/117/4 41/118/4
f 42/119/3 41/120/3 45/121/3 46/122/3
f 41/123/1 43/124/1 47/125/1 45/126/1
f 43/127/6 44/128/6 48/129/6 47/130/6
f 44/131/2 42/132/2 46/133/2 48/134/2
f 49/135/4 50/136/4 52/137/4 51/138/4
f 35/139/3 36/140/3 50/141/3 49/142/3
f 36/93/2 40/96/2 52/143/2 50/144/2
f 40/106/6 39/105/6 51/145/6 52/146/6
f 54/147/4 53/148/4 55/149/4 56/150/4
f 30/151/6 29/152/6 53/153/6 54/154/6
f 32/88/2 30/87/2 54/155/2 56/156/2
f 31/92/3 32/91/3 56/157/3 55/158/3
f 58/159/5 59/160/5 60/161/5 57/162/5
f 23/59/1 59/62/1 64/163/1 62/164/1
f 24/66/6 21/65/6 57/165/6 60/166/6
f 21/10/2 22/9/2 58/167/2 57/168/2
f 61/169/3 62/170/3 64/171/3 63/172/3
f 59/160/5 58/159/5 63/173/5 64/174/5
f 22/175/4 23/176/4 62/177/4 61/178/4
f 58/167/2 22/9/2 61/179/2 63/180/2

