# Blender v3.1.2 OBJ File: 'nave.blend'
# www.blender.org
mtllib navez.mtl
o Cube
frames: 1
v -0.017319 0.023798 0.026637
v -0.017319 0.000984 0.026637
v -0.020839 0.023798 -0.038743
v -0.020839 0.000984 -0.038743
v 0.017887 0.023798 0.026637
v 0.017887 0.000984 0.026637
v 0.021407 0.023798 -0.038743
v 0.021407 0.000984 -0.038743
v -0.011468 0.007863 0.062713
v 0.011984 0.007863 0.062713
v -0.011468 0.017354 0.062713
v 0.011984 0.017354 0.062713
v 0.016126 0.003007 -0.056400
v 0.016126 0.016307 -0.056400
v -0.015558 0.016307 -0.056400
v -0.015558 0.003007 -0.056400
v -0.029038 0.023832 0.009048
v -0.037801 0.007828 0.026637
v -0.029038 0.023832 -0.018973
v -0.037801 0.007828 -0.031739
v 0.035547 0.007828 0.026637
v 0.035547 0.007828 -0.031739
v 0.026745 0.023798 -0.020064
v 0.026745 0.023798 0.007957
v -0.017319 0.012847 0.026637
v 0.021407 0.012847 -0.038743
v -0.020839 0.012847 -0.038743
v 0.017887 0.012847 0.026637
v -0.011468 0.012953 0.062713
v 0.011984 0.012953 0.062713
v 0.017887 0.007496 -0.056400
v -0.017319 0.007496 -0.056400
v -0.037801 0.012847 0.026637
v -0.037801 0.012847 -0.031739
v 0.035547 0.012847 -0.031739
v 0.035547 0.012847 0.026637
v -0.021137 0.021756 0.062582
v -0.039263 0.033163 0.062582
v -0.021137 0.014888 0.062582
v -0.033982 0.014888 0.062582
v 0.020844 0.021964 0.062223
v 0.037870 0.033371 0.062223
v 0.020844 0.014680 0.062223
v 0.032589 0.014680 0.062223
v 0.021407 0.017832 -0.038743
v 0.017887 0.012534 -0.056400
v 0.035547 0.022395 -0.031739
v -0.017319 0.017832 0.026637
v -0.020839 0.017832 -0.038743
v 0.017887 0.017832 0.026637
v -0.011468 0.014486 0.062713
v 0.011984 0.014486 0.062713
v -0.017319 0.012534 -0.056400
v -0.037801 0.022395 0.007957
v -0.037801 0.022395 -0.031739
v 0.035547 0.022395 0.007957
v -0.021137 0.018015 0.062582
v -0.033982 0.018015 0.062582
v 0.020844 0.017996 0.062223
v 0.032589 0.017996 0.062223
v 0.062310 0.017832 0.007957
v 0.062310 0.012847 0.026637
v 0.062310 0.012847 -0.020064
v 0.062310 0.017832 -0.020064
v -0.062536 0.017832 0.007957
v -0.062536 0.012847 0.026637
v -0.062536 0.017832 -0.020064
v -0.062536 0.012847 -0.020064
v 0.106317 0.013270 0.026637
v 0.106317 0.012847 0.026637
v 0.106317 0.012847 0.003286
v 0.106317 0.013270 0.003286
v -0.106542 0.013270 0.026637
v -0.106542 0.012847 0.026637
v -0.106542 0.013270 0.003286
v -0.106542 0.012847 0.003286
v 0.007607 0.011125 -0.085810
v 0.007607 0.013169 -0.085810
v -0.007039 0.009029 -0.085810
v -0.007039 0.005288 -0.085810
v -0.007039 0.013169 -0.085810
v 0.007607 0.005288 -0.085810
v 0.007607 0.009029 -0.085810
v -0.007039 0.011125 -0.085810
v 0.002630 0.006879 -0.100757
v 0.002630 0.007534 -0.100757
v -0.002062 0.006208 -0.100757
v -0.002062 0.005610 -0.100757
v -0.002062 0.007534 -0.100757
v 0.002630 0.005610 -0.100757
v 0.002630 0.006208 -0.100757
v -0.002062 0.006879 -0.100757
v 0.000054 0.000984 0.026637
v 0.000054 0.029372 -0.020064
v 0.000054 0.000984 -0.038743
v 0.000054 0.023798 0.026637
v 0.000105 0.007863 0.062713
v 0.000105 0.017354 0.062713
v 0.000054 0.024289 -0.056400
v 0.000054 0.003007 -0.056400
v 0.000105 0.012953 0.062713
v 0.000105 0.014486 0.062713
v 0.000188 0.016462 -0.085810
v 0.000188 0.005288 -0.085810
v 0.000253 0.006994 -0.100757
v 0.000253 0.005610 -0.100757
v 0.000253 0.006208 -0.100757
v 0.000253 0.006879 -0.100757
v 0.020844 0.020823 0.073897
v 0.027309 0.020823 0.073897
v 0.020844 0.017996 0.073897
v 0.020844 0.015821 0.073897
v 0.027309 0.017996 0.073897
v 0.032589 0.015821 0.073897
v -0.021137 0.020615 0.074257
v -0.028702 0.020615 0.074257
v -0.021137 0.018015 0.074257
v -0.021137 0.016029 0.074257
v -0.028702 0.018015 0.074257
v -0.033982 0.016029 0.074257
v -0.000067 0.033570 -0.030331
v 0.010321 0.030858 -0.039418
v -0.000067 0.031096 -0.048009
v 0.007752 0.027213 -0.048009
v -0.007663 0.027213 -0.048009
v -0.010232 0.030858 -0.039418
vt 0.345649 0.283906
vt 0.392994 0.331429
vt 0.228109 0.514398
vt 0.221383 0.407800
vt 0.761012 0.381993
vt 0.839610 0.381990
vt 0.819725 0.448298
vt 0.760992 0.448300
vt 0.693929 0.136062
vt 0.680685 0.381996
vt 0.627427 0.355293
vt 0.627427 0.135710
vt 0.761012 0.136060
vt 0.826366 0.136058
vt 0.246407 0.635417
vt 0.290611 0.629276
vt 0.273862 0.695827
vt 0.255161 0.698425
vt 0.299524 0.237606
vt 0.410982 0.157527
vt 0.441708 0.188370
vt 0.914141 0.534456
vt 0.903352 0.534456
vt 0.903352 0.490920
vt 0.914141 0.490920
vt 0.947977 0.490920
vt 0.903352 0.490920
vt 0.929583 0.357216
vt 0.948728 0.357216
vt 0.439778 0.867165
vt 0.462213 0.867165
vt 0.438793 1.000000
vt 0.428006 1.000000
vt 0.716065 0.000003
vt 0.760752 0.000001
vt 0.315253 0.801022
vt 0.298523 0.800364
vt 0.307577 0.687084
vt 0.321646 0.687084
vt 0.434216 0.696987
vt 0.462230 0.629276
vt 0.462230 0.629276
vt 0.434216 0.696987
vt 0.439791 0.629276
vt 0.419953 0.696495
vt 0.335227 0.868428
vt 0.290611 0.868428
vt 0.195315 0.232639
vt 0.221536 0.253069
vt 0.146865 0.327463
vt 0.089531 0.338030
vt 0.593410 0.870903
vt 0.546248 0.807873
vt 0.531525 0.674668
vt 0.543118 0.672686
vt 0.903352 0.135700
vt 0.903352 0.355283
vt 0.115944 0.401809
vt 0.284270 0.533506
vt 0.292062 0.479029
vt 0.366733 0.404634
vt 0.390054 0.428114
vt 0.531525 0.870903
vt 0.576154 0.870903
vt 0.550407 0.937338
vt 0.531525 0.937338
vt 0.227910 0.514500
vt 0.919428 0.938904
vt 0.875226 0.932750
vt 0.882587 0.879876
vt 0.901287 0.882480
vt 0.903352 0.179290
vt 0.969787 0.179290
vt 0.958676 0.313240
vt 0.914489 0.313240
vt 0.980404 0.000000
vt 0.999280 0.000043
vt 0.999281 0.218559
vt 0.980404 0.218516
vt 0.335239 0.945481
vt 0.290611 0.945481
vt 0.290611 0.868428
vt 0.309492 0.868428
vt 0.598820 0.629292
vt 0.617700 0.629276
vt 0.617700 0.848273
vt 0.598820 0.848288
vt 0.353977 0.868428
vt 0.334202 0.801022
vt 0.376412 0.629276
vt 0.421037 0.629276
vt 0.401000 0.696495
vt 0.384189 0.696987
vt 0.329529 0.687084
vt 0.376412 0.867165
vt 0.421029 0.867165
vt 0.422239 1.000000
vt 0.403098 1.000000
vt 0.966731 0.490920
vt 0.954497 0.357216
vt 0.939056 0.534456
vt 0.919910 0.534456
vt 0.919910 0.490920
vt 0.939056 0.490920
vt 0.227831 0.637998
vt 0.219583 0.703368
vt 0.940543 0.658719
vt 0.926473 0.658719
vt 0.930664 0.615016
vt 0.940443 0.615016
vt 0.903352 0.000000
vt 0.980404 0.000000
vt 0.966054 0.135314
vt 0.917732 0.135314
vt 0.941863 0.791842
vt 0.919428 0.791842
vt 0.337362 0.083529
vt 0.385106 0.132030
vt 0.519117 0.671953
vt 0.462230 0.664254
vt 0.512161 0.629316
vt 0.522740 0.630379
vt 0.483178 0.871383
vt 0.476853 0.874056
vt 0.495614 0.244863
vt 0.541200 0.290046
vt 0.938182 0.968313
vt 0.919428 0.968313
vt 0.926557 0.835642
vt 0.939030 0.835642
vt 0.960621 0.968313
vt 0.953955 0.835642
vt 0.525738 0.805381
vt 0.531525 0.673199
vt 0.958685 0.357216
vt 0.914499 0.357216
vt 0.960613 0.791842
vt 0.952301 0.658719
vt 0.947912 0.615016
vt 0.115746 0.401911
vt 0.989170 0.490920
vt 0.965285 0.357216
vt 0.376412 0.868428
vt 0.348540 0.800364
vt 0.856650 0.930164
vt 0.847010 0.874924
vt 0.460961 0.499520
vt 0.386290 0.573914
vt 0.598820 0.868308
vt 0.598820 0.661660
vt 0.244777 0.183206
vt 0.129492 0.166798
vt 0.179107 0.117287
vt 0.407101 0.809704
vt 0.393029 0.809704
vt 0.896513 0.779837
vt 0.877938 0.777251
vt 0.917853 0.615016
vt 0.919428 0.615235
vt 0.439517 0.378681
vt 0.510576 0.450009
vt 0.847010 0.881245
vt 0.627427 0.881245
vt 0.671340 0.780562
vt 0.847007 0.780562
vt 0.054821 0.241192
vt 0.000057 0.061995
vt 0.062283 0.000000
vt 0.267920 0.790266
vt 0.249343 0.792847
vt 0.000000 0.629276
vt 0.219583 0.629284
vt 0.219583 0.722332
vt 0.043917 0.722326
vt 0.619290 0.629276
vt 0.620880 0.629280
vt 0.620880 0.716686
vt 0.619290 0.716683
vt 0.627413 0.567288
vt 0.627427 0.567281
vt 0.565202 0.629276
vt 0.759167 0.615016
vt 0.847001 0.615016
vt 0.617700 0.629277
vt 0.619290 0.629276
vt 0.619290 0.716875
vt 0.617700 0.716876
vt 0.290611 0.953593
vt 0.289036 0.953812
vt 0.219583 0.887879
vt 0.131750 0.887876
vt 0.062269 0.000007
vt 0.396647 0.867165
vt 0.394397 0.867165
vt 0.760465 0.558812
vt 0.787653 0.558811
vt 0.768927 0.615015
vt 0.760218 0.615016
vt 0.414985 0.809704
vt 0.399173 0.867165
vt 0.422674 0.809704
vt 0.124383 0.504358
vt 0.166789 0.547328
vt 0.065688 0.602763
vt 0.046102 0.582936
vt 0.337216 0.687084
vt 0.621753 0.725626
vt 0.621320 0.725626
vt 0.619290 0.716686
vt 0.621753 0.716686
vt 0.626529 0.725626
vt 0.624279 0.725626
vt 0.624279 0.716686
vt 0.626529 0.716686
vt 0.401636 0.867165
vt 0.309083 0.629276
vt 0.311333 0.629276
vt 0.012456 0.629276
vt 0.006129 0.622952
vt 0.313858 0.629276
vt 0.316321 0.629276
vt 0.026803 0.563731
vt 0.000000 0.616772
vt 0.624279 0.734336
vt 0.621753 0.734336
vt 0.626529 0.734336
vt 0.619290 0.734336
vt 0.700531 0.448302
vt 0.732558 0.558813
vt 0.082665 0.462886
vt 0.751278 0.615016
vt 0.919910 0.579144
vt 0.914141 0.579144
vt 0.939056 0.579144
vt 0.221383 0.407800
vt 0.115944 0.401809
vt 0.804288 0.000000
vt 0.903352 0.579144
vt 0.473248 0.220028
vt 0.360674 0.912615
vt 0.352491 0.912615
vt 0.352491 0.868428
vt 0.360674 0.888293
vt 0.371309 0.912615
vt 0.371309 0.888293
vt 0.930883 0.791842
vt 0.939066 0.791842
vt 0.531525 0.629276
vt 0.949700 0.791842
vt 0.526689 0.213885
vt 0.543854 0.231115
vt 0.345021 0.916749
vt 0.335239 0.916749
vt 0.335239 0.888293
vt 0.345021 0.888293
vt 0.352491 0.916749
vt 0.352491 0.868428
vt 0.616912 0.896491
vt 0.616925 0.896607
vt 0.598820 0.856549
vt 0.616912 0.848288
vt 0.396098 0.080893
vt 0.416181 0.101052
vt 0.536232 0.630926
vt 0.545873 0.629276
vt 0.966063 0.179290
vt 0.917742 0.179290
vt 0.228109 0.514398
vt 0.166789 0.547328
vt 0.124383 0.504358
vt 0.082665 0.462886
vt 0.348540 0.800364
vt 0.376412 0.868428
vn 0.1659 0.9847 0.0542
vn 0.0000 -0.9935 -0.1139
vn 0.3933 -0.9194 0.0112
vn 0.0000 -1.0000 -0.0000
vn -0.3817 0.0000 -0.9243
vn 0.0000 0.9844 0.1758
vn 0.0000 0.0000 1.0000
vn -0.9871 0.0000 0.1601
vn 0.9869 0.0000 0.1615
vn 0.0000 -0.9823 0.1873
vn 0.9297 -0.1989 -0.3100
vn -0.5119 0.7250 -0.4607
vn -0.9400 0.1699 -0.2958
vn 0.9673 -0.1041 -0.2313
vn -0.1618 0.9868 0.0000
vn -0.9880 0.1276 0.0866
vn -0.3417 -0.9398 0.0097
vn 0.0034 1.0000 -0.0001
vn 0.1574 0.9875 -0.0000
vn 0.0000 1.0000 0.0000
vn 0.2678 0.8930 -0.3617
vn 0.4439 0.0000 -0.8961
vn 0.0000 -0.9987 0.0515
vn 1.0000 0.0000 -0.0000
vn -1.0000 0.0000 0.0000
vn 0.9807 0.0000 -0.1955
vn -0.9673 -0.1041 -0.2313
vn 0.9440 0.0000 -0.3299
vn 0.0000 -0.9984 0.0567
vn 0.9944 0.0000 0.1056
vn 0.3672 0.9300 -0.0181
vn 0.8584 -0.2490 0.4486
vn 0.9753 0.2047 -0.0832
vn -0.4116 0.9112 -0.0140
vn -0.9966 0.0000 0.0828
vn 0.9928 0.0990 0.0682
vn 0.0000 -0.9953 0.0972
vn -0.2264 0.9020 -0.3676
vn 0.9400 0.1699 -0.2958
vn 0.1681 0.9858 -0.0000
vn -0.9755 0.2092 -0.0674
vn -0.0856 0.9285 0.3612
vn -0.9807 0.0000 -0.1955
vn -0.9297 -0.1989 -0.3100
vn 0.4687 0.0000 -0.8833
vn 0.0792 0.9290 0.3614
vn 0.3998 0.0000 -0.9166
vn -0.1031 0.9947 0.0000
vn -0.4268 0.0000 -0.9043
vn -0.1814 0.9834 0.0000
vn -0.0092 0.9605 0.2781
vn 0.1031 0.9947 0.0000
vn -0.4687 0.0000 -0.8833
vn 0.0092 0.9605 0.2781
vn -0.9488 0.0000 -0.3159
vn 0.0000 -0.9998 -0.0215
vn -0.9094 0.2752 -0.3119
vn 0.4217 0.8786 -0.2239
vn 0.9094 0.2752 -0.3119
vn -0.9440 0.0000 -0.3299
vn 0.0000 -0.9970 -0.0773
vn 0.0000 0.0000 -1.0000
vn 0.9488 0.0000 -0.3159
vn 0.2391 0.8503 -0.4689
vn -0.2448 0.8482 -0.4698
vn -0.4312 0.8734 -0.2262
vn -0.5081 0.7951 0.3311
vn -0.1698 0.9840 0.0543
vn 0.7148 0.6875 0.1281
vn -0.4148 0.8543 0.3132
vn -0.6904 0.7132 0.1213
vn 0.3828 0.8620 0.3322
vn -0.8583 -0.2554 0.4451
vn 0.2216 0.9447 -0.2417
vn -0.2266 0.9435 -0.2419
vn -0.3678 0.7195 -0.5891
vn 0.4941 0.8068 0.3240
vn 0.4966 0.7357 -0.4606
vn 0.3609 0.7268 -0.5844
usemtl Material
s off
f 96/1/1 5/2/1 7/3/1 94/4/1
f 95/5/2 4/6/2 16/7/2 100/8/2
f 6/9/3 8/10/3 22/11/3 21/12/3
f 93/13/4 2/14/4 4/6/4 95/5/4
f 27/15/5 4/16/5 20/17/5 34/18/5
f 96/1/6 1/19/6 11/20/6 98/21/6
f 102/22/7 98/23/7 11/24/7 51/25/7
f 25/26/8 2/27/8 9/28/8 29/29/8
f 50/30/9 5/31/9 12/32/9 52/33/9
f 93/13/10 6/9/10 10/34/10 97/35/10
f 31/36/11 13/37/11 82/38/11 83/39/11
f 15/40/12 3/41/12 126/42/12 125/43/12
f 49/44/13 3/41/13 15/40/13 53/45/13
f 26/46/14 8/47/14 13/37/14 31/36/14
f 54/48/15 17/49/15 19/50/15 55/51/15
f 54/52/16 33/53/16 40/54/16 58/55/16
f 4/6/17 2/14/17 18/56/17 20/57/17
f 1/19/18 3/58/18 19/50/18 17/49/18
f 47/59/19 23/60/19 24/61/19 56/62/19
f 7/3/20 5/2/20 24/61/20 23/60/20
f 28/63/7 6/64/7 21/65/7 36/66/7
f 45/67/21 7/3/21 23/60/21 47/59/21
f 8/68/22 26/69/22 35/70/22 22/71/22
f 28/72/23 36/73/23 44/74/23 43/75/23
f 22/76/24 35/77/24 36/78/24 21/79/24
f 2/80/7 25/81/7 33/82/7 18/83/7
f 18/84/25 33/85/25 34/86/25 20/87/25
f 45/88/26 26/46/26 31/36/26 46/89/26
f 4/90/27 27/91/27 32/92/27 16/93/27
f 46/89/28 31/36/28 83/39/28 77/94/28
f 6/95/9 28/96/9 30/97/9 10/98/9
f 48/99/8 25/26/8 29/29/8 51/100/8
f 97/101/7 101/102/7 29/103/7 9/104/7
f 49/105/5 27/15/5 34/18/5 55/106/5
f 57/107/24 37/108/24 115/109/24 117/110/24
f 33/111/29 25/112/29 39/113/29 40/114/29
f 48/115/30 1/116/30 37/108/30 57/107/30
f 1/19/31 17/49/31 38/117/31 37/118/31
f 60/119/32 42/120/32 110/121/32 113/122/32
f 56/123/33 24/124/33 42/120/33 60/119/33
f 24/61/34 5/2/34 41/125/34 42/126/34
f 50/127/35 28/128/35 43/129/35 59/130/35
f 5/131/35 50/127/35 59/130/35 41/132/35
f 36/133/36 56/123/36 60/119/36 44/134/36
f 43/75/37 44/74/37 114/135/37 112/136/37
f 25/137/30 48/115/30 57/107/30 39/138/30
f 39/138/24 57/107/24 117/110/24 118/139/24
f 3/58/38 49/140/38 55/51/38 19/50/38
f 1/141/8 48/99/8 51/100/8 11/142/8
f 7/143/39 45/88/39 46/89/39 14/144/39
f 26/69/22 45/145/22 47/146/22 35/70/22
f 47/59/40 56/62/40 61/147/40 64/148/40
f 17/149/41 54/52/41 58/55/41 38/150/41
f 33/151/42 54/48/42 65/152/42 66/153/42
f 27/91/43 49/44/43 53/45/43 32/92/43
f 16/93/44 32/92/44 79/154/44 80/155/44
f 28/96/9 50/30/9 52/33/9 30/97/9
f 101/102/7 102/22/7 51/25/7 29/103/7
f 63/156/45 64/157/45 72/158/45 71/159/45
f 56/62/46 36/160/46 62/161/46 61/147/46
f 35/70/47 47/146/47 64/157/47 63/156/47
f 36/162/4 35/163/4 63/164/4 62/165/4
f 65/152/48 67/166/48 75/167/48 73/168/48
f 55/106/49 34/18/49 68/169/49 67/170/49
f 34/171/4 33/172/4 66/173/4 68/174/4
f 54/48/50 55/51/50 67/166/50 65/152/50
f 71/175/24 72/176/24 69/177/24 70/178/24
f 61/147/51 62/161/51 70/179/51 69/180/51
f 64/148/52 61/147/52 69/180/52 72/181/52
f 62/165/4 63/164/4 71/182/4 70/183/4
f 74/184/25 73/185/25 75/186/25 76/187/25
f 67/170/53 68/169/53 76/188/53 75/189/53
f 68/174/4 66/173/4 74/190/4 76/191/4
f 66/153/54 65/152/54 73/168/54 74/192/54
f 80/155/55 79/154/55 87/193/55 88/194/55
f 104/195/56 80/196/56 88/197/56 106/198/56
f 79/154/55 84/199/55 92/200/55 87/193/55
f 53/45/57 15/40/57 81/201/57 84/199/57
f 99/202/58 14/203/58 78/204/58 103/205/58
f 14/144/59 46/89/59 77/94/59 78/206/59
f 32/92/60 53/45/60 84/199/60 79/154/60
f 100/8/61 16/7/61 80/196/61 104/195/61
f 108/207/62 105/208/62 86/209/62 85/210/62
f 106/211/62 107/212/62 91/213/62 90/214/62
f 107/212/62 108/207/62 85/210/62 91/213/62
f 84/199/55 81/201/55 89/215/55 92/200/55
f 83/39/63 82/38/63 90/216/63 91/217/63
f 103/205/64 78/204/64 86/218/64 105/219/64
f 78/206/63 77/94/63 85/220/63 86/221/63
f 77/94/63 83/39/63 91/217/63 85/220/63
f 81/222/65 103/205/65 105/219/65 89/223/65
f 87/224/62 92/225/62 108/207/62 107/212/62
f 88/226/62 87/224/62 107/212/62 106/211/62
f 92/225/62 89/227/62 105/208/62 108/207/62
f 13/228/61 100/8/61 104/195/61 82/229/61
f 15/230/66 99/202/66 103/205/66 81/222/66
f 82/229/56 104/195/56 106/198/56 90/231/56
f 30/232/7 52/233/7 102/22/7 101/102/7
f 10/234/7 30/232/7 101/102/7 97/101/7
f 3/58/67 94/4/67 121/235/67 126/236/67
f 2/14/10 93/13/10 97/35/10 9/237/10
f 52/233/7 12/238/7 98/23/7 102/22/7
f 5/2/6 96/1/6 98/21/6 12/239/6
f 6/9/4 93/13/4 95/5/4 8/10/4
f 8/10/2 95/5/2 100/8/2 13/228/2
f 1/19/68 96/1/68 94/4/68 3/58/68
f 111/240/7 112/241/7 114/242/7 113/243/7
f 109/244/7 111/240/7 113/243/7 110/245/7
f 59/130/25 43/129/25 112/246/25 111/247/25
f 44/134/69 60/119/69 113/122/69 114/248/69
f 41/132/25 59/130/25 111/247/25 109/249/25
f 42/126/70 41/125/70 109/250/70 110/251/70
f 117/252/7 115/253/7 116/254/7 119/255/7
f 118/256/7 117/252/7 119/255/7 120/257/7
f 58/258/71 40/259/71 120/260/71 119/261/71
f 37/118/72 38/117/72 116/262/72 115/263/72
f 38/150/73 58/55/73 119/264/73 116/265/73
f 40/114/37 39/113/37 118/266/37 120/267/37
f 121/235/74 122/268/74 124/269/74 123/270/74
f 126/236/75 121/235/75 123/270/75 125/271/75
f 99/202/76 15/230/76 125/271/76 123/270/76
f 94/4/77 7/3/77 122/268/77 121/235/77
f 7/143/78 14/144/78 124/272/78 122/273/78
f 14/203/79 99/202/79 123/270/79 124/269/79
