# Blender v3.1.2 OBJ File: 'nave.blend'
# www.blender.org
mtllib navez.mtl
o Cube
frames: 1
v -0.001794 0.011848 0.025254
v 0.016032 0.011707 0.025765
v 0.021393 0.008004 -0.039384
v -0.000424 0.014788 -0.021666
v -0.000167 -0.014604 -0.038720
v -0.021051 -0.014439 -0.039319
v -0.015255 -0.013454 -0.056903
v 0.000350 -0.013577 -0.056455
v 0.015815 -0.011070 0.027042
v 0.021176 -0.014773 -0.038108
v 0.035178 -0.007658 -0.031095
v 0.033532 -0.004377 0.027166
v -0.002010 -0.010930 0.026531
v -0.019375 -0.010792 0.026033
v -0.020938 -0.002595 -0.039983
v -0.038138 -0.007079 -0.033198
v -0.038090 -0.002068 -0.033479
v -0.019159 0.011985 0.024756
v -0.014389 0.007533 0.061289
v -0.002821 0.007441 0.061621
v -0.002848 0.004578 0.061781
v -0.014416 0.004669 0.061449
v -0.019263 0.001052 0.025369
v -0.014479 -0.001943 0.061820
v -0.014430 0.003139 0.061535
v 0.015975 0.005750 0.026099
v 0.009053 0.007348 0.061961
v 0.009026 0.004484 0.062122
v 0.008963 -0.002128 0.062493
v -0.002911 -0.002034 0.062152
v 0.018217 -0.009236 -0.056195
v 0.016415 -0.013704 -0.055994
v 0.008750 -0.013012 -0.085718
v 0.008785 -0.009277 -0.085927
v -0.015129 -0.000175 -0.057647
v -0.020834 0.008338 -0.040596
v -0.010146 0.015265 -0.041360
v -0.007371 0.011123 -0.049657
v -0.020891 0.002381 -0.040262
v -0.016925 -0.003928 -0.057486
v 0.021289 -0.002929 -0.038771
v -0.039119 0.009696 0.005604
v -0.030377 0.011123 0.006864
v -0.029587 0.009548 -0.021102
v -0.038000 0.007465 -0.034013
v -0.039736 0.001213 0.024781
v -0.036912 0.005241 0.060651
v -0.036883 0.008363 0.060476
v -0.039783 -0.003798 0.025062
v 0.035316 0.006885 -0.031910
v 0.026202 0.009012 -0.020589
v 0.025412 0.010587 0.007376
v 0.034197 0.009117 0.007707
v 0.015928 0.000773 0.026378
v 0.033580 0.000634 0.026885
v 0.021336 0.002048 -0.039050
v 0.035225 -0.002647 -0.031376
v 0.029637 0.004488 0.062213
v 0.017898 0.004580 0.061876
v 0.018265 -0.004206 -0.056477
v -0.016973 -0.008958 -0.057204
v 0.008805 -0.007185 -0.086045
v 0.009011 0.002954 0.062208
v -0.019216 0.006028 0.025090
v -0.002862 0.003047 0.061867
v -0.024043 0.008262 0.060844
v -0.024008 0.011997 0.060635
v -0.024348 0.011514 0.072350
v -0.024372 0.008918 0.072496
v -0.024073 0.005140 0.061019
v -0.042017 0.023528 0.059477
v 0.029669 0.007798 0.062027
v 0.035094 0.023107 0.061318
v 0.024089 0.011319 0.073369
v 0.024062 0.008496 0.073527
v 0.017967 0.011853 0.061468
v 0.017929 0.007891 0.061691
v 0.029319 0.006283 0.073800
v 0.017579 0.006376 0.073463
v -0.024391 0.006935 0.072607
v 0.016541 -0.000425 -0.056738
v 0.060905 0.004350 0.008730
v 0.061695 0.002775 -0.019235
v -0.063886 0.005336 0.005150
v -0.064460 0.001409 0.024072
v -0.005854 -0.009162 -0.086347
v -0.005890 -0.012897 -0.086138
v 0.061647 -0.002202 -0.018956
v 0.104981 -0.000815 0.005586
v 0.104977 -0.001237 0.005609
v 0.060331 0.000423 0.027652
v -0.063096 0.003761 -0.022815
v -0.107784 0.000866 -0.000518
v -0.108442 0.002178 0.022787
v -0.063143 -0.001216 -0.022536
v 0.104322 0.000497 0.028890
v 0.104318 0.000075 0.028914
v -0.108446 0.001756 0.022810
v -0.107788 0.000444 -0.000495
v -0.000485 -0.012858 -0.100964
v -0.000490 -0.013455 -0.100931
v 0.001334 -0.012954 -0.085931
v 0.001824 -0.013473 -0.100864
v -0.005834 -0.007069 -0.086465
v -0.000478 -0.012188 -0.101002
v -0.005815 -0.005028 -0.086579
v 0.000552 0.007671 -0.057646
v 0.008825 -0.005144 -0.086159
v 0.001440 -0.001798 -0.086556
v 0.001836 -0.012206 -0.100935
v 0.001837 -0.012091 -0.100942
v 0.004218 -0.011571 -0.100904
v 0.004212 -0.012225 -0.100867
v 0.001829 -0.012876 -0.100898
v 0.004205 -0.012895 -0.100830
v 0.004199 -0.013492 -0.100796
v -0.000472 -0.011534 -0.101038
v -0.000216 0.018403 -0.032151
v 0.017600 0.008547 0.073341
v 0.017627 0.011370 0.073183
v -0.031909 0.011573 0.072133
v -0.031934 0.008978 0.072279
v -0.037231 0.007037 0.072239
v 0.010398 0.015102 -0.040771
v 0.008038 0.011001 -0.049215
v 0.000259 0.014939 -0.049656
v -0.055904 -0.232561 -0.016168
v -0.082149 -0.232354 -0.016921
v -0.074866 -0.231115 -0.039019
v -0.055254 -0.231270 -0.038456
v -0.035819 -0.228120 0.066476
v -0.029081 -0.232773 -0.015398
v -0.005422 -0.217947 -0.006586
v -0.007490 -0.213823 0.066631
v -0.058220 -0.227943 0.065834
v -0.080043 -0.227771 0.065208
v -0.108215 -0.217882 -0.009229
v -0.108235 -0.217905 -0.009582
v -0.079902 -0.212886 0.048113
v -0.073889 -0.216649 0.110182
v -0.044430 -0.216882 0.111028
v -0.059352 -0.216764 0.110599
v -0.035065 -0.231430 -0.037877
v -0.044698 -0.230561 -0.075231
v -0.110309 -0.213781 0.063635
v -0.102082 -0.207621 0.108713
v -0.110283 -0.213758 0.063988
v -0.035677 -0.213236 0.047118
v -0.007423 -0.213411 0.066279
v -0.005355 -0.217534 -0.006938
v -0.018448 -0.208568 0.110676
v -0.033202 -0.208451 0.110253
v -0.085947 -0.207748 0.109176
v -0.018848 -0.206312 0.125238
v -0.033601 -0.206195 0.124814
v -0.086347 -0.205492 0.123739
v -0.136702 -0.212437 0.062744
v -0.063095 -0.230415 -0.075759
v 0.021780 -0.216975 0.008669
v 0.076232 -0.215763 0.039541
v 0.020125 -0.213676 0.067243
v -0.135047 -0.215736 0.004170
v 0.075405 -0.214113 0.068829
v -0.191980 -0.212001 0.061158
v -0.191153 -0.213650 0.031871
v -0.056310 -0.231116 -0.094349
v -0.054017 -0.230487 -0.075499
v -0.053402 -0.231139 -0.094266
v -0.050416 -0.231163 -0.094180
v -0.102482 -0.205365 0.123276
vt 0.345649 0.283906
vt 0.392994 0.331429
vt 0.228109 0.514398
vt 0.221383 0.407800
vt 0.761012 0.381993
vt 0.839610 0.381990
vt 0.819725 0.448298
vt 0.760992 0.448300
vt 0.693929 0.136062
vt 0.680685 0.381996
vt 0.627427 0.355293
vt 0.627427 0.135710
vt 0.761012 0.136060
vt 0.826366 0.136058
vt 0.246407 0.635417
vt 0.290611 0.629276
vt 0.273862 0.695827
vt 0.255161 0.698425
vt 0.299524 0.237606
vt 0.410982 0.157527
vt 0.441708 0.188370
vt 0.914141 0.534456
vt 0.903352 0.534456
vt 0.903352 0.490920
vt 0.914141 0.490920
vt 0.947977 0.490920
vt 0.903352 0.490920
vt 0.929583 0.357216
vt 0.948728 0.357216
vt 0.439778 0.867165
vt 0.462213 0.867165
vt 0.438793 1.000000
vt 0.428006 1.000000
vt 0.716065 0.000003
vt 0.760752 0.000001
vt 0.315253 0.801022
vt 0.298523 0.800364
vt 0.307577 0.687084
vt 0.321646 0.687084
vt 0.434216 0.696987
vt 0.462230 0.629276
vt 0.462230 0.629276
vt 0.434216 0.696987
vt 0.439791 0.629276
vt 0.419953 0.696495
vt 0.335227 0.868428
vt 0.290611 0.868428
vt 0.195315 0.232639
vt 0.221536 0.253069
vt 0.146865 0.327463
vt 0.089531 0.338030
vt 0.593410 0.870903
vt 0.546248 0.807873
vt 0.531525 0.674668
vt 0.543118 0.672686
vt 0.903352 0.135700
vt 0.903352 0.355283
vt 0.115944 0.401809
vt 0.284270 0.533506
vt 0.292062 0.479029
vt 0.366733 0.404634
vt 0.390054 0.428114
vt 0.531525 0.870903
vt 0.576154 0.870903
vt 0.550407 0.937338
vt 0.531525 0.937338
vt 0.227910 0.514500
vt 0.919428 0.938904
vt 0.875226 0.932750
vt 0.882587 0.879876
vt 0.901287 0.882480
vt 0.903352 0.179290
vt 0.969787 0.179290
vt 0.958676 0.313240
vt 0.914489 0.313240
vt 0.980404 0.000000
vt 0.999280 0.000043
vt 0.999281 0.218559
vt 0.980404 0.218516
vt 0.335239 0.945481
vt 0.290611 0.945481
vt 0.290611 0.868428
vt 0.309492 0.868428
vt 0.598820 0.629292
vt 0.617700 0.629276
vt 0.617700 0.848273
vt 0.598820 0.848288
vt 0.353977 0.868428
vt 0.334202 0.801022
vt 0.376412 0.629276
vt 0.421037 0.629276
vt 0.401000 0.696495
vt 0.384189 0.696987
vt 0.329529 0.687084
vt 0.376412 0.867165
vt 0.421029 0.867165
vt 0.422239 1.000000
vt 0.403098 1.000000
vt 0.966731 0.490920
vt 0.954497 0.357216
vt 0.939056 0.534456
vt 0.919910 0.534456
vt 0.919910 0.490920
vt 0.939056 0.490920
vt 0.227831 0.637998
vt 0.219583 0.703368
vt 0.940543 0.658719
vt 0.926473 0.658719
vt 0.930664 0.615016
vt 0.940443 0.615016
vt 0.903352 0.000000
vt 0.980404 0.000000
vt 0.966054 0.135314
vt 0.917732 0.135314
vt 0.941863 0.791842
vt 0.919428 0.791842
vt 0.337362 0.083529
vt 0.385106 0.132030
vt 0.519117 0.671953
vt 0.462230 0.664254
vt 0.512161 0.629316
vt 0.522740 0.630379
vt 0.483178 0.871383
vt 0.476853 0.874056
vt 0.495614 0.244863
vt 0.541200 0.290046
vt 0.938182 0.968313
vt 0.919428 0.968313
vt 0.926557 0.835642
vt 0.939030 0.835642
vt 0.960621 0.968313
vt 0.953955 0.835642
vt 0.525738 0.805381
vt 0.531525 0.673199
vt 0.958685 0.357216
vt 0.914499 0.357216
vt 0.960613 0.791842
vt 0.952301 0.658719
vt 0.947912 0.615016
vt 0.115746 0.401911
vt 0.989170 0.490920
vt 0.965285 0.357216
vt 0.376412 0.868428
vt 0.348540 0.800364
vt 0.856650 0.930164
vt 0.847010 0.874924
vt 0.460961 0.499520
vt 0.386290 0.573914
vt 0.598820 0.868308
vt 0.598820 0.661660
vt 0.244777 0.183206
vt 0.129492 0.166798
vt 0.179107 0.117287
vt 0.407101 0.809704
vt 0.393029 0.809704
vt 0.896513 0.779837
vt 0.877938 0.777251
vt 0.917853 0.615016
vt 0.919428 0.615235
vt 0.439517 0.378681
vt 0.510576 0.450009
vt 0.847010 0.881245
vt 0.627427 0.881245
vt 0.671340 0.780562
vt 0.847007 0.780562
vt 0.054821 0.241192
vt 0.000057 0.061995
vt 0.062283 0.000000
vt 0.267920 0.790266
vt 0.249343 0.792847
vt 0.000000 0.629276
vt 0.219583 0.629284
vt 0.219583 0.722332
vt 0.043917 0.722326
vt 0.619290 0.629276
vt 0.620880 0.629280
vt 0.620880 0.716686
vt 0.619290 0.716683
vt 0.627413 0.567288
vt 0.627427 0.567281
vt 0.565202 0.629276
vt 0.759167 0.615016
vt 0.847001 0.615016
vt 0.617700 0.629277
vt 0.619290 0.629276
vt 0.619290 0.716875
vt 0.617700 0.716876
vt 0.290611 0.953593
vt 0.289036 0.953812
vt 0.219583 0.887879
vt 0.131750 0.887876
vt 0.062269 0.000007
vt 0.396647 0.867165
vt 0.394397 0.867165
vt 0.760465 0.558812
vt 0.787653 0.558811
vt 0.768927 0.615015
vt 0.760218 0.615016
vt 0.414985 0.809704
vt 0.399173 0.867165
vt 0.422674 0.809704
vt 0.124383 0.504358
vt 0.166789 0.547328
vt 0.065688 0.602763
vt 0.046102 0.582936
vt 0.337216 0.687084
vt 0.621753 0.725626
vt 0.621320 0.725626
vt 0.619290 0.716686
vt 0.621753 0.716686
vt 0.626529 0.725626
vt 0.624279 0.725626
vt 0.624279 0.716686
vt 0.626529 0.716686
vt 0.401636 0.867165
vt 0.309083 0.629276
vt 0.311333 0.629276
vt 0.012456 0.629276
vt 0.006129 0.622952
vt 0.313858 0.629276
vt 0.316321 0.629276
vt 0.026803 0.563731
vt 0.000000 0.616772
vt 0.624279 0.734336
vt 0.621753 0.734336
vt 0.626529 0.734336
vt 0.619290 0.734336
vt 0.700531 0.448302
vt 0.732558 0.558813
vt 0.082665 0.462886
vt 0.751278 0.615016
vt 0.919910 0.579144
vt 0.914141 0.579144
vt 0.939056 0.579144
vt 0.221383 0.407800
vt 0.115944 0.401809
vt 0.804288 0.000000
vt 0.903352 0.579144
vt 0.473248 0.220028
vt 0.360674 0.912615
vt 0.352491 0.912615
vt 0.352491 0.868428
vt 0.360674 0.888293
vt 0.371309 0.912615
vt 0.371309 0.888293
vt 0.930883 0.791842
vt 0.939066 0.791842
vt 0.531525 0.629276
vt 0.949700 0.791842
vt 0.526689 0.213885
vt 0.543854 0.231115
vt 0.345021 0.916749
vt 0.335239 0.916749
vt 0.335239 0.888293
vt 0.345021 0.888293
vt 0.352491 0.916749
vt 0.352491 0.868428
vt 0.616912 0.896491
vt 0.616925 0.896607
vt 0.598820 0.856549
vt 0.616912 0.848288
vt 0.396098 0.080893
vt 0.416181 0.101052
vt 0.536232 0.630926
vt 0.545873 0.629276
vt 0.966063 0.179290
vt 0.917742 0.179290
vt 0.228109 0.514398
vt 0.166789 0.547328
vt 0.124383 0.504358
vt 0.082665 0.462886
vt 0.348540 0.800364
vt 0.376412 0.868428
vt 0.551637 0.075425
vt 0.572716 0.050772
vt 0.567384 0.068552
vt 0.551635 0.068553
vt 0.533649 0.009480
vt 0.530101 0.050774
vt 0.594182 0.070958
vt 0.594733 0.012074
vt 0.551637 0.009479
vt 0.569162 0.009479
vt 0.539611 0.012588
vt 0.551593 0.012588
vt 0.520313 0.011717
vt 0.520725 0.070602
vt 0.573121 0.146431
vt 0.590936 0.146431
vt 0.587956 0.182349
vt 0.576106 0.177575
vt 0.573121 0.097226
vt 0.593783 0.097226
vt 0.589935 0.133510
vt 0.576975 0.129318
vt 0.587954 0.184342
vt 0.576106 0.184342
vt 0.564208 0.195379
vt 0.505328 0.195379
vt 0.517103 0.168381
vt 0.564207 0.168381
vt 0.459986 0.078654
vt 0.518866 0.078656
vt 0.518866 0.103606
vt 0.471762 0.103605
vt 0.540653 0.123990
vt 0.564206 0.123990
vt 0.518867 0.147997
vt 0.495314 0.147996
vt 0.551490 0.114120
vt 0.558781 0.110934
vt 0.553759 0.133233
vt 0.551424 0.133233
vt 0.535423 0.068554
vt 0.544007 0.118162
vt 0.549027 0.133233
vt 0.563267 0.012588
vt 0.589932 0.136636
vt 0.576975 0.136636
vn 0.1736 0.9848 0.0037
vn -0.0062 -0.9983 -0.0580
vn 0.3840 -0.9204 0.0739
vn -0.0095 -0.9984 0.0560
vn -0.3554 -0.0489 -0.9334
vn 0.0044 0.9927 0.1204
vn -0.0282 0.0562 0.9980
vn -0.9912 0.0168 0.1315
vn 0.9819 0.0013 0.1895
vn -0.0146 -0.9702 0.2419
vn 0.9361 -0.2234 -0.2716
vn -0.4918 0.7020 -0.5150
vn -0.9296 0.1605 -0.3317
vn 0.9724 -0.1246 -0.1972
vn -0.1524 0.9865 -0.0599
vn -0.9888 0.1401 0.0510
vn -0.3508 -0.9350 0.0525
vn 0.0129 0.9983 -0.0560
vn 0.1680 0.9845 -0.0507
vn 0.1667 0.9847 -0.0507
vn 0.1720 0.9838 -0.0505
vn 0.0095 0.9984 -0.0560
vn 0.2863 0.8691 -0.4033
vn 0.4689 -0.0539 -0.8816
vn -0.0109 -0.9942 0.1072
vn 0.9996 -0.0079 0.0287
vn -0.9996 0.0079 -0.0287
vn 0.9858 -0.0187 -0.1670
vn -0.9613 -0.1094 -0.2527
vn 0.9529 -0.0260 -0.3022
vn -0.0111 -0.9936 0.1124
vn 0.9910 -0.0019 0.1339
vn 0.3764 0.9246 -0.0596
vn 0.8430 -0.2302 0.4862
vn 0.9791 0.1920 -0.0665
vn -0.4024 0.9122 -0.0767
vn -0.9985 0.0125 0.0541
vn 0.9913 0.0949 0.0910
vn -0.0122 -0.9882 0.1528
vn -0.2074 0.8817 -0.4239
vn 0.9495 0.1456 -0.2778
vn 0.1774 0.9829 -0.0503
vn -0.9712 0.2128 -0.1069
vn -0.0870 0.9480 0.3061
vn -0.9748 -0.0032 -0.2232
vn -0.9224 -0.2087 -0.3249
vn 0.4934 -0.0534 -0.8682
vn 0.0778 0.9472 0.3110
vn 0.4255 -0.0547 -0.9033
vn -0.0936 0.9939 -0.0586
vn -0.4012 -0.0475 -0.9148
vn -0.1720 0.9833 -0.0602
vn -0.0079 0.9747 0.2235
vn 0.1125 0.9923 -0.0527
vn -0.4436 -0.0459 -0.8950
vn 0.0105 0.9745 0.2240
vn -0.9395 -0.0103 -0.3425
vn -0.0089 -0.9994 0.0345
vn -0.8975 0.2645 -0.3528
vn 0.4362 0.8613 -0.2605
vn 0.9204 0.2501 -0.3006
vn -0.9343 -0.0111 -0.3564
vn -0.0073 -0.9997 -0.0214
vn 0.0282 -0.0562 -0.9980
vn 0.9573 -0.0253 -0.2881
vn 0.2602 0.8207 -0.5087
vn -0.2233 0.8223 -0.5233
vn -0.4163 0.8627 -0.2870
vn -0.5097 0.8164 0.2714
vn -0.1619 0.9868 -0.0058
vn 0.7175 0.6879 0.1099
vn -0.4154 0.8738 0.2529
vn -0.6866 0.7245 0.0613
vn -0.6866 0.7244 0.0613
vn 0.3814 0.8763 0.2943
vn -0.8729 -0.2232 0.4338
vn 0.2372 0.9279 -0.2878
vn -0.2107 0.9301 -0.3007
vn -0.3443 0.6882 -0.6387
vn 0.4924 0.8198 0.2924
vn 0.5163 0.7047 -0.4867
vn 0.3842 0.6899 -0.6136
vn 0.4772 -0.8754 0.0766
vn -0.4462 -0.8935 0.0502
vn -0.0457 -0.9953 0.0855
vn 0.0503 -0.9932 0.1047
vn -0.0116 -0.9984 0.0559
vn -0.0109 -0.9984 0.0559
vn -0.0105 -0.9984 0.0559
vn -0.0526 -0.9971 0.0547
vn -0.0311 -0.9980 0.0553
vn -0.0378 -0.9978 0.0551
usemtl Material.001
s 1
f 1/1/1 2/2/1 3/3/1 4/4/1
f 5/5/2 6/6/2 7/7/2 8/8/2
f 9/9/3 10/10/3 11/11/3 12/12/3
f 13/13/4 14/14/4 6/6/4 5/5/4
f 15/15/5 6/16/5 16/17/5 17/18/5
f 1/1/6 18/19/6 19/20/6 20/21/6
f 21/22/7 20/23/7 19/24/7 22/25/7
f 23/26/8 14/27/8 24/28/8 25/29/8
f 26/30/9 2/31/9 27/32/9 28/33/9
f 13/13/10 9/9/10 29/34/10 30/35/10
f 31/36/11 32/37/11 33/38/11 34/39/11
f 35/40/12 36/41/12 37/42/12 38/43/12
f 39/44/13 36/41/13 35/40/13 40/45/13
f 41/46/14 10/47/14 32/37/14 31/36/14
f 42/48/15 43/49/15 44/50/15 45/51/15
f 42/52/16 46/53/16 47/54/16 48/55/16
f 6/6/17 14/14/17 49/56/17 16/57/17
f 18/19/18 36/58/18 44/50/18 43/49/18
f 50/59/19 51/60/20 52/61/20 53/62/21
f 3/3/22 2/2/22 52/61/22 51/60/22
f 54/63/7 9/64/7 12/65/7 55/66/7
f 56/67/23 3/3/23 51/60/23 50/59/23
f 10/68/24 41/69/24 57/70/24 11/71/24
f 54/72/25 55/73/25 58/74/25 59/75/25
f 11/76/26 57/77/26 55/78/26 12/79/26
f 14/80/7 23/81/7 46/82/7 49/83/7
f 49/84/27 46/85/27 17/86/27 16/87/27
f 56/88/28 41/46/28 31/36/28 60/89/28
f 6/90/29 15/91/29 61/92/29 7/93/29
f 60/89/30 31/36/30 34/39/30 62/94/30
f 9/95/9 54/96/9 63/97/9 29/98/9
f 64/99/8 23/26/8 25/29/8 22/100/8
f 30/101/7 65/102/7 25/103/7 24/104/7
f 39/105/5 15/15/5 17/18/5 45/106/5
f 66/107/26 67/108/26 68/109/26 69/110/26
f 46/111/31 23/112/31 70/113/31 47/114/31
f 64/115/32 18/116/32 67/108/32 66/107/32
f 18/19/33 43/49/33 71/117/33 67/118/33
f 72/119/34 73/120/34 74/121/34 75/122/34
f 53/123/35 52/124/35 73/120/35 72/119/35
f 52/61/36 2/2/36 76/125/36 73/126/36
f 26/127/37 54/128/37 59/129/37 77/130/37
f 2/131/37 26/127/37 77/130/37 76/132/37
f 55/133/38 53/123/38 72/119/38 58/134/38
f 59/75/39 58/74/39 78/135/39 79/136/39
f 23/137/32 64/115/32 66/107/32 70/138/32
f 70/138/26 66/107/26 69/110/26 80/139/26
f 36/58/40 39/140/40 45/51/40 44/50/40
f 18/141/8 64/99/8 22/100/8 19/142/8
f 3/143/41 56/88/41 60/89/41 81/144/41
f 41/69/24 56/145/24 50/146/24 57/70/24
f 50/59/19 53/62/21 82/147/42 83/148/42
f 43/149/43 42/52/43 48/55/43 71/150/43
f 46/151/44 42/48/44 84/152/44 85/153/44
f 15/91/45 39/44/45 40/45/45 61/92/45
f 7/93/46 61/92/46 86/154/46 87/155/46
f 54/96/9 26/30/9 28/33/9 63/97/9
f 65/102/7 21/22/7 22/25/7 25/103/7
f 88/156/47 83/157/47 89/158/47 90/159/47
f 53/62/48 55/160/48 91/161/48 82/147/48
f 57/70/49 50/146/49 83/157/49 88/156/49
f 55/162/4 57/163/4 88/164/4 91/165/4
f 84/152/50 92/166/50 93/167/50 94/168/50
f 45/106/51 17/18/51 95/169/51 92/170/51
f 17/171/4 46/172/4 85/173/4 95/174/4
f 42/48/52 45/51/52 92/166/52 84/152/52
f 90/175/26 89/176/26 96/177/26 97/178/26
f 82/147/53 91/161/53 97/179/53 96/180/53
f 83/148/54 82/147/54 96/180/54 89/181/54
f 91/165/4 88/164/4 90/182/4 97/183/4
f 98/184/27 94/185/27 93/186/27 99/187/27
f 92/170/55 95/169/55 99/188/55 93/189/55
f 95/174/4 85/173/4 98/190/4 99/191/4
f 85/153/56 84/152/56 94/168/56 98/192/56
f 87/155/57 86/154/57 100/193/57 101/194/57
f 102/195/58 87/196/58 101/197/58 103/198/58
f 86/154/57 104/199/57 105/200/57 100/193/57
f 40/45/59 35/40/59 106/201/59 104/199/59
f 107/202/60 81/203/60 108/204/60 109/205/60
f 81/144/61 60/89/61 62/94/61 108/206/61
f 61/92/62 40/45/62 104/199/62 86/154/62
f 8/8/63 7/7/63 87/196/63 102/195/63
f 110/207/64 111/208/64 112/209/64 113/210/64
f 103/211/64 114/212/64 115/213/64 116/214/64
f 114/212/64 110/207/64 113/210/64 115/213/64
f 104/199/57 106/201/57 117/215/57 105/200/57
f 34/39/65 33/38/65 116/216/65 115/217/65
f 109/205/66 108/204/66 112/218/66 111/219/66
f 108/206/65 62/94/65 113/220/65 112/221/65
f 62/94/65 34/39/65 115/217/65 113/220/65
f 106/222/67 109/205/67 111/219/67 117/223/67
f 100/224/64 105/225/64 110/207/64 114/212/64
f 101/226/64 100/224/64 114/212/64 103/211/64
f 105/225/64 117/227/64 111/208/64 110/207/64
f 32/228/63 8/8/63 102/195/63 33/229/63
f 35/230/68 107/202/68 109/205/68 106/222/68
f 33/229/58 102/195/58 103/198/58 116/231/58
f 63/232/7 28/233/7 21/22/7 65/102/7
f 29/234/7 63/232/7 65/102/7 30/101/7
f 36/58/69 4/4/69 118/235/69 37/236/69
f 14/14/10 13/13/10 30/35/10 24/237/10
f 28/233/7 27/238/7 20/23/7 21/22/7
f 2/2/6 1/1/6 20/21/6 27/239/6
f 9/9/4 13/13/4 5/5/4 10/10/4
f 10/10/2 5/5/2 8/8/2 32/228/2
f 18/19/70 1/1/70 4/4/70 36/58/70
f 119/240/7 79/241/7 78/242/7 75/243/7
f 120/244/7 119/240/7 75/243/7 74/245/7
f 77/130/27 59/129/27 79/246/27 119/247/27
f 58/134/71 72/119/71 75/122/71 78/248/71
f 76/132/27 77/130/27 119/247/27 120/249/27
f 73/126/72 76/125/72 120/250/72 74/251/72
f 69/252/7 68/253/7 121/254/7 122/255/7
f 80/256/7 69/252/7 122/255/7 123/257/7
f 48/258/73 47/259/74 123/260/74 122/261/74
f 67/118/75 71/117/75 121/262/75 68/263/75
f 71/150/76 48/55/76 122/264/76 121/265/76
f 47/114/39 70/113/39 80/266/39 123/267/39
f 118/235/77 124/268/77 125/269/77 126/270/77
f 37/236/78 118/235/78 126/270/78 38/271/78
f 107/202/79 35/230/79 38/271/79 126/270/79
f 4/4/80 3/3/80 124/268/80 118/235/80
f 3/143/81 81/144/81 125/272/81 124/273/81
f 81/203/82 107/202/82 126/270/82 125/269/82
f 127/274/2 128/275/2 129/276/2 130/277/2
f 131/278/83 132/279/83 133/280/83 134/281/83
f 135/282/4 136/283/4 128/275/4 127/274/4
f 135/282/10 131/278/10 141/284/10 142/285/10
f 128/275/84 136/283/84 147/286/84 137/287/84
f 148/288/85 149/289/85 151/290/85 152/291/85
f 145/292/86 139/293/86 153/294/86 146/295/86
f 152/291/39 151/290/39 154/296/39 155/297/39
f 149/298/87 150/299/87 159/300/88 161/301/89
f 138/302/90 145/303/90 157/304/91 162/305/92
f 161/301/89 159/300/88 160/306/4 163/307/4
f 162/305/92 157/304/91 164/308/4 165/309/4
f 167/310/58 158/311/58 166/312/58 168/313/58
f 130/277/63 129/276/63 158/311/63 167/310/63
f 143/314/63 130/277/63 167/310/63 144/315/63
f 144/315/58 167/310/58 168/313/58 169/316/58
f 136/283/10 135/282/10 142/285/10 140/317/10
f 131/278/4 135/282/4 127/274/4 132/279/4
f 132/279/2 127/274/2 130/277/2 143/314/2
f 146/295/39 153/294/39 156/318/39 170/319/39