# Blender v3.2.2 OBJ File: 'bt.blend'
# www.blender.org
mtllib nb.mtl
o Grid
frames: 1
texture: 1
v -3.853170 -5.626036 12.394445
v -10.098173 -5.586899 7.698788
v -10.215078 -5.635425 12.230219
v 2.506065 -5.498437 12.576969
v -3.843763 -4.256142 7.994461
v 8.927588 -4.688772 12.812939
v 2.697624 -3.431691 8.279415
v 15.317036 -4.392221 12.886352
v 9.052662 -4.536258 8.307423
v 21.595673 -5.547273 13.051983
v 15.362616 -5.245100 8.388388
v 27.956236 -5.509422 13.216318
v 21.733854 -4.698116 8.612879
v 34.321068 -4.520391 13.365932
v 28.093113 -4.531319 8.799122
v 40.728928 -4.421595 13.490870
v 34.473747 -5.052074 8.868736
v 47.084969 -4.579137 13.669216
v 40.849876 -4.654162 9.041990
v 53.410950 -5.411812 13.870399
v 47.163647 -4.330465 9.180779
v -10.033064 -5.308024 3.192819
v -3.944393 -2.543847 3.691538
v 2.766972 -1.674056 3.924437
v 9.582231 -2.239219 4.068134
v 15.814356 -1.257701 3.828383
v 21.985746 -2.031674 3.968479
v 28.420681 -1.899195 4.133407
v 34.625629 -4.795218 4.172305
v 40.832466 -5.302711 4.392248
v 53.499443 -5.174536 9.320173
v 47.271599 -4.877462 4.773822
v -10.196775 -3.478281 -1.232532
v -3.561455 -1.959317 -1.112850
v 3.382652 -1.502489 -1.105142
v 9.366142 -4.373057 -0.920049
v 15.588207 -5.210405 -0.730089
v 21.920578 -4.955174 -0.578598
v 28.000902 -6.307070 -0.666828
v 34.454922 -6.316180 -0.372068
v 40.937000 -5.999713 -0.117118
v 53.635517 -4.669775 4.883808
v 47.255295 -3.067250 0.215215
v -9.859957 -4.222408 -5.892664
v -3.342686 -3.544976 -5.823486
v 3.106092 -4.034522 -5.670332
v 9.338284 -5.407528 -5.402815
v 15.664776 -5.556029 -5.298671
v 21.562361 -7.279442 -5.790084
v 28.017309 -6.821790 -5.320881
v 34.623756 -6.338941 -4.811573
v 41.126938 -4.870583 -4.547814
v 53.712658 -2.945196 0.305709
v 47.543503 -4.580184 -4.395032
v -9.630581 -5.383046 -10.426833
v -3.268658 -5.383408 -10.262712
v 3.093246 -5.374021 -10.098485
v 9.444647 -5.405077 -9.953062
v 15.379025 -6.890252 -10.634604
v 21.791346 -6.574676 -10.347378
v 28.520540 -5.020332 -9.462304
v 34.867271 -4.257801 -9.214589
v 41.269814 -3.287320 -9.029478
v 53.884087 -4.474823 -4.262298
v 47.665539 -4.762443 -8.927311
v -9.513660 -5.344273 -14.958369
v -3.151754 -5.334884 -14.794144
v 3.185041 -5.373943 -16.652870
v 8.614082 -7.221387 -15.301554
v 14.880144 -6.772508 -15.550841
v 22.083933 -3.527315 -14.174451
v 28.684708 -3.623825 -13.835580
v 34.940525 -3.819434 -13.641384
v 41.439636 -2.724322 -13.474957
v 53.988541 -5.298094 -8.784652
v 47.842655 -1.831426 -13.088434
v -9.397152 -4.842675 -19.483078
v -5.208878 -6.548219 -23.288967
v -1.424730 -8.639780 -25.404512
v 4.063826 -7.698825 -23.249029
v 15.391504 -4.309560 -19.190536
v 22.400650 -2.335651 -18.536673
v 28.665407 -1.920452 -18.414045
v 34.346649 0.077301 -17.487766
v 41.113144 0.915001 -17.200720
v 54.287880 -4.799665 -13.251076
v 48.305901 1.241630 -17.253265
v -9.470041 -5.561474 -26.639723
v -2.502642 -8.703268 -29.570824
v 3.341402 -7.359009 -24.483673
v 8.753693 -3.775932 -23.978849
v 15.991060 -2.281133 -23.165192
v 22.584995 -2.560243 -23.227940
v 28.819244 -3.308705 -23.100914
v 33.675396 1.196306 -22.724628
v 40.821877 3.983961 -22.373283
v 55.002739 -2.884829 -17.624187
v 48.888931 2.147635 -22.447296
v -9.769833 -8.730128 -30.013674
v -0.107183 -7.584312 -30.321241
v 3.285742 -5.201474 -28.607222
v 9.582128 -2.287426 -28.009228
v 16.082001 -1.846545 -27.873981
v 22.679482 -3.125453 -27.757448
v 28.943914 -3.494025 -27.645222
v 34.266754 0.024413 -27.837378
v 41.243034 1.251060 -27.837372
v 55.277794 -1.154257 -22.508163
v 48.565208 -0.363292 -27.618151
v -9.068819 -8.709511 -33.905888
v -0.315414 -6.618551 -31.262239
v 3.669134 -5.010692 -32.759048
v 9.980825 -4.167992 -32.693680
v 16.385511 -3.954299 -32.537857
v 22.787457 -4.689702 -32.291252
v 29.079706 -4.686201 -32.104649
v 35.069839 -3.196969 -32.149452
v 41.699799 -2.893714 -32.241722
v 54.776161 -3.267874 -27.145718
v 48.428284 -3.120804 -31.949850
v 54.633003 -4.529336 -31.512182
vt 0.147732 0.044355
vt 0.061245 0.136113
vt 0.060061 0.044188
vt 0.234902 0.043085
vt 0.137922 0.123981
vt 0.321283 0.034457
vt 0.226076 0.115535
vt 0.410983 0.033846
vt 0.321359 0.127091
vt 0.499714 0.044645
vt 0.411255 0.134228
vt 0.588138 0.044555
vt 0.500074 0.129336
vt 0.680813 0.036037
vt 0.589971 0.127951
vt 0.772513 0.036218
vt 0.677951 0.134016
vt 0.861912 0.037646
vt 0.769619 0.131257
vt 0.943814 0.044751
vt 0.861414 0.129683
vt 0.059742 0.225674
vt 0.123408 0.203413
vt 0.216485 0.197152
vt 0.320062 0.201732
vt 0.410292 0.204833
vt 0.502890 0.210292
vt 0.598685 0.209896
vt 0.678256 0.228978
vt 0.762260 0.230728
vt 0.943358 0.136613
vt 0.855079 0.224470
vt 0.041156 0.308245
vt 0.124164 0.304071
vt 0.223807 0.306480
vt 0.322806 0.316604
vt 0.411175 0.319202
vt 0.498567 0.318993
vt 0.579974 0.328557
vt 0.667185 0.326457
vt 0.756642 0.324138
vt 0.946258 0.224832
vt 0.865748 0.311155
vt 0.052697 0.406208
vt 0.138804 0.407658
vt 0.232662 0.409125
vt 0.324560 0.409416
vt 0.411138 0.411234
vt 0.490828 0.426262
vt 0.576882 0.420375
vt 0.666798 0.413642
vt 0.762690 0.410159
vt 0.960567 0.312741
vt 0.853980 0.410450
vt 0.065819 0.497613
vt 0.152096 0.498096
vt 0.238414 0.498581
vt 0.324832 0.499415
vt 0.407388 0.515234
vt 0.492180 0.513597
vt 0.585299 0.501059
vt 0.675653 0.500191
vt 0.771051 0.500703
vt 0.943595 0.411373
vt 0.850737 0.501832
vt 0.067045 0.586467
vt 0.152951 0.587012
vt 0.238525 0.626835
vt 0.318119 0.599294
vt 0.399060 0.608644
vt 0.495485 0.593867
vt 0.588417 0.590794
vt 0.675765 0.590219
vt 0.773778 0.593388
vt 0.933375 0.502486
vt 0.873623 0.591497
vt 0.064411 0.676379
vt 0.132986 0.743871
vt 0.193894 0.773709
vt 0.259372 0.742581
vt 0.400861 0.687658
vt 0.498517 0.687334
vt 0.589663 0.690613
vt 0.681494 0.683703
vt 0.790494 0.685832
vt 0.938322 0.591805
vt 0.905261 0.693479
vt 0.069305 0.810386
vt 0.180259 0.847238
vt 0.248406 0.766664
vt 0.306419 0.781124
vt 0.404689 0.778637
vt 0.498968 0.782291
vt 0.586146 0.778890
vt 0.672726 0.804874
vt 0.804762 0.824102
vt 0.963274 0.686587
vt 0.918685 0.816551
vt 0.089652 0.850900
vt 0.204386 0.870037
vt 0.237005 0.857914
vt 0.311762 0.873091
vt 0.403645 0.878191
vt 0.498077 0.869385
vt 0.585108 0.868075
vt 0.673205 0.906162
vt 0.786392 0.922953
vt 0.981058 0.797689
vt 0.884729 0.907377
vt 0.098118 0.920437
vt 0.196431 0.894583
vt 0.240515 0.938717
vt 0.322424 0.949140
vt 0.409476 0.952091
vt 0.497030 0.944282
vt 0.582155 0.944552
vt 0.668828 0.963505
vt 0.763051 0.972567
vt 0.947691 0.876045
vt 0.856032 0.968699
vt 0.930065 0.950175
vn -0.0018 0.9999 0.0107
vn -0.0277 0.9544 0.2971
vn -0.1286 0.8959 0.4251
vn -0.1289 0.8959 0.4251
vn -0.1312 0.8957 0.4249
vn -0.0467 0.9984 0.0325
vn 0.1826 0.9663 -0.1814
vn -0.0107 0.9822 0.1876
vn -0.1550 0.9656 0.2090
vn -0.0130 0.9929 -0.1178
vn 0.0262 0.9983 -0.0515
vn 0.1288 0.9900 0.0568
vn 0.1305 0.9899 0.0545
vn 0.1285 0.9901 0.0571
vn -0.2104 0.9759 0.0574
vn -0.1320 0.9199 0.3692
vn 0.1574 0.9149 0.3718
vn 0.0916 0.8707 0.4832
vn -0.0877 0.7542 0.6508
vn -0.0883 0.7542 0.6507
vn -0.0931 0.7541 0.6501
vn -0.0370 0.8678 0.4955
vn -0.0310 0.8713 0.4897
vn -0.0373 0.8675 0.4960
vn 0.0654 0.8671 0.4938
vn -0.0636 0.9966 0.0524
vn -0.0477 0.9893 -0.1378
vn 0.1337 0.9839 -0.1188
vn -0.4098 0.8375 0.3614
vn -0.1315 0.9853 0.1094
vn 0.0816 0.9957 0.0440
vn -0.1581 0.9103 -0.3826
vn 0.1087 0.7484 -0.6543
vn 0.1103 0.7482 -0.6542
vn 0.1190 0.7473 -0.6538
vn -0.0035 0.8412 -0.5408
vn 0.3228 0.6829 -0.6553
vn 0.0885 0.9436 -0.3191
vn -0.0560 0.9865 -0.1538
vn -0.0544 0.9866 -0.1539
vn -0.0438 0.9871 -0.1537
vn -0.0367 0.9287 0.3689
vn -0.2170 0.9614 -0.1692
vn -0.0618 0.9451 -0.3210
vn 0.3948 0.7931 -0.4638
vn 0.1367 0.9651 -0.2236
vn -0.0383 0.9964 -0.0760
vn 0.1922 0.8913 -0.4107
vn 0.0064 0.9939 -0.1099
vn -0.0485 0.9988 -0.0070
vn -0.4208 0.8832 0.2070
vn -0.0132 0.9497 -0.3129
vn -0.0095 0.9483 -0.3173
vn -0.0136 0.9498 -0.3125
vn -0.0974 0.9630 -0.2514
vn 0.0790 0.9215 -0.3803
vn 0.2179 0.9340 -0.2832
vn 0.0234 0.9997 0.0011
vn 0.2527 0.9354 -0.2474
vn -0.0807 0.9856 0.1484
vn -0.0969 0.9169 0.3871
vn -0.2168 0.8872 0.4073
vn -0.0505 0.9422 0.3312
vn -0.0158 0.9991 -0.0406
vn -0.0008 1.0000 0.0093
vn -0.0016 0.9999 0.0104
vn -0.0002 1.0000 0.0086
vn 0.0013 1.0000 0.0068
vn 0.0041 1.0000 0.0027
vn 0.0049 1.0000 0.0005
vn 0.0051 1.0000 0.0001
vn 0.1910 0.9201 -0.3421
vn -0.0504 0.9983 0.0290
vn -0.2546 0.7659 0.5904
vn -0.1253 0.9465 0.2975
vn -0.1519 0.9838 0.0949
vn 0.2208 0.9665 0.1308
vn 0.0560 0.8151 0.5766
vn -0.0043 0.9939 0.1101
vn -0.0330 0.9905 -0.1335
vn 0.3878 0.7779 -0.4945
vn -0.0722 0.9972 -0.0186
vn -0.4362 0.7725 0.4615
vn 0.0006 0.9646 0.2636
vn 0.0185 0.9371 0.3486
vn -0.1339 0.6858 0.7154
vn -0.1401 0.7021 0.6981
vn 0.3526 0.7338 0.5807
vn 0.2973 0.9497 -0.0984
vn 0.4261 0.8962 -0.1239
vn -0.3101 0.8545 0.4167
vn -0.4222 0.6266 0.6551
vn -0.2828 0.8710 0.4018
vn -0.0651 0.9966 -0.0503
vn -0.2772 0.9187 -0.2812
vn -0.1291 0.9662 0.2230
vn -0.0353 0.8586 0.5114
vn 0.5218 0.8285 0.2031
vn 0.0391 0.7266 -0.6859
vn -0.3686 0.9115 0.1826
vn -0.5319 0.7473 0.3982
vn -0.2250 0.9281 0.2965
vn 0.0430 0.9948 0.0926
vn 0.1208 0.9853 -0.1204
vn -0.6773 0.7341 -0.0485
vn -0.3415 0.9067 -0.2473
vn 0.1970 0.8828 -0.4264
vn 0.4135 0.8087 -0.4184
vn 0.4114 0.8116 -0.4149
vn 0.4138 0.8085 -0.4185
vn -0.1182 0.9929 -0.0160
vn -0.6367 0.4633 0.6164
vn -0.4202 0.9074 0.0029
vn -0.0549 0.9250 -0.3760
vn 0.1815 0.9005 -0.3952
vn 0.0613 0.9440 -0.3242
vn -0.5422 0.8075 -0.2324
vn -0.1373 0.7811 -0.6091
vn 0.1799 0.7256 -0.6642
vn 0.3975 0.7683 -0.5017
vn -0.2123 0.9332 0.2901
vn -0.1314 0.8957 0.4249
vn 0.1710 0.9845 0.0381
vn 0.1121 0.9765 -0.1840
vn -0.0905 0.9787 0.1844
vn -0.0319 0.9761 0.2151
vn 0.0821 0.9901 -0.1143
vn -0.0607 0.9967 -0.0538
vn -0.0523 0.9972 0.0543
vn 0.1307 0.9899 0.0542
vn -0.4113 0.8436 0.3453
vn 0.0623 0.8742 0.4815
vn -0.0938 0.7541 0.6501
vn 0.0966 0.8609 0.4995
vn -0.0305 0.8715 0.4895
vn 0.4218 0.9045 0.0631
vn 0.0856 0.9867 -0.1380
vn -0.0580 0.9905 -0.1244
vn -0.0343 0.9931 0.1119
vn -0.2237 0.9695 0.1001
vn -0.0657 0.9975 0.0260
vn 0.4106 0.8318 -0.3736
vn 0.1205 0.7471 -0.6538
vn -0.0210 0.8411 -0.5405
vn 0.1506 0.7216 -0.6758
vn 0.0159 0.9480 -0.3179
vn -0.0422 0.9872 -0.1536
vn -0.4108 0.8469 0.3378
vn -0.0226 0.9357 0.3521
vn -0.0945 0.9422 -0.3215
vn 0.0776 0.8699 -0.4872
vn 0.2189 0.9505 -0.2207
vn 0.0246 0.9969 -0.0750
vn 0.2242 0.8842 -0.4098
vn -0.0623 0.9920 -0.1099
vn -0.0723 0.9974 -0.0079
vn -0.2232 0.9468 0.2317
vn -0.0355 0.9489 -0.3136
vn -0.0091 0.9481 -0.3178
vn 0.0099 0.9239 -0.3825
vn 0.0061 0.9571 -0.2895
vn 0.0049 1.0000 0.0007
vn 0.2083 0.9462 -0.2477
vn -0.0553 0.9872 0.1499
vn -0.2546 0.8977 0.3595
vn -0.1244 0.8997 0.4184
vn -0.1509 0.9336 0.3250
vn 0.2251 0.9738 -0.0331
vn 0.0870 0.9804 -0.1765
vn 0.3787 0.8569 -0.3498
vn -0.0702 0.9971 0.0310
vn -0.4290 0.7223 0.5424
vn -0.0017 0.9526 0.3041
vn 0.0280 0.9947 0.0990
vn -0.1679 0.9788 0.1175
vn -0.1473 0.8116 0.5654
vn 0.4175 0.8996 0.1284
vn 0.2177 0.9574 -0.1895
vn 0.2301 0.8658 -0.4443
vn -0.1871 0.9812 0.0482
vn -0.4038 0.7830 0.4731
vn -0.2837 0.9301 0.2335
vn -0.0688 0.9349 0.3481
vn -0.3367 0.6350 0.6953
vn -0.1170 0.7053 0.6992
vn -0.0323 0.8060 0.5911
vn 0.4938 0.7640 0.4153
vn 0.3457 0.9232 -0.1678
vn -0.2690 0.9616 0.0549
vn -0.5118 0.7035 0.4931
vn -0.2285 0.8807 0.4150
vn 0.0418 0.9981 -0.0461
vn 0.1201 0.9530 -0.2783
vn -0.6706 0.7032 0.2362
vn -0.3369 0.8013 0.4944
vn 0.2195 0.9566 0.1915
vn 0.4371 0.8397 0.3222
vn -0.0497 0.6275 0.7771
vn -0.6510 0.6689 0.3588
vn -0.4265 0.8734 0.2349
vn -0.0693 0.9935 0.0904
vn 0.1910 0.9745 -0.1176
vn 0.0594 0.9975 -0.0390
vn -0.5405 0.8043 -0.2469
vn -0.1545 0.8788 -0.4515
vn 0.2060 0.8751 -0.4379
vn 0.4112 0.8119 -0.4145
vn -0.3590 0.6105 0.7060
vn -0.3715 0.9284 0.0084
vn -0.1186 0.9179 -0.3786
vn -0.0203 0.9106 -0.4128
vn 0.1203 0.9393 -0.3212
vn 0.0071 0.9661 -0.2581
vn -0.1955 0.7679 -0.6101
vn -0.0427 0.7254 -0.6870
vn 0.0517 0.8417 -0.5375
vn 0.2313 0.9326 -0.2770
usemtl Material.001
s 1
f 1/1/1 2/2/1 3/3/1
f 4/4/2 5/5/2 1/1/2
f 6/6/3 7/7/4 4/4/5
f 8/8/6 9/9/6 6/6/6
f 10/10/7 11/11/7 8/8/7
f 12/12/8 13/13/8 10/10/8
f 14/14/9 15/15/9 12/12/9
f 16/16/10 17/17/10 14/14/10
f 18/18/11 19/19/11 16/16/11
f 20/20/12 21/21/13 18/18/14
f 5/5/15 22/22/15 2/2/15
f 7/7/16 23/23/16 5/5/16
f 9/9/17 24/24/17 7/7/17
f 11/11/18 25/25/18 9/9/18
f 13/13/19 26/26/20 11/11/21
f 15/15/22 27/27/23 13/13/24
f 17/17/25 28/28/25 15/15/25
f 19/19/26 29/29/26 17/17/26
f 21/21/27 30/30/27 19/19/27
f 31/31/28 32/32/28 21/21/28
f 23/23/29 33/33/29 22/22/29
f 24/24/30 34/34/30 23/23/30
f 25/25/31 35/35/31 24/24/31
f 26/26/32 36/36/32 25/25/32
f 27/27/33 37/37/34 26/26/35
f 28/28/36 38/38/36 27/27/36
f 29/29/37 39/39/37 28/28/37
f 30/30/38 40/40/38 29/29/38
f 32/32/39 41/41/40 30/30/41
f 42/42/42 43/43/42 32/32/42
f 34/34/43 44/44/43 33/33/43
f 35/35/44 45/45/44 34/34/44
f 36/36/45 46/46/45 35/35/45
f 37/37/46 47/47/46 36/36/46
f 38/38/47 48/48/47 37/37/47
f 39/39/48 49/49/48 38/38/48
f 40/40/49 50/50/49 39/39/49
f 41/41/50 51/51/50 40/40/50
f 43/43/51 52/52/51 41/41/51
f 53/53/52 54/54/53 43/43/54
f 45/45/55 55/55/55 44/44/55
f 46/46/56 56/56/56 45/45/56
f 47/47/57 57/57/57 46/46/57
f 48/48/58 58/58/58 47/47/58
f 49/49/59 59/59/59 48/48/59
f 50/50/60 60/60/60 49/49/60
f 51/51/61 61/61/61 50/50/61
f 52/52/62 62/62/62 51/51/62
f 54/54/63 63/63/63 52/52/63
f 64/64/64 65/65/64 54/54/64
f 56/56/65 66/66/66 55/55/67
f 57/57/68 67/67/69 56/56/65
f 58/58/70 68/68/71 57/57/68
f 59/59/72 69/69/72 58/58/72
f 60/60/73 70/70/73 59/59/73
f 61/61/74 71/71/74 60/60/74
f 62/62/75 72/72/75 61/61/75
f 63/63/76 73/73/76 62/62/76
f 65/65/77 74/74/77 63/63/77
f 75/75/78 76/76/78 65/65/78
f 67/67/79 77/77/79 66/66/79
f 68/68/80 78/78/80 67/67/80
f 69/69/81 79/79/81 68/68/81
f 70/70/82 80/80/82 69/69/82
f 71/71/83 81/81/83 70/70/83
f 72/72/84 82/82/84 71/71/84
f 73/73/85 83/83/85 72/72/85
f 74/74/86 84/84/86 73/73/86
f 76/76/87 85/85/87 74/74/87
f 86/86/88 87/87/88 76/76/88
f 78/78/89 88/88/89 77/77/89
f 79/79/90 89/89/90 78/78/90
f 80/80/91 90/90/91 79/79/91
f 81/81/92 91/91/92 80/80/92
f 82/82/93 92/92/93 81/81/93
f 83/83/94 93/93/94 82/82/94
f 84/84/95 94/94/95 83/83/95
f 85/85/96 95/95/96 84/84/96
f 87/87/97 96/96/97 85/85/97
f 97/97/98 98/98/98 87/87/98
f 89/89/99 99/99/99 88/88/99
f 90/90/100 100/100/100 89/89/100
f 91/91/101 101/101/101 90/90/101
f 92/92/102 102/102/102 91/91/102
f 93/93/103 103/103/103 92/92/103
f 94/94/104 104/104/104 93/93/104
f 95/95/105 105/105/105 94/94/105
f 96/96/106 106/106/106 95/95/106
f 98/98/107 107/107/107 96/96/107
f 108/108/108 109/109/109 98/98/110
f 100/100/111 110/110/111 99/99/111
f 101/101/112 111/111/112 100/100/112
f 102/102/113 112/112/113 101/101/113
f 103/103/114 113/113/114 102/102/114
f 104/104/115 114/114/115 103/103/115
f 105/105/116 115/115/116 104/104/116
f 106/106/117 116/116/117 105/105/117
f 107/107/118 117/117/118 106/106/118
f 109/109/119 118/118/119 107/107/119
f 119/119/120 120/120/120 109/109/120
f 1/1/121 5/5/121 2/2/121
f 4/4/5 7/7/4 5/5/122
f 6/6/123 9/9/123 7/7/123
f 8/8/124 11/11/124 9/9/124
f 10/10/125 13/13/125 11/11/125
f 12/12/126 15/15/126 13/13/126
f 14/14/127 17/17/127 15/15/127
f 16/16/128 19/19/128 17/17/128
f 18/18/129 21/21/129 19/19/129
f 20/20/12 31/31/130 21/21/13
f 5/5/131 23/23/131 22/22/131
f 7/7/16 24/24/16 23/23/16
f 9/9/132 25/25/132 24/24/132
f 11/11/21 26/26/20 25/25/133
f 13/13/134 27/27/134 26/26/134
f 15/15/22 28/28/135 27/27/23
f 17/17/136 29/29/136 28/28/136
f 19/19/137 30/30/137 29/29/137
f 21/21/138 32/32/138 30/30/138
f 31/31/139 42/42/139 32/32/139
f 23/23/140 34/34/140 33/33/140
f 24/24/141 35/35/141 34/34/141
f 25/25/142 36/36/142 35/35/142
f 26/26/35 37/37/34 36/36/143
f 27/27/144 38/38/144 37/37/144
f 28/28/145 39/39/145 38/38/145
f 29/29/146 40/40/146 39/39/146
f 30/30/41 41/41/40 40/40/147
f 32/32/148 43/43/148 41/41/148
f 42/42/149 53/53/149 43/43/149
f 34/34/150 45/45/150 44/44/150
f 35/35/151 46/46/151 45/45/151
f 36/36/152 47/47/152 46/46/152
f 37/37/153 48/48/153 47/47/153
f 38/38/154 49/49/154 48/48/154
f 39/39/155 50/50/155 49/49/155
f 40/40/156 51/51/156 50/50/156
f 41/41/157 52/52/157 51/51/157
f 43/43/158 54/54/158 52/52/158
f 53/53/52 64/64/159 54/54/53
f 45/45/160 56/56/160 55/55/160
f 46/46/161 57/57/161 56/56/161
f 47/47/162 58/58/70 57/57/68
f 48/48/163 59/59/163 58/58/163
f 49/49/164 60/60/164 59/59/164
f 50/50/165 61/61/165 60/60/165
f 51/51/166 62/62/166 61/61/166
f 52/52/167 63/63/167 62/62/167
f 54/54/168 65/65/168 63/63/168
f 64/64/169 75/75/169 65/65/169
f 56/56/65 67/67/69 66/66/66
f 57/57/68 68/68/71 67/67/69
f 58/58/170 69/69/170 68/68/170
f 59/59/171 70/70/171 69/69/171
f 60/60/172 71/71/172 70/70/172
f 61/61/173 72/72/173 71/71/173
f 62/62/174 73/73/174 72/72/174
f 63/63/175 74/74/175 73/73/175
f 65/65/176 76/76/176 74/74/176
f 75/75/177 86/86/177 76/76/177
f 67/67/178 78/78/178 77/77/178
f 68/68/179 79/79/179 78/78/179
f 69/69/180 80/80/180 79/79/180
f 70/70/181 81/81/181 80/80/181
f 71/71/182 82/82/182 81/81/182
f 72/72/183 83/83/183 82/82/183
f 73/73/184 84/84/184 83/83/184
f 74/74/185 85/85/185 84/84/185
f 76/76/186 87/87/186 85/85/186
f 86/86/187 97/97/187 87/87/187
f 78/78/188 89/89/188 88/88/188
f 79/79/189 90/90/189 89/89/189
f 80/80/190 91/91/190 90/90/190
f 81/81/191 92/92/191 91/91/191
f 82/82/192 93/93/192 92/92/192
f 83/83/193 94/94/193 93/93/193
f 84/84/194 95/95/194 94/94/194
f 85/85/195 96/96/195 95/95/195
f 87/87/196 98/98/196 96/96/196
f 97/97/197 108/108/197 98/98/197
f 89/89/198 100/100/198 99/99/198
f 90/90/199 101/101/199 100/100/199
f 91/91/200 102/102/200 101/101/200
f 92/92/201 103/103/201 102/102/201
f 93/93/202 104/104/202 103/103/202
f 94/94/203 105/105/203 104/104/203
f 95/95/204 106/106/204 105/105/204
f 96/96/205 107/107/205 106/106/205
f 98/98/206 109/109/206 107/107/206
f 108/108/108 119/119/207 109/109/109
f 100/100/208 111/111/208 110/110/208
f 101/101/209 112/112/209 111/111/209
f 102/102/210 113/113/210 112/112/210
f 103/103/211 114/114/211 113/113/211
f 104/104/212 115/115/212 114/114/212
f 105/105/213 116/116/213 115/115/213
f 106/106/214 117/117/214 116/116/214
f 107/107/215 118/118/215 117/117/215
f 109/109/216 120/120/216 118/118/216
f 119/119/217 121/121/217 120/120/217
