# Blender v3.2.2 OBJ File: 'uploads_files_4453750_Low+Poly+Forest.blend'
# www.blender.org
mtllib uploads_files_4453750_Low+Poly+Forest.mtl
o Grid
frames: 1
texture: 1
v -3.853170 -5.626034 12.394446
v -10.098173 -5.586898 7.698789
v -10.215078 -5.635423 12.230220
v 2.506065 -5.498435 12.576970
v -3.843763 -4.256140 7.994461
v 8.927588 -4.688770 12.812940
v 2.697624 -3.431690 8.279416
v 15.317036 -4.392219 12.886353
v 9.052662 -4.536257 8.307424
v 21.595673 -5.547271 13.051984
v 15.362616 -5.245098 8.388389
v 27.956236 -5.509420 13.216319
v 21.733854 -4.698115 8.612880
v 34.321068 -4.520389 13.365933
v 28.093113 -4.531317 8.799123
v 40.728928 -4.421592 13.490870
v 34.473747 -5.052073 8.868737
v 47.084969 -4.579135 13.669217
v 40.849876 -4.654161 9.041991
v 53.410950 -5.411810 13.870400
v 47.163647 -4.330464 9.180779
v -10.033064 -5.308024 3.192820
v -3.944393 -2.543846 3.691538
v 2.766972 -1.674055 3.924437
v 9.582231 -2.239218 4.068135
v 15.814356 -1.257700 3.828383
v 21.985746 -2.031673 3.968479
v 28.420681 -1.899194 4.133407
v 34.625629 -4.795218 4.172306
v 40.832466 -5.302710 4.392249
v 53.499443 -5.174535 9.320174
v 47.271599 -4.877461 4.773823
v -10.196775 -3.478281 -1.232531
v -3.561455 -1.959317 -1.112850
v 3.382652 -1.502489 -1.105142
v 9.366142 -4.373057 -0.920048
v 15.588207 -5.210405 -0.730088
v 21.920578 -4.955174 -0.578597
v 28.000902 -6.307070 -0.666827
v 34.454922 -6.316180 -0.372067
v 40.937000 -5.999713 -0.117117
v 53.635517 -4.669774 4.883809
v 47.255295 -3.067250 0.215216
v -9.859957 -4.222409 -5.892664
v -3.342686 -3.544977 -5.823486
v 3.106092 -4.034523 -5.670332
v 9.338284 -5.407529 -5.402814
v 15.664776 -5.556030 -5.298670
v 21.562361 -7.279443 -5.790083
v 28.017309 -6.821791 -5.320880
v 34.623756 -6.338942 -4.811572
v 41.126938 -4.870584 -4.547813
v 53.712658 -2.945196 0.305709
v 47.543503 -4.580185 -4.395031
v -9.630581 -5.383048 -10.426832
v -3.268658 -5.383410 -10.262711
v 3.093246 -5.374022 -10.098484
v 9.444647 -5.405079 -9.953061
v 15.379025 -6.890254 -10.634603
v 21.791346 -6.574678 -10.347377
v 28.520540 -5.020334 -9.462303
v 34.867271 -4.257802 -9.214588
v 41.269814 -3.287321 -9.029477
v 53.884087 -4.474823 -4.262297
v 47.665539 -4.762444 -8.927310
v -9.513660 -5.344275 -14.958368
v -3.151754 -5.334886 -14.794143
v 3.185041 -5.373946 -16.652870
v 8.614082 -7.221390 -15.301553
v 14.880144 -6.772510 -15.550840
v 22.083933 -3.527317 -14.174450
v 28.684708 -3.623827 -13.835579
v 34.940525 -3.819436 -13.641383
v 41.439636 -2.724324 -13.474957
v 53.988541 -5.298095 -8.784651
v 47.842655 -1.831428 -13.088434
v -9.397152 -4.842678 -19.483078
v -5.208878 -6.548223 -23.288965
v -1.424730 -8.639784 -25.404510
v 4.063826 -7.698829 -23.249027
v 15.391504 -4.309563 -19.190536
v 22.400650 -2.335654 -18.536673
v 28.665407 -1.920455 -18.414045
v 34.346649 0.077298 -17.487766
v 41.113144 0.914998 -17.200720
v 54.287880 -4.799668 -13.251075
v 48.305901 1.241627 -17.253265
v -9.470041 -5.561478 -26.639723
v -2.502642 -8.703273 -29.570822
v 3.341402 -7.359013 -24.483671
v 8.753693 -3.775936 -23.978849
v 15.991060 -2.281137 -23.165192
v 22.584995 -2.560247 -23.227940
v 28.819244 -3.308709 -23.100914
v 33.675396 1.196302 -22.724628
v 40.821877 3.983957 -22.373283
v 55.002739 -2.884832 -17.624187
v 48.888931 2.147632 -22.447296
v -9.769833 -8.730133 -30.013672
v -0.107183 -7.584317 -30.321239
v 3.285742 -5.201479 -28.607222
v 9.582128 -2.287431 -28.009228
v 16.082001 -1.846550 -27.873981
v 22.679482 -3.125458 -27.757448
v 28.943914 -3.494030 -27.645222
v 34.266754 0.024408 -27.837378
v 41.243034 1.251055 -27.837372
v 55.277794 -1.154261 -22.508163
v 48.565208 -0.363297 -27.618151
v -9.068819 -8.709517 -33.905888
v -0.315414 -6.618556 -31.262238
v 3.669134 -5.010697 -32.759048
v 9.980825 -4.167997 -32.693680
v 16.385511 -3.954304 -32.537857
v 22.787457 -4.689707 -32.291252
v 29.079706 -4.686206 -32.104649
v 35.069839 -3.196974 -32.149452
v 41.699799 -2.893719 -32.241722
v 54.776161 -3.267879 -27.145718
v 48.428284 -3.120809 -31.949850
v 54.633003 -4.529341 -31.512182
vt 0.867884 0.152186
vt 0.814729 0.061185
vt 0.855377 0.066199
vt 0.880630 0.238085
vt 0.829106 0.145021
vt 0.894415 0.324439
vt 0.843551 0.233051
vt 0.906340 0.410472
vt 0.854084 0.319503
vt 0.917949 0.496127
vt 0.865277 0.405155
vt 0.930474 0.582077
vt 0.878699 0.490993
vt 0.943500 0.667421
vt 0.891504 0.576870
vt 0.955792 0.753911
vt 0.902841 0.663332
vt 0.968307 0.839953
vt 0.915711 0.749262
vt 0.980531 0.926079
vt 0.928113 0.834351
vt 0.774373 0.055355
vt 0.791239 0.136281
vt 0.805538 0.226497
vt 0.819568 0.317619
vt 0.827546 0.401951
vt 0.838990 0.485865
vt 0.851711 0.572755
vt 0.860903 0.658411
vt 0.873304 0.742738
vt 0.939789 0.920528
vt 0.888180 0.829800
vt 0.735369 0.045509
vt 0.748942 0.134097
vt 0.761341 0.227403
vt 0.771485 0.310268
vt 0.783425 0.394980
vt 0.795928 0.480385
vt 0.804774 0.563132
vt 0.818607 0.650563
vt 0.832343 0.738094
vt 0.900333 0.915602
vt 0.848217 0.821761
vt 0.693419 0.043810
vt 0.705778 0.131302
vt 0.718008 0.218782
vt 0.730312 0.304106
vt 0.742113 0.389636
vt 0.746760 0.469588
vt 0.762475 0.556968
vt 0.778831 0.646431
vt 0.793442 0.733481
vt 0.860299 0.908852
vt 0.806126 0.819999
vt 0.652145 0.041126
vt 0.664646 0.127121
vt 0.677153 0.213108
vt 0.689446 0.298955
vt 0.692599 0.378966
vt 0.706505 0.465604
vt 0.727170 0.556541
vt 0.740900 0.641936
vt 0.754299 0.727852
vt 0.818376 0.905588
vt 0.765328 0.815210
vt 0.611490 0.036120
vt 0.623998 0.122107
vt 0.636249 0.207760
vt 0.638558 0.281249
vt 0.647458 0.365049
vt 0.674491 0.461951
vt 0.688918 0.551483
vt 0.701377 0.636222
vt 0.714857 0.723329
vt 0.777215 0.901010
vt 0.730024 0.809595
vt 0.571201 0.030805
vt 0.561065 0.085806
vt 0.547157 0.135168
vt 0.558661 0.208737
vt 0.617129 0.365011
vt 0.636469 0.459103
vt 0.648700 0.543446
vt 0.669144 0.619061
vt 0.683075 0.711076
vt 0.737766 0.898246
vt 0.695275 0.807735
vt 0.524104 0.022852
vt 0.522449 0.117025
vt 0.546494 0.196983
vt 0.562783 0.268246
vt 0.583644 0.365970
vt 0.594316 0.454952
vt 0.605768 0.539678
vt 0.621815 0.601327
vt 0.637925 0.697591
vt 0.700811 0.900260
vt 0.650021 0.807467
vt 0.512312 0.068743
vt 0.520565 0.147473
vt 0.510616 0.188808
vt 0.528836 0.272576
vt 0.541606 0.360089
vt 0.553243 0.450055
vt 0.564863 0.534909
vt 0.574667 0.604002
vt 0.587558 0.697210
vt 0.658364 0.895731
vt 0.601156 0.797320
vt 0.524541 0.777027
vt 0.533520 0.818059
vt 0.536396 0.861394
vt 0.494281 0.139754
vt 0.473949 0.187840
vt 0.486026 0.272444
vt 0.498666 0.358858
vt 0.511496 0.446008
vt 0.524081 0.531094
vt 0.535033 0.610767
vt 0.545885 0.699798
vt 0.614264 0.883689
vt 0.560023 0.791072
vt 0.515679 0.109358
vt 0.573791 0.876295
vn -0.0018 0.9999 0.0107
vn -0.0277 0.9544 0.2971
vn -0.1286 0.8959 0.4251
vn -0.0467 0.9984 0.0325
vn 0.1826 0.9663 -0.1814
vn -0.0107 0.9822 0.1876
vn -0.1550 0.9656 0.2090
vn -0.0130 0.9929 -0.1178
vn 0.0262 0.9983 -0.0515
vn 0.1285 0.9901 0.0571
vn -0.2104 0.9759 0.0574
vn -0.1320 0.9199 0.3692
vn 0.1574 0.9149 0.3718
vn 0.0916 0.8707 0.4832
vn -0.0877 0.7542 0.6508
vn -0.0373 0.8675 0.4960
vn 0.0654 0.8671 0.4938
vn -0.0636 0.9966 0.0524
vn -0.0477 0.9893 -0.1378
vn 0.1337 0.9839 -0.1188
vn -0.4098 0.8375 0.3614
vn -0.1315 0.9853 0.1094
vn 0.0816 0.9957 0.0440
vn -0.1581 0.9103 -0.3826
vn 0.1087 0.7484 -0.6543
vn -0.0035 0.8412 -0.5408
vn 0.3228 0.6829 -0.6553
vn 0.0885 0.9436 -0.3191
vn -0.0560 0.9865 -0.1538
vn -0.0367 0.9287 0.3689
vn -0.2170 0.9614 -0.1692
vn -0.0618 0.9451 -0.3210
vn 0.3948 0.7931 -0.4638
vn 0.1367 0.9651 -0.2236
vn -0.0383 0.9964 -0.0760
vn 0.1922 0.8913 -0.4107
vn 0.0064 0.9939 -0.1099
vn -0.0485 0.9988 -0.0070
vn -0.4208 0.8832 0.2070
vn -0.0136 0.9498 -0.3125
vn -0.0974 0.9630 -0.2514
vn 0.0790 0.9215 -0.3803
vn 0.2179 0.9340 -0.2832
vn 0.0234 0.9997 0.0011
vn 0.2527 0.9354 -0.2474
vn -0.0807 0.9856 0.1484
vn -0.0969 0.9169 0.3871
vn -0.2168 0.8872 0.4073
vn -0.0505 0.9422 0.3312
vn -0.0158 0.9991 -0.0406
vn -0.0002 1.0000 0.0086
vn 0.0049 1.0000 0.0001
vn 0.1910 0.9201 -0.3421
vn -0.0504 0.9983 0.0290
vn -0.2546 0.7659 0.5904
vn -0.1253 0.9465 0.2975
vn -0.1519 0.9838 0.0949
vn 0.2208 0.9665 0.1308
vn 0.0560 0.8151 0.5766
vn -0.0043 0.9939 0.1101
vn -0.0330 0.9905 -0.1335
vn 0.3878 0.7779 -0.4945
vn -0.0722 0.9972 -0.0186
vn -0.4362 0.7725 0.4615
vn 0.0006 0.9646 0.2636
vn 0.0185 0.9371 0.3486
vn -0.1339 0.6858 0.7154
vn -0.1401 0.7021 0.6981
vn 0.3526 0.7338 0.5807
vn 0.2973 0.9497 -0.0984
vn 0.4261 0.8962 -0.1239
vn -0.3101 0.8545 0.4167
vn -0.4222 0.6266 0.6551
vn -0.2828 0.8710 0.4018
vn -0.0651 0.9966 -0.0503
vn -0.2772 0.9187 -0.2812
vn -0.1291 0.9662 0.2230
vn -0.0353 0.8586 0.5114
vn 0.5218 0.8285 0.2031
vn 0.0391 0.7266 -0.6859
vn -0.3686 0.9115 0.1826
vn -0.5319 0.7473 0.3982
vn -0.2250 0.9281 0.2965
vn 0.0430 0.9948 0.0926
vn 0.1208 0.9853 -0.1204
vn -0.6773 0.7341 -0.0485
vn -0.3415 0.9067 -0.2473
vn 0.1970 0.8828 -0.4264
vn 0.4138 0.8085 -0.4185
vn -0.1182 0.9929 -0.0160
vn -0.6367 0.4633 0.6164
vn -0.4202 0.9074 0.0029
vn -0.0549 0.9250 -0.3760
vn 0.1815 0.9005 -0.3952
vn 0.0613 0.9440 -0.3242
vn -0.5422 0.8075 -0.2324
vn -0.1373 0.7811 -0.6091
vn 0.1799 0.7256 -0.6642
vn 0.3975 0.7683 -0.5017
vn -0.2123 0.9332 0.2901
vn -0.1314 0.8957 0.4249
vn 0.1710 0.9845 0.0381
vn 0.1121 0.9765 -0.1840
vn -0.0905 0.9787 0.1844
vn -0.0319 0.9761 0.2151
vn 0.0821 0.9901 -0.1143
vn -0.0607 0.9967 -0.0538
vn -0.0523 0.9972 0.0543
vn 0.1307 0.9899 0.0542
vn -0.4113 0.8436 0.3453
vn 0.0623 0.8742 0.4815
vn -0.0938 0.7541 0.6501
vn 0.0966 0.8609 0.4995
vn -0.0305 0.8715 0.4895
vn 0.4218 0.9045 0.0631
vn 0.0856 0.9867 -0.1380
vn -0.0580 0.9905 -0.1244
vn -0.0343 0.9931 0.1119
vn -0.2237 0.9695 0.1001
vn -0.0657 0.9975 0.0260
vn 0.4106 0.8318 -0.3736
vn 0.1205 0.7471 -0.6538
vn -0.0210 0.8411 -0.5405
vn 0.1506 0.7216 -0.6758
vn 0.0159 0.9480 -0.3179
vn -0.0422 0.9872 -0.1536
vn -0.4108 0.8469 0.3378
vn -0.0226 0.9357 0.3521
vn -0.0945 0.9422 -0.3215
vn 0.0776 0.8699 -0.4872
vn 0.2189 0.9505 -0.2207
vn 0.0246 0.9969 -0.0750
vn 0.2242 0.8842 -0.4098
vn -0.0623 0.9920 -0.1099
vn -0.0723 0.9974 -0.0079
vn -0.2232 0.9468 0.2317
vn -0.0355 0.9489 -0.3136
vn -0.0091 0.9481 -0.3178
vn 0.0099 0.9239 -0.3825
vn 0.0061 0.9571 -0.2895
vn 0.0049 1.0000 0.0007
vn 0.2083 0.9462 -0.2477
vn -0.0553 0.9872 0.1499
vn -0.2546 0.8977 0.3595
vn -0.1244 0.8997 0.4184
vn -0.1509 0.9336 0.3250
vn 0.2251 0.9738 -0.0331
vn 0.0870 0.9804 -0.1765
vn 0.0062 1.0000 0.0001
vn 0.3787 0.8569 -0.3498
vn -0.0702 0.9971 0.0310
vn -0.4290 0.7223 0.5424
vn -0.0017 0.9526 0.3041
vn 0.0280 0.9947 0.0990
vn -0.1679 0.9788 0.1175
vn -0.1473 0.8116 0.5654
vn 0.4175 0.8996 0.1284
vn 0.2177 0.9574 -0.1895
vn 0.2301 0.8658 -0.4443
vn -0.1871 0.9812 0.0482
vn -0.4038 0.7830 0.4731
vn -0.2837 0.9301 0.2335
vn -0.0688 0.9349 0.3481
vn -0.3367 0.6350 0.6953
vn -0.1170 0.7053 0.6992
vn -0.0323 0.8060 0.5911
vn 0.4938 0.7640 0.4153
vn 0.3457 0.9232 -0.1678
vn -0.2690 0.9616 0.0549
vn -0.5118 0.7035 0.4931
vn -0.2285 0.8807 0.4150
vn 0.0418 0.9981 -0.0461
vn 0.1201 0.9530 -0.2783
vn -0.6706 0.7032 0.2362
vn -0.3369 0.8013 0.4944
vn 0.2195 0.9566 0.1915
vn 0.4371 0.8397 0.3222
vn -0.0497 0.6275 0.7771
vn -0.6510 0.6689 0.3588
vn -0.4265 0.8734 0.2349
vn -0.0693 0.9935 0.0904
vn 0.1910 0.9745 -0.1176
vn 0.0594 0.9975 -0.0390
vn -0.5405 0.8043 -0.2469
vn -0.1545 0.8788 -0.4515
vn 0.2060 0.8751 -0.4379
vn 0.4112 0.8119 -0.4145
vn -0.3590 0.6105 0.7060
vn -0.3715 0.9284 0.0084
vn -0.1186 0.9179 -0.3786
vn -0.0203 0.9106 -0.4128
vn 0.1203 0.9393 -0.3212
vn 0.0071 0.9661 -0.2581
vn -0.1955 0.7679 -0.6101
vn -0.0427 0.7254 -0.6870
vn 0.0517 0.8417 -0.5375
vn 0.2313 0.9326 -0.2770
usemtl Material.001
s off
f 1/1/1 2/2/1 3/3/1
f 4/4/2 5/5/2 1/1/2
f 6/6/3 7/7/3 4/4/3
f 8/8/4 9/9/4 6/6/4
f 10/10/5 11/11/5 8/8/5
f 12/12/6 13/13/6 10/10/6
f 14/14/7 15/15/7 12/12/7
f 16/16/8 17/17/8 14/14/8
f 18/18/9 19/19/9 16/16/9
f 20/20/10 21/21/10 18/18/10
f 5/5/11 22/22/11 2/2/11
f 7/7/12 23/23/12 5/5/12
f 9/9/13 24/24/13 7/7/13
f 11/11/14 25/25/14 9/9/14
f 13/13/15 26/26/15 11/11/15
f 15/15/16 27/27/16 13/13/16
f 17/17/17 28/28/17 15/15/17
f 19/19/18 29/29/18 17/17/18
f 21/21/19 30/30/19 19/19/19
f 31/31/20 32/32/20 21/21/20
f 23/23/21 33/33/21 22/22/21
f 24/24/22 34/34/22 23/23/22
f 25/25/23 35/35/23 24/24/23
f 26/26/24 36/36/24 25/25/24
f 27/27/25 37/37/25 26/26/25
f 28/28/26 38/38/26 27/27/26
f 29/29/27 39/39/27 28/28/27
f 30/30/28 40/40/28 29/29/28
f 32/32/29 41/41/29 30/30/29
f 42/42/30 43/43/30 32/32/30
f 34/34/31 44/44/31 33/33/31
f 35/35/32 45/45/32 34/34/32
f 36/36/33 46/46/33 35/35/33
f 37/37/34 47/47/34 36/36/34
f 38/38/35 48/48/35 37/37/35
f 39/39/36 49/49/36 38/38/36
f 40/40/37 50/50/37 39/39/37
f 41/41/38 51/51/38 40/40/38
f 43/43/39 52/52/39 41/41/39
f 53/53/40 54/54/40 43/43/40
f 45/45/41 55/55/41 44/44/41
f 46/46/42 56/56/42 45/45/42
f 47/47/43 57/57/43 46/46/43
f 48/48/44 58/58/44 47/47/44
f 49/49/45 59/59/45 48/48/45
f 50/50/46 60/60/46 49/49/46
f 51/51/47 61/61/47 50/50/47
f 52/52/48 62/62/48 51/51/48
f 54/54/49 63/63/49 52/52/49
f 64/64/50 65/65/50 54/54/50
f 56/56/51 66/66/51 55/55/51
f 57/57/1 67/67/1 56/56/1
f 58/58/52 68/68/52 57/57/52
f 59/59/53 69/69/53 58/58/53
f 60/60/54 70/70/54 59/59/54
f 61/61/55 71/71/55 60/60/55
f 62/62/56 72/72/56 61/61/56
f 63/63/57 73/73/57 62/62/57
f 65/65/58 74/74/58 63/63/58
f 75/75/59 76/76/59 65/65/59
f 67/67/60 77/77/60 66/66/60
f 68/68/61 78/78/61 67/67/61
f 69/69/62 79/79/62 68/68/62
f 70/70/63 80/80/63 69/69/63
f 71/71/64 81/81/64 70/70/64
f 72/72/65 82/82/65 71/71/65
f 73/73/66 83/83/66 72/72/66
f 74/74/67 84/84/67 73/73/67
f 76/76/68 85/85/68 74/74/68
f 86/86/69 87/87/69 76/76/69
f 78/78/70 88/88/70 77/77/70
f 79/79/71 89/89/71 78/78/71
f 80/80/72 90/90/72 79/79/72
f 81/81/73 91/91/73 80/80/73
f 82/82/74 92/92/74 81/81/74
f 83/83/75 93/93/75 82/82/75
f 84/84/76 94/94/76 83/83/76
f 85/85/77 95/95/77 84/84/77
f 87/87/78 96/96/78 85/85/78
f 97/97/79 98/98/79 87/87/79
f 89/89/80 99/99/80 88/88/80
f 90/90/81 100/100/81 89/89/81
f 91/91/82 101/101/82 90/90/82
f 92/92/83 102/102/83 91/91/83
f 93/93/84 103/103/84 92/92/84
f 94/94/85 104/104/85 93/93/85
f 95/95/86 105/105/86 94/94/86
f 96/96/87 106/106/87 95/95/87
f 98/98/88 107/107/88 96/96/88
f 108/108/89 109/109/89 98/98/89
f 100/110/90 110/111/90 99/112/90
f 101/101/91 111/113/91 100/100/91
f 102/102/92 112/114/92 101/101/92
f 103/103/93 113/115/93 102/102/93
f 104/104/94 114/116/94 103/103/94
f 105/105/95 115/117/95 104/104/95
f 106/106/96 116/118/96 105/105/96
f 107/107/97 117/119/97 106/106/97
f 109/109/98 118/120/98 107/107/98
f 119/121/99 120/122/99 109/109/99
f 1/1/100 5/5/100 2/2/100
f 4/4/101 7/7/101 5/5/101
f 6/6/102 9/9/102 7/7/102
f 8/8/103 11/11/103 9/9/103
f 10/10/104 13/13/104 11/11/104
f 12/12/105 15/15/105 13/13/105
f 14/14/106 17/17/106 15/15/106
f 16/16/107 19/19/107 17/17/107
f 18/18/108 21/21/108 19/19/108
f 20/20/109 31/31/109 21/21/109
f 5/5/110 23/23/110 22/22/110
f 7/7/12 24/24/12 23/23/12
f 9/9/111 25/25/111 24/24/111
f 11/11/112 26/26/112 25/25/112
f 13/13/113 27/27/113 26/26/113
f 15/15/114 28/28/114 27/27/114
f 17/17/115 29/29/115 28/28/115
f 19/19/116 30/30/116 29/29/116
f 21/21/117 32/32/117 30/30/117
f 31/31/118 42/42/118 32/32/118
f 23/23/119 34/34/119 33/33/119
f 24/24/120 35/35/120 34/34/120
f 25/25/121 36/36/121 35/35/121
f 26/26/122 37/37/122 36/36/122
f 27/27/123 38/38/123 37/37/123
f 28/28/124 39/39/124 38/38/124
f 29/29/125 40/40/125 39/39/125
f 30/30/126 41/41/126 40/40/126
f 32/32/127 43/43/127 41/41/127
f 42/42/128 53/53/128 43/43/128
f 34/34/129 45/45/129 44/44/129
f 35/35/130 46/46/130 45/45/130
f 36/36/131 47/47/131 46/46/131
f 37/37/132 48/48/132 47/47/132
f 38/38/133 49/49/133 48/48/133
f 39/39/134 50/50/134 49/49/134
f 40/40/135 51/51/135 50/50/135
f 41/41/136 52/52/136 51/51/136
f 43/43/137 54/54/137 52/52/137
f 53/53/138 64/64/138 54/54/138
f 45/45/139 56/56/139 55/55/139
f 46/46/140 57/57/140 56/56/140
f 47/47/141 58/58/141 57/57/141
f 48/48/142 59/59/142 58/58/142
f 49/49/143 60/60/143 59/59/143
f 50/50/144 61/61/144 60/60/144
f 51/51/145 62/62/145 61/61/145
f 52/52/146 63/63/146 62/62/146
f 54/54/147 65/65/147 63/63/147
f 64/64/148 75/75/148 65/65/148
f 56/56/1 67/67/1 66/66/1
f 57/57/149 68/68/149 67/67/149
f 58/58/150 69/69/150 68/68/150
f 59/59/151 70/70/151 69/69/151
f 60/60/152 71/71/152 70/70/152
f 61/61/153 72/72/153 71/71/153
f 62/62/154 73/73/154 72/72/154
f 63/63/155 74/74/155 73/73/155
f 65/65/156 76/76/156 74/74/156
f 75/75/157 86/86/157 76/76/157
f 67/67/158 78/78/158 77/77/158
f 68/68/159 79/79/159 78/78/159
f 69/69/160 80/80/160 79/79/160
f 70/70/161 81/81/161 80/80/161
f 71/71/162 82/82/162 81/81/162
f 72/72/163 83/83/163 82/82/163
f 73/73/164 84/84/164 83/83/164
f 74/74/165 85/85/165 84/84/165
f 76/76/166 87/87/166 85/85/166
f 86/86/167 97/97/167 87/87/167
f 78/78/168 89/89/168 88/88/168
f 79/79/169 90/90/169 89/89/169
f 80/80/170 91/91/170 90/90/170
f 81/81/171 92/92/171 91/91/171
f 82/82/172 93/93/172 92/92/172
f 83/83/173 94/94/173 93/93/173
f 84/84/174 95/95/174 94/94/174
f 85/85/175 96/96/175 95/95/175
f 87/87/176 98/98/176 96/96/176
f 97/97/177 108/108/177 98/98/177
f 89/89/178 100/100/178 99/99/178
f 90/90/179 101/101/179 100/100/179
f 91/91/180 102/102/180 101/101/180
f 92/92/181 103/103/181 102/102/181
f 93/93/182 104/104/182 103/103/182
f 94/94/183 105/105/183 104/104/183
f 95/95/184 106/106/184 105/105/184
f 96/96/185 107/107/185 106/106/185
f 98/98/186 109/109/186 107/107/186
f 108/108/187 119/121/187 109/109/187
f 100/100/188 111/113/188 110/123/188
f 101/101/189 112/114/189 111/113/189
f 102/102/190 113/115/190 112/114/190
f 103/103/191 114/116/191 113/115/191
f 104/104/192 115/117/192 114/116/192
f 105/105/193 116/118/193 115/117/193
f 106/106/194 117/119/194 116/118/194
f 107/107/195 118/120/195 117/119/195
f 109/109/196 120/122/196 118/120/196
f 119/121/197 121/124/197 120/122/197
o Grid.001
v 48.712147 -4.381254 12.880432
v 42.720150 -2.603388 8.419132
v 54.492653 -5.264933 12.853716
v 49.033237 -4.253832 8.169912
v 31.531120 -2.609271 3.260714
v 37.098366 -2.307705 3.735282
v 42.864807 -2.826806 3.511894
v 25.726469 -5.949955 -1.504808
v 31.123045 -2.307177 -1.244196
v 37.476212 -3.125741 -1.686432
v 43.471100 -3.938773 -2.131550
v 14.148064 -5.172893 -6.409363
v 19.359329 -6.591809 -6.425019
v 24.815464 -4.637568 -6.783280
v 31.272499 -4.041083 -7.108631
v 37.525295 -3.636004 -7.138318
v 8.417111 -5.108371 -11.193582
v 13.644741 -3.906628 -11.724521
v 19.816000 -5.354386 -11.380052
v -3.368510 -4.877443 -16.422785
v 2.327218 -5.102125 -16.034096
v 8.104771 -2.947758 -16.858496
v 13.842531 -4.778191 -16.806160
v -3.703227 -3.841549 -21.330397
v 1.905921 -1.453914 -21.637218
v 7.836959 -4.324067 -22.050293
v -5.523444 -6.891173 -28.779007
v -0.118218 -5.358982 -29.046892
v 6.739663 -3.284147 -26.612942
v -5.101584 -6.652232 -33.509705
v 0.901278 -5.038765 -37.669426
v 8.557797 -2.380789 -28.601236
v -5.491899 -8.508661 -42.515457
v 0.761857 -8.708191 -40.303242
vt 0.398955 0.948041
vt 0.361466 0.858068
vt 0.399018 0.876374
vt 0.324946 0.765609
vt 0.361517 0.784770
vt 0.324426 0.694877
vt 0.286311 0.603078
vt 0.323654 0.622184
vt 0.287167 0.674641
vt 0.247181 0.511973
vt 0.286943 0.530400
vt 0.247679 0.581497
vt 0.284969 0.750968
vt 0.246138 0.655263
vt 0.250177 0.438897
vt 0.210453 0.349068
vt 0.249507 0.368572
vt 0.211053 0.422451
vt 0.173023 0.257229
vt 0.211346 0.278436
vt 0.172968 0.327100
vt 0.173332 0.184924
vt 0.135413 0.093964
vt 0.173040 0.113853
vt 0.135054 0.168351
vt 0.136182 0.235741
vt 0.097691 0.074003
vt 0.099751 0.148972
vt 0.060056 0.055090
vt 0.097858 0.221208
vt 0.059294 0.129026
vt 0.022388 0.035676
vt 0.061294 0.197645
vt 0.022135 0.106915
vn 0.1512 0.9878 0.0370
vn 0.2514 0.9672 -0.0366
vn -0.0601 0.9956 0.0722
vn 0.0832 0.9862 -0.1430
vn -0.5451 0.7868 0.2897
vn 0.1035 0.9545 -0.2796
vn 0.1272 0.9877 -0.0913
vn 0.2579 0.9451 0.2007
vn -0.3185 0.9262 0.2019
vn -0.1743 0.9168 0.3593
vn 0.2338 0.9598 -0.1555
vn 0.0246 0.9785 0.2049
vn -0.2241 0.8089 0.5435
vn 0.2957 0.9195 -0.2590
vn -0.3898 0.8817 -0.2657
vn 0.3458 0.7878 -0.5097
vn -0.2715 0.9621 0.0244
vn -0.2900 0.9570 0.0013
vn -0.3655 0.9146 -0.1727
vn 0.6165 0.4435 -0.6505
vn 0.2543 0.9661 0.0435
vn 0.0879 0.9952 -0.0427
vn -0.5598 0.8218 0.1058
vn 0.1169 0.9832 -0.1402
vn 0.1191 0.9765 -0.1796
vn -0.3075 0.9097 0.2792
vn -0.1024 0.9532 -0.2844
vn -0.0648 0.9935 -0.0936
vn -0.1936 0.9501 0.2447
vn 0.2073 0.9445 0.2550
vn -0.2816 0.8913 0.3555
vn 0.3017 0.9416 -0.1497
vn -0.3058 0.7872 0.5355
vn 0.4070 0.8775 -0.2536
vn -0.2689 0.8804 -0.3905
vn -0.3700 0.8826 0.2901
vn -0.2559 0.9667 0.0056
vn -0.3904 0.9187 0.0604
vn 0.2941 0.5499 -0.7817
usemtl Material.002
s off
f 124/125/198 125/126/198 122/127/198
f 125/126/199 128/128/199 123/129/199
f 127/130/200 130/131/200 126/132/200
f 128/128/201 131/133/201 127/130/201
f 130/131/202 135/134/202 129/135/202
f 131/133/203 136/136/203 130/131/203
f 132/137/204 137/138/204 131/133/204
f 134/139/205 139/140/205 133/141/205
f 135/134/206 140/142/206 134/139/206
f 139/140/207 143/143/207 138/144/207
f 140/142/208 144/145/208 139/140/208
f 142/146/209 145/147/209 141/148/209
f 143/143/210 146/149/210 142/146/210
f 144/145/211 147/150/211 143/143/211
f 146/149/212 148/151/212 145/147/212
f 147/150/213 149/152/213 146/149/213
f 149/152/214 151/153/214 148/151/214
f 150/154/215 152/155/215 149/152/215
f 152/155/216 154/156/216 151/153/216
f 153/157/217 155/158/217 152/155/217
f 122/127/218 125/126/218 123/129/218
f 123/129/219 128/128/219 127/130/219
f 126/132/220 130/131/220 129/135/220
f 127/130/221 131/133/221 130/131/221
f 128/128/222 132/137/222 131/133/222
f 129/135/223 135/134/223 134/139/223
f 130/131/224 136/136/224 135/134/224
f 131/133/225 137/138/225 136/136/225
f 133/141/226 139/140/226 138/144/226
f 134/139/227 140/142/227 139/140/227
f 138/144/228 143/143/228 142/146/228
f 139/140/229 144/145/229 143/143/229
f 142/146/230 146/149/230 145/147/230
f 143/143/231 147/150/231 146/149/231
f 146/149/232 149/152/232 148/151/232
f 147/150/233 150/154/233 149/152/233
f 149/152/234 152/155/234 151/153/234
f 150/154/235 153/157/235 152/155/235
f 152/155/236 155/158/236 154/156/236