# Blender v3.2.2 OBJ File: ''
# www.blender.org
mtllib nivel.mtl
o Cube.001
frames: 1
v 3.041360 -0.240091 2.618502
v -2.856929 -0.215075 2.618502
v 3.041360 -0.240091 -23.231937
v -2.856929 -0.215075 -23.231937
v 1.929388 -0.235375 2.618502
v 1.929388 -0.235375 -23.231937
v 0.692655 -0.230129 2.618502
v 0.692655 -0.230129 -23.231937
v -0.485162 -0.225134 2.618502
v -0.485162 -0.225134 -23.231937
v -1.638555 -0.220242 2.618502
v -1.638555 -0.220242 -23.231937
v 3.041360 -0.240091 -21.550018
v -2.856929 -0.215075 -21.550018
v 1.929388 -0.235375 -21.550018
v 0.692655 -0.230129 -21.550018
v -0.485162 -0.225134 -21.550018
v -1.327417 0.145474 -21.550014
v 3.041360 -0.240091 -19.829441
v -2.856929 -0.215075 -19.829441
v 2.516829 0.811782 -19.829441
v 0.692655 -0.230129 -19.829441
v -0.485162 -0.225134 -19.829441
v -1.638555 -0.220242 -19.829441
v 3.041360 -0.240091 -17.959297
v -2.856929 -0.215075 -17.959297
v 1.929388 -0.235375 -17.959297
v 0.692655 -0.230129 -17.959297
v -0.485162 -0.225134 -17.959297
v -1.638555 -0.220242 -17.959297
v 3.041360 -0.240091 -16.275730
v -2.856929 -0.215075 -16.275730
v 1.929388 -0.235375 -16.275730
v -0.562630 0.824843 -16.275730
v -1.740446 0.829838 -16.275730
v -1.638555 -0.220242 -16.275730
v 3.041360 -0.240091 -14.427569
v -2.856929 -0.215075 -14.427569
v 1.929388 -0.235375 -14.427569
v -0.562630 0.824843 -14.427569
v -0.485162 -0.225134 -14.427569
v -1.638555 -0.220242 -14.427569
v 3.041360 -0.240091 -12.600228
v -2.856929 -0.215075 -12.600228
v 1.929388 -0.235375 -12.600228
v 0.692655 -0.230129 -12.600228
v -0.485162 -0.225134 -12.600228
v -1.638555 -0.220242 -12.600228
v 3.041360 -0.240091 -10.983008
v -2.856929 -0.215075 -10.983008
v 1.929388 -0.235375 -10.983008
v 0.692655 -0.230129 -10.983008
v -0.485162 -0.225134 -10.983008
v -2.893840 0.834730 -10.983008
v 3.041360 -0.240091 -9.168229
v -2.856929 -0.215075 -9.168229
v 2.213590 0.130456 -9.168229
v 0.692655 -0.230129 -9.168229
v -0.485162 -0.225134 -9.168229
v -1.638555 -0.220242 -9.168229
v 3.041360 -0.240091 -7.330204
v -2.856929 -0.215075 -7.330204
v 1.929388 -0.235375 -7.330204
v 0.692655 -0.230129 -7.330204
v -0.485162 -0.225134 -7.330204
v -1.638555 -0.220242 -7.330204
v 3.041360 -0.240091 -5.484715
v -2.856929 -0.215075 -5.484715
v 1.929388 -0.235375 -5.484715
v 0.692655 -0.230129 -5.484715
v -0.158140 0.140515 -5.484715
v -1.638555 -0.220242 -5.484715
v 3.041360 -0.240091 -3.592634
v -2.856929 -0.215075 -3.592634
v 0.674103 0.819597 -3.592634
v 0.692655 -0.230129 -3.592634
v -0.485162 -0.225134 -3.592634
v -1.638555 -0.220242 -3.592634
v 3.041360 -0.240091 -1.727832
v -2.856929 -0.215075 -1.727832
v 1.929388 -0.235375 -1.727832
v 0.692655 -0.230129 -1.727832
v -1.740446 0.829838 -1.727832
v -1.638555 -0.220242 -1.727832
v 3.041360 -0.240091 -0.059905
v -2.856929 -0.215075 -0.059905
v 2.213590 0.130456 -0.059905
v 0.692655 -0.230129 -0.059905
v -0.485162 -0.225134 -0.059905
v -2.893840 0.834730 -0.059905
v 3.041360 -0.240091 1.279298
v -2.856929 -0.215075 1.279298
v 1.929388 -0.235375 1.279298
v 1.280095 0.817027 1.279298
v -0.485162 -0.225134 1.279298
v -1.638555 -0.220242 1.279298
vt 0.673223 0.961061
vt 1.000000 0.934936
vt 1.000000 1.000000
vt 0.793436 1.000000
vt 0.000000 0.934936
vt 0.188525 0.934936
vt 0.188525 1.000000
vt 0.000000 1.000000
vt 0.398201 0.934936
vt 0.398201 1.000000
vt 0.597889 0.934936
vt 0.597889 1.000000
vt 0.597889 0.868378
vt 0.793436 0.868378
vt 0.398201 0.868378
vt 0.188525 0.868378
vt 0.000000 0.868378
vt 1.000000 0.868378
vt 0.793436 0.796033
vt 1.000000 0.796033
vt 0.000000 0.796033
vt 0.188525 0.796033
vt 0.398201 0.796033
vt 0.597889 0.796033
vt 0.597889 0.730906
vt 0.793436 0.730906
vt 0.398201 0.730906
vt 0.188525 0.730906
vt 0.000000 0.730906
vt 1.000000 0.730906
vt 0.793436 0.659411
vt 1.000000 0.659411
vt 0.000000 0.659411
vt 0.188525 0.659411
vt 0.398201 0.659411
vt 0.597889 0.659411
vt 0.597889 0.588722
vt 0.793436 0.588722
vt 0.398201 0.588722
vt 0.188525 0.588722
vt 0.000000 0.588722
vt 1.000000 0.588722
vt 0.793436 0.526162
vt 1.000000 0.526162
vt 0.000000 0.526162
vt 0.188525 0.526162
vt 0.398201 0.526162
vt 0.597889 0.526162
vt 0.597889 0.455959
vt 0.793436 0.455959
vt 0.398201 0.455959
vt 0.073769 0.483842
vt 0.000000 0.455959
vt 1.000000 0.455959
vt 0.793436 0.384856
vt 1.000000 0.384856
vt 0.000000 0.384856
vt 0.188525 0.384856
vt 0.398201 0.384856
vt 0.597889 0.384857
vt 0.476772 0.341232
vt 0.793436 0.313465
vt 0.398201 0.313465
vt 0.188525 0.313465
vt 0.000000 0.313465
vt 1.000000 0.313465
vt 0.793436 0.240272
vt 1.000000 0.240272
vt 0.000000 0.240272
vt 0.188525 0.240272
vt 0.398201 0.240272
vt 0.597889 0.240272
vt 0.597889 0.168134
vt 0.793436 0.168134
vt 0.398201 0.168134
vt 0.188525 0.168134
vt 0.000000 0.168134
vt 1.000000 0.168134
vt 0.793436 0.103612
vt 1.000000 0.103612
vt 0.000000 0.103612
vt 0.050597 0.103612
vt 0.398201 0.103612
vt 0.597889 0.103612
vt 0.597889 0.051806
vt 0.793436 0.051806
vt 0.398201 0.051806
vt 0.188525 0.051806
vt 0.000000 0.051806
vt 1.000000 0.051806
vt 0.793436 0.000000
vt 1.000000 0.000000
vt 0.000000 0.000000
vt 0.188525 0.000000
vt 0.398201 0.000000
vt 0.597889 0.000000
vn 0.1277 -0.9872 0.0955
vn -0.0042 -1.0000 0.0000
vn -0.1835 -0.9753 0.1230
vn -0.1836 -0.9756 -0.1203
vn 0.3124 -0.9224 0.2273
vn -0.5122 -0.7934 0.3289
vn 0.1277 -0.9874 -0.0934
vn -0.5165 -0.8001 -0.3051
vn 0.3136 -0.9260 -0.2100
vn 0.6343 -0.6381 0.4364
vn -0.0036 -0.8486 0.5291
vn -0.2695 -0.9431 0.1950
vn -0.3915 -0.9202 0.0000
vn 0.6301 -0.6635 -0.4034
vn 0.6448 -0.6487 -0.4041
vn 0.6290 -0.6623 -0.4072
vn -0.2702 -0.9458 -0.1802
vn 0.5921 -0.6697 0.4482
vn -0.2808 -0.9393 0.1974
vn -0.2819 -0.9431 -0.1766
vn 0.1273 -0.9878 0.0896
vn -0.1887 -0.9755 0.1131
vn 0.6048 -0.6840 -0.4080
vn -0.1887 -0.9757 -0.1117
vn 0.1273 -0.9879 -0.0885
vn 0.1334 -0.9873 0.0860
vn -0.1809 -0.9770 0.1128
vn -0.2884 -0.9428 0.1672
vn 0.5985 -0.6980 0.3931
vn -0.1810 -0.9773 -0.1101
vn 0.1334 -0.9875 -0.0839
vn 0.6458 -0.6497 0.4011
vn -0.2786 -0.9446 0.1734
vn 0.5971 -0.6964 -0.3980
vn -0.2883 -0.9424 -0.1695
vn 0.5957 -0.6737 0.4372
vn -0.1885 -0.9744 0.1229
vn 0.1272 -0.9871 0.0974
vn -0.2776 -0.9411 -0.1932
vn -0.2783 -0.9310 -0.2363
vn 0.3187 -0.9044 0.2837
vn -0.2927 -0.9182 0.2667
vn -0.1877 -0.9703 -0.1524
vn 0.5666 -0.6408 -0.5180
vn -0.4463 -0.7959 -0.4091
vn 0.3187 -0.9044 -0.2837
usemtl Material
s off
f 18/1/1 14/2/1 4/3/1 12/4/1
f 13/5/2 15/6/2 6/7/2 3/8/2
f 15/6/2 16/9/2 8/10/2 6/7/2
f 16/9/2 17/11/2 10/12/2 8/10/2
f 17/11/3 18/1/3 12/4/3 10/12/3
f 23/13/4 24/14/4 18/1/4 17/11/4
f 22/15/2 23/13/2 17/11/2 16/9/2
f 21/16/5 22/15/5 16/9/5 15/6/5
f 19/17/6 21/16/6 15/6/6 13/5/6
f 24/14/7 20/18/7 14/2/7 18/1/7
f 30/19/2 26/20/2 20/18/2 24/14/2
f 25/21/8 27/22/8 21/16/8 19/17/8
f 27/22/9 28/23/9 22/15/9 21/16/9
f 28/23/2 29/24/2 23/13/2 22/15/2
f 29/24/2 30/19/2 24/14/2 23/13/2
f 35/25/10 36/26/10 30/19/10 29/24/10
f 34/27/11 35/25/11 29/24/11 28/23/11
f 33/28/12 34/27/12 28/23/12 27/22/12
f 31/29/2 33/28/2 27/22/2 25/21/2
f 36/26/2 32/30/2 26/20/2 30/19/2
f 42/31/2 38/32/2 32/30/2 36/26/2
f 37/33/2 39/34/2 33/28/2 31/29/2
f 39/34/13 40/35/13 34/27/13 33/28/13
f 40/35/14 41/36/14 35/25/14 34/27/14
f 41/36/15 42/31/15 36/26/15 35/25/15
f 47/37/2 48/38/2 42/31/2 41/36/2
f 46/39/16 47/37/16 41/36/16 40/35/16
f 45/40/17 46/39/17 40/35/17 39/34/17
f 43/41/2 45/40/2 39/34/2 37/33/2
f 48/38/2 44/42/2 38/32/2 42/31/2
f 54/43/18 50/44/18 44/42/18 48/38/18
f 49/45/2 51/46/2 45/40/2 43/41/2
f 51/46/2 52/47/2 46/39/2 45/40/2
f 52/47/2 53/48/2 47/37/2 46/39/2
f 53/48/19 54/43/19 48/38/19 47/37/19
f 59/49/20 60/50/20 54/43/20 53/48/20
f 58/51/2 59/49/2 53/48/2 52/47/2
f 57/52/21 58/51/21 52/47/21 51/46/21
f 55/53/22 57/52/22 51/46/22 49/45/22
f 60/50/23 56/54/23 50/44/23 54/43/23
f 66/55/2 62/56/2 56/54/2 60/50/2
f 61/57/24 63/58/24 57/52/24 55/53/24
f 63/58/25 64/59/25 58/51/25 57/52/25
f 64/59/2 65/60/2 59/49/2 58/51/2
f 65/60/2 66/55/2 60/50/2 59/49/2
f 71/61/26 72/62/26 66/55/26 65/60/26
f 70/63/27 71/61/27 65/60/27 64/59/27
f 69/64/2 70/63/2 64/59/2 63/58/2
f 67/65/2 69/64/2 63/58/2 61/57/2
f 72/62/2 68/66/2 62/56/2 66/55/2
f 78/67/2 74/68/2 68/66/2 72/62/2
f 73/69/28 75/70/28 69/64/28 67/65/28
f 75/70/29 76/71/29 70/63/29 69/64/29
f 76/71/30 77/72/30 71/61/30 70/63/30
f 77/72/31 78/67/31 72/62/31 71/61/31
f 83/73/32 84/74/32 78/67/32 77/72/32
f 82/75/33 83/73/33 77/72/33 76/71/33
f 81/76/34 82/75/34 76/71/34 75/70/34
f 79/77/35 81/76/35 75/70/35 73/69/35
f 84/74/2 80/78/2 74/68/2 78/67/2
f 90/79/36 86/80/36 80/78/36 84/74/36
f 85/81/37 87/82/37 81/76/37 79/77/37
f 87/82/38 88/83/38 82/75/38 81/76/38
f 88/83/39 89/84/39 83/73/39 82/75/39
f 89/84/2 90/79/2 84/74/2 83/73/2
f 95/85/40 96/86/40 90/79/40 89/84/40
f 94/87/41 95/85/41 89/84/41 88/83/41
f 93/88/42 94/87/42 88/83/42 87/82/42
f 91/89/43 93/88/43 87/82/43 85/81/43
f 96/86/44 92/90/44 86/80/44 90/79/44
f 11/91/2 2/92/2 92/90/2 96/86/2
f 1/93/2 5/94/2 93/88/2 91/89/2
f 5/94/45 7/95/45 94/87/45 93/88/45
f 7/95/46 9/96/46 95/85/46 94/87/46
f 9/96/2 11/91/2 96/86/2 95/85/2
