# Blender v3.2.2 OBJ File: ''
# www.blender.org
mtllib tut.mtl
o Icosphere
frames: 1
v 0.096090 0.024763 0.295740
v -0.251572 0.024763 0.182776
v -0.251572 0.024763 -0.182776
v 0.096090 0.024763 -0.295740
v 0.310959 0.024762 0.000000
v 0.182777 0.001231 0.000000
v 0.330648 0.000000 0.107432
v 0.330648 0.000000 -0.107432
v 0.000000 0.000000 0.347663
v 0.204352 0.000000 0.281266
v -0.330648 0.000000 0.107432
v -0.204352 0.000000 0.281266
v -0.204352 0.000000 -0.281266
v -0.330648 0.000000 -0.107432
v 0.204352 0.000000 -0.281266
v 0.000000 0.000000 -0.347663
v 0.239258 0.029110 0.173831
v -0.091390 0.029110 0.281264
v -0.295739 0.029110 0.000000
v -0.091390 0.029110 -0.281264
v 0.239258 0.029110 -0.173831
v 0.056480 -0.023087 0.173830
v 0.182777 -0.023088 0.000000
v -0.147869 -0.023088 0.107432
v -0.147869 -0.023088 -0.107432
v 0.056480 -0.023087 -0.173830
v 0.182777 -0.023088 0.000000
v 0.182777 0.001231 0.000000
v 0.056480 -0.023087 0.173830
v -0.147869 -0.023088 0.107432
v -0.147869 -0.023088 -0.107432
v 0.056480 -0.023087 -0.173830
v 0.000000 0.009501 0.000000
v 0.056480 0.001232 0.173830
v -0.147869 0.001231 0.107432
v -0.147869 0.001231 -0.107432
v 0.056480 0.001232 -0.173830
v 0.000000 0.009501 0.000000
v 0.056480 0.001232 0.173830
v -0.147869 0.001231 0.107432
v -0.147869 0.001231 -0.107432
v 0.056480 0.001232 -0.173830
vt 0.181819 0.314921
vt 0.272728 0.314921
vt 0.227273 0.393651
vt 0.000000 0.314921
vt 0.090910 0.314921
vt 0.045455 0.393651
vt 0.727273 0.314921
vt 0.818182 0.314921
vt 0.772727 0.393651
vt 0.545455 0.314921
vt 0.636364 0.314921
vt 0.590909 0.393651
vt 0.363637 0.314921
vt 0.454546 0.314921
vt 0.409092 0.393651
vt 0.318182 0.393651
vt 0.318182 0.393651
vt 0.227273 0.393651
vt 0.500000 0.393651
vt 0.681818 0.393651
vt 0.681818 0.393651
vt 0.590909 0.393651
vt 0.136365 0.393651
vt 0.136365 0.393651
vt 0.045455 0.393651
vt 0.863636 0.393651
vt 0.909091 0.314921
vt 0.500000 0.393651
vt 0.409092 0.393651
vt 0.863636 0.393651
vt 0.772727 0.393651
vt 0.409092 0.236191
vt 0.500000 0.236191
vt 0.590909 0.236191
vt 0.681818 0.236191
vt 0.772727 0.236191
vt 0.863636 0.236191
vt 0.045455 0.236191
vt 0.136365 0.236191
vt 0.227273 0.236191
vt 0.318182 0.236191
vt 0.954545 0.236191
vt 0.681818 0.393651
vt 0.590909 0.393651
vt 0.136365 0.393651
vt 0.045455 0.393651
vt 0.500000 0.393651
vt 0.409092 0.393651
vt 0.863636 0.393651
vt 0.772727 0.393651
vt 0.318182 0.393651
vt 0.227273 0.393651
vt 0.454546 0.472382
vt 0.500000 0.393651
vt 0.454546 0.472382
vt 0.681818 0.393651
vt 0.590909 0.393651
vt 0.090910 0.472382
vt 0.136365 0.393651
vt 0.090910 0.472382
vt 0.636364 0.472382
vt 0.772727 0.393651
vt 0.863636 0.393651
vt 0.818182 0.472382
vt 0.227273 0.393651
vt 0.318182 0.393651
vt 0.272728 0.472382
vt 0.045455 0.393651
vt 0.409092 0.393651
vn -0.2639 0.9240 -0.2769
vn 0.1818 0.9240 -0.3365
vn 0.3762 0.9240 0.0689
vn 0.0507 0.9240 0.3791
vn -0.3449 0.9240 0.1654
vn 0.0000 0.0000 1.0000
vn -0.2693 0.9430 0.1957
vn -0.2639 0.9240 0.2769
vn 0.1029 0.9430 0.3166
vn 0.1818 0.9240 0.3365
vn 0.3329 0.9430 0.0000
vn 0.3762 0.9240 -0.0689
vn 0.1029 0.9430 -0.3166
vn 0.0507 0.9240 -0.3791
vn -0.2693 0.9430 -0.1957
vn -0.3449 0.9240 -0.1654
vn 0.3904 0.9102 -0.1383
vn 0.5181 0.7680 -0.3764
vn 0.2521 0.9102 -0.3285
vn -0.0109 0.9102 -0.4140
vn -0.1979 0.7680 -0.6091
vn -0.2346 0.9102 -0.3413
vn -0.3971 0.9102 -0.1176
vn -0.6404 0.7680 0.0000
vn -0.3971 0.9102 0.1176
vn -0.2346 0.9102 0.3413
vn -0.1979 0.7680 0.6091
vn -0.0109 0.9102 0.4140
vn 0.2521 0.9102 0.3285
vn 0.5181 0.7680 0.3764
vn 0.3904 0.9102 0.1383
vn 0.2419 0.6224 -0.7444
vn -0.6332 0.6224 -0.4601
vn -0.6332 0.6224 0.4601
vn 0.2419 0.6224 0.7444
vn 0.7827 0.6224 0.0000
vn -0.3090 0.0000 -0.9511
vn -0.3090 0.0000 0.9511
vn 0.8090 0.0000 -0.5878
vn -1.0000 0.0000 0.0000
vn 0.8090 0.0000 0.5878
vn 0.0452 0.9984 -0.0328
vn -0.0173 0.9984 0.0531
vn -0.0173 0.9984 -0.0531
vn -0.0558 0.9984 0.0000
vn 0.0452 0.9984 0.0328
usemtl Material.001
s off
f 1/1/1 17/2/1 22/3/1
f 2/4/2 18/5/2 24/6/2
f 3/7/3 19/8/3 25/9/3
f 4/10/4 20/11/4 26/12/4
f 5/13/5 21/14/5 23/15/5
f 22/3/6 23/16/6 27/17/6 29/18/6
f 23/15/7 21/14/7 26/19/7
f 21/14/8 4/10/8 26/19/8
f 26/12/6 25/20/6 31/21/6 32/22/6
f 26/12/9 20/11/9 25/20/9
f 20/11/10 3/7/10 25/20/10
f 24/6/6 22/23/6 29/24/6 30/25/6
f 25/9/11 19/8/11 24/26/11
f 19/8/12 2/27/12 24/26/12
f 23/15/6 26/19/6 32/28/6 27/29/6
f 24/6/13 18/5/13 22/23/13
f 18/5/14 1/1/14 22/23/14
f 25/9/6 24/26/6 30/30/6 31/31/6
f 22/3/15 17/2/15 23/16/15
f 17/2/16 5/13/16 23/16/16
f 8/32/17 21/14/17 5/13/17
f 8/32/18 15/33/18 21/14/18
f 15/33/19 4/10/19 21/14/19
f 16/34/20 20/11/20 4/10/20
f 16/34/21 13/35/21 20/11/21
f 13/35/22 3/7/22 20/11/22
f 14/36/23 19/8/23 3/7/23
f 14/36/24 11/37/24 19/8/24
f 11/37/25 2/27/25 19/8/25
f 12/38/26 18/5/26 2/4/26
f 12/38/27 9/39/27 18/5/27
f 9/39/28 1/1/28 18/5/28
f 10/40/29 17/2/29 1/1/29
f 10/40/30 7/41/30 17/2/30
f 7/41/31 5/13/31 17/2/31
f 15/33/32 16/34/32 4/10/32
f 13/35/33 14/36/33 3/7/33
f 11/37/34 12/42/34 2/27/34
f 9/39/35 10/40/35 1/1/35
f 7/41/36 8/32/36 5/13/36
f 32/22/37 31/21/37 36/43/37 37/44/37
f 30/25/38 29/24/38 34/45/38 35/46/38
f 27/29/39 32/28/39 37/47/39 6/48/39
f 31/31/40 30/30/40 35/49/40 36/50/40
f 29/18/41 27/17/41 6/51/41 34/52/41
f 6/48/42 37/47/42 33/53/42
f 33/53/6 37/47/6 42/54/6 38/55/6
f 37/44/6 36/43/6 41/56/6 42/57/6
f 35/46/43 34/45/43 33/58/43
f 33/58/6 34/45/6 39/59/6 38/60/6
f 42/57/44 41/56/44 38/61/44
f 41/62/45 40/63/45 38/64/45
f 39/65/46 28/66/46 38/67/46
f 35/46/6 33/58/6 38/60/6 40/68/6
f 6/48/6 33/53/6 38/55/6 28/69/6
f 34/52/6 6/51/6 28/66/6 39/65/6
f 36/50/6 35/49/6 40/63/6 41/62/6