# Blender v3.2.2 OBJ File: 'ouro.blend'
# www.blender.org
mtllib ouro.mtl
o Cube
frames: 1
texture: 1
v 0.022999 0.010385 -0.016603
v 0.042179 -0.010385 -0.027959
v 0.003771 0.010385 0.012206
v 0.010647 -0.010385 0.019283
v -0.003771 0.010385 -0.012206
v -0.010647 -0.010385 -0.019283
v -0.022999 0.010385 0.016603
v -0.042179 -0.010385 0.027959
v -0.007690 0.010385 -0.027304
v -0.011765 -0.010385 -0.049218
v 0.012758 0.010385 0.000653
v 0.021767 -0.010385 -0.003373
v -0.012758 0.010385 -0.000653
v -0.021767 -0.010385 0.003373
v 0.007690 0.010385 0.027304
v 0.011765 -0.010385 0.049218
v -0.026270 0.010385 -0.010701
v -0.046067 -0.010385 -0.020944
v 0.008351 0.010385 -0.009668
v 0.010707 -0.010385 -0.019250
v -0.008351 0.010385 0.009668
v -0.010707 -0.010385 0.019250
v 0.026270 0.010385 0.010701
v 0.046067 -0.010385 0.020944
vt 0.635410 0.104924
vt 0.635410 0.508820
vt 0.898676 0.934277
vt 0.778789 0.502470
vt 0.889394 0.601045
vt 0.778789 0.098574
vt 0.889394 0.000000
vt 0.944111 0.697995
vt 0.483074 0.943315
vt 0.430157 0.709172
vt 0.531453 0.049680
vt 0.531453 0.449771
vt 0.016704 0.449771
vt 0.016704 0.049680
vt 0.953891 0.701896
vt 0.909417 0.938607
vt 0.487229 0.951640
vt 0.431791 0.718014
vt 0.746016 0.607394
vt 0.746016 0.006350
vt 0.635410 0.104924
vt 0.635410 0.508820
vt 0.898676 0.934277
vt 0.778789 0.502470
vt 0.889394 0.601045
vt 0.778789 0.098574
vt 0.889394 0.000000
vt 0.944111 0.697995
vt 0.483074 0.943315
vt 0.430157 0.709172
vt 0.531453 0.049680
vt 0.531453 0.449771
vt 0.016704 0.449771
vt 0.016704 0.049680
vt 0.953891 0.701896
vt 0.909417 0.938607
vt 0.487229 0.951640
vt 0.431791 0.718014
vt 0.746016 0.607394
vt 0.746016 0.006350
vt 0.635410 0.104924
vt 0.635410 0.508820
vt 0.898676 0.934277
vt 0.778789 0.502470
vt 0.889394 0.601045
vt 0.778789 0.098574
vt 0.889394 0.000000
vt 0.944111 0.697995
vt 0.483074 0.943315
vt 0.430157 0.709172
vt 0.531453 0.049680
vt 0.531453 0.449771
vt 0.016704 0.449771
vt 0.016704 0.049680
vt 0.953891 0.701896
vt 0.909417 0.938607
vt 0.487229 0.951640
vt 0.431791 0.718014
vt 0.746016 0.607394
vt 0.746016 0.006350
vn 0.0000 1.0000 0.0000
vn 0.1510 0.3633 0.9194
vn -0.7543 0.4213 -0.5035
vn 0.0000 -1.0000 0.0000
vn 0.7543 0.4213 0.5035
vn -0.1510 0.3633 -0.9194
vn 0.9153 0.3633 0.1741
vn -0.7320 0.4213 0.5354
vn 0.7320 0.4213 -0.5354
vn -0.9153 0.3633 -0.1741
vn 0.6995 0.3633 -0.6154
vn -0.0271 0.4213 0.9065
vn 0.0271 0.4213 -0.9065
vn -0.6995 0.3633 0.6154
usemtl Material
s off
f 1/1/1 5/2/1 7/3/1 3/4/1
f 4/5/2 3/4/2 7/6/2 8/7/2
f 8/8/3 7/3/3 5/9/3 6/10/3
f 6/11/4 2/12/4 4/13/4 8/14/4
f 2/15/5 1/16/5 3/17/5 4/18/5
f 6/19/6 5/2/6 1/1/6 2/20/6
f 9/21/1 13/22/1 15/23/1 11/24/1
f 12/25/7 11/24/7 15/26/7 16/27/7
f 16/28/8 15/23/8 13/29/8 14/30/8
f 14/31/4 10/32/4 12/33/4 16/34/4
f 10/35/9 9/36/9 11/37/9 12/38/9
f 14/39/10 13/22/10 9/21/10 10/40/10
f 17/41/1 21/42/1 23/43/1 19/44/1
f 20/45/11 19/44/11 23/46/11 24/47/11
f 24/48/12 23/43/12 21/49/12 22/50/12
f 22/51/4 18/52/4 20/53/4 24/54/4
f 18/55/13 17/56/13 19/57/13 20/58/13
f 22/59/14 21/42/14 17/41/14 18/60/14