# Blender v3.2.2 OBJ File: 'ouro.blend'
# www.blender.org
mtllib ouro.mtl
o Cube
frames: 1
texture: 1
v 0.046245 0.020881 -0.033383
v 0.084810 -0.020881 -0.056218
v 0.007582 0.020881 0.024542
v 0.021407 -0.020881 0.038772
v -0.007582 0.020881 -0.024542
v -0.021407 -0.020881 -0.038772
v -0.046245 0.020881 0.033383
v -0.084810 -0.020881 0.056218
vt 0.635410 0.104924
vt 0.635410 0.508820
vt 0.898676 0.934277
vt 0.778789 0.502470
vt 0.889394 0.601045
vt 0.778789 0.098574
vt 0.889394 0.000000
vt 0.944111 0.697995
vt 0.483074 0.943315
vt 0.430157 0.709172
vt 0.531453 0.049680
vt 0.531453 0.449771
vt 0.016704 0.449771
vt 0.016704 0.049680
vt 0.953891 0.701896
vt 0.909417 0.938607
vt 0.487229 0.951640
vt 0.431791 0.718014
vt 0.746016 0.607394
vt 0.746016 0.006350
vn 0.0000 1.0000 0.0000
vn 0.1510 0.3633 0.9194
vn -0.7543 0.4213 -0.5035
vn 0.0000 -1.0000 0.0000
vn 0.7543 0.4213 0.5035
vn -0.1510 0.3633 -0.9194
usemtl Material
s off
f 1/1/1 5/2/1 7/3/1 3/4/1
f 4/5/2 3/4/2 7/6/2 8/7/2
f 8/8/3 7/3/3 5/9/3 6/10/3
f 6/11/4 2/12/4 4/13/4 8/14/4
f 2/15/5 1/16/5 3/17/5 4/18/5
f 6/19/6 5/2/6 1/1/6 2/20/6