# Blender v2.79 (sub 0) OBJ File: 'quadro.blend'
# www.blender.org
mtllib quadro.mtl
o Cube
frames: 1
texture: 1
v 3.087502 -1.000000 0.164052
v -3.087502 -1.000000 0.164053
v -3.087502 -1.000000 -0.164052
v 3.087503 -1.000000 -0.164053
v 3.087501 1.000000 0.164052
v -3.087504 1.000000 0.164053
v -3.087501 1.000000 -0.164052
v 3.087502 1.000000 -0.164053
vt 0.970333 0.101460
vt 0.884446 0.101460
vt 0.884446 0.096896
vt 0.970333 0.096896
vt 0.970334 0.092301
vt 0.970334 0.096864
vt 0.884446 0.096864
vt 0.884446 0.092300
vt 0.960771 0.098861
vt 0.960771 0.982257
vt 0.011895 0.982257
vt 0.011896 0.098861
vt 0.974929 0.036601
vt 0.974929 0.064419
vt 0.970366 0.064419
vt 0.970365 0.036601
vt 0.884446 0.092268
vt 0.884446 0.064451
vt 0.970333 0.064451
vt 0.970333 0.092268
vt 0.970365 0.124714
vt 0.970365 0.096896
vt 0.974929 0.096896
vt 0.974929 0.124714
vn 0.0000 -1.0000 0.0000
vn 0.0000 1.0000 -0.0000
vn 0.0000 0.0000 1.0000
vn -1.0000 -0.0000 -0.0000
vn -0.0000 -0.0000 -1.0000
vn 1.0000 0.0000 0.0000
usemtl Material
s off
f 1/1/1 2/2/1 3/3/1 4/4/1
f 5/5/2 8/6/2 7/7/2 6/8/2
f 1/9/3 5/10/3 6/11/3 2/12/3
f 2/13/4 6/14/4 7/15/4 3/16/4
f 3/17/5 7/18/5 8/19/5 4/20/5
f 5/21/6 1/22/6 4/23/6 8/24/6