# Blender v2.79 (sub 0) OBJ File: 'quadro.blend'
# www.blender.org
mtllib quadro.mtl.mtl
o Cube
frames: 1


v 1.000000 1.000000 0.141741
v 1.000000 1.000000 -0.141741
v -1.000000 1.000000 -0.141741
v -1.000000 1.000000 0.141741
v 1.000000 -1.000000 0.141741
v 0.999999 -1.000000 -0.141741
v -1.000000 -1.000000 -0.141741
v -1.000000 -1.000000 0.141741
vt 0.370067 0.861180
vt 0.370067 0.966955
vt 0.051355 0.966955
vt 0.051355 0.861180
vt 0.370067 0.114930
vt 0.051355 0.114930
vt 0.051355 0.009155
vt 0.370067 0.009156
vt 0.415242 0.114930
vt 0.415241 0.861180
vt 0.988761 0.002947
vt 0.988761 0.989692
vt 0.432662 0.989693
vt 0.432662 0.002947
vt 0.006181 0.861180
vt 0.006181 0.114930
vn 0.0000 1.0000 0.0000
vn 0.0000 -1.0000 0.0000
vn 1.0000 -0.0000 -0.0000
vn 0.0000 0.0000 -1.0000
vn -1.0000 0.0000 0.0000
vn -0.0000 -0.0000 1.0000
usemtl Material
s off
f 1/1/1 2/2/1 3/3/1 4/4/1
f 5/5/2 8/6/2 7/7/2 6/8/2
f 1/1/3 5/5/3 6/9/3 2/10/3
f 2/11/4 6/12/4 7/13/4 3/14/4
f 3/15/5 7/16/5 8/6/5 4/4/5
f 5/5/6 1/1/6 4/4/6 8/6/6
