# Blender v3.2.2 OBJ File: 'robo.blend'
# www.blender.org
mtllib robo.mtl
o Cubo
frames: 1
v -0.055128 0.088871 -0.159061
v -0.055128 0.104306 -0.221297
v -0.055128 0.008685 -0.178948
v -0.055128 0.024120 -0.241184
v 0.106478 0.088871 -0.159061
v 0.106478 0.104306 -0.221297
v 0.106478 0.008685 -0.178948
v 0.106478 0.024120 -0.241184
v -0.061833 0.107874 -0.078420
v -0.047546 0.033798 -0.120083
v -0.060812 0.087188 -0.041149
v -0.048031 0.017674 -0.083361
v -0.020069 0.114666 -0.075799
v -0.005780 0.040671 -0.117649
v -0.019044 0.094035 -0.038666
v -0.004459 0.019539 -0.081250
v -0.005320 0.013090 -0.179152
v -0.005813 0.021144 -0.090559
v -0.014527 0.053694 -0.187643
v -0.016757 0.068358 -0.102548
v -0.046590 0.003477 -0.178779
v -0.047285 0.012755 -0.091560
v -0.055882 0.044372 -0.187375
v -0.056511 0.055624 -0.104744
v -0.070631 0.133268 -0.070254
v -0.061894 0.089106 -0.095032
v -0.068581 0.091987 0.004047
v -0.060300 0.057013 -0.037269
v -0.226596 -0.021173 -0.376183
v -0.020008 0.141501 -0.067077
v -0.011271 0.097339 -0.091855
v -0.017958 0.100220 0.007224
v -0.009677 0.065246 -0.034092
v 0.106091 0.001095 -0.013255
v 0.106091 -0.009190 0.040531
v 0.106091 0.066307 -0.024043
v 0.106091 0.074693 0.026655
v 0.054704 0.001095 -0.013255
v 0.054704 -0.009190 0.040531
v 0.054704 0.066307 -0.024043
v 0.054704 0.074693 0.026655
v 0.058751 0.049601 -0.079992
v 0.058751 0.070791 -0.165433
v 0.058751 0.008359 -0.090220
v 0.058751 0.029549 -0.175661
v 0.101145 0.049601 -0.079992
v 0.101145 0.070791 -0.165433
v 0.101145 0.008359 -0.090220
v 0.101145 0.029549 -0.175661
v 0.101192 0.008623 -0.079269
v 0.101192 0.022989 0.007581
v 0.101192 0.050545 -0.086204
v 0.101192 0.064911 0.000646
v 0.058799 0.008623 -0.079269
v 0.058799 0.022989 0.007581
v 0.058799 0.050545 -0.086204
v 0.058799 0.064911 0.000646
v -0.066848 0.118205 -0.216191
v -0.066848 0.144729 -0.323137
v -0.066848 0.015831 -0.241581
v -0.066848 0.042355 -0.348526
v 0.120568 0.118205 -0.216191
v 0.120568 0.144729 -0.323137
v 0.120568 0.015831 -0.241581
v 0.120568 0.042355 -0.348526
v -0.104181 0.141066 -0.337319
v -0.080230 0.158892 -0.407033
v -0.063262 0.033905 -0.348866
v -0.041416 0.053151 -0.417065
v 0.111132 0.180625 -0.287803
v 0.120451 0.202841 -0.353984
v 0.134660 0.057033 -0.322803
v 0.144115 0.088361 -0.377325
v -0.174614 0.098957 -0.426356
v -0.074658 0.150121 -0.409926
v -0.141454 0.035656 -0.430969
v -0.041498 0.086820 -0.414540
v -0.181971 0.089751 -0.352931
v -0.082015 0.140915 -0.336502
v -0.148811 0.026451 -0.357545
v -0.048855 0.077615 -0.341115
v 0.145260 0.159855 -0.397288
v 0.249533 0.115066 -0.397398
v 0.117834 0.096050 -0.414736
v 0.222107 0.051260 -0.414847
v 0.138173 0.143178 -0.325165
v 0.242446 0.098389 -0.325276
v 0.110747 0.079373 -0.342614
v 0.215020 0.034583 -0.342724
v -0.271974 0.017101 -0.411661
v -0.160866 0.109399 -0.425871
v -0.225514 -0.039995 -0.415363
v -0.115902 0.051215 -0.429699
v -0.263758 0.026009 -0.325397
v -0.149386 0.110518 -0.349864
v -0.220504 -0.034855 -0.330856
v -0.105017 0.051923 -0.353719
v 0.361943 0.034152 -0.313795
v 0.226088 0.106820 -0.324409
v 0.323029 -0.034570 -0.334612
v 0.199333 0.044434 -0.338985
v 0.374263 0.047078 -0.389520
v 0.244334 0.120282 -0.399297
v 0.331361 -0.021999 -0.410894
v 0.209953 0.059875 -0.412646
v -0.310710 -0.052851 -0.355776
v -0.308168 -0.049431 -0.436629
v -0.250376 -0.102230 -0.356787
v -0.248198 -0.096398 -0.435718
v -0.263020 0.007235 -0.350732
v -0.262429 0.011978 -0.430071
v -0.202424 -0.042047 -0.352051
v -0.201176 -0.035710 -0.430391
v 0.370012 -0.044414 -0.373847
v 0.338033 0.017936 -0.360438
v 0.346742 -0.089848 -0.343393
v 0.314763 -0.027498 -0.329983
v 0.335916 -0.043565 -0.411910
v 0.303937 0.018785 -0.398500
v 0.312646 -0.088999 -0.381455
v 0.280667 -0.026648 -0.368046
v -0.020769 0.174733 -0.393274
v -0.020769 0.198181 -0.487819
v -0.020769 0.080189 -0.416722
v -0.006990 0.121880 -0.506742
v 0.076640 0.174733 -0.393274
v 0.076640 0.198181 -0.487819
v 0.076640 0.080189 -0.416722
v 0.062861 0.121880 -0.506742
vt 0.903883 0.837327
vt 0.831779 0.837345
vt 0.831779 0.744360
vt 0.903883 0.744342
vt 0.562084 0.461384
vt 0.633891 0.461370
vt 0.633891 0.643262
vt 0.562084 0.643275
vt 0.821866 0.618042
vt 0.894002 0.618029
vt 0.894002 0.711013
vt 0.821866 0.711027
vt 0.390660 0.182128
vt 0.390660 0.000386
vt 0.483157 0.000000
vt 0.483157 0.181743
vt 0.643124 0.181897
vt 0.571026 0.181891
vt 0.571026 0.000000
vt 0.643124 0.000006
vt 0.118713 0.462042
vt 0.118713 0.586000
vt 0.000000 0.585978
vt 0.000000 0.462019
vt 0.083318 0.993301
vt 0.083318 0.894320
vt 0.131033 0.894316
vt 0.131033 0.993298
vt 0.386818 0.691360
vt 0.386818 0.629728
vt 0.444655 0.629729
vt 0.444655 0.691361
vt 0.995341 0.461379
vt 0.995341 0.559961
vt 0.947626 0.559952
vt 0.947626 0.461370
vt 0.951706 0.738329
vt 0.951706 0.837323
vt 0.903884 0.837345
vt 0.903884 0.738352
vt 0.831780 0.975360
vt 0.831780 0.927702
vt 0.878224 0.927144
vt 0.878224 0.974801
vt 0.540262 0.957900
vt 0.540262 0.910224
vt 0.587836 0.910026
vt 0.587836 0.957702
vt 0.947626 0.557061
vt 0.889840 0.557033
vt 0.889840 0.482643
vt 0.947626 0.461371
vt 0.266766 0.999256
vt 0.266766 0.906616
vt 0.314481 0.906649
vt 0.314481 0.999289
vt 0.990122 0.210964
vt 0.990122 0.309953
vt 0.942297 0.309940
vt 0.942297 0.210951
vt 0.999502 0.618029
vt 0.999502 0.712485
vt 0.951787 0.712512
vt 0.951787 0.618057
vt 0.938561 0.434398
vt 0.880743 0.413127
vt 0.880743 0.338744
vt 0.938561 0.338717
vt 0.266766 0.000000
vt 0.390659 0.000010
vt 0.390659 0.210951
vt 0.266766 0.210941
vt 0.889840 0.557061
vt 0.944978 0.557093
vt 0.944978 0.614929
vt 0.889840 0.614897
vt 0.957816 0.928651
vt 0.900031 0.929385
vt 0.900031 0.838080
vt 0.957816 0.837346
vt 0.083318 0.795251
vt 0.083318 0.696205
vt 0.131137 0.696227
vt 0.131137 0.795273
vt 0.131143 0.795282
vt 0.131143 0.894315
vt 0.083318 0.894306
vt 0.083318 0.795273
vt 0.885702 0.000000
vt 0.943465 0.000695
vt 0.943465 0.072947
vt 0.885702 0.072252
vt 0.643124 0.134684
vt 0.700888 0.135379
vt 0.700888 0.207631
vt 0.643124 0.206936
vt 0.265658 0.795489
vt 0.265658 0.894522
vt 0.217833 0.894513
vt 0.217833 0.795480
vt 0.252669 0.462874
vt 0.252669 0.586779
vt 0.133955 0.586746
vt 0.133955 0.462844
vt 0.133955 0.907405
vt 0.189093 0.907437
vt 0.189093 0.965274
vt 0.133955 0.965242
vt 0.880150 0.091094
vt 0.937968 0.112365
vt 0.937968 0.186749
vt 0.880150 0.186775
vt 0.894002 0.618763
vt 0.951787 0.618029
vt 0.951787 0.709334
vt 0.894002 0.710068
vt 0.217833 0.795458
vt 0.217833 0.696412
vt 0.265652 0.696434
vt 0.265652 0.795480
vt 0.884511 0.210951
vt 0.942298 0.210979
vt 0.942298 0.285369
vt 0.884511 0.306641
vt 0.000000 0.956107
vt 0.000000 0.908432
vt 0.047574 0.908233
vt 0.047574 0.955909
vt 0.986386 0.338730
vt 0.986386 0.437719
vt 0.938561 0.437706
vt 0.938561 0.338717
vt 0.398359 0.998157
vt 0.398359 0.905517
vt 0.446074 0.905550
vt 0.446074 0.998190
vt 0.587836 0.957702
vt 0.587836 0.910026
vt 0.633463 0.910606
vt 0.633463 0.958282
vt 0.398359 0.905517
vt 0.398359 0.999972
vt 0.350644 1.000000
vt 0.350644 0.905544
vt 0.788921 0.923615
vt 0.788921 0.971272
vt 0.742477 0.971831
vt 0.742477 0.924173
vt 0.937968 0.190111
vt 0.937968 0.091117
vt 0.985790 0.091094
vt 0.985790 0.190088
vt 0.999421 0.738338
vt 0.999421 0.836920
vt 0.951706 0.836911
vt 0.951706 0.738329
vt 0.800862 0.612737
vt 0.800862 0.551105
vt 0.858699 0.551106
vt 0.858699 0.612738
vt 0.217833 0.993508
vt 0.217833 0.894526
vt 0.265548 0.894523
vt 0.265548 0.993505
vt 0.266767 0.210974
vt 0.390160 0.210951
vt 0.390160 0.421892
vt 0.266767 0.421915
vt 0.000000 0.462018
vt 0.000000 0.251250
vt 0.118090 0.250758
vt 0.118090 0.461526
vt 0.133955 0.461883
vt 0.133955 0.251194
vt 0.251037 0.252155
vt 0.251037 0.462843
vt 0.643124 0.000022
vt 0.727482 0.000000
vt 0.727482 0.134662
vt 0.643124 0.134684
vt 0.390160 0.210951
vt 0.474512 0.210958
vt 0.474512 0.461362
vt 0.390160 0.461355
vt 0.641018 0.210967
vt 0.725414 0.210951
vt 0.725414 0.345613
vt 0.641018 0.345629
vt 0.474512 0.210966
vt 0.558523 0.210951
vt 0.558523 0.461355
vt 0.474512 0.461370
vt 0.000000 0.250758
vt 0.000000 0.000559
vt 0.133955 0.000000
vt 0.133955 0.250199
vt 0.266767 0.001090
vt 0.266767 0.251194
vt 0.133955 0.250104
vt 0.133955 0.000000
vt 0.713203 0.732992
vt 0.713203 0.851577
vt 0.633891 0.846250
vt 0.633891 0.727665
vt 0.809036 0.210951
vt 0.809036 0.338671
vt 0.725414 0.338717
vt 0.725414 0.210997
vt 0.725414 0.460811
vt 0.725414 0.341969
vt 0.805522 0.338717
vt 0.805522 0.457560
vt 0.083319 0.696455
vt 0.083319 0.824122
vt 0.000000 0.823873
vt 0.000000 0.696205
vt 0.540262 0.829430
vt 0.618006 0.829242
vt 0.618006 0.909837
vt 0.540262 0.910026
vt 0.266766 0.826020
vt 0.344881 0.825837
vt 0.344881 0.906433
vt 0.266766 0.906616
vt 0.821866 0.618029
vt 0.821866 0.740334
vt 0.742477 0.744342
vt 0.742477 0.622038
vt 0.800863 0.461429
vt 0.800863 0.589141
vt 0.717236 0.589083
vt 0.717236 0.461371
vt 0.350644 0.822173
vt 0.350644 0.700300
vt 0.430776 0.702889
vt 0.430776 0.824762
vt 0.810814 0.000000
vt 0.810814 0.127649
vt 0.727484 0.127929
vt 0.727484 0.000280
vt 0.807356 0.208677
vt 0.727484 0.208525
vt 0.727484 0.127929
vt 0.807356 0.128082
vt 0.350643 0.824762
vt 0.430204 0.824921
vt 0.430204 0.905516
vt 0.350643 0.905358
vt 0.217833 0.696411
vt 0.217833 0.822849
vt 0.133955 0.823299
vt 0.133955 0.696859
vt 0.571026 0.000000
vt 0.571026 0.168269
vt 0.483156 0.168357
vt 0.483156 0.000087
vt 0.350644 0.700300
vt 0.350644 0.825377
vt 0.266766 0.825837
vt 0.266766 0.700761
vt 0.386818 0.629286
vt 0.386818 0.461362
vt 0.474512 0.461804
vt 0.474512 0.629728
vt 0.633890 0.857536
vt 0.699793 0.851577
vt 0.699793 0.935017
vt 0.633890 0.940975
vt 0.452999 0.849059
vt 0.519421 0.858571
vt 0.519421 0.941300
vt 0.452999 0.931788
vt 0.633891 0.614037
vt 0.633891 0.461370
vt 0.717236 0.465363
vt 0.717236 0.618029
vt 0.266766 0.590224
vt 0.266766 0.421915
vt 0.354614 0.421990
vt 0.354614 0.590299
vt 0.558523 0.370734
vt 0.558523 0.217175
vt 0.641018 0.210951
vt 0.641018 0.364510
vt 0.474512 0.629899
vt 0.474512 0.461741
vt 0.562084 0.461371
vt 0.562084 0.629529
vt 0.000000 0.824122
vt 0.079256 0.824354
vt 0.079256 0.908233
vt 0.000000 0.908002
vt 0.213667 0.907405
vt 0.133955 0.907179
vt 0.133955 0.823300
vt 0.213667 0.823525
vt 0.630911 0.732253
vt 0.562084 0.738103
vt 0.562084 0.649126
vt 0.630911 0.643275
vt 0.647928 0.460137
vt 0.558523 0.460226
vt 0.558523 0.370824
vt 0.647928 0.370735
vt 0.810814 0.091094
vt 0.880150 0.100427
vt 0.880150 0.188646
vt 0.810814 0.179314
vt 0.629468 0.739555
vt 0.629468 0.828793
vt 0.540262 0.829243
vt 0.540262 0.740004
vt 0.831779 0.837345
vt 0.900030 0.837698
vt 0.900030 0.927144
vt 0.831779 0.926791
vt 0.742477 0.833822
vt 0.811426 0.834169
vt 0.811426 0.923615
vt 0.742477 0.923268
vt 0.880743 0.427628
vt 0.805521 0.432923
vt 0.805521 0.344012
vt 0.880743 0.338717
vt 0.742477 0.833787
vt 0.742477 0.744342
vt 0.831781 0.744376
vt 0.831781 0.833822
vt 0.647928 0.363869
vt 0.723492 0.372116
vt 0.723492 0.460226
vt 0.647928 0.451979
vt 0.889841 0.461370
vt 0.889841 0.550752
vt 0.800863 0.551105
vt 0.800863 0.461724
vt 0.885702 0.091094
vt 0.810814 0.089394
vt 0.810814 0.000000
vt 0.885702 0.001701
vt 0.884510 0.300376
vt 0.809036 0.301457
vt 0.809036 0.212032
vt 0.884510 0.210951
vt 0.109634 0.586029
vt 0.109634 0.695564
vt 0.021061 0.696205
vt 0.000000 0.586000
vt 0.742477 0.727664
vt 0.633892 0.712109
vt 0.633892 0.633490
vt 0.742477 0.618029
vt 0.133976 0.586778
vt 0.243080 0.607838
vt 0.243540 0.696412
vt 0.133955 0.696412
vt 0.452999 0.629919
vt 0.562084 0.629899
vt 0.562084 0.739534
vt 0.452999 0.739554
vt 0.266766 0.700300
vt 0.266766 0.590753
vt 0.375825 0.590299
vt 0.375825 0.699845
vt 0.452999 0.832853
vt 0.452999 0.754328
vt 0.540262 0.739555
vt 0.540262 0.849059
vn -1.0000 0.0000 0.0000
vn 0.0000 0.9706 0.2407
vn 1.0000 0.0000 0.0000
vn 0.0000 -0.2407 0.9706
vn 0.0000 -0.9706 -0.2407
vn 0.2109 -0.9727 0.0973
vn 0.0814 -0.7526 0.6534
vn -0.2560 0.9547 -0.1519
vn -0.9869 -0.1474 -0.0662
vn 0.1147 -0.8846 -0.4520
vn -0.1020 0.2465 0.9638
vn -0.9851 -0.1602 -0.0618
vn 0.0053 -0.5066 0.8621
vn -0.9772 -0.2114 0.0179
vn -0.0269 0.4871 -0.8729
vn 0.9851 0.1602 0.0618
vn -0.0241 0.4855 -0.8739
vn -0.1700 0.8594 0.4822
vn 0.9856 0.1584 0.0585
vn -0.0000 -0.1632 -0.9866
vn 0.1700 -0.8594 -0.4822
vn 0.9753 0.2206 -0.0136
vn 0.0000 0.9866 -0.1632
vn 0.0000 0.1632 0.9866
vn 0.0000 -0.9866 0.1632
vn 0.0000 -0.9822 -0.1878
vn 0.0000 0.2407 -0.9706
vn -0.8813 -0.2924 -0.3713
vn 0.1971 -0.9231 -0.3302
vn 0.9672 0.1397 0.2124
vn -0.2436 0.9449 0.2188
vn -0.1406 -0.2334 0.9622
vn 0.1900 0.1996 -0.9613
vn 0.0989 0.1238 -0.9874
vn 0.4631 -0.8840 -0.0644
vn -0.0989 -0.1238 0.9874
vn -0.4631 0.8840 0.0644
vn -0.8808 -0.4508 -0.1448
vn 0.8808 0.4508 0.1448
vn 0.0953 0.2243 -0.9699
vn -0.3830 -0.8910 -0.2437
vn -0.0953 -0.2243 0.9699
vn 0.3830 0.8910 0.2437
vn -0.9188 0.3947 0.0010
vn 0.9188 -0.3947 -0.0010
vn -0.1100 -0.0223 -0.9937
vn 0.6166 -0.7866 -0.0324
vn 0.1681 0.0465 0.9847
vn -0.6141 0.7888 0.0258
vn -0.7869 -0.6071 0.1109
vn 0.7843 0.6081 -0.1227
vn -0.1617 -0.1809 0.9701
vn -0.5314 -0.8180 -0.2200
vn 0.1504 0.1713 -0.9737
vn 0.4525 0.8583 0.2422
vn 0.8555 -0.5170 0.0295
vn -0.8845 0.4592 -0.0825
vn -0.6239 -0.7789 -0.0635
vn 0.7872 -0.6160 -0.0305
vn 0.6220 0.7805 0.0621
vn -0.7933 0.6086 0.0155
vn -0.0285 -0.0585 0.9979
vn 0.0506 0.0586 -0.9970
vn 0.6441 0.1700 0.7458
vn -0.6641 -0.4663 0.5845
vn -0.6441 -0.1700 -0.7458
vn 0.6641 0.4663 -0.5845
vn 0.5658 -0.6390 -0.5211
vn -0.5658 0.6390 0.5211
vn -0.9939 -0.0568 -0.0942
vn 0.0000 -0.9074 -0.4203
vn 0.9939 -0.0568 -0.0942
usemtl Materiais
s off
f 1/1/1 2/2/1 4/3/1 3/4/1
f 5/5/2 6/6/2 2/7/2 1/8/2
f 7/9/3 8/10/3 6/11/3 5/12/3
f 3/13/4 7/14/4 5/15/4 1/16/4
f 3/17/5 4/18/5 8/19/5 7/20/5
f 64/21/3 65/22/3 63/23/3 62/24/3
f 22/25/6 21/26/6 17/27/6 18/28/6
f 27/29/7 28/30/7 33/31/7 32/32/7
f 20/33/8 19/34/8 23/35/8 24/36/8
f 9/37/9 10/38/9 12/39/9 11/40/9
f 16/41/10 12/42/10 10/43/10 14/44/10
f 22/45/11 18/46/11 20/47/11 24/48/11
f 25/49/12 26/50/12 28/51/12 27/52/12
f 11/53/13 12/54/13 16/55/13 15/56/13
f 24/57/14 23/58/14 21/59/14 22/60/14
f 13/61/15 14/62/15 10/63/15 9/64/15
f 32/65/16 33/66/16 31/67/16 30/68/16
f 60/69/5 61/70/5 65/71/5 64/72/5
f 30/73/17 31/74/17 26/75/17 25/76/17
f 27/77/18 32/78/18 30/79/18 25/80/18
f 15/81/19 16/82/19 14/83/19 13/84/19
f 48/85/3 49/86/3 47/87/3 46/88/3
f 34/89/20 38/90/20 40/91/20 36/92/20
f 33/93/21 28/94/21 26/95/21 31/96/21
f 18/97/22 17/98/22 19/99/22 20/100/22
f 58/101/1 59/102/1 61/103/1 60/104/1
f 37/105/23 36/106/23 40/107/23 41/108/23
f 35/109/3 34/110/3 36/111/3 37/112/3
f 39/113/24 35/114/24 37/115/24 41/116/24
f 51/117/3 50/118/3 52/119/3 53/120/3
f 41/121/1 40/122/1 38/123/1 39/124/1
f 44/125/4 48/126/4 46/127/4 42/128/4
f 42/129/1 43/130/1 45/131/1 44/132/1
f 55/133/25 54/134/25 50/135/25 51/136/25
f 55/137/24 51/138/24 53/139/24 57/140/24
f 53/141/23 52/142/23 56/143/23 57/144/23
f 50/145/20 54/146/20 56/147/20 52/148/20
f 57/149/1 56/150/1 54/151/1 55/152/1
f 46/153/2 47/154/2 43/155/2 42/156/2
f 39/157/26 38/158/26 34/159/26 35/160/26
f 44/161/5 45/162/5 49/163/5 48/164/5
f 62/165/2 63/166/2 59/167/2 58/168/2
f 60/169/4 64/170/4 62/171/4 58/172/4
f 65/173/27 61/174/27 59/175/27 63/176/27
f 66/177/28 67/178/28 69/179/28 68/180/28
f 68/181/29 69/182/29 73/183/29 72/184/29
f 72/185/30 73/186/30 71/187/30 70/188/30
f 70/189/31 71/190/31 67/191/31 66/192/31
f 68/193/32 72/194/32 70/195/32 66/196/32
f 73/197/33 69/198/33 67/199/33 71/200/33
f 74/201/34 75/202/34 77/203/34 76/204/34
f 76/205/35 77/206/35 81/207/35 80/208/35
f 80/209/36 81/210/36 79/211/36 78/212/36
f 78/213/37 79/214/37 75/215/37 74/216/37
f 76/217/38 80/218/38 78/219/38 74/220/38
f 81/221/39 77/222/39 75/223/39 79/224/39
f 82/225/40 83/226/40 85/227/40 84/228/40
f 84/229/41 85/230/41 89/231/41 88/232/41
f 88/233/42 89/234/42 87/235/42 86/236/42
f 86/237/43 87/238/43 83/239/43 82/240/43
f 84/241/44 88/242/44 86/243/44 82/244/44
f 89/245/45 85/246/45 83/247/45 87/248/45
f 90/249/46 91/250/46 93/251/46 92/252/46
f 92/253/47 93/254/47 97/255/47 96/256/47
f 96/257/48 97/258/48 95/259/48 94/260/48
f 94/261/49 95/262/49 91/263/49 90/264/49
f 92/265/50 96/266/50 94/267/50 90/268/50
f 97/269/51 93/270/51 91/271/51 95/272/51
f 98/273/52 99/274/52 101/275/52 100/276/52
f 100/277/53 101/278/53 105/279/53 104/280/53
f 104/281/54 105/282/54 103/283/54 102/284/54
f 102/285/55 103/286/55 99/287/55 98/288/55
f 100/289/56 104/290/56 102/291/56 98/292/56
f 105/293/57 101/294/57 99/295/57 103/296/57
f 106/297/58 107/298/58 109/299/58 108/300/58
f 108/301/59 109/302/59 113/303/59 112/304/59
f 112/305/60 113/306/60 111/307/60 110/308/60
f 110/309/61 111/310/61 107/311/61 106/312/61
f 108/313/62 112/314/62 110/315/62 106/316/62
f 113/317/63 109/318/63 107/319/63 111/320/63
f 114/321/64 115/322/64 117/323/64 116/324/64
f 116/325/65 117/326/65 121/327/65 120/328/65
f 120/329/66 121/330/66 119/331/66 118/332/66
f 118/333/67 119/334/67 115/335/67 114/336/67
f 116/337/68 120/338/68 118/339/68 114/340/68
f 121/341/69 117/342/69 115/343/69 119/344/69
f 122/345/70 123/346/70 125/347/70 124/348/70
f 124/349/71 125/350/71 129/351/71 128/352/71
f 128/353/72 129/354/72 127/355/72 126/356/72
f 126/357/2 127/358/2 123/359/2 122/360/2
f 124/361/4 128/362/4 126/363/4 122/364/4
f 129/365/27 125/366/27 123/367/27 127/368/27
