# Blender v3.2.2 OBJ File: ''
# www.blender.org
mtllib spb.mtl
o Plano.001
frames: 1
v -0.315892 0.192400 0.259681
v 0.271728 0.192400 0.259681
v 0.271728 0.192400 -0.327939
v -0.315892 0.192400 -0.327939
v -0.022082 0.192400 -0.434986
v -0.022082 0.192400 0.366728
v 0.378775 0.192400 -0.034129
v -0.422939 0.192400 -0.034129
v -0.022082 0.192400 -0.034129
vt 0.395591 0.521301
vt 0.495040 0.521301
vt 0.495040 0.764567
vt 0.395591 0.764567
vt 0.594488 0.521301
vt 0.594488 0.764567
vt 0.594488 1.007833
vt 0.495040 1.007833
vt 0.395591 1.007833
vn 0.0000 1.0000 0.0000
usemtl Materiais.001
s 1
f 1/1/1 6/2/1 9/3/1 8/4/1
f 6/2/1 2/5/1 7/6/1 9/3/1
f 9/3/1 7/6/1 3/7/1 5/8/1
f 8/4/1 9/3/1 5/8/1 4/9/1
