# Blender v3.2.2 OBJ File: 'heli.blend'
# www.blender.org
mtllib tank.mtl
o Plane.002
frames: 1

v -0.031074 0.002357 -0.197757
v -0.034937 0.002357 -0.079831
v 0.034937 0.002357 -0.079831
v 0.035384 0.002357 -0.197757
v 0.001372 0.002498 -0.076303
v -0.005733 0.002355 -0.076857
v -0.005076 0.002357 -0.021423
v 0.000162 0.002357 -0.021423
vt 0.077844 0.977171
vt 0.098905 0.290217
vt 0.892259 0.275327
vt 0.922156 0.978723
vt 0.515798 0.261072
vt 0.431800 0.260811
vt 0.434962 0.018617
vt 0.504424 0.018777
vn 0.0000 1.0000 0.0000
vn -0.0052 0.9999 -0.0141
vn -0.0049 0.9999 -0.0149
vn -0.0116 0.9999 0.0012
vn -0.0017 0.9997 -0.0225
usemtl Material.005
s 1
f 1/1/1 2/2/1 3/3/1 4/4/1
f 5/5/2 6/6/3 7/7/4 8/8/4
f 3/3/5 2/2/5 6/6/3 5/5/2
