# Blender v3.2.2 OBJ File: 'terrenotopsp.blend'
# www.blender.org
mtllib terrenotopsp.mtl
o Grid
frames: 1
texture: 1
v -1.675657 1.599388 11.724728
v -1.675657 3.599388 11.724728
v -1.675657 1.599388 -31.370945
v -1.675657 3.599388 -31.370945
v 0.324343 1.599388 11.724728
v 0.324343 3.599388 11.724728
v 0.324343 1.599388 -31.370945
v 0.324343 3.599388 -31.370945
v -7.282030 1.599388 11.724728
v -7.282030 3.599388 11.724728
v -7.282030 1.599388 -31.370945
v -5.282030 1.599388 11.724728
v -5.282030 3.599388 11.724728
v -5.282030 1.599388 -31.370945
v -5.282030 3.599388 -31.370945
v 10.244774 1.599388 11.724728
v 10.244774 3.599388 11.724728
v 10.244774 1.599388 -31.370945
v 10.244774 3.599388 -31.370945
v 12.244774 1.599388 11.724728
v 12.244774 3.599388 11.724728
v 12.244774 1.599388 -31.370945
v 12.244774 3.599388 -31.370945
v 4.638401 1.599388 11.724728
v 4.638401 3.599388 11.724728
v 4.638401 1.599388 -31.370945
v 6.638401 1.599388 11.724728
v 6.638401 3.599388 11.724728
v 6.638401 1.599388 -31.370945
v 6.638401 3.599388 -31.370945
v 22.225351 1.599388 11.724728
v 22.225351 3.599388 11.724728
v 22.225351 1.599388 -31.370945
v 22.225351 3.599388 -31.370945
v 24.225351 1.599388 11.724728
v 24.225351 3.599388 11.724728
v 24.225351 1.599388 -31.370945
v 24.225351 3.599388 -31.370945
v 16.618979 1.599388 11.724728
v 16.618979 3.599388 11.724728
v 16.618979 1.599388 -31.370945
v 18.618979 1.599388 11.724728
v 18.618979 3.599388 11.724728
v 18.618979 1.599388 -31.370945
v 18.618979 3.599388 -31.370945
v 34.145782 1.599388 11.724728
v 34.145782 3.599388 11.724728
v 34.145782 1.599388 -31.370945
v 34.145782 3.599388 -31.370945
v 36.145782 1.599388 11.724728
v 36.145782 3.599388 11.724728
v 36.145782 1.599388 -31.370945
v 36.145782 3.599388 -31.370945
v 28.539408 1.599388 11.724728
v 28.539408 3.599388 11.724728
v 28.539408 1.599388 -31.370945
v 30.539408 1.599388 11.724728
v 30.539408 3.599388 11.724728
v 30.539408 1.599388 -31.370945
v 30.539408 3.599388 -31.370945
v 39.591610 3.599388 11.724728
v 39.591610 3.599388 -31.370945
v 41.591610 3.599388 11.724728
v 41.591610 3.599388 -31.370945
v 51.512043 1.599388 11.724728
v 51.512043 1.599388 -31.370945
v 53.512043 1.599388 11.724728
v 53.512043 1.599388 -31.370945
v 45.905666 1.599388 11.724728
v 45.905666 3.599388 11.724728
v 45.905666 1.599388 -31.370945
v 47.905666 1.599388 11.724728
v 47.905666 3.599388 11.724728
v 47.905666 1.599388 -31.370945
v 47.905666 3.599388 -31.370945
v 55.088718 3.588929 -3.709458
v 55.088718 4.242356 -3.709458
v 55.088718 3.588929 -5.709458
v 55.088718 4.242356 -5.709458
v -8.961836 3.588929 -3.709458
v -8.961836 4.242356 -3.709458
v -8.961836 3.588929 -5.709458
v -8.961836 4.242356 -5.709458
v 55.088718 3.588929 -15.242230
v 55.088718 4.242356 -15.242230
v 55.088718 3.588929 -17.242229
v 55.088718 4.242356 -17.242229
v -8.961836 3.588929 -15.242230
v -8.961836 4.242356 -15.242230
v -8.961836 3.588929 -17.242229
v -8.961836 4.242356 -17.242229
v 55.088718 3.588929 -25.931816
v 55.088718 4.242356 -25.931816
v 55.088718 3.588929 -27.931814
v 55.088718 4.242356 -27.931814
v -8.961836 3.588929 -25.931816
v -8.961836 4.242356 -25.931816
v -8.961836 3.588929 -27.931814
v -8.961836 4.242356 -27.931814
v 55.088718 3.588929 5.660278
v 55.088718 4.242356 5.660278
v 55.088718 3.588929 3.660279
v 55.088718 4.242356 3.660279
v -8.961836 3.588929 5.660278
v -8.961836 4.242356 5.660278
v -8.961836 3.588929 3.660279
v -8.961836 4.242356 3.660279
vt 0.128426 0.711126
vt 0.128426 0.873961
vt 0.873395 0.873961
vt 0.873395 0.711126
vt -0.001581 0.950287
vt -0.001581 0.981512
vt 0.472356 0.981512
vt 0.472356 0.950287
vt 0.946293 0.981512
vt 0.946293 0.950287
vt 0.156328 0.717845
vt 0.156328 0.880680
vt 0.901298 0.880680
vt 0.901298 0.717845
vt 0.895736 0.724098
vt 0.150766 0.724098
vt 0.150766 0.886933
vt 0.895736 0.886933
vt 0.936575 0.007292
vt 0.966279 0.007292
vt 0.966279 0.997778
vt 0.936575 0.997778
vt 0.107215 0.710127
vt 0.107215 0.872962
vt 0.852181 0.872962
vt 0.852181 0.710127
vt 0.905953 0.096076
vt 0.840895 0.096076
vt 0.840895 0.932938
vt 0.905953 0.932938
vt 0.117055 0.709244
vt 0.117055 0.872079
vt 0.862025 0.872079
vt 0.862025 0.709244
vt 0.143395 0.712373
vt 0.143395 0.875208
vt 0.888362 0.875208
vt 0.888362 0.712373
vt 0.116414 0.705658
vt 0.116414 0.868494
vt 0.861384 0.868493
vt 0.861384 0.705658
vt 0.183345 0.720544
vt 0.183345 0.883379
vt 0.928311 0.883379
vt 0.928311 0.720544
vt 0.896321 0.719634
vt 0.151355 0.719634
vt 0.151355 0.882469
vt 0.896321 0.882469
vt 0.989532 -0.008777
vt 0.953868 -0.008777
vt 0.953868 1.014034
vt 0.989532 1.014034
vt 0.080290 0.713166
vt 0.080290 0.876001
vt 0.825257 0.876001
vt 0.825257 0.713166
vt 0.765214 0.095812
vt 0.830551 0.095812
vt 0.830551 0.868979
vt 0.765214 0.868979
vt 0.129359 0.708912
vt 0.129359 0.871747
vt 0.874329 0.871747
vt 0.874329 0.708912
vt 0.893860 0.717631
vt 0.148894 0.717631
vt 0.148894 0.880466
vt 0.893860 0.880466
vt 0.850609 0.074666
vt 0.894355 0.074666
vt 0.894355 0.951434
vt 0.850609 0.951434
vt 0.718718 0.040785
vt 0.803202 0.040785
vt 0.803202 0.935607
vt 0.718718 0.935607
vt 0.135203 0.711705
vt 0.135203 0.874540
vt 0.880215 0.874540
vt 0.880215 0.711705
vt 0.890845 0.718299
vt 0.145833 0.718299
vt 0.145833 0.881134
vt 0.890845 0.881134
vt 0.933853 0.029184
vt 0.905041 0.029184
vt 0.905041 0.987683
vt 0.933853 0.987683
vt 0.897292 0.167208
vt 0.852969 0.167208
vt 0.852969 0.912787
vt 0.897292 0.912787
vt 0.755276 0.028582
vt 0.673176 0.028582
vt 0.673176 0.948053
vt 0.755276 0.948053
vt 0.732736 0.035769
vt 0.682724 0.035769
vt 0.682724 0.934367
vt 0.732736 0.934367
vt 0.761479 0.078180
vt 0.699849 0.078180
vt 0.699849 0.893719
vt 0.761479 0.893719
vt 1.897266 0.305636
vt 1.897266 0.336861
vt 1.865744 0.336861
vt 1.865744 0.305636
vt 0.552911 1.009843
vt 0.521686 1.009843
vt 0.521686 0.009843
vt 0.552911 0.009843
vt 1.897266 0.274411
vt 1.897266 0.305636
vt 1.865744 0.305636
vt 1.865744 0.274411
vt 0.536572 1.009843
vt 0.505346 1.009843
vt 0.505346 0.009843
vt 0.536572 0.009843
vt 0.485950 0.009843
vt 0.485955 1.009843
vt 0.591671 1.009843
vt 0.591671 0.009843
vt 0.599536 -0.000000
vt 0.599536 1.000000
vt 0.621862 1.000000
vt 0.621862 -0.000000
vt 1.865743 0.274411
vt 1.865743 0.305636
vt 1.834220 0.305636
vt 1.834220 0.274411
vt 0.539918 0.995078
vt 0.508693 0.995078
vt 0.508693 -0.004922
vt 0.539918 -0.004922
vt 1.865743 0.305636
vt 1.865743 0.336861
vt 1.834220 0.336861
vt 1.834220 0.305636
vt 0.515089 1.027069
vt 0.483863 1.027069
vt 0.483863 0.027069
vt 0.515089 0.027069
vt 0.486649 -0.009843
vt 0.486654 0.990157
vt 0.592370 0.990157
vt 0.592370 -0.009843
vt 0.640966 -0.002461
vt 0.640966 0.997539
vt 0.683743 0.997539
vt 0.683743 -0.002461
vt 1.928788 0.305636
vt 1.928788 0.336861
vt 1.897266 0.336861
vt 1.897266 0.305636
vt 0.535218 1.009843
vt 0.503993 1.009843
vt 0.503993 0.009843
vt 0.535218 0.009843
vt 1.960310 0.305636
vt 1.960310 0.336861
vt 1.928788 0.336861
vt 1.928788 0.305636
vt 0.541936 1.007382
vt 0.510711 1.007382
vt 0.510711 0.007382
vt 0.541936 0.007382
vt 0.475527 -0.007382
vt 0.475527 0.992618
vt 0.581243 0.992618
vt 0.581243 -0.007382
vt 0.480428 0.017225
vt 0.480428 1.017225
vt 0.586144 1.017225
vt 0.586144 0.017225
vt 1.960310 0.274411
vt 1.960310 0.305636
vt 1.928788 0.305636
vt 1.928788 0.274411
vt 0.560958 1.002461
vt 0.529732 1.002461
vt 0.529732 0.002461
vt 0.560958 0.002461
vt 1.928788 0.274411
vt 1.928788 0.305636
vt 1.897266 0.305636
vt 1.897266 0.274411
vt 0.536793 1.012304
vt 0.505567 1.012304
vt 0.505567 0.012304
vt 0.536793 0.012304
vt 0.482215 0.002461
vt 0.482215 1.002461
vt 0.587931 1.002461
vt 0.587931 0.002461
vt 0.627991 -0.000000
vt 0.627991 1.000000
vt 0.668588 1.000000
vt 0.668588 -0.000000
vn -1.0000 0.0000 0.0000
vn 0.0000 0.0000 -1.0000
vn 1.0000 0.0000 0.0000
vn 0.0000 0.0000 1.0000
vn 0.0000 -1.0000 0.0000
vn 0.0000 1.0000 0.0000
usemtl Material
s off
f 1/1/1 2/2/1 4/3/1 3/4/1
f 3/5/2 4/6/2 8/7/2 7/8/2
f 7/8/3 8/7/3 6/9/3 5/10/3
f 5/11/4 6/12/4 2/13/4 1/14/4
f 3/15/5 7/16/5 5/17/5 1/18/5
f 8/19/6 4/20/6 2/21/6 6/22/6
f 12/23/4 13/24/4 10/25/4 9/26/4
f 11/27/5 14/28/5 12/29/5 9/30/5
f 16/31/1 17/32/1 19/33/1 18/34/1
f 18/35/2 19/36/2 23/37/2 22/38/2
f 22/39/3 23/40/3 21/41/3 20/42/3
f 20/43/4 21/44/4 17/45/4 16/46/4
f 18/47/5 22/48/5 20/49/5 16/50/5
f 23/51/6 19/52/6 17/53/6 21/54/6
f 27/55/4 28/56/4 25/57/4 24/58/4
f 26/59/5 29/60/5 27/61/5 24/62/5
f 37/63/3 38/64/3 36/65/3 35/66/3
f 33/67/5 37/68/5 35/69/5 31/70/5
f 38/71/6 34/72/6 32/73/6 36/74/6
f 41/75/5 44/76/5 42/77/5 39/78/5
f 50/79/4 51/80/4 47/81/4 46/82/4
f 48/83/5 52/84/5 50/85/5 46/86/5
f 53/87/6 49/88/6 47/89/6 51/90/6
f 56/91/5 59/92/5 57/93/5 54/94/5
f 64/95/6 62/96/6 61/97/6 63/98/6
f 66/99/5 68/100/5 67/101/5 65/102/5
f 71/103/5 74/104/5 72/105/5 69/106/5
f 76/107/1 77/108/1 79/109/1 78/110/1
f 78/111/4 79/112/4 83/113/4 82/114/4
f 82/115/3 83/116/3 81/117/3 80/118/3
f 80/119/2 81/120/2 77/121/2 76/122/2
f 78/123/6 82/124/6 80/125/6 76/126/6
f 83/127/5 79/128/5 77/129/5 81/130/5
f 84/131/1 85/132/1 87/133/1 86/134/1
f 86/135/4 87/136/4 91/137/4 90/138/4
f 90/139/3 91/140/3 89/141/3 88/142/3
f 88/143/2 89/144/2 85/145/2 84/146/2
f 86/147/6 90/148/6 88/149/6 84/150/6
f 91/151/5 87/152/5 85/153/5 89/154/5
f 92/155/1 93/156/1 95/157/1 94/158/1
f 94/159/4 95/160/4 99/161/4 98/162/4
f 98/163/3 99/164/3 97/165/3 96/166/3
f 96/167/2 97/168/2 93/169/2 92/170/2
f 94/171/6 98/172/6 96/173/6 92/174/6
f 99/175/5 95/176/5 93/177/5 97/178/5
f 100/179/1 101/180/1 103/181/1 102/182/1
f 102/183/4 103/184/4 107/185/4 106/186/4
f 106/187/3 107/188/3 105/189/3 104/190/3
f 104/191/2 105/192/2 101/193/2 100/194/2
f 102/195/6 106/196/6 104/197/6 100/198/6
f 107/199/5 103/200/5 101/201/5 105/202/5
