# Blender v3.2.2 OBJ File: 'tiro.blend'
# www.blender.org
mtllib tiro.mtl
o Cube
frames: 1
texture: 1
v 0.079909 0.107146 -0.918009
v 0.144702 0.194025 -2.665094
v -0.079909 0.107146 -0.918009
v -0.144702 0.194025 -2.665094
v 0.025633 0.034370 -0.177376
v -0.025633 0.034370 -0.177376
v -0.107172 0.143703 -3.005003
v 0.107172 0.143703 -3.005003
vt 0.796541 0.666864
vt 0.680053 0.666864
vt 0.632826 0.108561
vt 0.843768 0.108561
vt 0.756980 0.903576
vt 0.719613 0.903576
vt 0.660181 0.000000
vt 0.816413 0.000000
vn 0.0000 0.9988 0.0497
vn 0.0000 0.9952 0.0978
vn 0.0000 0.9892 -0.1465
usemtl Material
s off
f 3/1/1 1/2/1 2/3/1 4/4/1
f 1/2/2 3/1/2 6/5/2 5/6/2
f 4/4/3 2/3/3 8/7/3 7/8/3
