# Blender v2.79 (sub 0) OBJ File: ''
# www.blender.org
mtllib tx2.mtl
o Cube
v 1.242887 -0.638570 -1.011527
v 1.250719 -0.646290 0.998152
v -1.190824 -0.620868 1.000000
v -1.190824 -0.620868 -1.000000
v 1.180153 0.604282 -0.998185
v 1.173226 0.591046 0.990061
v -1.170165 0.589990 0.980634
v -1.145875 0.594635 -0.995297
v 1.463796 -0.761547 -0.001164
v -0.022700 -0.742723 -1.300914
v 1.463331 0.089416 -1.226707
v -0.010096 -0.740906 1.276040
v 1.441506 0.051208 1.202889
v -1.458456 -0.760405 -0.000000
v -1.420162 0.054331 1.183193
v -1.377420 0.063648 -1.195953
v 1.458455 0.760405 0.000001
v -0.005853 0.767137 -1.280545
v 0.004326 0.754727 1.228172
v -1.458456 0.760405 -0.000000
v -0.109450 0.070201 -1.848752
v -2.050873 -0.001280 0.007375
v -0.048805 0.073017 1.778493
v 2.110912 0.076634 0.005988
v -0.000000 1.075374 0.000000
v 0.000000 -1.075375 -0.000000
v 1.362659 0.200232 -1.165866
v 1.354057 0.185764 1.148156
v -1.339633 0.195831 1.134880
v -1.291475 0.192767 -1.143849
v 1.357832 0.742866 0.516164
v -0.561931 0.720779 -1.191486
v -0.579884 0.701070 1.119883
v -1.362219 0.748472 -0.518128
v 1.362219 0.748472 -0.518127
v 0.602681 0.751498 -1.179356
v 0.606319 0.737459 1.155772
v -1.362219 0.748472 0.518127
v -0.933323 0.245437 -1.680818
v 0.737167 0.010418 -1.691202
v -0.089828 0.499316 -1.693382
v -1.872184 -0.006668 -0.503431
v -1.885369 0.025610 0.521435
v -1.861189 0.457471 -0.003507
v -0.903729 0.334618 1.513061
v 0.769067 -0.017853 1.630076
v -0.031293 0.485357 1.584630
v 2.023641 0.204583 0.246980
v 1.982725 0.177949 -0.235637
v 1.982517 0.360066 0.001451
v 0.005040 1.011545 0.639966
v 0.004535 1.016301 -0.646914
v 0.753260 1.029169 0.000000
v -0.753260 1.029169 -0.000000
v -0.670261 0.952447 -0.618100
v 0.707249 0.972750 -0.600599
v 0.707248 0.972750 0.600600
v 1.896887 0.186321 -0.220186
v 0.700838 0.427729 1.473092
v -1.719519 0.472071 0.471774
v 0.675837 0.460657 -1.536466
v -0.760164 0.237665 -1.654831
v -1.709747 0.455774 -0.477137
v -0.768432 0.270920 1.447439
v 1.916073 0.199827 0.221413
v -0.689354 0.947253 0.595675
v 1.388493 -0.750915 0.517992
v -0.610147 -0.741322 -1.177973
v -0.610109 -0.739652 1.167393
v -1.357202 -0.746395 -0.516495
v 1.386731 -0.752464 -0.522925
v 0.634648 -0.763081 -1.159503
v 0.638398 -0.769324 1.143300
v -1.357202 -0.746394 0.516495
v -0.751511 -1.021071 -0.000000
v 0.751511 -1.021071 -0.000000
v 0.000000 -1.011251 -0.636382
v -0.000000 -1.011251 0.636382
v 0.704648 -0.966055 0.601538
v 0.702112 -0.965014 -0.603131
v -0.697105 -0.962080 -0.601989
v -0.697106 -0.962080 0.601988
v 1.331259 -0.709980 0.766264
v -0.904531 -0.697681 -1.091241
v -0.905620 -0.697140 1.088353
v -1.283878 -0.698126 -0.765406
v 1.443399 -0.772948 -0.266151
v 0.299671 -0.762384 -1.261518
v 1.405514 -0.353905 -1.161662
v 0.318797 -0.772544 1.225529
v 1.410405 -0.369141 1.147434
v -1.418613 -0.768213 0.260763
v -1.357669 -0.340107 1.152779
v -1.339156 -0.349764 -1.159830
v -1.021384 -0.073034 -1.443677
v 0.329888 0.020267 -1.795898
v -0.062426 -0.386781 -1.657169
v -1.689754 -0.010931 -0.968602
v -1.980325 0.027955 0.291179
v -1.828267 -0.438062 0.009169
v -1.158226 0.012725 1.391903
v 0.373270 -0.001103 1.728781
v -0.029371 -0.381396 1.615929
v 1.734444 -0.007978 0.974273
v 2.074029 0.066483 -0.120717
v 1.868752 -0.436565 -0.000918
v -0.539983 0.089900 -1.839859
v 1.138893 -0.023114 -1.488031
v -1.985575 -0.013626 -0.248861
v -1.700058 0.015138 0.974868
v -0.471250 0.111104 1.750961
v 1.144008 -0.044157 1.445393
v 2.099337 0.087457 0.134188
v 1.748451 0.020717 -0.981627
v 1.439839 -0.769824 0.262188
v -0.322048 -0.751229 -1.273872
v -0.314919 -0.746505 1.254426
v -1.418613 -0.768213 -0.260764
v 1.329871 -0.709566 -0.775474
v 0.945633 -0.718823 -1.094519
v 0.949039 -0.725162 1.081481
v -1.283878 -0.698126 0.765405
v -2.455099 -0.147146 0.197540
v -2.485843 -0.194037 0.034971
v -2.434415 0.301917 -0.057858
v -2.423629 -0.204207 -0.123481
v -2.298670 -0.183181 -0.273019
v -2.327374 0.409269 0.237355
v -2.362553 -0.068037 0.351469
v -2.263738 0.299646 -0.339633
v -2.928580 -0.760677 0.256628
v -2.940062 -0.797307 0.117671
v -3.094759 -0.033424 -0.075574
v -2.888493 -0.817529 -0.018645
v -2.799295 -0.819354 -0.149145
v -3.034505 0.056220 0.179693
v -3.043234 -0.255908 0.267584
v -2.968986 -0.049906 -0.320829
v -3.956065 -1.793856 0.560564
v -4.720134 -1.078236 0.075182
v -3.582813 -2.083354 -0.453815
v -4.346881 -1.367733 -0.939197
v -3.327798 -1.090389 0.590474
v -4.049634 -0.325450 0.131561
v -2.972073 -1.375909 -0.429329
v -3.712161 -0.611559 -0.894967
v -3.755319 -2.098197 0.104116
v -4.451783 -1.482690 0.428059
v -4.691108 -1.221744 -0.490352
v -3.994644 -1.837251 -0.814296
v -3.137794 -1.843357 -0.496917
v -4.075871 -0.948265 -1.087971
v -2.925998 -1.283192 -0.577085
v -2.995568 -1.240151 0.136439
v -3.883534 -0.304751 -0.427352
v -3.349282 -0.938501 0.675249
v -3.592940 -1.489449 0.746010
v -4.523714 -0.595833 0.157256
v -4.489770 -0.583203 -0.585426
v -3.170562 -1.848248 0.247951
v -4.155601 -0.976311 0.706380
v -2.984275 -0.953173 0.049780
v -3.516166 -1.472256 -1.051878
v -4.385149 -1.838691 -0.201699
v -1.423463 1.505575 -2.117840
v -1.792047 1.339902 -1.872732
v -1.613880 1.329195 -1.800319
v -0.993760 1.407574 -2.236846
v -1.024803 1.561296 -2.278702
v -1.317645 1.799096 1.977264
v -1.639579 1.618157 1.865672
v -1.532023 1.590240 1.734929
v -0.841699 1.780134 1.944523
v -0.884311 1.930551 1.988172
v 2.467965 0.775487 1.128416
v 2.319383 0.535414 1.321255
v 2.429050 0.613018 -1.138700
v 2.302590 0.632175 -1.068680
v 2.211074 0.568882 1.236260
v 2.634535 0.665074 -0.850129
v 2.759875 0.718160 -0.522332
v 2.596482 0.622564 -0.504786
v 2.514368 0.804447 0.769648
v 2.623694 0.951387 0.863044
v 2.342653 0.176496 -0.017545
v 2.371445 0.181840 0.011780
v 2.255384 0.230587 0.009427
v 2.346472 0.183149 0.040613
v 2.282737 0.207213 0.067794
v 2.177106 0.185747 -0.044385
v 2.273123 0.191911 -0.046077
v 2.186618 0.194272 0.059502
vt 0.112320 0.276698
vt 0.146281 0.306492
vt 0.118546 0.300208
vt 0.147820 0.561249
vt 0.083280 0.563792
vt 0.098492 0.516325
vt 0.155504 0.505620
vt 0.419451 0.577226
vt 0.340564 0.567900
vt 0.327137 0.519610
vt 0.360861 0.491974
vt 0.132098 0.450177
vt 0.072400 0.482534
vt 0.040710 0.675630
vt 0.083280 0.670012
vt 0.098491 0.717480
vt 0.066919 0.746267
vt 0.217084 0.000378
vt 0.226204 0.045187
vt 0.230355 0.090284
vt 0.201946 0.093426
vt 0.174116 0.099608
vt 0.146330 0.104990
vt 0.118592 0.111261
vt 0.095268 0.085383
vt 0.068556 0.047912
vt 0.107703 0.037519
vt 0.137079 0.006565
vt 0.179454 0.009431
vt 0.462306 0.746089
vt 0.447086 0.708084
vt 0.628666 0.711633
vt 0.643601 0.746090
vt 0.282594 0.766946
vt 0.293108 0.810411
vt 0.256737 0.817535
vt 0.219950 0.822051
vt 0.215342 0.778122
vt 0.392554 0.046661
vt 0.365487 0.084884
vt 0.342350 0.110783
vt 0.314501 0.104715
vt 0.286661 0.099625
vt 0.258787 0.093437
vt 0.234522 0.045129
vt 0.243670 0.000226
vt 0.281379 0.009304
vt 0.318093 0.020719
vt 0.353039 0.037316
vt 0.095241 0.205727
vt 0.047410 0.201772
vt 0.000241 0.189665
vt 0.009274 0.164923
vt 0.021210 0.140399
vt 0.042333 0.096987
vt 0.054283 0.063138
vt 0.091474 0.089291
vt 0.112356 0.134767
vt 0.106183 0.158192
vt 0.099056 0.181514
vt 0.091416 0.322166
vt 0.054210 0.348303
vt 0.042276 0.314446
vt 0.021173 0.271021
vt 0.009247 0.246491
vt 0.000226 0.221742
vt 0.047405 0.209658
vt 0.099044 0.229943
vt 0.106159 0.253270
vt 0.040733 0.563071
vt 0.071777 0.611831
vt 0.025131 0.607042
vt 0.230301 0.321238
vt 0.226128 0.366334
vt 0.216986 0.411139
vt 0.179360 0.402068
vt 0.136984 0.404914
vt 0.107622 0.373945
vt 0.068479 0.363534
vt 0.095209 0.326076
vt 0.174065 0.311888
vt 0.201892 0.318083
vt 0.342307 0.300792
vt 0.365432 0.326702
vt 0.392481 0.364938
vt 0.352961 0.374265
vt 0.318007 0.390846
vt 0.281287 0.402243
vt 0.243573 0.411304
vt 0.234447 0.366396
vt 0.258735 0.318099
vt 0.286612 0.311923
vt 0.314454 0.306847
vt 0.282595 0.466860
vt 0.270248 0.506931
vt 0.212939 0.499789
vt 0.215344 0.455684
vt 0.366016 0.205791
vt 0.413774 0.210152
vt 0.466409 0.223463
vt 0.462019 0.234715
vt 0.464619 0.252042
vt 0.417597 0.316263
vt 0.405999 0.350442
vt 0.368572 0.323149
vt 0.348936 0.277283
vt 0.354635 0.253521
vt 0.361998 0.230015
vt 0.368624 0.088439
vt 0.406062 0.061165
vt 0.417643 0.095347
vt 0.464634 0.159586
vt 0.462025 0.176912
vt 0.466409 0.188165
vt 0.413773 0.201451
vt 0.362009 0.181566
vt 0.354656 0.158058
vt 0.348968 0.134294
vt 0.415934 0.642666
vt 0.340563 0.665907
vt 0.349244 0.616904
vt 0.412110 0.616004
vt 0.276221 0.562571
vt 0.212257 0.558690
vt 0.276221 0.671235
vt 0.212256 0.675115
vt 0.211800 0.616903
vt 0.279957 0.616903
vt 0.147820 0.672556
vt 0.071777 0.621973
vt 0.142316 0.616903
vt 0.168920 0.152763
vt 0.164376 0.205745
vt 0.292042 0.152606
vt 0.296632 0.205776
vt 0.230470 0.205761
vt 0.230442 0.149281
vt 0.292017 0.258944
vt 0.230415 0.262241
vt 0.212938 0.734017
vt 0.155502 0.728186
vt 0.327136 0.714197
vt 0.270247 0.726876
vt 0.473127 0.300379
vt 0.466860 0.274468
vt 0.495217 0.285769
vt 0.502091 0.292132
vt 0.910428 0.593604
vt 0.912662 0.584251
vt 0.966850 0.501167
vt 0.961042 0.518058
vt 0.360860 0.741833
vt 0.419450 0.656582
vt 0.293110 0.423395
vt 0.219952 0.411755
vt 0.256739 0.416271
vt 0.367287 0.477885
vt 0.355853 0.486891
vt 0.287174 0.468148
vt 0.309691 0.429036
vt 0.342474 0.447240
vt 0.785814 0.023233
vt 0.801961 0.043459
vt 0.750785 0.059369
vt 0.739068 0.047631
vt 0.054816 0.477348
vt 0.066921 0.487537
vt 0.040711 0.558174
vt 0.000226 0.534999
vt 0.024617 0.494923
vt 0.355852 0.746916
vt 0.287173 0.765658
vt 0.367286 0.755922
vt 0.342472 0.786567
vt 0.309689 0.804771
vt 0.132096 0.783628
vt 0.072399 0.751270
vt 0.211539 0.778148
vt 0.140248 0.786104
vt 0.205501 0.821886
vt 0.168699 0.817627
vt 0.132114 0.799019
vt 0.000226 0.698804
vt 0.054815 0.756457
vt 0.024616 0.738881
vt 0.803542 0.607468
vt 0.771462 0.639789
vt 0.723378 0.616257
vt 0.755734 0.584325
vt 0.025131 0.626761
vt 0.040733 0.670733
vt 0.863730 0.675550
vt 0.842143 0.707421
vt 0.661193 0.705260
vt 0.683087 0.675550
vt 0.205503 0.411919
vt 0.211541 0.455658
vt 0.140249 0.447701
vt 0.132116 0.434786
vt 0.168701 0.416178
vt 0.000226 0.887280
vt 0.013212 0.881007
vt 0.102850 0.928525
vt 0.089864 0.934797
vt 0.535684 0.266436
vt 0.551437 0.272360
vt 0.523596 0.286141
vt 0.516701 0.287732
vt 0.412110 0.617803
vt 0.415934 0.591142
vt 0.168894 0.258729
vt 0.749211 0.043139
vt 0.676558 0.046895
vt 0.675962 0.032971
vt 0.715188 0.632544
vt 0.642500 0.641243
vt 0.647607 0.627475
vt 0.822965 0.058081
vt 0.767967 0.067658
vt 0.795967 0.562137
vt 0.745949 0.555402
vt 0.845559 0.097571
vt 0.793436 0.107534
vt 0.769831 0.588972
vt 0.763098 0.613892
vt 0.826519 0.139356
vt 0.776510 0.132913
vt 0.762985 0.638983
vt 0.713130 0.648282
vt 0.702554 0.091693
vt 0.749237 0.554491
vt 0.687942 0.563933
vt 0.685022 0.538631
vt 0.781559 0.135813
vt 0.715230 0.139725
vt 0.722746 0.115269
vt 0.641271 0.654785
vt 0.445230 0.466830
vt 0.499827 0.420606
vt 0.529130 0.468288
vt 0.495527 0.514937
vt 0.544965 0.541038
vt 0.576252 0.482924
vt 0.614349 0.514220
vt 0.573706 0.606585
vt 0.589192 0.130985
vt 0.618032 0.189423
vt 0.571023 0.202216
vt 0.539497 0.155010
vt 0.546419 0.002533
vt 0.608495 0.000246
vt 0.606987 0.055882
vt 0.561251 0.071956
vt 0.627861 0.260084
vt 0.565474 0.257872
vt 0.704264 0.189250
vt 0.668154 0.240112
vt 0.656718 0.159874
vt 0.628804 0.433416
vt 0.663528 0.486193
vt 0.525511 0.411755
vt 0.588736 0.411755
vt 0.474841 0.070717
vt 0.511856 0.020343
vt 0.522002 0.100931
vt 0.475878 0.569046
vt 0.514565 0.599783
vt 0.462718 0.650251
vt 0.427059 0.597936
vt 0.560281 0.617694
vt 0.559811 0.674061
vt 0.497062 0.669518
vt 0.619845 0.067312
vt 0.606831 0.000226
vt 0.636872 0.000226
vt 0.588533 0.675099
vt 0.558127 0.674021
vt 0.419902 0.571688
vt 0.427360 0.500449
vt 0.471728 0.166922
vt 0.466860 0.096366
vt 0.540440 0.248240
vt 0.488185 0.200720
vt 0.705875 0.545845
vt 0.664659 0.494804
vt 0.733066 0.138590
vt 0.698297 0.194322
vt 0.646923 0.642021
vt 0.621348 0.653782
vt 0.650243 0.655176
vt 0.657732 0.013371
vt 0.677706 0.033609
vt 0.629580 0.751872
vt 0.643999 0.756578
vt 0.631679 0.792054
vt 0.612471 0.823567
vt 0.601197 0.812733
vt 0.448285 0.751872
vt 0.426512 0.675550
vt 0.607717 0.681249
vt 0.425785 0.827220
vt 0.419902 0.812733
vt 0.607080 0.827220
vt 0.644450 0.749699
vt 0.659010 0.745450
vt 0.685459 0.807176
vt 0.673849 0.817649
vt 0.655645 0.785545
vt 0.866012 0.812876
vt 0.859675 0.827169
vt 0.679122 0.821470
vt 0.825731 0.744927
vt 0.839563 0.751149
vt 0.645178 0.739228
vt 0.908626 0.477870
vt 0.913310 0.463951
vt 0.967822 0.482490
vt 0.936704 0.490426
vt 0.162202 0.908284
vt 0.162202 0.926985
vt 0.106804 0.942667
vt 0.131540 0.917444
vt 0.045919 0.868233
vt 0.848639 0.535127
vt 0.012401 0.993384
vt 0.003553 0.989562
vt 0.094576 0.994295
vt 0.111622 0.999775
vt 0.816637 0.520670
vt 0.112404 0.822502
vt 0.803993 0.513732
vt 0.895983 0.470931
vt 0.812628 0.411755
vt 0.903779 0.411755
vt 0.532808 0.285769
vt 0.525933 0.292132
vt 0.514012 0.290254
vt 0.504429 0.286141
vt 0.511324 0.287732
vt 0.476587 0.272360
vt 0.492340 0.266436
vt 0.470309 0.268122
vt 0.479835 0.267161
vt 0.502708 0.260535
vt 0.514012 0.263139
vt 0.525317 0.260535
vt 0.548189 0.267162
vt 0.557715 0.268122
vt 0.561164 0.274468
vt 0.554897 0.300379
vn -0.3530 -0.8381 0.4160
vn -0.2843 0.8534 0.4369
vn 0.7342 0.5071 0.4514
vn -0.3739 0.5837 0.7208
vn -0.6382 0.5384 -0.5503
vn -0.3253 -0.5223 -0.7883
vn -0.3533 -0.4262 -0.8328
vn 0.1999 0.3550 -0.9132
vn 0.2748 -0.5328 -0.8004
vn -0.7609 -0.5369 -0.3645
vn -0.7634 -0.5363 0.3599
vn -0.6059 0.7826 0.1430
vn -0.3149 -0.4469 0.8373
vn 0.2614 -0.5176 0.8147
vn 0.1307 0.7575 0.6396
vn 0.7917 -0.5047 0.3443
vn 0.7967 -0.4943 -0.3479
vn 0.6843 0.6496 -0.3313
vn 0.0735 0.9137 0.3998
vn 0.0642 0.9935 -0.0941
vn -0.3260 0.9371 -0.1245
vn -0.3225 -0.9407 -0.1055
vn 0.0709 -0.9926 -0.0991
vn 0.0537 -0.9334 0.3547
vn -0.0786 0.9906 -0.1118
vn -0.1183 0.9191 -0.3758
vn -0.3166 0.8547 -0.4115
vn 0.3444 0.9334 -0.1008
vn 0.3411 0.8563 -0.3879
vn 0.0831 0.9264 -0.3673
vn 0.3453 0.8428 0.4129
vn 0.3491 0.9309 0.1075
vn 0.0607 0.9933 0.0983
vn 0.3519 0.6641 0.6596
vn -0.1182 0.6285 0.7688
vn 0.7535 0.5021 -0.4244
vn 0.1895 0.3952 0.8988
vn 0.4796 0.4325 0.7635
vn 0.4551 0.6079 0.6506
vn 0.3692 -0.9264 0.0742
vn -0.6945 0.5120 0.5054
vn -0.6197 0.5731 0.5362
vn 0.1411 0.8003 -0.5827
vn 0.4717 0.6353 -0.6115
vn 0.4894 0.4441 -0.7505
vn -0.4868 0.6168 -0.6185
vn -0.2546 0.7733 -0.5807
vn -0.1154 0.5127 -0.8508
vn -0.7019 0.5032 -0.5041
vn -0.3617 0.0358 -0.9316
vn -0.6183 0.7684 -0.1650
vn -0.3794 -0.3647 0.8503
vn -0.1251 0.6668 0.7347
vn -0.2652 0.7162 0.6455
vn -0.2957 0.3832 0.8751
vn 0.4938 -0.2977 -0.8170
vn 0.6707 0.6717 0.3145
vn -0.1329 0.8982 0.4191
vn -0.0792 0.9895 0.1211
vn -0.3251 0.9373 0.1257
vn 0.0702 -0.9927 0.0982
vn 0.3151 -0.9449 0.0891
vn 0.3269 -0.8762 0.3542
vn 0.0610 -0.9350 -0.3495
vn 0.2696 -0.9143 -0.3024
vn 0.3109 -0.9463 -0.0889
vn -0.3571 -0.8358 -0.4169
vn -0.0788 -0.9312 -0.3558
vn -0.0733 -0.9921 -0.1019
vn -0.3225 -0.9407 0.1055
vn -0.0733 -0.9921 0.1019
vn -0.0756 -0.9261 0.3696
vn -0.2933 -0.8942 -0.3383
vn 0.3390 -0.8592 -0.3833
vn 0.2731 -0.9144 0.2988
vn -0.2897 -0.8941 0.3415
vn 0.7971 -0.6013 0.0549
vn 0.7198 -0.4612 0.5188
vn 0.2532 -0.9649 0.0692
vn -0.2728 0.9544 -0.1214
vn -0.3692 0.2395 0.8979
vn 0.4534 -0.8668 0.2074
vn -0.1559 0.9822 -0.1051
vn 0.4216 -0.8892 0.1779
vn 0.1618 -0.2625 0.9513
vn -0.4314 0.8598 -0.2733
vn -0.4339 0.8820 -0.1838
vn 0.7720 -0.5289 0.3525
vn 0.0336 -0.1833 -0.9825
vn -0.1954 0.2533 0.9475
vn -0.7038 -0.5816 -0.4079
vn 0.4542 0.2588 -0.8525
vn -0.7492 0.1371 0.6480
vn 0.7358 -0.1462 0.6613
vn -0.9398 0.3326 -0.0785
vn -0.4480 0.8929 -0.0460
vn -0.2297 0.7297 -0.6440
vn -0.7244 0.1694 -0.6682
vn 0.2059 -0.7355 0.6454
vn 0.4248 -0.9037 0.0532
vn 0.9518 -0.2986 0.0707
vn -0.3383 -0.2446 0.9087
vn 0.1468 0.0619 0.9872
vn -0.1283 0.6681 0.7329
vn 0.8413 0.0219 0.5401
vn 0.9910 -0.0868 0.1019
vn 0.7296 -0.3591 -0.5820
vn 0.2466 -0.6914 -0.6790
vn -0.1655 -0.3039 -0.9382
vn -0.3371 -0.9251 -0.1750
vn -0.5276 -0.7773 0.3427
vn -0.8943 -0.4339 0.1098
vn -0.1500 0.4785 0.8652
vn 0.6465 0.1767 -0.7421
vn -0.1860 0.8634 -0.4691
vn -0.3141 0.9417 -0.1206
vn 0.7731 -0.5117 0.3747
vn 0.8357 -0.4007 0.3756
vn 0.7093 -0.6010 0.3684
vn 0.6693 0.1362 0.7304
vn 0.2260 0.7142 0.6625
vn -0.0433 -0.4330 -0.9003
vn -0.4789 -0.4837 -0.7326
vn -0.5115 0.2906 0.8086
vn 0.5185 0.4982 0.6949
vn -0.0949 0.6917 -0.7159
vn -0.7334 0.1819 -0.6550
vn 0.2257 -0.2875 0.9308
vn 0.2908 0.3614 -0.8859
vn 0.0136 -0.2986 0.9543
vn -0.2169 0.9759 0.0240
vn -0.6454 0.7551 0.1157
vn 0.5691 -0.7796 0.2616
vn 0.5777 -0.8156 -0.0337
vn -0.1008 0.6992 -0.7078
vn 0.5064 -0.7112 -0.4877
vn 0.7356 -0.6742 0.0659
vn -0.1810 0.5225 -0.8332
vn -0.5048 0.8479 -0.1616
vn -0.4307 0.8672 0.2498
vn 0.1908 0.8285 -0.5265
vn 0.1758 0.9322 0.3164
vn 0.4969 -0.3121 0.8098
vn -0.0673 0.9913 -0.1131
vn 0.3870 -0.9080 0.1602
vn 0.3885 -0.9186 -0.0723
vn 0.0076 0.9988 -0.0484
vn 0.3756 0.6041 -0.7029
usemtl Material
s off
f 122/1/1 85/2/1 3/3/1
f 66/4/2 38/5/2 7/6/2 33/7/2
f 65/8/3 31/9/3 6/10/3 28/11/3
f 64/12/4 33/7/4 7/6/4 29/13/4
f 63/14/5 34/15/5 8/16/5 30/17/5
f 21/18/6 97/19/6 10/20/6 116/21/6 68/22/6 84/23/6 4/24/6 94/25/6 16/26/6 95/27/6 39/28/6 107/29/6
f 39/30/7 95/31/7 165/32/7 169/33/7
f 61/34/8 40/35/8 96/36/8 21/37/8 41/38/8
f 11/39/9 89/40/9 1/41/9 120/42/9 72/43/9 88/44/9 10/20/9 97/45/9 21/46/9 96/47/9 40/48/9 108/49/9
f 14/50/10 100/51/10 22/52/10 109/53/10 42/54/10 98/55/10 16/56/10 94/57/10 4/24/10 86/58/10 70/59/10 118/60/10
f 3/3/11 93/61/11 15/62/11 110/63/11 43/64/11 99/65/11 22/66/11 100/67/11 14/50/11 92/68/11 74/69/11 122/1/11
f 60/70/12 38/5/12 20/71/12 44/72/12
f 12/73/13 103/74/13 23/75/13 111/76/13 45/77/13 101/78/13 15/79/13 93/80/13 3/3/13 85/2/13 69/81/13 117/82/13
f 2/83/14 91/84/14 13/85/14 112/86/14 46/87/14 102/88/14 23/89/14 103/90/14 12/73/14 90/91/14 73/92/14 121/93/14
f 59/94/15 37/95/15 19/96/15 47/97/15
f 9/98/16 106/99/16 24/100/16 113/101/16 48/102/16 104/103/16 13/104/16 91/105/16 2/83/16 83/106/16 67/107/16 115/108/16
f 1/41/17 89/109/17 11/110/17 114/111/17 49/112/17 105/113/17 24/114/17 106/115/17 9/98/17 87/116/17 71/117/17 119/118/17
f 58/119/18 35/120/18 17/121/18 50/122/18
f 57/123/19 51/124/19 19/96/19 37/95/19
f 56/125/20 52/126/20 25/127/20 53/128/20
f 55/129/21 34/15/21 20/130/21 54/131/21
f 81/132/22 75/133/22 14/50/22 118/60/22 70/59/22
f 80/134/23 76/135/23 26/136/23 77/137/23
f 79/138/24 73/92/24 90/91/24 12/73/24 78/139/24
f 52/126/25 55/129/25 54/131/25 25/127/25
f 18/140/26 32/141/26 55/129/26 52/126/26
f 32/141/27 8/16/27 34/15/27 55/129/27
f 35/120/28 56/125/28 53/128/28 17/121/28
f 5/142/29 36/143/29 56/125/29 35/120/29
f 36/143/30 18/140/30 52/126/30 56/125/30
f 31/9/31 57/123/31 37/95/31 6/10/31
f 17/121/32 53/128/32 57/123/32 31/9/32
f 53/128/33 25/127/33 51/124/33 57/123/33
f 50/144/34 65/145/34 192/146/34 187/147/34
f 58/148/35 49/149/35 181/150/35 182/151/35
f 27/152/36 5/142/36 35/120/36 58/153/36
f 46/154/37 59/94/37 47/97/37 23/155/37 102/156/37
f 13/157/38 28/158/38 59/159/38 46/160/38 112/161/38
f 28/158/39 6/10/39 37/95/39 59/159/39
f 22/162/40 99/163/40 123/164/40 124/165/40
f 15/166/41 29/167/41 60/168/41 43/169/41 110/170/41
f 29/167/42 7/6/42 38/5/42 60/168/42
f 36/143/43 61/34/43 41/38/43 18/140/43
f 5/142/44 27/171/44 61/172/44 36/143/44
f 27/171/45 11/173/45 108/174/45 40/175/45 61/172/45
f 32/141/46 62/176/46 30/177/46 8/16/46
f 18/140/47 41/178/47 62/179/47 32/141/47
f 41/178/48 21/180/48 107/181/48 39/182/48 62/179/48
f 42/183/49 63/14/49 30/17/49 16/184/49 98/185/49
f 63/186/50 42/187/50 127/188/50 130/189/50
f 44/190/51 20/130/51 34/15/51 63/191/51
f 15/192/52 101/193/52 170/194/52 171/195/52
f 23/196/53 47/197/53 64/198/53 45/199/53 111/200/53
f 47/197/54 19/96/54 33/7/54 64/198/54
f 28/201/55 13/202/55 176/203/55 179/204/55
f 105/205/56 49/206/56 191/207/56 185/208/56
f 50/209/57 17/121/57 31/9/57 65/210/57
f 51/124/58 66/4/58 33/7/58 19/96/58
f 25/127/59 54/131/59 66/4/59 51/124/59
f 54/131/60 20/71/60 38/5/60 66/4/60
f 76/135/61 79/138/61 78/139/61 26/136/61
f 9/98/62 115/108/62 67/107/62 79/138/62 76/135/62
f 83/106/63 2/83/63 121/93/63
f 72/43/64 80/134/64 77/137/64 10/20/64 88/44/64
f 119/118/65 71/117/65 80/134/65 72/43/65 120/42/65
f 71/117/66 87/116/66 9/98/66 76/135/66 80/134/66
f 84/23/67 86/58/67 4/24/67
f 10/20/68 77/137/68 81/132/68 68/22/68 116/21/68
f 77/137/69 26/136/69 75/133/69 81/132/69
f 75/133/70 82/211/70 74/69/70 92/68/70 14/50/70
f 26/136/71 78/139/71 82/211/71 75/133/71
f 78/139/72 12/73/72 117/82/72 69/81/72 82/211/72
f 68/22/73 81/132/73 70/59/73 86/58/73 84/23/73
f 1/41/74 119/118/74 120/42/74
f 67/107/75 83/106/75 121/93/75 73/92/75 79/138/75
f 82/211/76 69/81/76 85/2/76 122/1/76 74/69/76
f 124/212/77 123/164/77 131/213/77 132/214/77
f 127/188/78 126/215/78 134/216/78 135/217/78
f 99/163/79 43/218/79 129/219/79 123/164/79
f 44/220/80 63/186/80 130/189/80 125/221/80
f 43/218/81 60/222/81 128/223/81 129/219/81
f 42/224/82 109/225/82 126/215/82 127/188/82
f 60/222/83 44/226/83 125/227/83 128/223/83
f 109/225/84 22/228/84 124/229/84 126/215/84
f 123/164/85 129/219/85 137/230/85 131/213/85
f 125/231/86 130/189/86 138/232/86 133/233/86
f 128/223/87 125/234/87 133/235/87 136/236/87
f 126/215/88 124/229/88 132/237/88 134/216/88
f 130/189/89 127/188/89 135/217/89 138/232/89
f 129/219/90 128/223/90 136/236/90 137/230/90
f 164/238/91 149/239/91 142/240/91 150/241/91
f 163/242/92 152/243/92 146/244/92 153/245/92
f 161/246/93 158/247/93 140/248/93 148/249/93
f 160/250/94 154/251/94 143/252/94 157/253/94
f 159/254/95 149/255/95 140/248/95 158/247/95
f 155/256/96 159/257/96 158/247/96 144/258/96
f 146/244/97 152/243/97 159/259/97 155/260/97
f 152/243/98 142/240/98 149/261/98 159/262/98
f 147/263/99 160/264/99 157/253/99 139/265/99
f 141/266/100 151/267/100 160/268/100 147/269/100
f 151/267/101 145/270/101 154/271/101 160/272/101
f 157/253/102 161/246/102 148/249/102 139/265/102
f 143/252/103 156/273/103 161/246/103 157/253/103
f 156/273/104 144/258/104 158/247/104 161/246/104
f 154/274/105 162/275/105 156/273/105 143/252/105
f 145/270/106 153/245/106 162/276/106 154/277/106
f 151/267/107 163/242/107 153/245/107 145/270/107
f 141/266/108 150/241/108 163/242/108 151/267/108
f 150/241/109 142/240/109 152/243/109 163/242/109
f 147/278/110 164/279/110 150/241/110 141/266/110
f 139/265/111 148/249/111 164/280/111 147/281/111
f 148/249/112 140/248/112 149/282/112 164/283/112
f 137/230/113 136/236/113 144/258/113 156/273/113
f 135/217/114 153/245/114 146/244/114 138/232/114
f 133/284/115 138/232/115 146/244/115 155/285/115
f 136/236/116 133/286/116 155/287/116 144/258/116
f 134/288/117 162/289/117 153/245/117 135/217/117
f 134/288/118 132/290/118 162/289/118
f 131/213/119 156/273/119 162/291/119 132/292/119
f 131/213/120 137/230/120 156/273/120
f 168/293/121 169/294/121 165/295/121 166/296/121 167/297/121
f 62/298/122 39/30/122 169/33/122 168/293/122
f 95/31/123 16/299/123 166/300/123 165/32/123
f 16/301/124 30/302/124 167/297/124 166/303/124
f 30/302/125 62/298/125 168/293/125 167/297/125
f 174/304/126 173/305/126 172/306/126 171/307/126 170/308/126
f 29/309/127 15/310/127 171/311/127 172/306/127
f 45/312/128 64/313/128 173/305/128 174/314/128
f 64/313/129 29/309/129 172/306/129 173/305/129
f 101/193/130 45/312/130 174/314/130 170/194/130
f 177/315/131 178/316/131 182/317/131 181/150/131 180/318/131
f 184/319/132 183/320/132 179/321/132 176/203/132 175/322/132
f 13/202/133 104/323/133 175/322/133 176/203/133
f 49/149/134 114/324/134 180/318/134 181/150/134
f 48/325/135 65/326/135 183/327/135 184/328/135
f 114/324/136 11/329/136 177/315/136 180/318/136
f 104/323/137 48/330/137 184/319/137 175/322/137
f 11/329/138 27/331/138 178/332/138 177/315/138
f 65/326/139 28/201/139 179/204/139 183/327/139
f 27/331/140 58/333/140 182/334/140 178/332/140
f 191/207/141 190/335/141 187/336/141 186/337/141 185/208/141
f 186/337/142 187/147/142 192/146/142 189/338/142 188/339/142
f 48/340/143 113/341/143 188/339/143 189/338/143
f 65/342/144 48/343/144 189/338/144 192/146/144
f 113/344/145 24/345/145 186/337/145 188/339/145
f 24/345/146 105/346/146 185/208/146 186/337/146
f 49/347/147 58/348/147 190/335/147 191/207/147
f 58/349/148 50/350/148 187/336/148 190/335/148
